<svg width="552" height="241" viewBox="0 0 552 241" fill="none" xmlns="http://www.w3.org/2000/svg">
<path d="M180.703 4.17188H380.218C389.055 4.17188 396.218 11.3353 396.218 20.1719V203.494H168.703C166.494 203.494 164.703 201.703 164.703 199.494V20.1719C164.703 11.3353 171.867 4.17188 180.703 4.17188Z" fill="#2F2F2F" stroke="#2F2F2F" stroke-width="8"/>
<circle cx="231.527" cy="207.496" r="29.4806" fill="#2F2F2F" stroke="#2F2F2F" stroke-width="8"/>
<path d="M397.641 32.3672H468.513C473.886 32.3672 479.032 34.5286 482.793 38.3646L540.008 96.7145C543.674 100.453 545.728 105.481 545.728 110.717V152.447V194.345C545.728 198.764 542.146 202.345 537.728 202.345H397.641" stroke="#2F2F2F" stroke-width="11"/>
<circle cx="478.77" cy="207.496" r="29.4806" fill="#2F2F2F" stroke="#2F2F2F" stroke-width="8"/>
<line x1="130.531" y1="67.9766" x2="6.03354" y2="67.9766" stroke="#2F2F2F" stroke-width="12" stroke-linecap="round"/>
<path d="M132.531 98.1719L33.651 98.1719" stroke="#2F2F2F" stroke-width="12" stroke-linecap="round"/>
<path d="M132.531 129.078L67.1315 129.078" stroke="#2F2F2F" stroke-width="12" stroke-linecap="round"/>
<path d="M500.017 56.8359H449.289C447.08 56.8359 445.289 58.6268 445.289 60.8359V97.9059C445.289 100.115 447.08 101.906 449.289 101.906H536.717" stroke="#2F2F2F" stroke-width="10" stroke-linecap="round" stroke-linejoin="round"/>
<path fill-rule="evenodd" clip-rule="evenodd" d="M280.462 77.3267C270.609 61.3178 244.406 67.9437 244.406 88.8199C244.406 102.437 253.448 114.402 262.171 122.814C266.567 127.049 270.956 130.46 274.243 132.809C275.886 133.984 277.259 134.898 278.23 135.517C278.715 135.827 279.089 136.066 279.353 136.228C279.485 136.305 279.582 136.368 279.651 136.41C279.686 136.432 279.713 136.446 279.734 136.46H279.741C279.79 136.488 279.838 136.516 279.894 136.544C280.081 136.629 280.275 136.671 280.462 136.671C280.656 136.671 280.851 136.629 281.031 136.544C281.086 136.523 281.135 136.495 281.183 136.46H281.19C281.211 136.446 281.232 136.432 281.274 136.41C281.343 136.368 281.447 136.305 281.572 136.228C281.835 136.066 282.217 135.827 282.695 135.517C283.659 134.898 285.032 133.984 286.682 132.809C289.969 130.46 294.358 127.056 298.754 122.814C307.477 114.402 316.518 102.444 316.518 88.8199C316.518 67.9437 290.315 61.3178 280.462 77.3267Z" fill="#D64315"/>
</svg>
