<svg width="3055" height="3055" viewBox="0 0 3055 3055" fill="none" xmlns="http://www.w3.org/2000/svg">
<g filter="url(#filter0_i_293_953)">
<circle cx="1527.5" cy="1527.5" r="1446.5" fill="#8DCEBE" fill-opacity="0.5"/>
</g>
<circle cx="1527.5" cy="1527.5" r="1487" stroke="#8DCEBE" stroke-opacity="0.3" stroke-width="81"/>
<path d="M1127.84 2828.55V2742H1104.59V2847H1175.39V2828.55H1127.84ZM1223.46 2786.55C1230.96 2786.55 1241.01 2790.3 1242.51 2800.2H1203.96C1206.66 2789.85 1216.26 2786.55 1223.46 2786.55ZM1248.36 2821.2C1242.96 2826.3 1235.01 2830.35 1227.06 2830.35C1212.81 2830.35 1203.96 2823.3 1203.51 2813.7H1265.46C1265.46 2783.1 1245.06 2768.4 1223.76 2768.4C1199.01 2768.4 1181.31 2786.25 1181.31 2808.9C1181.31 2830.8 1196.91 2848.65 1225.41 2848.65C1235.76 2848.65 1250.31 2845.5 1261.26 2833.5L1248.36 2821.2ZM1353.77 2770.05H1329.32L1310.42 2821.95L1291.67 2770.05H1267.22L1299.47 2847H1321.67L1353.77 2770.05ZM1379.6 2808.3C1379.6 2796.45 1386.5 2786.55 1398.8 2786.55C1410.95 2786.55 1419.5 2795.25 1419.5 2809.5C1419.5 2823.45 1410.35 2830.5 1399.4 2830.5C1387.1 2830.5 1379.6 2820.6 1379.6 2808.3ZM1418.9 2770.05V2780.55C1413.65 2773.5 1404.65 2768.4 1394.3 2768.4C1370.3 2768.4 1357.25 2786.55 1357.25 2808.15C1357.25 2830.65 1371.35 2848.65 1394.75 2848.65C1406 2848.65 1413.35 2843.7 1418.9 2835.75V2847H1441.25V2770.05H1418.9ZM1561.9 2838.3C1567.75 2844.15 1574.8 2848.65 1584.55 2848.65C1593.55 2848.65 1600.3 2844.45 1605.85 2838.9L1598.2 2824.05C1593.85 2828.7 1588.9 2829.6 1585.9 2829.6C1583.8 2829.6 1580.5 2828.25 1577.8 2825.7L1573 2820.6L1591.75 2794.35V2789.85H1571.35C1570.3 2791.2 1569.4 2793 1568.35 2794.35L1560.25 2805.75L1547.35 2791.35C1557.85 2785.35 1566.25 2776.05 1566.25 2765.25C1566.25 2751.9 1553.8 2740.35 1538.65 2740.35C1526.65 2740.35 1507.9 2747.4 1507.9 2765.1C1507.9 2773.2 1511.95 2780.7 1516.9 2786.7C1504.6 2792.85 1492.45 2802.45 1492.45 2818.2C1492.45 2837.4 1509.85 2848.65 1530.7 2848.65C1543 2848.65 1554.25 2844.75 1561.15 2837.55L1561.9 2838.3ZM1548.1 2821.95C1543.45 2827.35 1538.05 2830.35 1531.45 2830.35C1522.15 2830.35 1514.8 2824.95 1514.8 2817.15C1514.8 2809.8 1521.55 2803.8 1529.5 2800.95L1548.1 2821.95ZM1528.45 2766.3C1528.45 2761.5 1532.2 2757.3 1537.45 2757.3C1543.15 2757.3 1545.85 2762.1 1545.85 2766C1545.85 2770.65 1542.1 2774.85 1535.5 2778.9C1531.3 2774.4 1528.45 2770.35 1528.45 2766.3ZM1642.42 2742V2761.5H1671.97V2847H1694.92V2761.5H1724.77V2742H1642.42ZM1749.12 2770.05H1727.37V2847H1749.72V2805.15C1749.72 2794.95 1758.12 2790 1766.52 2790C1768.77 2790 1772.82 2790.3 1775.97 2791.05V2769C1773.57 2768.55 1772.82 2768.4 1770.27 2768.4C1763.52 2768.4 1751.67 2772.9 1749.12 2786.85V2770.05ZM1804.84 2808.3C1804.84 2796.45 1811.74 2786.55 1824.04 2786.55C1836.19 2786.55 1844.74 2795.25 1844.74 2809.5C1844.74 2823.45 1835.59 2830.5 1824.64 2830.5C1812.34 2830.5 1804.84 2820.6 1804.84 2808.3ZM1844.14 2770.05V2780.55C1838.89 2773.5 1829.89 2768.4 1819.54 2768.4C1795.54 2768.4 1782.49 2786.55 1782.49 2808.15C1782.49 2830.65 1796.59 2848.65 1819.99 2848.65C1831.24 2848.65 1838.59 2843.7 1844.14 2835.75V2847H1866.49V2770.05H1844.14ZM1959.07 2829.15H1913.47L1956.52 2783.25V2770.05H1883.02V2787.6H1924.12L1880.92 2833.95V2847H1959.07V2829.15Z" fill="white"/>
<defs>
<filter id="filter0_i_293_953" x="0" y="0" width="3055" height="3059" filterUnits="userSpaceOnUse" color-interpolation-filters="sRGB">
<feFlood flood-opacity="0" result="BackgroundImageFix"/>
<feBlend mode="normal" in="SourceGraphic" in2="BackgroundImageFix" result="shape"/>
<feColorMatrix in="SourceAlpha" type="matrix" values="0 0 0 0 0 0 0 0 0 0 0 0 0 0 0 0 0 0 127 0" result="hardAlpha"/>
<feOffset dy="4"/>
<feGaussianBlur stdDeviation="2"/>
<feComposite in2="hardAlpha" operator="arithmetic" k2="-1" k3="1"/>
<feColorMatrix type="matrix" values="0 0 0 0 0 0 0 0 0 0 0 0 0 0 0 0 0 0 0.25 0"/>
<feBlend mode="normal" in2="shape" result="effect1_innerShadow_293_953"/>
</filter>
</defs>
</svg>
