<svg width="270" height="217" viewBox="0 0 270 217" fill="none" xmlns="http://www.w3.org/2000/svg">
<g filter="url(#filter0_d_976_711)">
<g clip-path="url(#clip0_976_711)">
<mask id="mask0_976_711" style="mask-type:luminance" maskUnits="userSpaceOnUse" x="10" y="6" width="250" height="197">
<path d="M260 6H10V203H260V6Z" fill="white"/>
</mask>
<g mask="url(#mask0_976_711)">
<path d="M260 6H10V203H260V6Z" fill="#EDE6DE"/>
<path d="M173.322 -30.7694L197.648 -30.755C208.215 -30.7484 216.778 -22.1691 216.776 -11.5877L216.715 175.314L53.2246 175.232L53.2844 -11.6685C53.2866 -22.2553 61.8619 -30.8347 72.4361 -30.8281L93.7264 -30.817L102.281 -30.8115C105.544 -30.8092 108.187 -28.0391 108.187 -24.6249L108.185 -20.208C108.184 -16.7927 110.829 -14.0236 114.091 -14.0214L161.506 -13.9937C164.768 -13.9915 167.413 -16.7584 167.413 -20.1726L167.414 -24.5906C167.414 -28.0037 170.06 -30.7705 173.322 -30.7694Z" fill="url(#paint0_linear_976_711)"/>
<path opacity="0.1" d="M135 153.895C170.486 153.895 199.253 125.106 199.253 89.5927C199.253 54.0793 170.486 25.29 135 25.29C99.5148 25.29 70.748 54.0793 70.748 89.5927C70.748 125.106 99.5148 153.895 135 153.895Z" fill="#00FA9A"/>
<path opacity="0.1" d="M135 142.347C164.113 142.347 187.713 118.846 187.713 89.8552C187.713 60.8647 164.113 37.3633 135 37.3633C105.888 37.3633 82.2871 60.8647 82.2871 89.8552C82.2871 118.846 105.888 142.347 135 142.347Z" fill="#00FA9A"/>
<path opacity="0.1" d="M135.166 132.6C158.485 132.6 177.389 113.682 177.389 90.3444C177.389 67.0071 158.485 48.0884 135.166 48.0884C111.847 48.0884 92.9434 67.0071 92.9434 90.3444C92.9434 113.682 111.847 132.6 135.166 132.6Z" fill="#00FA9A"/>
<path d="M135 105.961C143.71 105.961 150.771 98.8943 150.771 90.1774C150.771 81.4605 143.71 74.394 135 74.394C126.289 74.394 119.229 81.4605 119.229 90.1774C119.229 98.8943 126.289 105.961 135 105.961Z" fill="#00FA9A"/>
<path fill-rule="evenodd" clip-rule="evenodd" d="M136.636 88.1739L135.536 87.0726V89.2747L136.636 88.1739ZM136.636 92.7499L135.536 93.8513V91.6492L136.636 92.7499ZM131.969 88.0634L134.357 90.4695L131.969 92.8604L132.66 93.552L134.577 91.6492V96.2258L138.034 92.7657L135.74 90.4695L138.018 88.1739L134.562 84.7139V89.2747L132.66 87.3713L131.969 88.0634Z" fill="#2F2F2F"/>
<path d="M96.1641 141.036V128.841H101.3C102.106 128.841 102.793 128.983 103.36 129.267C103.938 129.54 104.38 129.933 104.685 130.445C105.001 130.948 105.159 131.559 105.159 132.279C105.159 132.835 105.007 133.359 104.701 133.85C104.407 134.33 103.933 134.729 103.279 135.045V134.014C103.878 134.243 104.353 134.526 104.701 134.865C105.05 135.203 105.296 135.58 105.437 135.994C105.579 136.409 105.65 136.845 105.65 137.304C105.65 138.471 105.263 139.388 104.489 140.053C103.725 140.708 102.662 141.036 101.3 141.036H96.1641ZM98.3884 139.071H101.529C102.106 139.071 102.564 138.913 102.902 138.597C103.251 138.269 103.426 137.839 103.426 137.304C103.426 136.769 103.251 136.338 102.902 136.011C102.564 135.683 102.106 135.52 101.529 135.52H98.3884V139.071ZM98.3884 133.572H101.414C101.872 133.572 102.237 133.441 102.51 133.179C102.783 132.906 102.919 132.557 102.919 132.131C102.919 131.706 102.783 131.367 102.51 131.117C102.237 130.866 101.872 130.74 101.414 130.74H98.3884V133.572ZM107.292 141.036V128.645H109.435V141.036H107.292ZM114.586 141.232C113.899 141.232 113.299 141.079 112.787 140.774C112.285 140.468 111.898 140.042 111.626 139.497C111.364 138.952 111.233 138.313 111.233 137.582V132.131H113.376V137.402C113.376 137.773 113.446 138.1 113.588 138.384C113.741 138.657 113.953 138.875 114.226 139.039C114.509 139.191 114.826 139.268 115.175 139.268C115.523 139.268 115.834 139.191 116.107 139.039C116.38 138.875 116.592 138.651 116.745 138.368C116.897 138.084 116.974 137.746 116.974 137.353V132.131H119.116V141.036H117.088V139.284L117.268 139.595C117.061 140.141 116.717 140.55 116.238 140.823C115.769 141.096 115.218 141.232 114.586 141.232ZM125.328 141.232C124.412 141.232 123.61 141.024 122.923 140.61C122.237 140.196 121.702 139.633 121.321 138.924C120.939 138.215 120.748 137.429 120.748 136.567C120.748 135.672 120.939 134.881 121.321 134.194C121.713 133.495 122.242 132.945 122.907 132.541C123.583 132.137 124.335 131.935 125.164 131.935C125.862 131.935 126.473 132.05 126.996 132.279C127.53 132.508 127.982 132.824 128.353 133.228C128.724 133.632 129.008 134.096 129.204 134.619C129.4 135.132 129.498 135.689 129.498 136.289C129.498 136.441 129.487 136.6 129.466 136.764C129.454 136.927 129.427 137.069 129.384 137.189H122.515V135.552H128.173L127.159 136.322C127.258 135.819 127.23 135.372 127.078 134.979C126.936 134.587 126.696 134.276 126.358 134.046C126.031 133.817 125.633 133.703 125.164 133.703C124.717 133.703 124.319 133.817 123.97 134.046C123.621 134.264 123.354 134.592 123.169 135.029C122.994 135.454 122.929 135.973 122.973 136.583C122.929 137.129 122.999 137.615 123.185 138.04C123.381 138.455 123.665 138.777 124.036 139.006C124.417 139.235 124.853 139.35 125.344 139.35C125.835 139.35 126.249 139.246 126.587 139.039C126.936 138.831 127.208 138.553 127.405 138.204L129.138 139.055C128.964 139.481 128.691 139.857 128.321 140.184C127.95 140.512 127.508 140.768 126.996 140.954C126.494 141.139 125.938 141.232 125.328 141.232ZM135.178 141.134C134.175 141.134 133.395 140.861 132.839 140.315C132.294 139.759 132.022 138.978 132.022 137.975V134.046H130.484V132.131H130.648C131.084 132.131 131.422 132.017 131.662 131.788C131.902 131.559 132.022 131.226 132.022 130.789V130.102H134.164V132.131H136.208V134.046H134.164V137.86C134.164 138.155 134.213 138.406 134.311 138.613C134.421 138.821 134.584 138.978 134.802 139.088C135.031 139.197 135.32 139.251 135.669 139.251C135.745 139.251 135.832 139.246 135.93 139.235C136.04 139.224 136.143 139.213 136.241 139.202V141.036C136.089 141.057 135.914 141.079 135.718 141.101C135.522 141.123 135.342 141.134 135.178 141.134ZM142.149 141.232C141.277 141.232 140.481 141.03 139.761 140.626C139.053 140.222 138.485 139.672 138.06 138.973C137.646 138.275 137.439 137.478 137.439 136.583C137.439 135.689 137.646 134.892 138.06 134.194C138.485 133.495 139.053 132.945 139.761 132.541C140.47 132.137 141.266 131.935 142.149 131.935C143.021 131.935 143.812 132.137 144.52 132.541C145.229 132.945 145.791 133.495 146.205 134.194C146.63 134.881 146.843 135.678 146.843 136.583C146.843 137.478 146.63 138.275 146.205 138.973C145.78 139.672 145.213 140.222 144.504 140.626C143.796 141.03 143.01 141.232 142.149 141.232ZM142.149 139.268C142.628 139.268 143.048 139.153 143.408 138.924C143.779 138.695 144.068 138.379 144.275 137.975C144.493 137.56 144.602 137.096 144.602 136.583C144.602 136.06 144.493 135.601 144.275 135.209C144.068 134.805 143.779 134.488 143.408 134.259C143.048 134.019 142.628 133.899 142.149 133.899C141.658 133.899 141.228 134.019 140.857 134.259C140.486 134.488 140.192 134.805 139.974 135.209C139.766 135.601 139.663 136.06 139.663 136.583C139.663 137.096 139.766 137.56 139.974 137.975C140.192 138.379 140.486 138.695 140.857 138.924C141.228 139.153 141.658 139.268 142.149 139.268ZM152.818 141.232C151.946 141.232 151.15 141.03 150.43 140.626C149.721 140.222 149.155 139.672 148.73 138.973C148.315 138.275 148.108 137.478 148.108 136.583C148.108 135.689 148.315 134.892 148.73 134.194C149.155 133.495 149.721 132.945 150.43 132.541C151.139 132.137 151.935 131.935 152.818 131.935C153.69 131.935 154.481 132.137 155.19 132.541C155.898 132.945 156.46 133.495 156.874 134.194C157.3 134.881 157.512 135.678 157.512 136.583C157.512 137.478 157.3 138.275 156.874 138.973C156.449 139.672 155.882 140.222 155.173 140.626C154.464 141.03 153.679 141.232 152.818 141.232ZM152.818 139.268C153.298 139.268 153.718 139.153 154.078 138.924C154.448 138.695 154.737 138.379 154.944 137.975C155.162 137.56 155.272 137.096 155.272 136.583C155.272 136.06 155.162 135.601 154.944 135.209C154.737 134.805 154.448 134.488 154.078 134.259C153.718 134.019 153.298 133.899 152.818 133.899C152.328 133.899 151.897 134.019 151.526 134.259C151.155 134.488 150.861 134.805 150.643 135.209C150.436 135.601 150.332 136.06 150.332 136.583C150.332 137.096 150.436 137.56 150.643 137.975C150.861 138.379 151.155 138.695 151.526 138.924C151.897 139.153 152.328 139.268 152.818 139.268ZM163.033 141.134C162.03 141.134 161.251 140.861 160.694 140.315C160.149 139.759 159.877 138.978 159.877 137.975V134.046H158.339V132.131H158.503C158.939 132.131 159.277 132.017 159.517 131.788C159.757 131.559 159.877 131.226 159.877 130.789V130.102H162.019V132.131H164.064V134.046H162.019V137.86C162.019 138.155 162.068 138.406 162.166 138.613C162.276 138.821 162.439 138.978 162.657 139.088C162.886 139.197 163.175 139.251 163.524 139.251C163.6 139.251 163.687 139.246 163.786 139.235C163.895 139.224 163.998 139.213 164.096 139.202V141.036C163.944 141.057 163.769 141.079 163.573 141.101C163.377 141.123 163.197 141.134 163.033 141.134ZM165.733 141.036V128.645H167.876V133.883L167.581 133.572C167.789 133.037 168.127 132.634 168.595 132.361C169.075 132.077 169.631 131.935 170.263 131.935C170.918 131.935 171.496 132.077 171.997 132.361C172.51 132.644 172.908 133.043 173.191 133.555C173.475 134.058 173.616 134.641 173.616 135.307V141.036H171.474V135.814C171.474 135.421 171.398 135.083 171.245 134.799C171.092 134.516 170.88 134.297 170.607 134.145C170.345 133.981 170.034 133.899 169.675 133.899C169.326 133.899 169.015 133.981 168.742 134.145C168.47 134.297 168.258 134.516 168.105 134.799C167.952 135.083 167.876 135.421 167.876 135.814V141.036H165.733ZM56.0291 170.849V163.01H56.8702V170.059H60.3398V170.849H56.0291ZM61.499 170.849V165.209H62.2875V170.849H61.499ZM61.499 164.167V163.01H62.2875V164.167H61.499ZM66.5722 173.164C66.1867 173.164 65.8292 173.104 65.4997 172.985C65.1773 172.865 64.8969 172.701 64.6586 172.49C64.4273 172.287 64.2486 172.048 64.1224 171.775L64.8479 171.385C64.96 171.652 65.1598 171.883 65.4472 172.08C65.7345 172.276 66.1025 172.374 66.5511 172.374C66.8946 172.374 67.21 172.308 67.4974 172.174C67.7848 172.041 68.0161 171.845 68.1913 171.585C68.3666 171.326 68.4544 171.006 68.4544 170.628V169.376L68.5806 169.491C68.3841 169.898 68.0932 170.214 67.7077 170.438C67.3222 170.656 66.9016 170.764 66.446 170.764C65.9203 170.764 65.4472 170.638 65.0266 170.386C64.606 170.133 64.2731 169.793 64.0278 169.365C63.7895 168.93 63.6703 168.45 63.6703 167.923C63.6703 167.39 63.7895 166.91 64.0278 166.482C64.2731 166.054 64.6025 165.714 65.0161 165.461C65.4367 165.209 65.9133 165.082 66.446 165.082C66.9016 165.082 67.3152 165.188 67.6866 165.398C68.0652 165.609 68.3631 165.893 68.5806 166.25L68.4544 166.471V165.209H69.243V170.628C69.243 171.112 69.1273 171.543 68.896 171.922C68.6717 172.308 68.356 172.609 67.9495 172.827C67.55 173.051 67.0909 173.164 66.5722 173.164ZM66.4881 169.975C66.8525 169.975 67.182 169.884 67.4764 169.702C67.7708 169.512 68.0056 169.263 68.1808 168.955C68.3631 168.639 68.4544 168.295 68.4544 167.923C68.4544 167.552 68.3631 167.211 68.1808 166.903C68.0056 166.587 67.7708 166.338 67.4764 166.156C67.182 165.966 66.8525 165.872 66.4881 165.872C66.1166 165.872 65.7801 165.966 65.4787 166.156C65.1773 166.338 64.939 166.584 64.7638 166.892C64.5955 167.201 64.5114 167.545 64.5114 167.923C64.5114 168.295 64.5955 168.639 64.7638 168.955C64.939 169.263 65.1738 169.512 65.4682 169.702C65.7696 169.884 66.1095 169.975 66.4881 169.975ZM72.8609 170.975C72.4684 170.975 72.1109 170.884 71.7885 170.701C71.4661 170.512 71.2103 170.252 71.021 169.923C70.8388 169.586 70.7476 169.2 70.7476 168.765V165.209H71.5362V168.67C71.5362 168.972 71.5958 169.239 71.7149 169.47C71.8411 169.695 72.0128 169.87 72.2301 169.996C72.4544 170.123 72.7102 170.186 72.9976 170.186C73.285 170.186 73.5409 170.123 73.7652 169.996C73.9895 169.863 74.1647 169.677 74.2909 169.439C74.417 169.193 74.4801 168.902 74.4801 168.565V165.209H75.2687V170.849H74.4801V169.754L74.6588 169.796C74.5257 170.161 74.2979 170.449 73.9754 170.659C73.653 170.87 73.2815 170.975 72.8609 170.975ZM79.4556 170.975C78.9299 170.975 78.4532 170.849 78.0257 170.596C77.6051 170.337 77.2722 169.982 77.0268 169.533C76.7815 169.084 76.6588 168.576 76.6588 168.008C76.6588 167.439 76.778 166.938 77.0163 166.503C77.2546 166.061 77.5771 165.714 77.9836 165.461C78.3972 165.209 78.8598 165.082 79.3715 165.082C79.778 165.082 80.139 165.16 80.4544 165.314C80.7768 165.461 81.0502 165.665 81.2745 165.924C81.4988 166.177 81.6705 166.464 81.7897 166.787C81.9088 167.103 81.9684 167.429 81.9684 167.766C81.9684 167.836 81.9649 167.916 81.9579 168.008C81.9509 168.092 81.9404 168.179 81.9264 168.271H77.1635V167.534H81.4743L81.0958 167.85C81.1588 167.464 81.1133 167.12 80.9591 166.819C80.8119 166.51 80.5981 166.268 80.3177 166.093C80.0374 165.91 79.7219 165.819 79.3715 165.819C79.021 165.819 78.6951 165.91 78.3937 166.093C78.0993 166.275 77.868 166.531 77.6997 166.861C77.5315 167.183 77.4649 167.569 77.5 168.018C77.4649 168.467 77.535 168.86 77.7102 169.197C77.8925 169.526 78.1378 169.782 78.4462 169.965C78.7617 170.147 79.0981 170.238 79.4556 170.238C79.8691 170.238 80.2161 170.14 80.4965 169.944C80.7768 169.747 81.0046 169.502 81.1799 169.207L81.8528 169.565C81.7406 169.817 81.5689 170.052 81.3376 170.27C81.1063 170.48 80.8294 170.652 80.507 170.785C80.1916 170.912 79.8411 170.975 79.4556 170.975ZM83.3271 168.397V167.66H87.007V168.397H83.3271ZM91.2342 170.975C90.7015 170.975 90.2178 170.849 89.7833 170.596C89.3487 170.337 89.0017 169.986 88.7424 169.544C88.49 169.095 88.3639 168.586 88.3639 168.018C88.3639 167.457 88.49 166.955 88.7424 166.513C88.9947 166.072 89.3347 165.724 89.7622 165.472C90.1968 165.212 90.6875 165.082 91.2342 165.082C91.7809 165.082 92.2681 165.209 92.6956 165.461C93.1302 165.714 93.4702 166.061 93.7155 166.503C93.9678 166.945 94.094 167.45 94.094 168.018C94.094 168.593 93.9643 169.105 93.705 169.554C93.4456 169.996 93.0987 170.344 92.6641 170.596C92.2365 170.849 91.7599 170.975 91.2342 170.975ZM91.2342 170.186C91.6127 170.186 91.9526 170.091 92.2541 169.902C92.5625 169.712 92.8043 169.453 92.9795 169.123C93.1618 168.793 93.2529 168.425 93.2529 168.018C93.2529 167.611 93.1618 167.247 92.9795 166.924C92.8043 166.601 92.5625 166.345 92.2541 166.156C91.9526 165.966 91.6127 165.872 91.2342 165.872C90.8557 165.872 90.5122 165.966 90.2038 166.156C89.9024 166.345 89.6606 166.601 89.4784 166.924C89.2961 167.247 89.205 167.611 89.205 168.018C89.205 168.425 89.2961 168.793 89.4784 169.123C89.6606 169.453 89.9024 169.712 90.2038 169.902C90.5122 170.091 90.8557 170.186 91.2342 170.186ZM97.271 172.953V165.209H98.0595V166.471L97.9334 166.25C98.1577 165.893 98.4556 165.609 98.8271 165.398C99.2056 165.188 99.6367 165.082 100.12 165.082C100.653 165.082 101.126 165.212 101.54 165.472C101.96 165.724 102.29 166.072 102.528 166.513C102.773 166.955 102.896 167.46 102.896 168.029C102.896 168.59 102.773 169.095 102.528 169.544C102.29 169.986 101.96 170.337 101.54 170.596C101.126 170.849 100.653 170.975 100.12 170.975C99.6367 170.975 99.1986 170.866 98.806 170.649C98.4205 170.424 98.1296 170.109 97.9334 169.702L98.0595 169.586V172.953H97.271ZM100.078 170.186C100.457 170.186 100.793 170.091 101.088 169.902C101.389 169.712 101.624 169.456 101.792 169.133C101.967 168.804 102.055 168.436 102.055 168.029C102.055 167.615 101.967 167.247 101.792 166.924C101.624 166.601 101.389 166.345 101.088 166.156C100.793 165.966 100.457 165.872 100.078 165.872C99.6997 165.872 99.3563 165.966 99.0479 166.156C98.7465 166.345 98.5046 166.605 98.3224 166.934C98.1472 167.257 98.0595 167.622 98.0595 168.029C98.0595 168.436 98.1472 168.804 98.3224 169.133C98.5046 169.456 98.7465 169.712 99.0479 169.902C99.3563 170.091 99.6997 170.186 100.078 170.186ZM105.914 170.975C105.556 170.975 105.237 170.908 104.957 170.775C104.676 170.635 104.456 170.445 104.294 170.207C104.133 169.968 104.053 169.695 104.053 169.386C104.053 169.091 104.116 168.825 104.242 168.586C104.368 168.341 104.564 168.134 104.831 167.966C105.097 167.797 105.437 167.678 105.85 167.608L108.058 167.239V167.955L106.04 168.292C105.633 168.362 105.339 168.492 105.157 168.681C104.981 168.87 104.894 169.095 104.894 169.354C104.894 169.607 104.992 169.821 105.188 169.996C105.391 170.172 105.651 170.259 105.966 170.259C106.352 170.259 106.688 170.179 106.975 170.017C107.263 169.849 107.487 169.625 107.648 169.344C107.81 169.063 107.89 168.751 107.89 168.407V166.976C107.89 166.64 107.767 166.366 107.522 166.156C107.277 165.945 106.958 165.84 106.565 165.84C106.222 165.84 105.921 165.928 105.661 166.103C105.402 166.271 105.209 166.492 105.083 166.766L104.368 166.377C104.473 166.138 104.638 165.921 104.862 165.724C105.093 165.528 105.356 165.374 105.651 165.261C105.945 165.142 106.25 165.082 106.565 165.082C106.979 165.082 107.343 165.163 107.659 165.324C107.981 165.486 108.23 165.71 108.405 165.998C108.588 166.278 108.679 166.605 108.679 166.976V170.849H107.89V169.723L108.006 169.838C107.908 170.049 107.753 170.242 107.543 170.417C107.34 170.586 107.098 170.722 106.818 170.828C106.544 170.926 106.243 170.975 105.914 170.975ZM110.301 170.849V165.209H111.089V166.135L110.984 165.998C111.117 165.731 111.317 165.521 111.583 165.367C111.857 165.212 112.186 165.135 112.572 165.135H112.929V165.924H112.435C112.029 165.924 111.703 166.05 111.457 166.303C111.212 166.556 111.089 166.913 111.089 167.376V170.849H110.301ZM115.483 170.975C115.126 170.975 114.807 170.908 114.526 170.775C114.246 170.635 114.025 170.445 113.864 170.207C113.703 169.968 113.622 169.695 113.622 169.386C113.622 169.091 113.685 168.825 113.811 168.586C113.937 168.341 114.134 168.134 114.4 167.966C114.666 167.797 115.006 167.678 115.42 167.608L117.628 167.239V167.955L115.609 168.292C115.203 168.362 114.908 168.492 114.726 168.681C114.551 168.87 114.463 169.095 114.463 169.354C114.463 169.607 114.561 169.821 114.758 169.996C114.961 170.172 115.22 170.259 115.536 170.259C115.921 170.259 116.258 170.179 116.545 170.017C116.832 169.849 117.057 169.625 117.218 169.344C117.379 169.063 117.46 168.751 117.46 168.407V166.976C117.46 166.64 117.337 166.366 117.092 166.156C116.846 165.945 116.527 165.84 116.135 165.84C115.791 165.84 115.49 165.928 115.231 166.103C114.971 166.271 114.779 166.492 114.652 166.766L113.937 166.377C114.043 166.138 114.207 165.921 114.432 165.724C114.663 165.528 114.926 165.374 115.22 165.261C115.515 165.142 115.819 165.082 116.135 165.082C116.548 165.082 116.913 165.163 117.228 165.324C117.551 165.486 117.8 165.71 117.975 165.998C118.157 166.278 118.248 166.605 118.248 166.976V170.849H117.46V169.723L117.575 169.838C117.477 170.049 117.323 170.242 117.113 170.417C116.909 170.586 116.668 170.722 116.387 170.828C116.114 170.926 115.812 170.975 115.483 170.975ZM123.613 170.975C123.073 170.975 122.6 170.838 122.193 170.565C121.787 170.291 121.492 169.919 121.31 169.449L121.973 169.133C122.134 169.477 122.358 169.751 122.645 169.954C122.94 170.158 123.262 170.259 123.613 170.259C123.949 170.259 124.233 170.179 124.464 170.017C124.696 169.849 124.811 169.632 124.811 169.365C124.811 169.169 124.755 169.014 124.643 168.902C124.531 168.783 124.401 168.692 124.254 168.628C124.107 168.565 123.977 168.52 123.865 168.492L123.055 168.26C122.537 168.113 122.162 167.906 121.93 167.639C121.699 167.373 121.583 167.064 121.583 166.713C121.583 166.384 121.668 166.096 121.836 165.851C122.004 165.605 122.232 165.416 122.519 165.282C122.807 165.149 123.126 165.082 123.476 165.082C123.953 165.082 124.384 165.209 124.769 165.461C125.162 165.707 125.439 166.05 125.6 166.492L124.927 166.808C124.787 166.492 124.583 166.247 124.317 166.072C124.058 165.889 123.767 165.798 123.444 165.798C123.129 165.798 122.877 165.879 122.687 166.04C122.498 166.201 122.404 166.405 122.404 166.65C122.404 166.84 122.453 166.99 122.551 167.103C122.649 167.215 122.761 167.299 122.887 167.355C123.02 167.411 123.136 167.453 123.234 167.481L124.17 167.755C124.626 167.888 124.98 168.095 125.232 168.376C125.491 168.656 125.621 168.986 125.621 169.365C125.621 169.674 125.533 169.951 125.358 170.196C125.19 170.442 124.955 170.635 124.654 170.775C124.352 170.908 124.005 170.975 123.613 170.975ZM129.572 170.975C129.046 170.975 128.569 170.849 128.142 170.596C127.721 170.337 127.388 169.982 127.143 169.533C126.898 169.084 126.775 168.576 126.775 168.008C126.775 167.439 126.894 166.938 127.133 166.503C127.371 166.061 127.693 165.714 128.1 165.461C128.513 165.209 128.976 165.082 129.488 165.082C129.894 165.082 130.255 165.16 130.571 165.314C130.893 165.461 131.166 165.665 131.391 165.924C131.615 166.177 131.787 166.464 131.906 166.787C132.025 167.103 132.085 167.429 132.085 167.766C132.085 167.836 132.081 167.916 132.074 168.008C132.067 168.092 132.057 168.179 132.043 168.271H127.28V167.534H131.591L131.212 167.85C131.275 167.464 131.23 167.12 131.075 166.819C130.928 166.51 130.714 166.268 130.434 166.093C130.154 165.91 129.838 165.819 129.488 165.819C129.137 165.819 128.811 165.91 128.51 166.093C128.215 166.275 127.984 166.531 127.816 166.861C127.648 167.183 127.581 167.569 127.616 168.018C127.581 168.467 127.651 168.86 127.826 169.197C128.009 169.526 128.254 169.782 128.562 169.965C128.878 170.147 129.214 170.238 129.572 170.238C129.985 170.238 130.332 170.14 130.613 169.944C130.893 169.747 131.121 169.502 131.296 169.207L131.969 169.565C131.857 169.817 131.685 170.052 131.454 170.27C131.223 170.48 130.946 170.652 130.623 170.785C130.308 170.912 129.957 170.975 129.572 170.975ZM137.838 170.975C137.284 170.975 136.797 170.845 136.376 170.586C135.956 170.326 135.626 169.975 135.388 169.533C135.149 169.084 135.03 168.579 135.03 168.018C135.03 167.457 135.149 166.955 135.388 166.513C135.626 166.072 135.956 165.724 136.376 165.472C136.797 165.212 137.284 165.082 137.838 165.082C138.188 165.082 138.517 165.146 138.826 165.272C139.134 165.398 139.408 165.57 139.646 165.787C139.884 165.998 140.063 166.243 140.182 166.524L139.467 166.892C139.327 166.591 139.113 166.345 138.826 166.156C138.539 165.966 138.209 165.872 137.838 165.872C137.466 165.872 137.13 165.966 136.828 166.156C136.534 166.338 136.299 166.594 136.124 166.924C135.956 167.247 135.871 167.615 135.871 168.029C135.871 168.436 135.956 168.804 136.124 169.133C136.299 169.456 136.534 169.712 136.828 169.902C137.13 170.091 137.466 170.186 137.838 170.186C138.209 170.186 138.535 170.091 138.815 169.902C139.103 169.712 139.32 169.46 139.467 169.144L140.182 169.533C140.063 169.807 139.884 170.052 139.646 170.27C139.408 170.487 139.134 170.659 138.826 170.785C138.517 170.912 138.188 170.975 137.838 170.975ZM144.205 170.975C143.672 170.975 143.189 170.849 142.754 170.596C142.319 170.337 141.973 169.986 141.713 169.544C141.461 169.095 141.335 168.586 141.335 168.018C141.335 167.457 141.461 166.955 141.713 166.513C141.965 166.072 142.305 165.724 142.733 165.472C143.168 165.212 143.658 165.082 144.205 165.082C144.752 165.082 145.239 165.209 145.666 165.461C146.101 165.714 146.441 166.061 146.686 166.503C146.939 166.945 147.065 167.45 147.065 168.018C147.065 168.593 146.935 169.105 146.676 169.554C146.416 169.996 146.069 170.344 145.635 170.596C145.207 170.849 144.731 170.975 144.205 170.975ZM144.205 170.186C144.583 170.186 144.923 170.091 145.225 169.902C145.533 169.712 145.775 169.453 145.95 169.123C146.133 168.793 146.224 168.425 146.224 168.018C146.224 167.611 146.133 167.247 145.95 166.924C145.775 166.601 145.533 166.345 145.225 166.156C144.923 165.966 144.583 165.872 144.205 165.872C143.826 165.872 143.483 165.966 143.175 166.156C142.873 166.345 142.631 166.601 142.449 166.924C142.267 167.247 142.176 167.611 142.176 168.018C142.176 168.425 142.267 168.793 142.449 169.123C142.631 169.453 142.873 169.712 143.175 169.902C143.483 170.091 143.826 170.186 144.205 170.186ZM148.455 170.849V165.209H149.244V166.303L149.065 166.261C149.205 165.896 149.433 165.609 149.748 165.398C150.071 165.188 150.442 165.082 150.863 165.082C151.262 165.082 151.62 165.174 151.935 165.356C152.258 165.538 152.51 165.791 152.692 166.114C152.881 166.429 152.976 166.787 152.976 167.187V170.849H152.187V167.492C152.187 167.148 152.124 166.857 151.998 166.619C151.879 166.38 151.707 166.198 151.483 166.072C151.266 165.938 151.013 165.872 150.726 165.872C150.439 165.872 150.183 165.938 149.958 166.072C149.734 166.198 149.559 166.384 149.433 166.629C149.307 166.868 149.244 167.155 149.244 167.492V170.849H148.455ZM157.048 170.975C156.522 170.975 156.046 170.849 155.618 170.596C155.197 170.337 154.864 169.982 154.619 169.533C154.374 169.084 154.251 168.576 154.251 168.008C154.251 167.439 154.37 166.938 154.609 166.503C154.847 166.061 155.169 165.714 155.576 165.461C155.989 165.209 156.452 165.082 156.964 165.082C157.37 165.082 157.731 165.16 158.047 165.314C158.369 165.461 158.642 165.665 158.867 165.924C159.091 166.177 159.263 166.464 159.382 166.787C159.501 167.103 159.561 167.429 159.561 167.766C159.561 167.836 159.557 167.916 159.55 168.008C159.543 168.092 159.533 168.179 159.519 168.271H154.756V167.534H159.067L158.688 167.85C158.751 167.464 158.706 167.12 158.551 166.819C158.404 166.51 158.19 166.268 157.91 166.093C157.63 165.91 157.314 165.819 156.964 165.819C156.613 165.819 156.287 165.91 155.986 166.093C155.692 166.275 155.46 166.531 155.292 166.861C155.124 167.183 155.057 167.569 155.092 168.018C155.057 168.467 155.127 168.86 155.303 169.197C155.485 169.526 155.73 169.782 156.039 169.965C156.354 170.147 156.69 170.238 157.048 170.238C157.461 170.238 157.808 170.14 158.089 169.944C158.369 169.747 158.597 169.502 158.772 169.207L159.445 169.565C159.333 169.817 159.161 170.052 158.93 170.27C158.699 170.48 158.422 170.652 158.099 170.785C157.784 170.912 157.433 170.975 157.048 170.975ZM163.527 170.975C162.973 170.975 162.486 170.845 162.065 170.586C161.645 170.326 161.315 169.975 161.077 169.533C160.839 169.084 160.72 168.579 160.72 168.018C160.72 167.457 160.839 166.955 161.077 166.513C161.315 166.072 161.645 165.724 162.065 165.472C162.486 165.212 162.973 165.082 163.527 165.082C163.877 165.082 164.207 165.146 164.515 165.272C164.824 165.398 165.097 165.57 165.335 165.787C165.574 165.998 165.752 166.243 165.871 166.524L165.157 166.892C165.016 166.591 164.803 166.345 164.515 166.156C164.228 165.966 163.898 165.872 163.527 165.872C163.155 165.872 162.819 165.966 162.517 166.156C162.223 166.338 161.988 166.594 161.813 166.924C161.645 167.247 161.561 167.615 161.561 168.029C161.561 168.436 161.645 168.804 161.813 169.133C161.988 169.456 162.223 169.712 162.517 169.902C162.819 170.091 163.155 170.186 163.527 170.186C163.898 170.186 164.224 170.091 164.505 169.902C164.792 169.712 165.009 169.46 165.157 169.144L165.871 169.533C165.752 169.807 165.574 170.052 165.335 170.27C165.097 170.487 164.824 170.659 164.515 170.785C164.207 170.912 163.877 170.975 163.527 170.975ZM169.411 170.912C168.906 170.912 168.517 170.764 168.244 170.47C167.97 170.175 167.833 169.754 167.833 169.207V165.998H166.793V165.209H167.055C167.294 165.209 167.483 165.132 167.623 164.977C167.763 164.816 167.833 164.616 167.833 164.377V163.904H168.622V165.209H169.863V165.998H168.622V169.207C168.622 169.397 168.65 169.565 168.706 169.712C168.762 169.853 168.857 169.965 168.99 170.049C169.13 170.133 169.316 170.175 169.547 170.175C169.603 170.175 169.67 170.172 169.747 170.165C169.824 170.158 169.891 170.151 169.947 170.144V170.849C169.863 170.87 169.768 170.884 169.663 170.891C169.558 170.905 169.474 170.912 169.411 170.912ZM172.859 170.975C172.501 170.975 172.182 170.908 171.902 170.775C171.621 170.635 171.401 170.445 171.239 170.207C171.078 169.968 170.998 169.695 170.998 169.386C170.998 169.091 171.061 168.825 171.187 168.586C171.313 168.341 171.509 168.134 171.776 167.966C172.042 167.797 172.382 167.678 172.796 167.608L175.003 167.239V167.955L172.985 168.292C172.578 168.362 172.284 168.492 172.102 168.681C171.926 168.87 171.839 169.095 171.839 169.354C171.839 169.607 171.937 169.821 172.133 169.996C172.336 170.172 172.596 170.259 172.911 170.259C173.297 170.259 173.633 170.179 173.921 170.017C174.208 169.849 174.432 169.625 174.593 169.344C174.755 169.063 174.835 168.751 174.835 168.407V166.976C174.835 166.64 174.713 166.366 174.467 166.156C174.222 165.945 173.903 165.84 173.51 165.84C173.167 165.84 172.866 165.928 172.606 166.103C172.347 166.271 172.154 166.492 172.028 166.766L171.313 166.377C171.418 166.138 171.583 165.921 171.807 165.724C172.039 165.528 172.301 165.374 172.596 165.261C172.89 165.142 173.195 165.082 173.51 165.082C173.924 165.082 174.289 165.163 174.604 165.324C174.926 165.486 175.175 165.71 175.35 165.998C175.533 166.278 175.624 166.605 175.624 166.976V170.849H174.835V169.723L174.951 169.838C174.853 170.049 174.699 170.242 174.488 170.417C174.285 170.586 174.043 170.722 173.763 170.828C173.489 170.926 173.188 170.975 172.859 170.975ZM177.246 170.849V165.209H178.034V166.135L177.929 165.998C178.062 165.731 178.262 165.521 178.529 165.367C178.802 165.212 179.131 165.135 179.517 165.135H179.874V165.924H179.38C178.974 165.924 178.648 166.05 178.402 166.303C178.157 166.556 178.034 166.913 178.034 167.376V170.849H177.246ZM184.214 170.975C183.857 170.975 183.538 170.908 183.258 170.775C182.977 170.635 182.756 170.445 182.595 170.207C182.434 169.968 182.353 169.695 182.353 169.386C182.353 169.091 182.416 168.825 182.543 168.586C182.669 168.341 182.865 168.134 183.131 167.966C183.398 167.797 183.738 167.678 184.151 167.608L186.359 167.239V167.955L184.34 168.292C183.934 168.362 183.64 168.492 183.457 168.681C183.282 168.87 183.194 169.095 183.194 169.354C183.194 169.607 183.293 169.821 183.489 169.996C183.692 170.172 183.951 170.259 184.267 170.259C184.652 170.259 184.989 170.179 185.276 170.017C185.564 169.849 185.788 169.625 185.949 169.344C186.11 169.063 186.191 168.751 186.191 168.407V166.976C186.191 166.64 186.068 166.366 185.823 166.156C185.578 165.945 185.259 165.84 184.866 165.84C184.523 165.84 184.221 165.928 183.962 166.103C183.703 166.271 183.51 166.492 183.384 166.766L182.669 166.377C182.774 166.138 182.939 165.921 183.163 165.724C183.394 165.528 183.657 165.374 183.951 165.261C184.246 165.142 184.551 165.082 184.866 165.082C185.28 165.082 185.644 165.163 185.96 165.324C186.282 165.486 186.531 165.71 186.706 165.998C186.888 166.278 186.98 166.605 186.98 166.976V170.849H186.191V169.723L186.307 169.838C186.208 170.049 186.054 170.242 185.844 170.417C185.641 170.586 185.399 170.722 185.119 170.828C184.845 170.926 184.544 170.975 184.214 170.975ZM191.241 170.975C190.708 170.975 190.224 170.849 189.79 170.596C189.355 170.337 189.008 169.986 188.749 169.544C188.496 169.095 188.37 168.586 188.37 168.018C188.37 167.457 188.496 166.955 188.749 166.513C189.001 166.072 189.341 165.724 189.769 165.472C190.203 165.212 190.694 165.082 191.241 165.082C191.787 165.082 192.274 165.209 192.702 165.461C193.137 165.714 193.477 166.061 193.722 166.503C193.974 166.945 194.1 167.45 194.1 168.018C194.1 168.593 193.971 169.105 193.711 169.554C193.452 169.996 193.105 170.344 192.671 170.596C192.243 170.849 191.766 170.975 191.241 170.975ZM191.241 170.186C191.619 170.186 191.959 170.091 192.26 169.902C192.569 169.712 192.811 169.453 192.986 169.123C193.168 168.793 193.259 168.425 193.259 168.018C193.259 167.611 193.168 167.247 192.986 166.924C192.811 166.601 192.569 166.345 192.26 166.156C191.959 165.966 191.619 165.872 191.241 165.872C190.862 165.872 190.519 165.966 190.21 166.156C189.909 166.345 189.667 166.601 189.485 166.924C189.303 167.247 189.211 167.611 189.211 168.018C189.211 168.425 189.303 168.793 189.485 169.123C189.667 169.453 189.909 169.712 190.21 169.902C190.519 170.091 190.862 170.186 191.241 170.186ZM199.233 170.975C198.693 170.975 198.22 170.838 197.814 170.565C197.407 170.291 197.113 169.919 196.93 169.449L197.593 169.133C197.754 169.477 197.978 169.751 198.266 169.954C198.56 170.158 198.883 170.259 199.233 170.259C199.569 170.259 199.853 170.179 200.085 170.017C200.316 169.849 200.432 169.632 200.432 169.365C200.432 169.169 200.376 169.014 200.263 168.902C200.151 168.783 200.022 168.692 199.874 168.628C199.727 168.565 199.598 168.52 199.485 168.492L198.676 168.26C198.157 168.113 197.782 167.906 197.551 167.639C197.319 167.373 197.204 167.064 197.204 166.713C197.204 166.384 197.288 166.096 197.456 165.851C197.624 165.605 197.852 165.416 198.14 165.282C198.427 165.149 198.746 165.082 199.096 165.082C199.573 165.082 200.004 165.209 200.39 165.461C200.782 165.707 201.059 166.05 201.22 166.492L200.547 166.808C200.407 166.492 200.204 166.247 199.937 166.072C199.678 165.889 199.387 165.798 199.065 165.798C198.749 165.798 198.497 165.879 198.308 166.04C198.119 166.201 198.024 166.405 198.024 166.65C198.024 166.84 198.073 166.99 198.171 167.103C198.269 167.215 198.381 167.299 198.508 167.355C198.641 167.411 198.756 167.453 198.855 167.481L199.79 167.755C200.246 167.888 200.6 168.095 200.852 168.376C201.112 168.656 201.241 168.986 201.241 169.365C201.241 169.674 201.154 169.951 200.978 170.196C200.81 170.442 200.575 170.635 200.274 170.775C199.972 170.908 199.626 170.975 199.233 170.975ZM205.193 170.975C204.667 170.975 204.19 170.849 203.763 170.596C203.342 170.337 203.009 169.982 202.764 169.533C202.519 169.084 202.396 168.576 202.396 168.008C202.396 167.439 202.515 166.938 202.753 166.503C202.992 166.061 203.314 165.714 203.721 165.461C204.134 165.209 204.597 165.082 205.109 165.082C205.515 165.082 205.876 165.16 206.192 165.314C206.514 165.461 206.787 165.665 207.012 165.924C207.236 166.177 207.408 166.464 207.527 166.787C207.646 167.103 207.706 167.429 207.706 167.766C207.706 167.836 207.702 167.916 207.695 168.008C207.688 168.092 207.678 168.179 207.663 168.271H202.901V167.534H207.211L206.833 167.85C206.896 167.464 206.85 167.12 206.696 166.819C206.549 166.51 206.335 166.268 206.055 166.093C205.774 165.91 205.459 165.819 205.109 165.819C204.758 165.819 204.432 165.91 204.131 166.093C203.836 166.275 203.605 166.531 203.437 166.861C203.269 167.183 203.202 167.569 203.237 168.018C203.202 168.467 203.272 168.86 203.447 169.197C203.63 169.526 203.875 169.782 204.183 169.965C204.499 170.147 204.835 170.238 205.193 170.238C205.606 170.238 205.953 170.14 206.234 169.944C206.514 169.747 206.742 169.502 206.917 169.207L207.59 169.565C207.478 169.817 207.306 170.052 207.075 170.27C206.843 170.48 206.567 170.652 206.244 170.785C205.929 170.912 205.578 170.975 205.193 170.975ZM211.093 170.975C210.701 170.975 210.343 170.884 210.021 170.701C209.699 170.512 209.443 170.252 209.253 169.923C209.071 169.586 208.98 169.2 208.98 168.765V165.209H209.769V168.67C209.769 168.972 209.828 169.239 209.947 169.47C210.074 169.695 210.245 169.87 210.463 169.996C210.687 170.123 210.943 170.186 211.23 170.186C211.517 170.186 211.773 170.123 211.998 169.996C212.222 169.863 212.397 169.677 212.523 169.439C212.649 169.193 212.713 168.902 212.713 168.565V165.209H213.501V170.849H212.713V169.754L212.891 169.796C212.758 170.161 212.53 170.449 212.208 170.659C211.885 170.87 211.514 170.975 211.093 170.975ZM52.761 186.632L49.8906 178.793H50.7633L53.2867 185.885H53.1184L55.6313 178.793H56.5145L53.6441 186.632H52.761ZM59.4851 186.758C58.9594 186.758 58.4827 186.632 58.0552 186.379C57.6346 186.12 57.3017 185.766 57.0563 185.317C56.811 184.868 56.6883 184.359 56.6883 183.791C56.6883 183.223 56.8075 182.721 57.0458 182.286C57.2841 181.844 57.6066 181.497 58.0131 181.245C58.4267 180.992 58.8893 180.866 59.401 180.866C59.8075 180.866 60.1685 180.943 60.4839 181.097C60.8063 181.245 61.0797 181.448 61.304 181.708C61.5283 181.96 61.7 182.248 61.8192 182.57C61.9383 182.886 61.9979 183.212 61.9979 183.549C61.9979 183.619 61.9944 183.7 61.9874 183.791C61.9804 183.875 61.9699 183.963 61.9559 184.054H57.193V183.317H61.5038L61.1253 183.633C61.1883 183.247 61.1428 182.904 60.9886 182.602C60.8414 182.293 60.6276 182.051 60.3472 181.876C60.0668 181.694 59.7514 181.602 59.401 181.602C59.0505 181.602 58.7246 181.694 58.4232 181.876C58.1288 182.058 57.8975 182.314 57.7292 182.644C57.561 182.967 57.4944 183.353 57.5295 183.802C57.4944 184.25 57.5645 184.643 57.7397 184.98C57.922 185.31 58.1673 185.566 58.4757 185.748C58.7912 185.931 59.1276 186.022 59.4851 186.022C59.8986 186.022 60.2456 185.923 60.526 185.727C60.8063 185.531 61.0341 185.285 61.2094 184.991L61.8823 185.348C61.7701 185.601 61.5984 185.836 61.3671 186.053C61.1358 186.264 60.8589 186.436 60.5365 186.569C60.2211 186.695 59.8706 186.758 59.4851 186.758ZM63.3882 186.632V178.667H64.1768V186.632H63.3882ZM67.4205 186.758C67.0631 186.758 66.7441 186.692 66.4638 186.558C66.1834 186.418 65.9626 186.229 65.8014 185.99C65.6402 185.752 65.5595 185.478 65.5595 185.169C65.5595 184.875 65.6226 184.608 65.7488 184.37C65.875 184.124 66.0712 183.917 66.3376 183.749C66.6039 183.581 66.9439 183.461 67.3574 183.391L69.5654 183.023V183.738L67.5467 184.075C67.1402 184.145 66.8458 184.275 66.6635 184.464C66.4883 184.654 66.4007 184.878 66.4007 185.138C66.4007 185.39 66.4988 185.604 66.6951 185.78C66.8983 185.955 67.1577 186.043 67.4731 186.043C67.8586 186.043 68.1951 185.962 68.4824 185.801C68.7698 185.632 68.9941 185.408 69.1553 185.127C69.3166 184.847 69.3972 184.535 69.3972 184.191V182.76C69.3972 182.423 69.2745 182.15 69.0292 181.939C68.7838 181.729 68.4649 181.623 68.0724 181.623C67.7289 181.623 67.4275 181.711 67.1682 181.886C66.9088 182.055 66.7161 182.276 66.5899 182.549L65.875 182.16C65.9801 181.922 66.1448 181.704 66.3691 181.508C66.6004 181.311 66.8633 181.157 67.1577 181.045C67.4521 180.925 67.757 180.866 68.0724 180.866C68.4859 180.866 68.8504 180.946 69.1659 181.108C69.4883 181.269 69.7371 181.494 69.9124 181.781C70.0946 182.062 70.1857 182.388 70.1857 182.76V186.632H69.3972V185.506L69.5128 185.622C69.4147 185.832 69.2605 186.025 69.0502 186.201C68.8469 186.369 68.6051 186.506 68.3247 186.611C68.0514 186.709 67.75 186.758 67.4205 186.758ZM72.0812 186.632V185.475H72.9223V186.632H72.0812ZM76.7184 186.632V178.793H77.4544L80.3983 183.065H79.9883L82.9217 178.793H83.6577V186.632H82.8166V179.929L83.0899 180.035L80.2091 184.212H80.167L77.2967 180.035L77.5595 179.929V186.632H76.7184ZM87.0216 186.758C86.6641 186.758 86.3452 186.692 86.0648 186.558C85.7844 186.418 85.5636 186.229 85.4024 185.99C85.2412 185.752 85.1606 185.478 85.1606 185.169C85.1606 184.875 85.2237 184.608 85.3499 184.37C85.476 184.124 85.6723 183.917 85.9386 183.749C86.205 183.581 86.5449 183.461 86.9585 183.391L89.1664 183.023V183.738L87.1478 184.075C86.7412 184.145 86.4468 184.275 86.2646 184.464C86.0893 184.654 86.0017 184.878 86.0017 185.138C86.0017 185.39 86.0998 185.604 86.2961 185.78C86.4994 185.955 86.7587 186.043 87.0741 186.043C87.4597 186.043 87.7961 185.962 88.0835 185.801C88.3709 185.632 88.5952 185.408 88.7564 185.127C88.9176 184.847 88.9982 184.535 88.9982 184.191V182.76C88.9982 182.423 88.8756 182.15 88.6302 181.939C88.3849 181.729 88.066 181.623 87.6734 181.623C87.33 181.623 87.0286 181.711 86.7692 181.886C86.5099 182.055 86.3171 182.276 86.191 182.549L85.476 182.16C85.5812 181.922 85.7459 181.704 85.9702 181.508C86.2015 181.311 86.4643 181.157 86.7587 181.045C87.0531 180.925 87.358 180.866 87.6734 180.866C88.087 180.866 88.4515 180.946 88.7669 181.108C89.0893 181.269 89.3382 181.494 89.5134 181.781C89.6956 182.062 89.7868 182.388 89.7868 182.76V186.632H88.9982V185.506L89.1139 185.622C89.0157 185.832 88.8615 186.025 88.6512 186.201C88.448 186.369 88.2062 186.506 87.9258 186.611C87.6524 186.709 87.351 186.758 87.0216 186.758ZM91.4083 186.632V180.992H92.1968V182.086L92.0181 182.044C92.1583 181.68 92.3861 181.392 92.7015 181.181C93.0239 180.971 93.3954 180.866 93.816 180.866C94.2155 180.866 94.573 180.957 94.8884 181.139C95.2108 181.322 95.4632 181.574 95.6454 181.897C95.8347 182.213 95.9293 182.57 95.9293 182.97V186.632H95.1407V183.275C95.1407 182.932 95.0777 182.641 94.9515 182.402C94.8323 182.164 94.6606 181.981 94.4363 181.855C94.219 181.722 93.9667 181.655 93.6793 181.655C93.3919 181.655 93.1361 181.722 92.9118 181.855C92.6875 181.981 92.5122 182.167 92.3861 182.413C92.2599 182.651 92.1968 182.939 92.1968 183.275V186.632H91.4083ZM99.5911 186.695C99.0864 186.695 98.6974 186.548 98.424 186.253C98.1507 185.959 98.014 185.538 98.014 184.991V181.781H96.9731V180.992H97.2359C97.4743 180.992 97.6635 180.915 97.8037 180.761C97.9439 180.599 98.014 180.399 98.014 180.161V179.687H98.8025V180.992H100.043V181.781H98.8025V184.991C98.8025 185.18 98.8306 185.348 98.8867 185.496C98.9427 185.636 99.0373 185.748 99.1705 185.832C99.3107 185.916 99.4965 185.959 99.7278 185.959C99.7838 185.959 99.8504 185.955 99.9275 185.948C100.005 185.941 100.071 185.934 100.127 185.927V186.632C100.043 186.653 99.9486 186.667 99.8434 186.674C99.7383 186.688 99.6542 186.695 99.5911 186.695ZM103.872 186.758C103.346 186.758 102.87 186.632 102.442 186.379C102.022 186.12 101.689 185.766 101.443 185.317C101.198 184.868 101.075 184.359 101.075 183.791C101.075 183.223 101.194 182.721 101.433 182.286C101.671 181.844 101.994 181.497 102.4 181.245C102.814 180.992 103.276 180.866 103.788 180.866C104.194 180.866 104.555 180.943 104.871 181.097C105.193 181.245 105.467 181.448 105.691 181.708C105.915 181.96 106.087 182.248 106.206 182.57C106.325 182.886 106.385 183.212 106.385 183.549C106.385 183.619 106.381 183.7 106.374 183.791C106.367 183.875 106.357 183.963 106.343 184.054H101.58V183.317H105.891L105.512 183.633C105.575 183.247 105.53 182.904 105.376 182.602C105.228 182.293 105.015 182.051 104.734 181.876C104.454 181.694 104.138 181.602 103.788 181.602C103.437 181.602 103.112 181.694 102.81 181.876C102.516 182.058 102.284 182.314 102.116 182.644C101.948 182.967 101.881 183.353 101.916 183.802C101.881 184.25 101.951 184.643 102.127 184.98C102.309 185.31 102.554 185.566 102.863 185.748C103.178 185.931 103.515 186.022 103.872 186.022C104.286 186.022 104.633 185.923 104.913 185.727C105.193 185.531 105.421 185.285 105.596 184.991L106.269 185.348C106.157 185.601 105.985 185.836 105.754 186.053C105.523 186.264 105.246 186.436 104.923 186.569C104.608 186.695 104.258 186.758 103.872 186.758ZM107.775 186.632V180.992H108.564V182.086L108.385 182.044C108.525 181.68 108.753 181.392 109.068 181.181C109.391 180.971 109.762 180.866 110.183 180.866C110.582 180.866 110.94 180.957 111.255 181.139C111.578 181.322 111.83 181.574 112.012 181.897C112.201 182.213 112.296 182.57 112.296 182.97V186.632H111.508V183.275C111.508 182.932 111.444 182.641 111.318 182.402C111.199 182.164 111.027 181.981 110.803 181.855C110.586 181.722 110.333 181.655 110.046 181.655C109.759 181.655 109.503 181.722 109.279 181.855C109.054 181.981 108.879 182.167 108.753 182.413C108.627 182.651 108.564 182.939 108.564 183.275V186.632H107.775ZM113.802 186.632V178.667H114.591V182.086L114.412 182.044C114.552 181.68 114.78 181.392 115.095 181.181C115.418 180.971 115.789 180.866 116.21 180.866C116.609 180.866 116.967 180.957 117.282 181.139C117.605 181.322 117.857 181.574 118.039 181.897C118.228 182.213 118.323 182.57 118.323 182.97V186.632H117.534V183.275C117.534 182.932 117.471 182.641 117.345 182.402C117.219 182.164 117.044 181.981 116.819 181.855C116.602 181.722 116.353 181.655 116.073 181.655C115.793 181.655 115.54 181.722 115.316 181.855C115.092 181.981 114.913 182.167 114.78 182.413C114.654 182.651 114.591 182.939 114.591 183.275V186.632H113.802ZM121.459 186.758C121.102 186.758 120.783 186.692 120.502 186.558C120.222 186.418 120.001 186.229 119.84 185.99C119.679 185.752 119.598 185.478 119.598 185.169C119.598 184.875 119.661 184.608 119.787 184.37C119.914 184.124 120.11 183.917 120.376 183.749C120.642 183.581 120.982 183.461 121.396 183.391L123.604 183.023V183.738L121.585 184.075C121.179 184.145 120.884 184.275 120.702 184.464C120.527 184.654 120.439 184.878 120.439 185.138C120.439 185.39 120.537 185.604 120.734 185.78C120.937 185.955 121.196 186.043 121.512 186.043C121.897 186.043 122.234 185.962 122.521 185.801C122.808 185.632 123.033 185.408 123.194 185.127C123.355 184.847 123.436 184.535 123.436 184.191V182.76C123.436 182.423 123.313 182.15 123.068 181.939C122.822 181.729 122.503 181.623 122.111 181.623C121.767 181.623 121.466 181.711 121.207 181.886C120.947 182.055 120.755 182.276 120.628 182.549L119.914 182.16C120.019 181.922 120.183 181.704 120.408 181.508C120.639 181.311 120.902 181.157 121.196 181.045C121.491 180.925 121.796 180.866 122.111 180.866C122.524 180.866 122.889 180.946 123.204 181.108C123.527 181.269 123.776 181.494 123.951 181.781C124.133 182.062 124.224 182.388 124.224 182.76V186.632H123.436V185.506L123.551 185.622C123.453 185.832 123.299 186.025 123.089 186.201C122.885 186.369 122.644 186.506 122.363 186.611C122.09 186.709 121.789 186.758 121.459 186.758ZM125.814 184.18V183.444H129.494V184.18H125.814ZM133.721 186.758C133.189 186.758 132.705 186.632 132.27 186.379C131.836 186.12 131.489 185.769 131.23 185.327C130.977 184.878 130.851 184.37 130.851 183.802C130.851 183.24 130.977 182.739 131.23 182.297C131.482 181.855 131.822 181.508 132.249 181.255C132.684 180.996 133.175 180.866 133.721 180.866C134.268 180.866 134.755 180.992 135.183 181.245C135.617 181.497 135.957 181.844 136.203 182.286C136.455 182.728 136.581 183.233 136.581 183.802C136.581 184.377 136.451 184.889 136.192 185.338C135.933 185.78 135.586 186.127 135.151 186.379C134.724 186.632 134.247 186.758 133.721 186.758ZM133.721 185.969C134.1 185.969 134.44 185.874 134.741 185.685C135.05 185.496 135.291 185.236 135.467 184.906C135.649 184.577 135.74 184.208 135.74 183.802C135.74 183.395 135.649 183.03 135.467 182.707C135.291 182.385 135.05 182.128 134.741 181.939C134.44 181.75 134.1 181.655 133.721 181.655C133.343 181.655 132.999 181.75 132.691 181.939C132.39 182.128 132.148 182.385 131.966 182.707C131.783 183.03 131.692 183.395 131.692 183.802C131.692 184.208 131.783 184.577 131.966 184.906C132.148 185.236 132.39 185.496 132.691 185.685C132.999 185.874 133.343 185.969 133.721 185.969ZM141.714 186.758C141.175 186.758 140.701 186.621 140.295 186.348C139.888 186.074 139.594 185.703 139.412 185.233L140.074 184.917C140.235 185.261 140.46 185.534 140.747 185.738C141.041 185.941 141.364 186.043 141.714 186.043C142.051 186.043 142.335 185.962 142.566 185.801C142.797 185.632 142.913 185.415 142.913 185.148C142.913 184.952 142.857 184.798 142.745 184.685C142.633 184.566 142.503 184.475 142.356 184.412C142.208 184.349 142.079 184.303 141.967 184.275L141.157 184.044C140.638 183.896 140.263 183.689 140.032 183.423C139.801 183.156 139.685 182.847 139.685 182.497C139.685 182.167 139.769 181.879 139.937 181.634C140.106 181.388 140.333 181.199 140.621 181.066C140.908 180.932 141.227 180.866 141.578 180.866C142.054 180.866 142.485 180.992 142.871 181.245C143.263 181.49 143.54 181.834 143.701 182.276L143.029 182.591C142.888 182.276 142.685 182.03 142.419 181.855C142.159 181.673 141.869 181.581 141.546 181.581C141.231 181.581 140.978 181.662 140.789 181.823C140.6 181.985 140.505 182.188 140.505 182.434C140.505 182.623 140.554 182.774 140.652 182.886C140.751 182.998 140.863 183.082 140.989 183.139C141.122 183.195 141.238 183.237 141.336 183.265L142.272 183.538C142.727 183.672 143.081 183.879 143.333 184.159C143.593 184.44 143.723 184.77 143.723 185.148C143.723 185.457 143.635 185.734 143.46 185.98C143.291 186.225 143.057 186.418 142.755 186.558C142.454 186.692 142.107 186.758 141.714 186.758ZM147.673 186.758C147.148 186.758 146.671 186.632 146.244 186.379C145.823 186.12 145.49 185.766 145.245 185.317C144.999 184.868 144.877 184.359 144.877 183.791C144.877 183.223 144.996 182.721 145.234 182.286C145.473 181.844 145.795 181.497 146.201 181.245C146.615 180.992 147.078 180.866 147.589 180.866C147.996 180.866 148.357 180.943 148.672 181.097C148.995 181.245 149.268 181.448 149.492 181.708C149.717 181.96 149.888 182.248 150.008 182.57C150.127 182.886 150.186 183.212 150.186 183.549C150.186 183.619 150.183 183.7 150.176 183.791C150.169 183.875 150.158 183.963 150.144 184.054H145.381V183.317H149.692L149.314 183.633C149.377 183.247 149.331 182.904 149.177 182.602C149.03 182.293 148.816 182.051 148.536 181.876C148.255 181.694 147.94 181.602 147.589 181.602C147.239 181.602 146.913 181.694 146.612 181.876C146.317 182.058 146.086 182.314 145.918 182.644C145.749 182.967 145.683 183.353 145.718 183.802C145.683 184.25 145.753 184.643 145.928 184.98C146.11 185.31 146.356 185.566 146.664 185.748C146.98 185.931 147.316 186.022 147.673 186.022C148.087 186.022 148.434 185.923 148.714 185.727C148.995 185.531 149.223 185.285 149.398 184.991L150.071 185.348C149.958 185.601 149.787 185.836 149.555 186.053C149.324 186.264 149.047 186.436 148.725 186.569C148.409 186.695 148.059 186.758 147.673 186.758ZM151.576 186.632V180.992H152.365V182.065L152.239 181.908C152.393 181.578 152.621 181.322 152.922 181.139C153.231 180.957 153.567 180.866 153.932 180.866C154.366 180.866 154.759 180.989 155.109 181.234C155.46 181.48 155.708 181.799 155.856 182.192L155.635 182.202C155.775 181.767 156.017 181.438 156.36 181.213C156.711 180.982 157.096 180.866 157.517 180.866C157.895 180.866 158.242 180.957 158.558 181.139C158.88 181.322 159.136 181.574 159.325 181.897C159.522 182.213 159.62 182.57 159.62 182.97V186.632H158.831V183.275C158.831 182.932 158.768 182.641 158.642 182.402C158.523 182.164 158.358 181.981 158.148 181.855C157.937 181.722 157.696 181.655 157.422 181.655C157.156 181.655 156.914 181.722 156.697 181.855C156.48 181.981 156.308 182.167 156.182 182.413C156.055 182.651 155.992 182.939 155.992 183.275V186.632H155.204V183.275C155.204 182.932 155.141 182.641 155.015 182.402C154.895 182.164 154.731 181.981 154.52 181.855C154.31 181.722 154.068 181.655 153.795 181.655C153.522 181.655 153.276 181.722 153.059 181.855C152.849 181.981 152.68 182.167 152.554 182.413C152.428 182.651 152.365 182.939 152.365 183.275V186.632H151.576ZM161.126 188.736V180.992H161.914V182.255L161.788 182.034C162.012 181.676 162.31 181.392 162.682 181.181C163.06 180.971 163.491 180.866 163.975 180.866C164.508 180.866 164.981 180.996 165.394 181.255C165.815 181.508 166.144 181.855 166.383 182.297C166.628 182.739 166.751 183.244 166.751 183.812C166.751 184.373 166.628 184.878 166.383 185.327C166.144 185.769 165.815 186.12 165.394 186.379C164.981 186.632 164.508 186.758 163.975 186.758C163.491 186.758 163.053 186.65 162.661 186.432C162.275 186.208 161.984 185.892 161.788 185.485L161.914 185.369V188.736H161.126ZM163.933 185.969C164.311 185.969 164.648 185.874 164.942 185.685C165.244 185.496 165.478 185.24 165.647 184.917C165.822 184.587 165.909 184.219 165.909 183.812C165.909 183.398 165.822 183.03 165.647 182.707C165.478 182.385 165.244 182.128 164.942 181.939C164.648 181.75 164.311 181.655 163.933 181.655C163.554 181.655 163.211 181.75 162.902 181.939C162.601 182.128 162.359 182.388 162.177 182.718C162.002 183.04 161.914 183.405 161.914 183.812C161.914 184.219 162.002 184.587 162.177 184.917C162.359 185.24 162.601 185.496 162.902 185.685C163.211 185.874 163.554 185.969 163.933 185.969ZM168.138 186.632V180.992H168.927V181.918L168.822 181.781C168.955 181.515 169.155 181.304 169.421 181.15C169.694 180.996 170.024 180.918 170.409 180.918H170.767V181.708H170.273C169.866 181.708 169.54 181.834 169.295 182.086C169.05 182.339 168.927 182.697 168.927 183.16V186.632H168.138ZM174.256 186.758C173.731 186.758 173.254 186.632 172.826 186.379C172.406 186.12 172.073 185.766 171.828 185.317C171.582 184.868 171.46 184.359 171.46 183.791C171.46 183.223 171.579 182.721 171.817 182.286C172.055 181.844 172.378 181.497 172.784 181.245C173.198 180.992 173.661 180.866 174.172 180.866C174.579 180.866 174.94 180.943 175.255 181.097C175.578 181.245 175.851 181.448 176.075 181.708C176.3 181.96 176.471 182.248 176.59 182.57C176.71 182.886 176.769 183.212 176.769 183.549C176.769 183.619 176.766 183.7 176.759 183.791C176.752 183.875 176.741 183.963 176.727 184.054H171.964V183.317H176.275L175.897 183.633C175.96 183.247 175.914 182.904 175.76 182.602C175.613 182.293 175.399 182.051 175.119 181.876C174.838 181.694 174.523 181.602 174.172 181.602C173.822 181.602 173.496 181.694 173.194 181.876C172.9 182.058 172.669 182.314 172.501 182.644C172.332 182.967 172.266 183.353 172.301 183.802C172.266 184.25 172.336 184.643 172.511 184.98C172.693 185.31 172.939 185.566 173.247 185.748C173.562 185.931 173.899 186.022 174.256 186.022C174.67 186.022 175.017 185.923 175.297 185.727C175.578 185.531 175.805 185.285 175.981 184.991L176.654 185.348C176.541 185.601 176.37 185.836 176.138 186.053C175.907 186.264 175.63 186.436 175.308 186.569C174.992 186.695 174.642 186.758 174.256 186.758ZM181.576 186.758C181.218 186.758 180.899 186.692 180.619 186.558C180.339 186.418 180.118 186.229 179.957 185.99C179.796 185.752 179.715 185.478 179.715 185.169C179.715 184.875 179.778 184.608 179.904 184.37C180.03 184.124 180.227 183.917 180.493 183.749C180.759 183.581 181.099 183.461 181.513 183.391L183.721 183.023V183.738L181.702 184.075C181.296 184.145 181.001 184.275 180.819 184.464C180.644 184.654 180.556 184.878 180.556 185.138C180.556 185.39 180.654 185.604 180.85 185.78C181.054 185.955 181.313 186.043 181.628 186.043C182.014 186.043 182.35 185.962 182.638 185.801C182.925 185.632 183.149 185.408 183.311 185.127C183.472 184.847 183.553 184.535 183.553 184.191V182.76C183.553 182.423 183.43 182.15 183.185 181.939C182.939 181.729 182.62 181.623 182.228 181.623C181.884 181.623 181.583 181.711 181.324 181.886C181.064 182.055 180.871 182.276 180.745 182.549L180.03 182.16C180.135 181.922 180.3 181.704 180.524 181.508C180.756 181.311 181.019 181.157 181.313 181.045C181.607 180.925 181.912 180.866 182.228 180.866C182.641 180.866 183.006 180.946 183.321 181.108C183.644 181.269 183.892 181.494 184.068 181.781C184.25 182.062 184.341 182.388 184.341 182.76V186.632H183.553V185.506L183.668 185.622C183.57 185.832 183.416 186.025 183.206 186.201C183.002 186.369 182.76 186.506 182.48 186.611C182.207 186.709 181.905 186.758 181.576 186.758ZM188.016 186.695C187.511 186.695 187.122 186.548 186.849 186.253C186.575 185.959 186.439 185.538 186.439 184.991V181.781H185.398V180.992H185.661C185.899 180.992 186.088 180.915 186.228 180.761C186.369 180.599 186.439 180.399 186.439 180.161V179.687H187.227V180.992H188.468V181.781H187.227V184.991C187.227 185.18 187.255 185.348 187.311 185.496C187.367 185.636 187.462 185.748 187.595 185.832C187.735 185.916 187.921 185.959 188.152 185.959C188.208 185.959 188.275 185.955 188.352 185.948C188.429 185.941 188.496 185.934 188.552 185.927V186.632C188.468 186.653 188.373 186.667 188.268 186.674C188.163 186.688 188.079 186.695 188.016 186.695ZM189.936 186.632V180.992H190.725V186.632H189.936ZM189.936 179.95V178.793H190.725V179.95H189.936ZM193.842 186.632L191.645 180.992H192.528L194.378 185.938H194.095L195.956 180.992H196.849L194.631 186.632H193.842ZM199.195 186.758C198.838 186.758 198.519 186.692 198.238 186.558C197.958 186.418 197.737 186.229 197.576 185.99C197.415 185.752 197.334 185.478 197.334 185.169C197.334 184.875 197.397 184.608 197.523 184.37C197.649 184.124 197.846 183.917 198.112 183.749C198.378 183.581 198.718 183.461 199.132 183.391L201.34 183.023V183.738L199.321 184.075C198.915 184.145 198.62 184.275 198.438 184.464C198.263 184.654 198.175 184.878 198.175 185.138C198.175 185.39 198.273 185.604 198.47 185.78C198.673 185.955 198.932 186.043 199.248 186.043C199.633 186.043 199.97 185.962 200.257 185.801C200.544 185.632 200.769 185.408 200.93 185.127C201.091 184.847 201.172 184.535 201.172 184.191V182.76C201.172 182.423 201.049 182.15 200.804 181.939C200.558 181.729 200.239 181.623 199.847 181.623C199.503 181.623 199.202 181.711 198.943 181.886C198.683 182.055 198.491 182.276 198.364 182.549L197.649 182.16C197.755 181.922 197.919 181.704 198.144 181.508C198.375 181.311 198.638 181.157 198.932 181.045C199.227 180.925 199.531 180.866 199.847 180.866C200.26 180.866 200.625 180.946 200.94 181.108C201.263 181.269 201.512 181.494 201.687 181.781C201.869 182.062 201.96 182.388 201.96 182.76V186.632H201.172V185.506L201.287 185.622C201.189 185.832 201.035 186.025 200.825 186.201C200.621 186.369 200.38 186.506 200.099 186.611C199.826 186.709 199.524 186.758 199.195 186.758ZM206.126 186.758C205.6 186.758 205.127 186.632 204.707 186.379C204.286 186.12 203.953 185.769 203.708 185.327C203.47 184.878 203.35 184.373 203.35 183.812C203.35 183.244 203.47 182.739 203.708 182.297C203.953 181.855 204.283 181.508 204.696 181.255C205.117 180.996 205.593 180.866 206.126 180.866C206.61 180.866 207.041 180.971 207.419 181.181C207.798 181.392 208.096 181.676 208.313 182.034L208.187 182.255V178.667H208.975V186.632H208.187V185.369L208.313 185.485C208.117 185.892 207.822 186.208 207.43 186.432C207.044 186.65 206.61 186.758 206.126 186.758ZM206.168 185.969C206.547 185.969 206.887 185.874 207.188 185.685C207.496 185.496 207.738 185.24 207.914 184.917C208.096 184.587 208.187 184.219 208.187 183.812C208.187 183.405 208.096 183.04 207.914 182.718C207.738 182.388 207.496 182.128 207.188 181.939C206.887 181.75 206.547 181.655 206.168 181.655C205.797 181.655 205.46 181.75 205.159 181.939C204.857 182.128 204.619 182.385 204.444 182.707C204.276 183.03 204.192 183.398 204.192 183.812C204.192 184.219 204.276 184.587 204.444 184.917C204.619 185.24 204.854 185.496 205.148 185.685C205.45 185.874 205.79 185.969 206.168 185.969ZM213.234 186.758C212.701 186.758 212.217 186.632 211.783 186.379C211.348 186.12 211.001 185.769 210.742 185.327C210.489 184.878 210.363 184.37 210.363 183.802C210.363 183.24 210.489 182.739 210.742 182.297C210.994 181.855 211.334 181.508 211.762 181.255C212.196 180.996 212.687 180.866 213.234 180.866C213.78 180.866 214.267 180.992 214.695 181.245C215.13 181.497 215.47 181.844 215.715 182.286C215.967 182.728 216.093 183.233 216.093 183.802C216.093 184.377 215.964 184.889 215.704 185.338C215.445 185.78 215.098 186.127 214.664 186.379C214.236 186.632 213.759 186.758 213.234 186.758ZM213.234 185.969C213.612 185.969 213.952 185.874 214.253 185.685C214.562 185.496 214.804 185.236 214.979 184.906C215.161 184.577 215.252 184.208 215.252 183.802C215.252 183.395 215.161 183.03 214.979 182.707C214.804 182.385 214.562 182.128 214.253 181.939C213.952 181.75 213.612 181.655 213.234 181.655C212.855 181.655 212.512 181.75 212.203 181.939C211.902 182.128 211.66 182.385 211.478 182.707C211.296 183.03 211.204 183.395 211.204 183.802C211.204 184.208 211.296 184.577 211.478 184.906C211.66 185.236 211.902 185.496 212.203 185.685C212.512 185.874 212.855 185.969 213.234 185.969ZM217.789 184.38L217.737 178.793H218.578L218.525 184.38H217.789ZM217.737 186.632V185.475H218.578V186.632H217.737Z" fill="#2F2F2F"/>
</g>
</g>
</g>
<defs>
<filter id="filter0_d_976_711" x="0" y="0" width="270" height="217" filterUnits="userSpaceOnUse" color-interpolation-filters="sRGB">
<feFlood flood-opacity="0" result="BackgroundImageFix"/>
<feColorMatrix in="SourceAlpha" type="matrix" values="0 0 0 0 0 0 0 0 0 0 0 0 0 0 0 0 0 0 127 0" result="hardAlpha"/>
<feOffset dy="4"/>
<feGaussianBlur stdDeviation="5"/>
<feComposite in2="hardAlpha" operator="out"/>
<feColorMatrix type="matrix" values="0 0 0 0 0 0 0 0 0 0 0 0 0 0 0 0 0 0 0.25 0"/>
<feBlend mode="normal" in2="BackgroundImageFix" result="effect1_dropShadow_976_711"/>
<feBlend mode="normal" in="SourceGraphic" in2="effect1_dropShadow_976_711" result="shape"/>
</filter>
<linearGradient id="paint0_linear_976_711" x1="135" y1="175.314" x2="135" y2="-30.8281" gradientUnits="userSpaceOnUse">
<stop offset="0.0570912" stop-color="#FBFAF8" stop-opacity="0"/>
<stop offset="1" stop-color="#FBFAF8" stop-opacity="0.7"/>
</linearGradient>
<clipPath id="clip0_976_711">
<rect x="10" y="6" width="250" height="197" rx="28" fill="white"/>
</clipPath>
</defs>
</svg>
