<svg width="284" height="202" viewBox="0 0 284 202" fill="none" xmlns="http://www.w3.org/2000/svg">
<g filter="url(#filter0_d_976_724)">
<mask id="mask0_976_724" style="mask-type:luminance" maskUnits="userSpaceOnUse" x="2" y="0" width="272" height="190">
<path d="M253.768 0H21.3668C10.6708 0 2 8.76968 2 19.5876V170.412C2 181.23 10.6708 190 21.3668 190H253.768C264.464 190 273.135 181.23 273.135 170.412V19.5876C273.135 8.76968 264.464 0 253.768 0Z" fill="white"/>
</mask>
<g mask="url(#mask0_976_724)">
<path d="M253.768 0H21.3668C10.6708 0 2 8.76968 2 19.5876V170.412C2 181.23 10.6708 190 21.3668 190H253.768C264.464 190 273.135 181.23 273.135 170.412V19.5876C273.135 8.76968 264.464 0 253.768 0Z" fill="#F5F1EC"/>
<path d="M127.885 14.6909H147.252" stroke="#D2C9BD" stroke-width="3" stroke-linecap="round" stroke-linejoin="round"/>
<path d="M273.135 29.3813H2V112.629H273.135V29.3813Z" fill="#F5F1EC"/>
<path d="M50.4177 77.3712C58.4397 77.3712 64.9428 70.7939 64.9428 62.6805C64.9428 54.567 58.4397 47.9897 50.4177 47.9897C42.3957 47.9897 35.8926 54.567 35.8926 62.6805C35.8926 70.7939 42.3957 77.3712 50.4177 77.3712Z" stroke="#EDE6DE" stroke-width="8"/>
<path d="M50.4177 47.9897C58.4397 47.9897 64.9428 54.567 64.9428 62.6805C64.9428 70.794 58.4397 77.3712 50.4177 77.3712C42.3957 77.3712 35.8926 70.794 35.8926 62.6805C35.8926 61.4751 36.0361 60.3037 36.3068 59.1827" stroke="#74E85E" stroke-width="8" stroke-linecap="round"/>
<path d="M34.1492 91.7466C34.1492 92.7749 33.5663 93.6936 32.2649 94.0227C33.8239 94.2146 34.6237 95.243 34.6237 96.4496C34.6237 97.9578 33.3765 98.9176 31.5599 98.9176H27.8047V89.3197H31.1125C32.8207 89.3197 34.1492 90.1972 34.1492 91.7466ZM30.8685 94.5163H28.8486V98.0401H31.5599C32.7122 98.0401 33.5528 97.4231 33.5528 96.4222C33.5528 95.4075 32.7122 94.5163 30.8685 94.5163ZM28.8486 93.6799H30.5703C32.3598 93.6799 33.0783 92.7612 33.0783 91.8151C33.0783 90.7319 32.1564 90.1972 31.1125 90.1972H28.8486V93.6799ZM42.9377 92.0894V98.9176H41.921V97.5602C41.3245 98.5885 40.3619 99.0684 39.2367 99.0684C37.1896 99.0684 35.8746 97.4642 35.8746 95.5035C35.8746 93.5428 37.1896 91.9385 39.2367 91.9385C40.3619 91.9385 41.3245 92.4184 41.921 93.4468V92.0894H42.9377ZM36.8914 95.5035C36.8914 96.9432 37.7997 98.1498 39.3316 98.1498C40.7686 98.1498 41.9345 97.094 41.9345 95.5035C41.9345 93.913 40.7686 92.8572 39.3316 92.8572C37.7997 92.8572 36.8914 94.0364 36.8914 95.5035ZM46.4425 92.912V96.8609C46.4425 97.8481 46.9441 98.1498 47.4457 98.1498C47.988 98.1498 48.4218 97.8344 48.4218 97.2585C48.4218 97.19 48.4082 96.9432 48.3269 96.7649H49.2623C49.3708 97.0117 49.3708 97.3819 49.3708 97.3819C49.3708 98.328 48.6658 99.0684 47.4322 99.0684C46.429 99.0684 45.4258 98.5885 45.4258 96.7924V92.912H44.287V92.0894H45.4258L45.6698 90.019H46.4425V92.0894H48.6387V92.912H46.4425ZM56.1935 97.2585L56.7764 97.8756C55.9224 98.7942 54.8514 99.0684 53.8889 99.0684C51.5571 99.0684 50.093 97.4779 50.093 95.5309C50.093 93.5428 51.6249 91.9385 53.7262 91.9385C55.4614 91.9385 57.0883 93.0355 57.1154 95.4898H51.1097C51.1097 95.5309 51.1097 95.5583 51.1097 95.5995C51.1097 97.0666 52.1943 98.1635 53.8889 98.1635C54.7023 98.1635 55.5021 97.903 56.1935 97.2585ZM53.7533 92.8435C52.6687 92.8435 51.6113 93.4194 51.2182 94.6945H56.0579C55.7461 93.2685 54.6887 92.8435 53.7533 92.8435ZM59.701 92.0894V93.7347C59.9586 92.6378 60.6771 91.9385 61.6939 91.9385C61.8972 91.9385 62.087 91.9797 62.2497 92.0482V93.0629C62.0735 92.9669 61.8294 92.9258 61.6261 92.9258C60.7178 92.9258 59.701 93.721 59.701 96.3125V98.9176H58.6843V92.0894H59.701ZM64.5346 92.0894V98.9176H63.5178V92.0894H64.5346ZM63.2874 89.7996C63.2874 89.3608 63.5992 89.0317 64.0194 89.0317C64.4397 89.0317 64.7651 89.3608 64.7651 89.7996C64.7651 90.2383 64.4397 90.5537 64.0194 90.5537C63.5992 90.5537 63.2874 90.2383 63.2874 89.7996ZM73.3345 92.0894V98.9176H72.3177V97.5602C71.7212 98.5885 70.7587 99.0684 69.6335 99.0684C67.5864 99.0684 66.2714 97.4642 66.2714 95.5035C66.2714 93.5428 67.5864 91.9385 69.6335 91.9385C70.7587 91.9385 71.7212 92.4184 72.3177 93.4468V92.0894H73.3345ZM67.2882 95.5035C67.2882 96.9432 68.1965 98.1498 69.7284 98.1498C71.1654 98.1498 72.3313 97.094 72.3313 95.5035C72.3313 93.913 71.1654 92.8572 69.7284 92.8572C68.1965 92.8572 67.2882 94.0364 67.2882 95.5035Z" fill="#2F2F2F"/>
<path d="M122.182 81.8762C120.181 81.8762 118.276 81.5008 116.469 80.7499C114.661 79.9664 113.128 78.8727 111.869 77.469C110.61 76.0652 109.771 74.4166 109.352 72.5231L115.985 70.2705C116.533 71.8375 117.34 73.0292 118.406 73.8453C119.471 74.6288 120.73 75.0205 122.182 75.0205C123.376 75.0205 124.393 74.792 125.232 74.335C126.104 73.8779 126.782 73.2413 127.266 72.4252C127.75 71.5763 127.992 70.597 127.992 69.487C127.992 68.3771 127.75 67.4303 127.266 66.6468C126.814 65.8307 126.152 65.2104 125.281 64.786C124.441 64.3289 123.408 64.1004 122.182 64.1004C121.471 64.1004 120.762 64.182 120.052 64.3453C119.341 64.5085 118.696 64.737 118.115 65.0308L116.372 61.3582L125.62 51.1726H111.53V44.8066H134.044V50.6829L124.554 61.603L124.797 58.518C126.959 58.518 128.831 58.975 130.413 59.8891C132.026 60.7705 133.27 62.0111 134.141 63.6107C135.045 65.2104 135.497 67.0712 135.497 69.1932C135.497 71.6091 134.916 73.78 133.754 75.7061C132.592 77.6323 131.009 79.1503 129.009 80.2602C127.007 81.3375 124.732 81.8762 122.182 81.8762ZM139.724 81.2886V75.4123L149.407 65.3247C151.311 63.3333 152.748 61.7663 153.716 60.6236C154.716 59.4484 155.394 58.469 155.75 57.6855C156.137 56.902 156.331 56.1348 156.331 55.3839C156.331 54.0454 155.895 53.0008 155.023 52.2499C154.184 51.4664 153.119 51.0747 151.828 51.0747C150.504 51.0747 149.326 51.4664 148.293 52.2499C147.26 53.0008 146.502 54.1597 146.018 55.7267L139.481 53.5721C139.869 51.6786 140.675 50.03 141.902 48.6262C143.128 47.2225 144.614 46.1451 146.357 45.3942C148.1 44.6107 149.923 44.219 151.828 44.219C154.216 44.219 156.314 44.6434 158.122 45.4922C159.929 46.341 161.333 47.5325 162.334 49.0669C163.335 50.6013 163.835 52.3968 163.835 54.4535C163.835 55.7593 163.609 57.0489 163.157 58.3221C162.705 59.5627 162.011 60.8359 161.075 62.1417C160.171 63.4149 158.994 64.8024 157.541 66.304L149.262 74.9226H164.174V81.2886H139.724Z" fill="#2F2F2F"/>
<path d="M121.587 94.1182L125.22 89.3193H126.386V89.4015L122.59 94.3787L123.959 96.1201C124.624 96.9565 125.451 98.1494 126.291 98.1356C126.508 98.1356 126.942 98.0945 127.335 97.7791L127.742 98.5333C127.348 98.9172 126.576 99.068 126.196 99.068C124.949 99.0817 124.217 98.0945 123.661 97.3815L121.587 94.6941V98.9172H120.543V89.3193H121.587V94.1182ZM133.517 98.9172V95.0369C133.517 93.3778 132.676 92.8568 131.809 92.8568C131.063 92.8568 129.748 93.3915 129.721 95.599V98.9172H128.704V92.0889H129.721V93.5286C130.087 92.4317 131.063 91.9381 131.985 91.9381C132.703 91.9381 133.788 92.1986 134.303 93.5423C134.832 92.2535 135.876 91.9381 136.676 91.9381C138.207 91.9381 139.346 92.7745 139.346 95.0369V98.9172H138.329V95.0369C138.329 93.3778 137.489 92.8568 136.621 92.8568C135.916 92.8568 134.601 93.323 134.534 95.4894V98.9172H133.517ZM146.89 88.8394L141.724 99.4656H140.735L145.9 88.8394H146.89ZM153.421 98.9172V95.0369C153.421 93.3778 152.553 92.8568 151.686 92.8568C150.94 92.8568 149.408 93.3915 149.381 95.599V98.9172H148.364V89.0039H149.381V93.5423C149.747 92.4592 150.75 91.9381 151.754 91.9381C153.218 91.9381 154.438 92.8019 154.438 95.0369V98.9172H153.421Z" fill="#2F2F2F"/>
<path d="M239.728 62.6805C239.728 64.2676 239.479 65.7958 239.019 67.2276C238.544 68.7038 237.845 70.0773 236.961 71.307C236.062 72.5596 234.97 73.6628 233.732 74.573C232.517 75.4665 231.158 76.1739 229.699 76.6539C228.283 77.1195 226.772 77.3712 225.203 77.3712C223.634 77.3712 222.123 77.1195 220.707 76.6539C219.248 76.1739 217.889 75.4665 216.674 74.573C215.435 73.6628 214.344 72.5596 213.444 71.307C212.561 70.0773 211.862 68.7038 211.387 67.2276C210.927 65.7958 210.678 64.2676 210.678 62.6805C210.678 61.0934 210.927 59.5652 211.387 58.1333C211.862 56.6572 212.561 55.2836 213.444 54.054C214.344 52.8013 215.435 51.6982 216.674 50.7879C217.893 49.8922 219.254 49.1835 220.718 48.7034C222.13 48.2401 223.638 47.9897 225.203 47.9897C226.772 47.9897 228.283 48.2414 229.699 48.707C231.158 49.187 232.517 49.8944 233.732 50.7879C234.97 51.6982 236.062 52.8013 236.961 54.054C237.845 55.2836 238.544 56.6572 239.019 58.1333C239.479 59.5652 239.728 61.0934 239.728 62.6805Z" stroke="#00FA9A" stroke-width="8"/>
<path d="M207.18 54.0757H209.467" stroke="#2F2F2F" stroke-width="2" stroke-linecap="round"/>
<path d="M201.842 64.8955H204.13" stroke="#2F2F2F" stroke-width="2" stroke-linecap="round"/>
<path d="M204.127 70.3054H208.702" stroke="#2F2F2F" stroke-width="2" stroke-linecap="round"/>
<path d="M201.078 48.666H214.804" stroke="#2F2F2F" stroke-width="2" stroke-linecap="round"/>
<path d="M194.977 54.0757H203.365" stroke="#2F2F2F" stroke-width="2" stroke-linecap="round"/>
<path d="M198.789 59.4858H207.177" stroke="#2F2F2F" stroke-width="2" stroke-linecap="round"/>
<path d="M199.553 75.7156H214.041" stroke="#2F2F2F" stroke-width="2" stroke-linecap="round"/>
<path d="M214.108 91.7462C214.108 90.1969 212.78 89.3193 211.072 89.3193H207.764V98.9173H211.519C213.336 98.9173 214.583 97.9575 214.583 96.4492C214.583 95.2426 213.783 94.2143 212.224 94.0223C213.525 93.6933 214.108 92.7746 214.108 91.7462ZM210.828 94.5159C212.671 94.5159 213.512 95.4072 213.512 96.4218C213.512 97.4227 212.671 98.0397 211.519 98.0397H208.808V94.5159H210.828ZM208.808 93.6795V90.1969H211.072C212.115 90.1969 213.037 90.7316 213.037 91.8148C213.037 92.7609 212.319 93.6795 210.529 93.6795H208.808ZM215.82 95.5032C215.82 97.4913 217.406 99.0681 219.359 99.0681C221.311 99.0681 222.91 97.4776 222.91 95.5032C222.91 93.5561 221.311 91.9382 219.359 91.9382C217.406 91.9382 215.82 93.5424 215.82 95.5032ZM216.837 95.5169C216.837 94.0498 217.976 92.8569 219.359 92.8569C220.755 92.8569 221.894 94.0498 221.894 95.5169C221.894 96.9703 220.755 98.1494 219.359 98.1494C217.976 98.1494 216.837 96.9703 216.837 95.5169ZM224.055 95.5032C224.055 97.4913 225.641 99.0681 227.593 99.0681C229.546 99.0681 231.145 97.4776 231.145 95.5032C231.145 93.5561 229.546 91.9382 227.593 91.9382C225.641 91.9382 224.055 93.5424 224.055 95.5032ZM225.072 95.5169C225.072 94.0498 226.211 92.8569 227.593 92.8569C228.99 92.8569 230.128 94.0498 230.128 95.5169C230.128 96.9703 228.99 98.1494 227.593 98.1494C226.211 98.1494 225.072 96.9703 225.072 95.5169ZM236.735 93.419C236.478 92.377 235.556 91.9382 234.675 91.9382C233.319 91.9382 232.492 92.8569 232.492 93.9401C232.492 94.8999 233.17 95.4483 234.133 95.7637L235.082 96.079C235.664 96.271 236.044 96.5452 236.044 97.08C236.044 97.7381 235.448 98.1632 234.688 98.1632C233.929 98.1632 233.292 97.7792 233.089 97.2034L232.194 97.4365C232.506 98.4922 233.536 99.0681 234.688 99.0681C235.936 99.0681 237.061 98.3277 237.061 97.08C237.061 96.3258 236.641 95.6128 235.448 95.2152L234.444 94.8861C233.983 94.7353 233.509 94.4611 233.509 93.8989C233.509 93.3779 233.956 92.8431 234.743 92.8431C235.204 92.8431 235.637 93.0625 235.827 93.6384L236.735 93.419ZM239.984 92.9117H242.18V92.089H239.984V90.0186H239.211L238.967 92.089H237.829V92.9117H238.967V96.792C238.967 98.5882 239.971 99.0681 240.974 99.0681C242.208 99.0681 242.912 98.3277 242.912 97.3816C242.912 97.3816 242.912 97.0114 242.804 96.7646H241.869C241.95 96.9428 241.964 97.1896 241.964 97.2582C241.964 97.8341 241.53 98.1494 240.987 98.1494C240.486 98.1494 239.984 97.8478 239.984 96.8606V92.9117Z" fill="#2F2F2F"/>
<path d="M273.135 112.629H2V190H273.135V112.629Z" fill="#F5F1EC"/>
<path d="M63.0055 127.319H34.9236C29.5756 127.319 25.2402 131.704 25.2402 137.113V165.515C25.2402 170.924 29.5756 175.309 34.9236 175.309H63.0055C68.3535 175.309 72.6889 170.924 72.6889 165.515V137.113C72.6889 131.704 68.3535 127.319 63.0055 127.319Z" fill="#DB9612"/>
<path d="M34.9699 147.145L35.6206 145.349V145.377H39.3487V145.349L40.0265 147.145H42.2227L38.5082 137.547H36.4611L32.8008 147.145H34.9699ZM37.4914 139.796L38.7522 143.635H36.19L37.4914 139.796ZM49.6015 140.111H47.5815V143.882C47.5815 144.856 47.1884 145.61 46.253 145.61C45.3175 145.61 44.9651 144.869 44.9651 143.896V140.111H42.9451V143.937C42.9451 145.719 43.4738 147.296 45.426 147.296C46.2665 147.296 46.9986 147.008 47.5815 146.186V147.145H49.6015V140.111ZM53.8482 138.384H52.2892L51.9774 140.111H50.7844V141.716H51.8283V144.814C51.8283 146.857 53.0213 147.296 54.2414 147.296C55.8817 147.296 56.5596 146.24 56.5596 145.198C56.5596 144.951 56.5189 144.622 56.3969 144.362H54.7972C54.8379 144.472 54.8921 144.76 54.8921 144.965C54.8921 145.294 54.7565 145.623 54.3634 145.623C53.9702 145.623 53.8482 145.308 53.8482 145.006V141.716H55.7733V140.111H53.8482V138.384ZM57.1291 143.621C57.1291 145.829 58.9321 147.296 60.9521 147.296C62.9856 147.296 64.7751 145.815 64.7751 143.621C64.7751 141.441 62.9856 139.961 60.9521 139.961C58.9321 139.961 57.1291 141.428 57.1291 143.621ZM59.0948 143.621C59.0948 142.525 59.9624 141.716 60.9521 141.716C61.9553 141.716 62.8093 142.538 62.8093 143.621C62.8093 144.718 61.9553 145.541 60.9521 145.541C59.9624 145.541 59.0948 144.732 59.0948 143.621Z" fill="#2F2F2F"/>
<path d="M38.1931 157.603C38.1931 156.907 38.594 156.325 39.3086 156.325C40.0145 156.325 40.5113 156.836 40.5113 157.673C40.5113 158.493 39.9797 158.907 39.3435 158.907C38.6288 158.907 38.1931 158.326 38.1931 157.603ZM40.4764 155.355V155.972C40.1714 155.558 39.6485 155.258 39.0472 155.258C37.6527 155.258 36.8945 156.325 36.8945 157.594C36.8945 158.916 37.7137 159.974 39.0733 159.974C39.7269 159.974 40.154 159.683 40.4764 159.216V159.877H41.775V155.355H40.4764ZM42.5436 158.819C42.8487 159.762 43.755 159.974 44.4174 159.974C45.4022 159.974 46.2475 159.498 46.2475 158.572C46.2475 158.273 46.1517 157.576 45.0971 157.268L44.4261 157.004C44.1995 156.915 44.0078 156.81 44.0078 156.616C44.0078 156.387 44.2605 156.245 44.5045 156.245C44.705 156.245 45.0274 156.316 45.1407 156.677L46.143 156.21C45.7246 155.399 45.0449 155.258 44.5307 155.258C43.572 155.258 42.7789 155.734 42.7789 156.642C42.7789 156.845 42.8312 157.559 43.8945 157.938L44.6788 158.273C44.9228 158.361 45.01 158.467 45.01 158.617C45.01 158.846 44.7137 158.96 44.4261 158.96C44.0688 158.96 43.6156 158.802 43.4849 158.282L42.5436 158.819ZM46.7394 158.819C47.0445 159.762 47.9508 159.974 48.6132 159.974C49.598 159.974 50.4433 159.498 50.4433 158.572C50.4433 158.273 50.3475 157.576 49.293 157.268L48.6219 157.004C48.3953 156.915 48.2036 156.81 48.2036 156.616C48.2036 156.387 48.4563 156.245 48.7003 156.245C48.9008 156.245 49.2232 156.316 49.3365 156.677L50.3388 156.21C49.9204 155.399 49.2407 155.258 48.7265 155.258C47.7678 155.258 46.9748 155.734 46.9748 156.642C46.9748 156.845 47.027 157.559 48.0903 157.938L48.8746 158.273C49.1187 158.361 49.2058 158.467 49.2058 158.617C49.2058 158.846 48.9095 158.96 48.6219 158.96C48.2646 158.96 47.8114 158.802 47.6807 158.282L46.7394 158.819ZM52.5998 159.877V155.355H51.3013V159.877H52.5998ZM51.1444 154.156C51.1444 154.588 51.493 154.888 51.9636 154.888C52.4255 154.888 52.7916 154.588 52.7916 154.156C52.7916 153.716 52.4255 153.407 51.9636 153.407C51.493 153.407 51.1444 153.716 51.1444 154.156ZM53.3864 158.819C53.6915 159.762 54.5978 159.974 55.2602 159.974C56.245 159.974 57.0903 159.498 57.0903 158.572C57.0903 158.273 56.9945 157.576 55.9399 157.268L55.2689 157.004C55.0423 156.915 54.8506 156.81 54.8506 156.616C54.8506 156.387 55.1033 156.245 55.3473 156.245C55.5478 156.245 55.8702 156.316 55.9835 156.677L56.9857 156.21C56.5674 155.399 55.8876 155.258 55.3735 155.258C54.4148 155.258 53.6217 155.734 53.6217 156.642C53.6217 156.845 53.674 157.559 54.7373 157.938L55.5216 158.273C55.7656 158.361 55.8528 158.467 55.8528 158.617C55.8528 158.846 55.5565 158.96 55.2689 158.96C54.9116 158.96 54.4584 158.802 54.3277 158.282L53.3864 158.819ZM59.5003 154.245H58.4981L58.2977 155.355H57.5307V156.387H58.2018V158.379C58.2018 159.692 58.9687 159.974 59.7531 159.974C60.8076 159.974 61.2433 159.295 61.2433 158.625C61.2433 158.467 61.2172 158.255 61.1388 158.088H60.1104C60.1365 158.158 60.1714 158.343 60.1714 158.476C60.1714 158.687 60.0842 158.899 59.8315 158.899C59.5788 158.899 59.5003 158.696 59.5003 158.502V156.387H60.7379V155.355H59.5003V154.245Z" fill="#F5F1EC"/>
<path d="M122.074 127.319H93.992C88.644 127.319 84.3086 131.704 84.3086 137.113V165.515C84.3086 170.924 88.644 175.309 93.992 175.309H122.074C127.422 175.309 131.757 170.924 131.757 165.515V137.113C131.757 131.704 127.422 127.319 122.074 127.319Z" fill="#EDE6DE"/>
<path d="M92.2209 148.477L91.7793 147.102L94.7192 145.774H95.7069V154.001H93.9406V147.819C93.4061 148.054 92.6508 148.289 92.2209 148.477ZM96.9984 153.119C96.9984 152.531 97.4632 152.085 98.0906 152.085C98.7065 152.085 99.1946 152.531 99.1946 153.119C99.1946 153.695 98.7065 154.13 98.0906 154.13C97.4632 154.13 96.9984 153.695 96.9984 153.119ZM104.462 151.192L102.801 152.625C103.277 152.567 103.974 152.555 104.067 152.555H106.391V154.001H100.43L100.256 152.919L103.347 150.04C103.881 149.57 104.439 148.923 104.439 148.301C104.439 147.572 103.951 147.137 103.161 147.137C102.103 147.137 101.825 147.889 101.825 148.406H100.128C100.128 147.325 100.895 145.644 103.161 145.644C104.939 145.644 106.147 146.667 106.147 148.289C106.147 149.57 105.241 150.522 104.462 151.192ZM109.322 150.416L111.019 147.971H112.936V148.207L110.961 150.722L111.739 151.979C112.007 152.39 112.216 152.52 112.553 152.52C112.681 152.52 112.983 152.461 113.192 152.308L113.843 153.542C113.308 154.024 112.75 154.13 112.286 154.13C111.612 154.13 110.996 153.907 110.519 153.213L109.322 151.262V154.001H107.591V145.503H109.322V150.416ZM120.962 149.288C120.207 149.288 119.974 149.958 119.974 150.769V154.001H118.254V150.757C118.254 149.934 118.022 149.288 117.255 149.288C116.5 149.288 116.267 149.958 116.267 150.769V154.001H114.536V147.971H116.267V148.794C116.651 148.195 117.209 147.842 117.859 147.842C118.766 147.842 119.382 148.242 119.684 148.853C120.137 147.971 120.997 147.842 121.566 147.842C123.239 147.842 123.693 149.194 123.693 150.722V154.001H121.961V150.757C121.961 149.934 121.729 149.288 120.962 149.288Z" fill="#2F2F2F"/>
<path d="M181.142 127.319H153.06C147.712 127.319 143.377 131.704 143.377 137.113V165.515C143.377 170.924 147.712 175.309 153.06 175.309H181.142C186.49 175.309 190.826 170.924 190.826 165.515V137.113C190.826 131.704 186.49 127.319 181.142 127.319Z" fill="#EDE6DE"/>
<path d="M173.397 151.478H161.777C160.707 151.478 159.84 152.355 159.84 153.437V160.488C159.84 161.57 160.707 162.447 161.777 162.447H173.397C174.466 162.447 175.333 161.57 175.333 160.488V153.437C175.333 152.355 174.466 151.478 173.397 151.478Z" fill="#8ECEC9"/>
<path d="M172.232 148.866V145.732C172.232 143.135 170.151 141.031 167.584 141.031C165.016 141.031 162.936 143.135 162.936 145.732V151.478" stroke="#2F2F2F" stroke-linecap="round"/>
<path d="M167.586 155.698V159.011" stroke="#2F2F2F" stroke-linecap="round"/>
<path d="M167.581 156.17C168.007 156.17 168.352 155.821 168.352 155.391C168.352 154.96 168.007 154.611 167.581 154.611C167.156 154.611 166.811 154.96 166.811 155.391C166.811 155.821 167.156 156.17 167.581 156.17Z" fill="#2F2F2F"/>
<path d="M240.213 127.319H212.131C206.783 127.319 202.447 131.704 202.447 137.113V165.515C202.447 170.924 206.783 175.309 212.131 175.309H240.213C245.561 175.309 249.896 170.924 249.896 165.515V137.113C249.896 131.704 245.561 127.319 240.213 127.319Z" fill="#EDE6DE"/>
<path d="M233.865 145.479H218.477" stroke="#2F2F2F" stroke-linecap="round"/>
<path d="M230.02 147.423C228.957 147.423 228.096 146.552 228.096 145.478C228.096 144.403 228.957 143.532 230.02 143.532C231.082 143.532 231.943 144.403 231.943 145.478C231.943 146.552 231.082 147.423 230.02 147.423Z" fill="#2F2F2F"/>
<path d="M218.477 151.314H233.865" stroke="#2F2F2F" stroke-linecap="round"/>
<path d="M222.324 153.26C223.386 153.26 224.248 152.389 224.248 151.314C224.248 150.24 223.386 149.369 222.324 149.369C221.262 149.369 220.4 150.24 220.4 151.314C220.4 152.389 221.262 153.26 222.324 153.26Z" fill="#2F2F2F"/>
<path d="M233.865 157.151H218.477" stroke="#2F2F2F" stroke-linecap="round"/>
<path d="M230.02 155.205C228.957 155.205 228.096 156.076 228.096 157.151C228.096 158.225 228.957 159.096 230.02 159.096C231.082 159.096 231.943 158.225 231.943 157.151C231.943 156.076 231.082 155.205 230.02 155.205Z" fill="#2F2F2F"/>
</g>
</g>
<defs>
<filter id="filter0_d_976_724" x="0" y="0" width="283.135" height="202" filterUnits="userSpaceOnUse" color-interpolation-filters="sRGB">
<feFlood flood-opacity="0" result="BackgroundImageFix"/>
<feColorMatrix in="SourceAlpha" type="matrix" values="0 0 0 0 0 0 0 0 0 0 0 0 0 0 0 0 0 0 127 0" result="hardAlpha"/>
<feOffset dx="4" dy="6"/>
<feGaussianBlur stdDeviation="3"/>
<feComposite in2="hardAlpha" operator="out"/>
<feColorMatrix type="matrix" values="0 0 0 0 0 0 0 0 0 0 0 0 0 0 0 0 0 0 0.25 0"/>
<feBlend mode="multiply" in2="BackgroundImageFix" result="effect1_dropShadow_976_724"/>
<feBlend mode="normal" in="SourceGraphic" in2="effect1_dropShadow_976_724" result="shape"/>
</filter>
</defs>
</svg>
