<svg width="251" height="204" viewBox="0 0 251 204" fill="none" xmlns="http://www.w3.org/2000/svg">
<g clip-path="url(#clip0_976_1021)">
<g filter="url(#filter0_d_976_1021)">
<mask id="mask0_976_1021" style="mask-type:luminance" maskUnits="userSpaceOnUse" x="5" y="3" width="241" height="194">
<path d="M229.711 3.37207H21.291C12.627 3.37207 5.60352 10.4171 5.60352 19.1076V180.397C5.60352 189.087 12.627 196.132 21.291 196.132H229.711C238.375 196.132 245.398 189.087 245.398 180.397V19.1076C245.398 10.4171 238.375 3.37207 229.711 3.37207Z" fill="white"/>
</mask>
<g mask="url(#mask0_976_1021)">
<path d="M229.711 3.37207H21.291C12.627 3.37207 5.60352 10.4171 5.60352 19.1076V180.397C5.60352 189.087 12.627 196.132 21.291 196.132H229.711C238.375 196.132 245.398 189.087 245.398 180.397V19.1076C245.398 10.4171 238.375 3.37207 229.711 3.37207Z" fill="#EDE6DE"/>
<path d="M162.257 -30.2907L185.59 -30.2769C195.726 -30.2705 203.94 -22.0227 203.938 -11.8502L203.879 167.83L47.0625 167.751L47.1198 -11.9278C47.1219 -22.1056 55.3472 -30.3535 65.4897 -30.3472L85.9109 -30.3364L94.116 -30.3311C97.2457 -30.329 99.7809 -27.6659 99.7809 -24.3836L99.7798 -20.1374C99.7787 -16.854 102.316 -14.1919 105.445 -14.1898L150.923 -14.1632C154.052 -14.1611 156.589 -16.8211 156.589 -20.1033L156.59 -24.3506C156.59 -27.6318 159.129 -30.2918 162.257 -30.2907Z" fill="url(#paint0_linear_976_1021)"/>
<path opacity="0.1" d="M125.501 147.239C159.538 147.239 187.13 119.562 187.13 85.4207C187.13 51.2795 159.538 23.6025 125.501 23.6025C91.4635 23.6025 63.8711 51.2795 63.8711 85.4207C63.8711 119.562 91.4635 147.239 125.501 147.239Z" fill="#00FA9A"/>
<path opacity="0.1" d="M125.501 136.137C153.425 136.137 176.062 113.544 176.062 85.6733C176.062 57.8029 153.425 35.2095 125.501 35.2095C97.5765 35.2095 74.9395 57.8029 74.9395 85.6733C74.9395 113.544 97.5765 136.137 125.501 136.137Z" fill="#00FA9A"/>
<path opacity="0.1" d="M125.661 126.767C148.029 126.767 166.161 108.579 166.161 86.1434C166.161 63.7077 148.029 45.52 125.661 45.52C103.294 45.52 85.1621 63.7077 85.1621 86.1434C85.1621 108.579 103.294 126.767 125.661 126.767Z" fill="#00FA9A"/>
<path fill-rule="evenodd" clip-rule="evenodd" d="M125.659 100.922C128.102 98.7395 136.203 90.9167 136.203 83.0939C136.203 76.4428 131.173 70.8101 124.968 70.8101C118.764 70.8101 113.734 76.4428 113.734 83.0939C113.734 90.9167 121.835 98.7395 124.279 100.922C124.677 101.277 125.26 101.277 125.659 100.922ZM125.098 83.9262C127.247 83.9262 128.99 82.1784 128.99 80.0227C128.99 77.8669 127.247 76.1191 125.098 76.1191C122.949 76.1191 121.207 77.8669 121.207 80.0227C121.207 82.1784 122.949 83.9262 125.098 83.9262Z" fill="#D64315"/>
<path d="M115.388 135.065C114.551 135.065 113.777 134.913 113.066 134.609C112.355 134.305 111.733 133.88 111.199 133.334C110.666 132.788 110.247 132.149 109.944 131.414C109.651 130.68 109.505 129.877 109.505 129.007C109.505 128.136 109.646 127.334 109.929 126.599C110.221 125.855 110.629 125.215 111.152 124.68C111.686 124.134 112.308 123.715 113.019 123.421C113.73 123.117 114.504 122.964 115.341 122.964C116.177 122.964 116.925 123.106 117.584 123.389C118.253 123.672 118.818 124.05 119.278 124.522C119.738 124.984 120.068 125.493 120.267 126.049L118.368 126.961C118.149 126.353 117.777 125.86 117.255 125.482C116.731 125.104 116.094 124.916 115.341 124.916C114.609 124.916 113.96 125.089 113.396 125.435C112.841 125.781 112.407 126.258 112.093 126.867C111.79 127.475 111.639 128.189 111.639 129.007C111.639 129.825 111.795 130.544 112.109 131.163C112.433 131.771 112.878 132.248 113.443 132.595C114.007 132.941 114.656 133.114 115.388 133.114C115.984 133.114 116.533 132.999 117.035 132.768C117.537 132.527 117.939 132.19 118.243 131.761C118.546 131.32 118.698 130.801 118.698 130.203V129.306L119.671 130.155H115.341V128.346H120.831V129.526C120.831 130.428 120.68 131.226 120.376 131.918C120.073 132.61 119.66 133.192 119.137 133.665C118.625 134.126 118.044 134.478 117.396 134.719C116.747 134.95 116.078 135.065 115.388 135.065ZM122.52 134.876V123.153H126.881C127.676 123.153 128.376 123.3 128.983 123.594C129.6 123.877 130.081 124.297 130.426 124.853C130.771 125.398 130.944 126.064 130.944 126.851C130.944 127.627 130.766 128.294 130.41 128.849C130.065 129.395 129.59 129.814 128.983 130.108C128.376 130.402 127.676 130.549 126.881 130.549H124.653V134.876H122.52ZM124.653 128.661H126.912C127.299 128.661 127.634 128.587 127.916 128.44C128.198 128.283 128.418 128.068 128.575 127.795C128.732 127.523 128.81 127.208 128.81 126.851C128.81 126.484 128.732 126.169 128.575 125.907C128.418 125.634 128.198 125.424 127.916 125.277C127.634 125.12 127.299 125.041 126.912 125.041H124.653V128.661ZM136.865 135.065C136.122 135.065 135.432 134.928 134.794 134.656C134.166 134.383 133.623 134.006 133.162 133.523C132.713 133.03 132.384 132.458 132.174 131.808L133.947 131.037C134.229 131.708 134.637 132.238 135.17 132.626C135.704 133.004 136.305 133.192 136.974 133.192C137.351 133.192 137.675 133.135 137.947 133.019C138.229 132.893 138.444 132.725 138.59 132.516C138.747 132.306 138.826 132.054 138.826 131.761C138.826 131.414 138.721 131.131 138.512 130.911C138.313 130.68 138.01 130.502 137.602 130.376L135.359 129.652C134.449 129.369 133.764 128.944 133.304 128.377C132.844 127.811 132.613 127.145 132.613 126.379C132.613 125.707 132.776 125.115 133.1 124.601C133.435 124.087 133.895 123.688 134.48 123.405C135.076 123.111 135.756 122.964 136.519 122.964C137.22 122.964 137.864 123.09 138.449 123.342C139.035 123.583 139.537 123.924 139.955 124.365C140.384 124.795 140.703 125.304 140.912 125.891L139.155 126.678C138.925 126.091 138.58 125.639 138.12 125.325C137.66 124.999 137.126 124.837 136.519 124.837C136.164 124.837 135.851 124.9 135.578 125.026C135.307 125.141 135.092 125.309 134.935 125.529C134.789 125.739 134.715 125.991 134.715 126.285C134.715 126.61 134.82 126.898 135.029 127.15C135.239 127.391 135.558 127.58 135.986 127.716L138.135 128.393C139.066 128.697 139.762 129.117 140.222 129.652C140.692 130.187 140.928 130.848 140.928 131.635C140.928 132.306 140.755 132.899 140.41 133.413C140.065 133.927 139.589 134.33 138.982 134.624C138.376 134.918 137.67 135.065 136.865 135.065ZM54.5781 163.537V156.001H55.3849V162.779H58.7128V163.537H54.5781ZM59.825 163.537V158.115H60.5813V163.537H59.825ZM59.825 157.114V156.001H60.5813V157.114H59.825ZM64.6909 165.763C64.3211 165.763 63.9782 165.705 63.6623 165.591C63.353 165.476 63.0841 165.318 62.8555 165.115C62.6336 164.92 62.4622 164.691 62.3411 164.428L63.037 164.053C63.1446 164.309 63.3362 164.532 63.6118 164.721C63.8875 164.91 64.2405 165.004 64.6707 165.004C65.0002 165.004 65.3027 164.94 65.5784 164.812C65.854 164.684 66.0759 164.495 66.244 164.245C66.412 163.996 66.4961 163.689 66.4961 163.325V162.121L66.6171 162.232C66.4289 162.624 66.1498 162.927 65.7801 163.143C65.4103 163.352 65.0069 163.456 64.5699 163.456C64.0656 163.456 63.6118 163.335 63.2084 163.092C62.805 162.849 62.4857 162.522 62.2504 162.111C62.0218 161.693 61.9075 161.231 61.9075 160.725C61.9075 160.213 62.0218 159.751 62.2504 159.339C62.4857 158.928 62.8017 158.601 63.1984 158.358C63.6017 158.115 64.0589 157.994 64.5699 157.994C65.0069 157.994 65.4036 158.095 65.7599 158.297C66.123 158.5 66.4087 158.773 66.6171 159.117L66.4961 159.329V158.115H67.2525V163.325C67.2525 163.79 67.1415 164.205 66.9197 164.569C66.7045 164.94 66.402 165.23 66.012 165.439C65.6288 165.655 65.1884 165.763 64.6909 165.763ZM64.6102 162.698C64.9598 162.698 65.2758 162.61 65.5582 162.435C65.8406 162.253 66.0658 162.013 66.2339 161.716C66.4087 161.413 66.4961 161.083 66.4961 160.725C66.4961 160.368 66.4087 160.041 66.2339 159.744C66.0658 159.44 65.8406 159.201 65.5582 159.026C65.2758 158.844 64.9598 158.753 64.6102 158.753C64.2539 158.753 63.9312 158.844 63.6421 159.026C63.353 159.201 63.1244 159.437 62.9563 159.734C62.795 160.031 62.7143 160.361 62.7143 160.725C62.7143 161.083 62.795 161.413 62.9563 161.716C63.1244 162.013 63.3496 162.253 63.632 162.435C63.9211 162.61 64.2472 162.698 64.6102 162.698ZM70.7228 163.659C70.3463 163.659 70.0034 163.571 69.6941 163.396C69.3848 163.214 69.1394 162.964 68.9579 162.647C68.7831 162.323 68.6957 161.953 68.6957 161.534V158.115H69.4521V161.443C69.4521 161.733 69.5092 161.99 69.6235 162.212C69.7445 162.428 69.9092 162.597 70.1177 162.718C70.3328 162.839 70.5782 162.9 70.8539 162.9C71.1295 162.9 71.3749 162.839 71.59 162.718C71.8052 162.59 71.9733 162.411 72.0943 162.182C72.2153 161.946 72.2758 161.666 72.2758 161.342V158.115H73.0322V163.537H72.2758V162.485L72.4473 162.526C72.3195 162.876 72.101 163.153 71.7917 163.355C71.4825 163.558 71.1261 163.659 70.7228 163.659ZM77.0482 163.659C76.5439 163.659 76.0868 163.537 75.6766 163.295C75.2732 163.045 74.9539 162.704 74.7186 162.273C74.4833 161.841 74.3656 161.352 74.3656 160.806C74.3656 160.26 74.4799 159.778 74.7085 159.36C74.9371 158.935 75.2464 158.601 75.6363 158.358C76.033 158.115 76.4767 157.994 76.9675 157.994C77.3574 157.994 77.7037 158.068 78.0062 158.216C78.3155 158.358 78.5777 158.554 78.7928 158.803C79.008 159.046 79.1727 159.322 79.287 159.633C79.4013 159.936 79.4585 160.25 79.4585 160.573C79.4585 160.641 79.4551 160.718 79.4484 160.806C79.4416 160.887 79.4316 160.971 79.4181 161.059H74.8497V160.351H78.9845L78.6214 160.654C78.6819 160.283 78.6382 159.953 78.4903 159.663C78.3491 159.366 78.1441 159.134 77.8751 158.965C77.6062 158.79 77.3037 158.702 76.9675 158.702C76.6313 158.702 76.3187 158.79 76.0296 158.965C75.7472 159.14 75.5254 159.387 75.364 159.703C75.2027 160.014 75.1388 160.385 75.1724 160.816C75.1388 161.248 75.206 161.625 75.3741 161.949C75.5489 162.266 75.7842 162.512 76.08 162.688C76.3826 162.863 76.7053 162.951 77.0482 162.951C77.4448 162.951 77.7776 162.856 78.0466 162.667C78.3155 162.479 78.534 162.242 78.7021 161.959L79.3475 162.303C79.2399 162.546 79.0752 162.772 78.8534 162.981C78.6315 163.183 78.3659 163.348 78.0567 163.477C77.7541 163.598 77.418 163.659 77.0482 163.659ZM82.5057 165.56V158.115H83.2621V159.329L83.1411 159.117C83.3562 158.773 83.642 158.5 83.9983 158.297C84.3614 158.095 84.7748 157.994 85.2387 157.994C85.7497 157.994 86.2035 158.119 86.6002 158.368C87.0036 158.611 87.3196 158.945 87.5482 159.37C87.7835 159.795 87.9011 160.28 87.9011 160.826C87.9011 161.366 87.7835 161.851 87.5482 162.283C87.3196 162.708 87.0036 163.045 86.6002 163.295C86.2035 163.537 85.7497 163.659 85.2387 163.659C84.7748 163.659 84.3546 163.554 83.9781 163.345C83.6084 163.129 83.3293 162.826 83.1411 162.435L83.2621 162.323V165.56H82.5057ZM85.1984 162.9C85.5614 162.9 85.8842 162.809 86.1665 162.627C86.4556 162.445 86.6809 162.199 86.8422 161.888C87.0103 161.572 87.0943 161.217 87.0943 160.826C87.0943 160.428 87.0103 160.074 86.8422 159.764C86.6809 159.454 86.4556 159.208 86.1665 159.026C85.8842 158.844 85.5614 158.753 85.1984 158.753C84.8353 158.753 84.5059 158.844 84.2101 159.026C83.921 159.208 83.689 159.457 83.5142 159.774C83.3461 160.084 83.2621 160.435 83.2621 160.826C83.2621 161.217 83.3461 161.572 83.5142 161.888C83.689 162.199 83.921 162.445 84.2101 162.627C84.5059 162.809 84.8353 162.9 85.1984 162.9ZM90.7955 163.659C90.4526 163.659 90.1467 163.595 89.8778 163.466C89.6088 163.332 89.397 163.15 89.2424 162.92C89.0878 162.691 89.0105 162.428 89.0105 162.131C89.0105 161.848 89.071 161.592 89.192 161.362C89.313 161.126 89.5013 160.927 89.7567 160.766C90.0122 160.604 90.3383 160.489 90.735 160.422L92.8528 160.068V160.755L90.9165 161.079C90.5265 161.147 90.2442 161.271 90.0694 161.453C89.9013 161.636 89.8172 161.851 89.8172 162.101C89.8172 162.344 89.9114 162.549 90.0996 162.718C90.2946 162.887 90.5433 162.971 90.8459 162.971C91.2157 162.971 91.5384 162.893 91.814 162.738C92.0897 162.576 92.3048 162.361 92.4595 162.091C92.6141 161.821 92.6914 161.521 92.6914 161.19V159.815C92.6914 159.491 92.5738 159.228 92.3384 159.026C92.1031 158.823 91.7972 158.722 91.4207 158.722C91.0913 158.722 90.8022 158.807 90.5534 158.975C90.3047 159.137 90.1198 159.349 89.9988 159.612L89.313 159.238C89.4138 159.009 89.5718 158.8 89.787 158.611C90.0089 158.422 90.261 158.274 90.5433 158.166C90.8257 158.051 91.1182 157.994 91.4207 157.994C91.8174 157.994 92.167 158.071 92.4695 158.227C92.7788 158.382 93.0175 158.597 93.1856 158.874C93.3604 159.144 93.4478 159.457 93.4478 159.815V163.537H92.6914V162.455L92.8024 162.566C92.7082 162.769 92.5603 162.954 92.3586 163.123C92.1636 163.284 91.9317 163.416 91.6628 163.517C91.4006 163.611 91.1115 163.659 90.7955 163.659ZM95.0036 163.537V158.115H95.76V159.005L95.6592 158.874C95.7869 158.618 95.9785 158.415 96.234 158.267C96.4962 158.119 96.8122 158.044 97.182 158.044H97.5248V158.803H97.0509C96.6609 158.803 96.3483 158.925 96.113 159.167C95.8777 159.41 95.76 159.754 95.76 160.199V163.537H95.0036ZM99.9743 163.659C99.6315 163.659 99.3255 163.595 99.0566 163.466C98.7877 163.332 98.5759 163.15 98.4213 162.92C98.2666 162.691 98.1893 162.428 98.1893 162.131C98.1893 161.848 98.2498 161.592 98.3709 161.362C98.4919 161.126 98.6801 160.927 98.9356 160.766C99.1911 160.604 99.5172 160.489 99.9138 160.422L102.032 160.068V160.755L100.095 161.079C99.7054 161.147 99.423 161.271 99.2482 161.453C99.0801 161.636 98.9961 161.851 98.9961 162.101C98.9961 162.344 99.0902 162.549 99.2785 162.718C99.4735 162.887 99.7222 162.971 100.025 162.971C100.395 162.971 100.717 162.893 100.993 162.738C101.269 162.576 101.484 162.361 101.638 162.091C101.793 161.821 101.87 161.521 101.87 161.19V159.815C101.87 159.491 101.753 159.228 101.517 159.026C101.282 158.823 100.976 158.722 100.6 158.722C100.27 158.722 99.9811 158.807 99.7323 158.975C99.4835 159.137 99.2987 159.349 99.1776 159.612L98.4919 159.238C98.5927 159.009 98.7507 158.8 98.9659 158.611C99.1877 158.422 99.4398 158.274 99.7222 158.166C100.005 158.051 100.297 157.994 100.6 157.994C100.996 157.994 101.346 158.071 101.648 158.227C101.958 158.382 102.196 158.597 102.364 158.874C102.539 159.144 102.627 159.457 102.627 159.815V163.537H101.87V162.455L101.981 162.566C101.887 162.769 101.739 162.954 101.537 163.123C101.343 163.284 101.111 163.416 100.842 163.517C100.579 163.611 100.29 163.659 99.9743 163.659ZM108.367 163.659C107.835 163.659 107.368 163.534 106.965 163.284C106.561 163.035 106.245 162.698 106.017 162.273C105.788 161.841 105.674 161.356 105.674 160.816C105.674 160.277 105.788 159.795 106.017 159.37C106.245 158.945 106.561 158.611 106.965 158.368C107.368 158.119 107.835 157.994 108.367 157.994C108.703 157.994 109.019 158.055 109.315 158.176C109.61 158.297 109.873 158.463 110.101 158.672C110.33 158.874 110.501 159.11 110.616 159.38L109.93 159.734C109.795 159.444 109.59 159.208 109.315 159.026C109.039 158.844 108.723 158.753 108.367 158.753C108.01 158.753 107.688 158.844 107.398 159.026C107.116 159.201 106.891 159.447 106.723 159.764C106.561 160.074 106.481 160.428 106.481 160.826C106.481 161.217 106.561 161.572 106.723 161.888C106.891 162.199 107.116 162.445 107.398 162.627C107.688 162.809 108.01 162.9 108.367 162.9C108.723 162.9 109.036 162.809 109.304 162.627C109.58 162.445 109.789 162.202 109.93 161.899L110.616 162.273C110.501 162.536 110.33 162.772 110.101 162.981C109.873 163.19 109.61 163.355 109.315 163.477C109.019 163.598 108.703 163.659 108.367 163.659ZM114.474 163.659C113.963 163.659 113.499 163.537 113.082 163.295C112.666 163.045 112.333 162.708 112.084 162.283C111.842 161.851 111.721 161.362 111.721 160.816C111.721 160.277 111.842 159.795 112.084 159.37C112.326 158.945 112.652 158.611 113.062 158.368C113.479 158.119 113.95 157.994 114.474 157.994C114.998 157.994 115.466 158.115 115.876 158.358C116.293 158.601 116.619 158.935 116.854 159.36C117.096 159.784 117.217 160.27 117.217 160.816C117.217 161.369 117.093 161.861 116.844 162.293C116.595 162.718 116.262 163.052 115.846 163.295C115.435 163.537 114.978 163.659 114.474 163.659ZM114.474 162.9C114.837 162.9 115.163 162.809 115.452 162.627C115.748 162.445 115.98 162.195 116.148 161.878C116.323 161.561 116.41 161.207 116.41 160.816C116.41 160.425 116.323 160.074 116.148 159.764C115.98 159.454 115.748 159.208 115.452 159.026C115.163 158.844 114.837 158.753 114.474 158.753C114.111 158.753 113.782 158.844 113.486 159.026C113.197 159.208 112.965 159.454 112.79 159.764C112.615 160.074 112.528 160.425 112.528 160.816C112.528 161.207 112.615 161.561 112.79 161.878C112.965 162.195 113.197 162.445 113.486 162.627C113.782 162.809 114.111 162.9 114.474 162.9ZM118.551 163.537V158.115H119.308V159.167L119.136 159.127C119.271 158.776 119.489 158.5 119.792 158.297C120.101 158.095 120.457 157.994 120.861 157.994C121.244 157.994 121.587 158.082 121.889 158.257C122.198 158.432 122.441 158.675 122.615 158.985C122.797 159.289 122.888 159.633 122.888 160.017V163.537H122.131V160.31C122.131 159.98 122.071 159.7 121.95 159.471C121.835 159.242 121.671 159.066 121.456 158.945C121.247 158.817 121.005 158.753 120.729 158.753C120.454 158.753 120.208 158.817 119.993 158.945C119.778 159.066 119.61 159.245 119.489 159.481C119.368 159.71 119.308 159.987 119.308 160.31V163.537H118.551ZM126.793 163.659C126.288 163.659 125.831 163.537 125.421 163.295C125.018 163.045 124.698 162.704 124.463 162.273C124.228 161.841 124.11 161.352 124.11 160.806C124.11 160.26 124.224 159.778 124.453 159.36C124.682 158.935 124.991 158.601 125.381 158.358C125.777 158.115 126.221 157.994 126.712 157.994C127.102 157.994 127.448 158.068 127.751 158.216C128.06 158.358 128.322 158.554 128.537 158.803C128.752 159.046 128.917 159.322 129.032 159.633C129.146 159.936 129.203 160.25 129.203 160.573C129.203 160.641 129.2 160.718 129.193 160.806C129.186 160.887 129.176 160.971 129.163 161.059H124.594V160.351H128.729L128.366 160.654C128.426 160.283 128.383 159.953 128.235 159.663C128.094 159.366 127.889 159.134 127.62 158.965C127.351 158.79 127.048 158.702 126.712 158.702C126.376 158.702 126.063 158.79 125.774 158.965C125.492 159.14 125.27 159.387 125.109 159.703C124.947 160.014 124.883 160.385 124.917 160.816C124.883 161.248 124.951 161.625 125.119 161.949C125.293 162.266 125.529 162.512 125.825 162.688C126.127 162.863 126.45 162.951 126.793 162.951C127.189 162.951 127.522 162.856 127.791 162.667C128.06 162.479 128.279 162.242 128.447 161.959L129.092 162.303C128.984 162.546 128.82 162.772 128.598 162.981C128.376 163.183 128.11 163.348 127.801 163.477C127.499 163.598 127.162 163.659 126.793 163.659ZM133.008 163.659C132.477 163.659 132.009 163.534 131.606 163.284C131.203 163.035 130.887 162.698 130.658 162.273C130.429 161.841 130.315 161.356 130.315 160.816C130.315 160.277 130.429 159.795 130.658 159.37C130.887 158.945 131.203 158.611 131.606 158.368C132.009 158.119 132.477 157.994 133.008 157.994C133.344 157.994 133.66 158.055 133.956 158.176C134.252 158.297 134.514 158.463 134.742 158.672C134.971 158.874 135.142 159.11 135.257 159.38L134.571 159.734C134.436 159.444 134.231 159.208 133.956 159.026C133.68 158.844 133.364 158.753 133.008 158.753C132.651 158.753 132.329 158.844 132.04 159.026C131.757 159.201 131.532 159.447 131.364 159.764C131.203 160.074 131.122 160.428 131.122 160.826C131.122 161.217 131.203 161.572 131.364 161.888C131.532 162.199 131.757 162.445 132.04 162.627C132.329 162.809 132.651 162.9 133.008 162.9C133.364 162.9 133.677 162.809 133.946 162.627C134.221 162.445 134.43 162.202 134.571 161.899L135.257 162.273C135.142 162.536 134.971 162.772 134.742 162.981C134.514 163.19 134.252 163.355 133.956 163.477C133.66 163.598 133.344 163.659 133.008 163.659ZM138.651 163.598C138.167 163.598 137.794 163.456 137.531 163.173C137.269 162.89 137.138 162.485 137.138 161.959V158.874H136.14V158.115H136.392C136.62 158.115 136.802 158.041 136.936 157.893C137.071 157.738 137.138 157.545 137.138 157.316V156.861H137.894V158.115H139.084V158.874H137.894V161.959C137.894 162.141 137.921 162.303 137.975 162.445C138.029 162.58 138.12 162.688 138.247 162.769C138.382 162.849 138.56 162.89 138.782 162.89C138.836 162.89 138.9 162.887 138.973 162.88C139.047 162.873 139.111 162.866 139.165 162.86V163.537C139.084 163.558 138.994 163.571 138.893 163.578C138.792 163.591 138.711 163.598 138.651 163.598ZM141.958 163.659C141.615 163.659 141.309 163.595 141.04 163.466C140.771 163.332 140.56 163.15 140.405 162.92C140.25 162.691 140.173 162.428 140.173 162.131C140.173 161.848 140.234 161.592 140.355 161.362C140.476 161.126 140.664 160.927 140.919 160.766C141.175 160.604 141.501 160.489 141.898 160.422L144.015 160.068V160.755L142.079 161.079C141.689 161.147 141.407 161.271 141.232 161.453C141.064 161.636 140.98 161.851 140.98 162.101C140.98 162.344 141.074 162.549 141.262 162.718C141.457 162.887 141.706 162.971 142.008 162.971C142.378 162.971 142.701 162.893 142.977 162.738C143.252 162.576 143.467 162.361 143.622 162.091C143.777 161.821 143.854 161.521 143.854 161.19V159.815C143.854 159.491 143.736 159.228 143.501 159.026C143.266 158.823 142.96 158.722 142.583 158.722C142.254 158.722 141.965 158.807 141.716 158.975C141.467 159.137 141.282 159.349 141.161 159.612L140.476 159.238C140.576 159.009 140.734 158.8 140.95 158.611C141.171 158.422 141.424 158.274 141.706 158.166C141.988 158.051 142.281 157.994 142.583 157.994C142.98 157.994 143.33 158.071 143.632 158.227C143.941 158.382 144.18 158.597 144.348 158.874C144.523 159.144 144.61 159.457 144.61 159.815V163.537H143.854V162.455L143.965 162.566C143.871 162.769 143.723 162.954 143.521 163.123C143.326 163.284 143.094 163.416 142.825 163.517C142.563 163.611 142.274 163.659 141.958 163.659ZM146.166 163.537V158.115H146.923V159.005L146.822 158.874C146.949 158.618 147.141 158.415 147.397 158.267C147.659 158.119 147.975 158.044 148.345 158.044H148.687V158.803H148.213C147.823 158.803 147.511 158.925 147.276 159.167C147.04 159.41 146.923 159.754 146.923 160.199V163.537H146.166ZM152.851 163.659C152.508 163.659 152.202 163.595 151.933 163.466C151.664 163.332 151.452 163.15 151.298 162.92C151.143 162.691 151.066 162.428 151.066 162.131C151.066 161.848 151.126 161.592 151.247 161.362C151.368 161.126 151.557 160.927 151.812 160.766C152.068 160.604 152.394 160.489 152.79 160.422L154.908 160.068V160.755L152.972 161.079C152.582 161.147 152.299 161.271 152.125 161.453C151.957 161.636 151.873 161.851 151.873 162.101C151.873 162.344 151.967 162.549 152.155 162.718C152.35 162.887 152.599 162.971 152.901 162.971C153.271 162.971 153.594 162.893 153.869 162.738C154.145 162.576 154.36 162.361 154.515 162.091C154.669 161.821 154.747 161.521 154.747 161.19V159.815C154.747 159.491 154.629 159.228 154.394 159.026C154.158 158.823 153.853 158.722 153.476 158.722C153.147 158.722 152.857 158.807 152.609 158.975C152.36 159.137 152.175 159.349 152.054 159.612L151.368 159.238C151.469 159.009 151.627 158.8 151.842 158.611C152.064 158.422 152.316 158.274 152.599 158.166C152.881 158.051 153.173 157.994 153.476 157.994C153.873 157.994 154.222 158.071 154.525 158.227C154.834 158.382 155.073 158.597 155.241 158.874C155.416 159.144 155.503 159.457 155.503 159.815V163.537H154.747V162.455L154.858 162.566C154.763 162.769 154.616 162.954 154.414 163.123C154.219 163.284 153.987 163.416 153.718 163.517C153.456 163.611 153.167 163.659 152.851 163.659ZM160.648 163.659C160.13 163.659 159.676 163.527 159.287 163.264C158.897 163.001 158.614 162.644 158.439 162.192L159.075 161.888C159.229 162.219 159.445 162.482 159.72 162.677C160.003 162.873 160.312 162.971 160.648 162.971C160.971 162.971 161.243 162.893 161.465 162.738C161.687 162.576 161.798 162.367 161.798 162.111C161.798 161.922 161.744 161.774 161.636 161.666C161.529 161.551 161.404 161.464 161.263 161.403C161.122 161.342 160.998 161.298 160.89 161.271L160.114 161.049C159.616 160.907 159.256 160.708 159.034 160.452C158.813 160.196 158.702 159.899 158.702 159.562C158.702 159.245 158.782 158.968 158.944 158.732C159.105 158.496 159.324 158.314 159.599 158.186C159.875 158.058 160.181 157.994 160.517 157.994C160.974 157.994 161.388 158.115 161.757 158.358C162.134 158.594 162.399 158.925 162.554 159.349L161.909 159.653C161.774 159.349 161.579 159.113 161.324 158.945C161.075 158.769 160.796 158.682 160.487 158.682C160.184 158.682 159.942 158.759 159.761 158.914C159.579 159.07 159.488 159.265 159.488 159.501C159.488 159.683 159.535 159.828 159.629 159.936C159.724 160.044 159.831 160.125 159.952 160.179C160.08 160.233 160.191 160.273 160.285 160.3L161.182 160.563C161.619 160.691 161.959 160.89 162.201 161.16C162.45 161.43 162.574 161.747 162.574 162.111C162.574 162.408 162.49 162.674 162.322 162.91C162.161 163.146 161.935 163.332 161.646 163.466C161.357 163.595 161.025 163.659 160.648 163.659ZM165.819 163.659C165.443 163.659 165.1 163.571 164.791 163.396C164.481 163.214 164.236 162.964 164.054 162.647C163.88 162.323 163.792 161.953 163.792 161.534V158.115H164.549V161.443C164.549 161.733 164.606 161.99 164.72 162.212C164.841 162.428 165.006 162.597 165.214 162.718C165.429 162.839 165.675 162.9 165.95 162.9C166.226 162.9 166.471 162.839 166.687 162.718C166.902 162.59 167.07 162.411 167.191 162.182C167.312 161.946 167.372 161.666 167.372 161.342V158.115H168.129V163.537H167.372V162.485L167.544 162.526C167.416 162.876 167.198 163.153 166.888 163.355C166.579 163.558 166.223 163.659 165.819 163.659ZM171.248 163.659C170.905 163.659 170.599 163.595 170.33 163.466C170.061 163.332 169.849 163.15 169.695 162.92C169.54 162.691 169.463 162.428 169.463 162.131C169.463 161.848 169.523 161.592 169.644 161.362C169.765 161.126 169.953 160.927 170.209 160.766C170.464 160.604 170.791 160.489 171.187 160.422L173.305 160.068V160.755L171.369 161.079C170.979 161.147 170.696 161.271 170.522 161.453C170.354 161.636 170.269 161.851 170.269 162.101C170.269 162.344 170.364 162.549 170.552 162.718C170.747 162.887 170.996 162.971 171.298 162.971C171.668 162.971 171.991 162.893 172.266 162.738C172.542 162.576 172.757 162.361 172.912 162.091C173.066 161.821 173.144 161.521 173.144 161.19V159.815C173.144 159.491 173.026 159.228 172.791 159.026C172.555 158.823 172.249 158.722 171.873 158.722C171.544 158.722 171.254 158.807 171.006 158.975C170.757 159.137 170.572 159.349 170.451 159.612L169.765 159.238C169.866 159.009 170.024 158.8 170.239 158.611C170.461 158.422 170.713 158.274 170.996 158.166C171.278 158.051 171.57 157.994 171.873 157.994C172.27 157.994 172.619 158.071 172.922 158.227C173.231 158.382 173.47 158.597 173.638 158.874C173.813 159.144 173.9 159.457 173.9 159.815V163.537H173.144V162.455L173.255 162.566C173.16 162.769 173.013 162.954 172.811 163.123C172.616 163.284 172.384 163.416 172.115 163.517C171.853 163.611 171.564 163.659 171.248 163.659ZM179.257 163.537L176.504 156.001H177.341L179.761 162.819H179.6L182.01 156.001H182.857L180.104 163.537H179.257ZM185.707 163.659C185.202 163.659 184.745 163.537 184.335 163.295C183.932 163.045 183.612 162.704 183.377 162.273C183.142 161.841 183.024 161.352 183.024 160.806C183.024 160.26 183.138 159.778 183.367 159.36C183.595 158.935 183.905 158.601 184.295 158.358C184.691 158.115 185.135 157.994 185.626 157.994C186.016 157.994 186.362 158.068 186.665 158.216C186.974 158.358 187.236 158.554 187.451 158.803C187.666 159.046 187.831 159.322 187.945 159.633C188.06 159.936 188.117 160.25 188.117 160.573C188.117 160.641 188.113 160.718 188.107 160.806C188.1 160.887 188.09 160.971 188.076 161.059H183.508V160.351H187.643L187.28 160.654C187.34 160.283 187.297 159.953 187.149 159.663C187.007 159.366 186.802 159.134 186.533 158.965C186.265 158.79 185.962 158.702 185.626 158.702C185.29 158.702 184.977 158.79 184.688 158.965C184.406 159.14 184.184 159.387 184.022 159.703C183.861 160.014 183.797 160.385 183.831 160.816C183.797 161.248 183.864 161.625 184.032 161.949C184.207 162.266 184.443 162.512 184.738 162.688C185.041 162.863 185.364 162.951 185.707 162.951C186.103 162.951 186.436 162.856 186.705 162.667C186.974 162.479 187.192 162.242 187.36 161.959L188.006 162.303C187.898 162.546 187.734 162.772 187.512 162.981C187.29 163.183 187.024 163.348 186.715 163.477C186.412 163.598 186.076 163.659 185.707 163.659ZM189.45 163.537V155.88H190.207V163.537H189.45ZM193.318 163.659C192.975 163.659 192.669 163.595 192.4 163.466C192.131 163.332 191.919 163.15 191.765 162.92C191.61 162.691 191.533 162.428 191.533 162.131C191.533 161.848 191.593 161.592 191.714 161.362C191.835 161.126 192.024 160.927 192.279 160.766C192.535 160.604 192.861 160.489 193.257 160.422L195.375 160.068V160.755L193.439 161.079C193.049 161.147 192.766 161.271 192.592 161.453C192.424 161.636 192.34 161.851 192.34 162.101C192.34 162.344 192.434 162.549 192.622 162.718C192.817 162.887 193.066 162.971 193.368 162.971C193.738 162.971 194.061 162.893 194.336 162.738C194.612 162.576 194.827 162.361 194.982 162.091C195.136 161.821 195.214 161.521 195.214 161.19V159.815C195.214 159.491 195.096 159.228 194.861 159.026C194.625 158.823 194.32 158.722 193.943 158.722C193.614 158.722 193.325 158.807 193.076 158.975C192.827 159.137 192.642 159.349 192.521 159.612L191.835 159.238C191.936 159.009 192.094 158.8 192.309 158.611C192.531 158.422 192.783 158.274 193.066 158.166C193.348 158.051 193.64 157.994 193.943 157.994C194.34 157.994 194.689 158.071 194.992 158.227C195.301 158.382 195.54 158.597 195.708 158.874C195.883 159.144 195.97 159.457 195.97 159.815V163.537H195.214V162.455L195.325 162.566C195.231 162.769 195.083 162.954 194.881 163.123C194.686 163.284 194.454 163.416 194.185 163.517C193.923 163.611 193.634 163.659 193.318 163.659ZM63.0034 178.711V171.175H63.7093L66.5331 175.282H66.1398L68.9534 171.175H69.6594V178.711H68.8526V172.267L69.1148 172.368L66.3515 176.384H66.3112L63.558 172.368L63.8102 172.267V178.711H63.0034ZM72.8859 178.832C72.5431 178.832 72.2372 178.768 71.9682 178.64C71.6993 178.505 71.4875 178.323 71.3329 178.094C71.1782 177.865 71.1009 177.602 71.1009 177.305C71.1009 177.022 71.1614 176.765 71.2825 176.536C71.4035 176.3 71.5917 176.101 71.8472 175.939C72.1027 175.777 72.4288 175.663 72.8254 175.595L74.9432 175.241V175.929L73.007 176.253C72.617 176.32 72.3346 176.445 72.1598 176.627C71.9918 176.809 71.9077 177.025 71.9077 177.274C71.9077 177.517 72.0018 177.723 72.1901 177.891C72.3851 178.06 72.6338 178.144 72.9364 178.144C73.3061 178.144 73.6289 178.067 73.9045 177.912C74.1802 177.75 74.3953 177.534 74.5499 177.264C74.7046 176.995 74.7819 176.694 74.7819 176.364V174.988C74.7819 174.665 74.6642 174.402 74.4289 174.199C74.1936 173.997 73.8877 173.896 73.5112 173.896C73.1818 173.896 72.8927 173.98 72.6439 174.149C72.3951 174.311 72.2103 174.523 72.0892 174.786L71.4035 174.412C71.5043 174.182 71.6623 173.973 71.8775 173.785C72.0993 173.596 72.3515 173.447 72.6338 173.339C72.9162 173.225 73.2087 173.167 73.5112 173.167C73.9079 173.167 74.2575 173.245 74.56 173.4C74.8693 173.555 75.108 173.771 75.276 174.048C75.4508 174.317 75.5383 174.631 75.5383 174.988V178.711H74.7819V177.628L74.8928 177.74C74.7987 177.942 74.6508 178.128 74.4491 178.296C74.2541 178.458 74.0222 178.589 73.7532 178.691C73.491 178.785 73.2019 178.832 72.8859 178.832ZM77.0941 178.711V173.289H77.8505V174.341L77.679 174.3C77.8135 173.95 78.032 173.673 78.3345 173.471C78.6438 173.269 79.0001 173.167 79.4035 173.167C79.7868 173.167 80.1296 173.255 80.4322 173.43C80.7415 173.606 80.9835 173.849 81.1583 174.159C81.3398 174.462 81.4306 174.806 81.4306 175.191V178.711H80.6742V175.484C80.6742 175.154 80.6137 174.874 80.4927 174.644C80.3784 174.415 80.2137 174.24 79.9985 174.118C79.7901 173.99 79.5481 173.926 79.2724 173.926C78.9968 173.926 78.7514 173.99 78.5362 174.118C78.3211 174.24 78.153 174.418 78.032 174.654C77.911 174.884 77.8505 175.16 77.8505 175.484V178.711H77.0941ZM84.9423 178.772C84.4583 178.772 84.0851 178.63 83.8229 178.347C83.5607 178.063 83.4296 177.659 83.4296 177.133V174.048H82.4312V173.289H82.6834C82.9119 173.289 83.0935 173.215 83.2279 173.066C83.3624 172.911 83.4296 172.719 83.4296 172.49V172.035H84.186V173.289H85.376V174.048H84.186V177.133C84.186 177.315 84.2129 177.477 84.2667 177.618C84.3205 177.753 84.4112 177.861 84.539 177.942C84.6734 178.023 84.8516 178.063 85.0734 178.063C85.1272 178.063 85.1911 178.06 85.2651 178.053C85.339 178.047 85.4029 178.04 85.4567 178.033V178.711C85.376 178.731 85.2852 178.745 85.1844 178.751C85.0835 178.765 85.0029 178.772 84.9423 178.772ZM89.0486 178.832C88.5443 178.832 88.0871 178.711 87.677 178.468C87.2736 178.219 86.9543 177.878 86.719 177.446C86.4836 177.015 86.366 176.526 86.366 175.98C86.366 175.433 86.4803 174.951 86.7089 174.533C86.9375 174.108 87.2467 173.774 87.6367 173.532C88.0334 173.289 88.4771 173.167 88.9679 173.167C89.3578 173.167 89.7041 173.242 90.0066 173.39C90.3159 173.532 90.5781 173.727 90.7932 173.977C91.0084 174.219 91.1731 174.496 91.2874 174.806C91.4017 175.11 91.4588 175.423 91.4588 175.747C91.4588 175.814 91.4555 175.892 91.4487 175.98C91.442 176.061 91.4319 176.145 91.4185 176.233H86.8501V175.524H90.9848L90.6218 175.828C90.6823 175.457 90.6386 175.127 90.4907 174.837C90.3495 174.54 90.1444 174.307 89.8755 174.139C89.6066 173.963 89.304 173.876 88.9679 173.876C88.6317 173.876 88.3191 173.963 88.03 174.139C87.7476 174.314 87.5257 174.56 87.3644 174.877C87.203 175.187 87.1392 175.558 87.1728 175.99C87.1392 176.421 87.2064 176.799 87.3745 177.123C87.5493 177.44 87.7846 177.686 88.0804 177.861C88.383 178.036 88.7057 178.124 89.0486 178.124C89.4452 178.124 89.778 178.03 90.0469 177.841C90.3159 177.652 90.5344 177.416 90.7025 177.133L91.3479 177.477C91.2403 177.72 91.0756 177.945 90.8537 178.155C90.6319 178.357 90.3663 178.522 90.057 178.65C89.7545 178.772 89.4183 178.832 89.0486 178.832ZM92.7923 178.711V173.289H93.5486V174.341L93.3772 174.3C93.5116 173.95 93.7302 173.673 94.0327 173.471C94.342 173.269 94.6983 173.167 95.1017 173.167C95.4849 173.167 95.8278 173.255 96.1303 173.43C96.4396 173.606 96.6816 173.849 96.8564 174.159C97.038 174.462 97.1287 174.806 97.1287 175.191V178.711H96.3724V175.484C96.3724 175.154 96.3119 174.874 96.1908 174.644C96.0766 174.415 95.9118 174.24 95.6967 174.118C95.4883 173.99 95.2462 173.926 94.9706 173.926C94.6949 173.926 94.4495 173.99 94.2344 174.118C94.0193 174.24 93.8512 174.418 93.7302 174.654C93.6091 174.884 93.5486 175.16 93.5486 175.484V178.711H92.7923ZM98.5737 178.711V171.053H99.33V174.341L99.1586 174.3C99.293 173.95 99.5116 173.673 99.8141 173.471C100.123 173.269 100.48 173.167 100.883 173.167C101.266 173.167 101.609 173.255 101.912 173.43C102.221 173.606 102.463 173.849 102.638 174.159C102.819 174.462 102.91 174.806 102.91 175.191V178.711H102.154V175.484C102.154 175.154 102.093 174.874 101.972 174.644C101.851 174.415 101.683 174.24 101.468 174.118C101.26 173.99 101.021 173.926 100.752 173.926C100.483 173.926 100.241 173.99 100.026 174.118C99.8107 174.24 99.6393 174.418 99.5116 174.654C99.3905 174.884 99.33 175.16 99.33 175.484V178.711H98.5737ZM105.918 178.832C105.575 178.832 105.269 178.768 105 178.64C104.731 178.505 104.519 178.323 104.365 178.094C104.21 177.865 104.133 177.602 104.133 177.305C104.133 177.022 104.193 176.765 104.314 176.536C104.435 176.3 104.623 176.101 104.879 175.939C105.134 175.777 105.46 175.663 105.857 175.595L107.975 175.241V175.929L106.039 176.253C105.649 176.32 105.366 176.445 105.192 176.627C105.023 176.809 104.939 177.025 104.939 177.274C104.939 177.517 105.034 177.723 105.222 177.891C105.417 178.06 105.666 178.144 105.968 178.144C106.338 178.144 106.661 178.067 106.936 177.912C107.212 177.75 107.427 177.534 107.582 177.264C107.736 176.995 107.814 176.694 107.814 176.364V174.988C107.814 174.665 107.696 174.402 107.461 174.199C107.225 173.997 106.919 173.896 106.543 173.896C106.213 173.896 105.924 173.98 105.676 174.149C105.427 174.311 105.242 174.523 105.121 174.786L104.435 174.412C104.536 174.182 104.694 173.973 104.909 173.785C105.131 173.596 105.383 173.447 105.666 173.339C105.948 173.225 106.24 173.167 106.543 173.167C106.94 173.167 107.289 173.245 107.592 173.4C107.901 173.555 108.14 173.771 108.308 174.048C108.483 174.317 108.57 174.631 108.57 174.988V178.711H107.814V177.628L107.925 177.74C107.83 177.942 107.683 178.128 107.481 178.296C107.286 178.458 107.054 178.589 106.785 178.691C106.523 178.785 106.234 178.832 105.918 178.832ZM114.37 178.832C113.859 178.832 113.396 178.711 112.979 178.468C112.562 178.219 112.229 177.881 111.98 177.457C111.738 177.025 111.617 176.536 111.617 175.99C111.617 175.45 111.738 174.968 111.98 174.543C112.222 174.118 112.548 173.785 112.959 173.542C113.375 173.292 113.846 173.167 114.37 173.167C114.895 173.167 115.362 173.289 115.772 173.532C116.189 173.774 116.515 174.108 116.75 174.533C116.992 174.958 117.113 175.443 117.113 175.99C117.113 176.543 116.989 177.035 116.74 177.467C116.492 177.892 116.159 178.225 115.742 178.468C115.332 178.711 114.875 178.832 114.37 178.832ZM114.37 178.074C114.733 178.074 115.06 177.983 115.349 177.8C115.644 177.618 115.876 177.369 116.045 177.052C116.219 176.735 116.307 176.381 116.307 175.99C116.307 175.599 116.219 175.248 116.045 174.938C115.876 174.628 115.644 174.381 115.349 174.199C115.06 174.017 114.733 173.926 114.37 173.926C114.007 173.926 113.678 174.017 113.382 174.199C113.093 174.381 112.861 174.628 112.686 174.938C112.511 175.248 112.424 175.599 112.424 175.99C112.424 176.381 112.511 176.735 112.686 177.052C112.861 177.369 113.093 177.618 113.382 177.8C113.678 177.983 114.007 178.074 114.37 178.074ZM122.037 178.832C121.519 178.832 121.066 178.701 120.676 178.438C120.286 178.175 120.003 177.817 119.829 177.365L120.464 177.062C120.619 177.392 120.834 177.655 121.109 177.851C121.392 178.047 121.701 178.144 122.037 178.144C122.36 178.144 122.632 178.067 122.854 177.912C123.076 177.75 123.187 177.541 123.187 177.285C123.187 177.096 123.133 176.947 123.025 176.839C122.918 176.725 122.793 176.637 122.652 176.576C122.511 176.516 122.387 176.472 122.279 176.445L121.503 176.222C121.005 176.081 120.645 175.882 120.424 175.626C120.202 175.369 120.091 175.073 120.091 174.735C120.091 174.418 120.171 174.142 120.333 173.906C120.494 173.67 120.713 173.488 120.988 173.36C121.264 173.232 121.57 173.167 121.906 173.167C122.363 173.167 122.777 173.289 123.146 173.532C123.523 173.768 123.789 174.098 123.943 174.523L123.298 174.826C123.163 174.523 122.968 174.287 122.713 174.118C122.464 173.943 122.185 173.855 121.876 173.855C121.573 173.855 121.331 173.933 121.15 174.088C120.968 174.243 120.877 174.439 120.877 174.675C120.877 174.857 120.924 175.002 121.019 175.11C121.113 175.218 121.22 175.298 121.341 175.352C121.469 175.406 121.58 175.447 121.674 175.474L122.572 175.737C123.009 175.865 123.348 176.064 123.59 176.334C123.839 176.603 123.963 176.92 123.963 177.285C123.963 177.581 123.879 177.848 123.711 178.084C123.55 178.32 123.325 178.505 123.036 178.64C122.746 178.768 122.414 178.832 122.037 178.832ZM127.753 178.832C127.249 178.832 126.792 178.711 126.381 178.468C125.978 178.219 125.659 177.878 125.423 177.446C125.188 177.015 125.07 176.526 125.07 175.98C125.07 175.433 125.185 174.951 125.413 174.533C125.642 174.108 125.951 173.774 126.341 173.532C126.738 173.289 127.182 173.167 127.672 173.167C128.062 173.167 128.408 173.242 128.711 173.39C129.02 173.532 129.283 173.727 129.498 173.977C129.713 174.219 129.878 174.496 129.992 174.806C130.106 175.11 130.163 175.423 130.163 175.747C130.163 175.814 130.16 175.892 130.153 175.98C130.146 176.061 130.136 176.145 130.123 176.233H125.554V175.524H129.689L129.326 175.828C129.387 175.457 129.343 175.127 129.195 174.837C129.054 174.54 128.849 174.307 128.58 174.139C128.311 173.963 128.008 173.876 127.672 173.876C127.336 173.876 127.024 173.963 126.734 174.139C126.452 174.314 126.23 174.56 126.069 174.877C125.907 175.187 125.844 175.558 125.877 175.99C125.844 176.421 125.911 176.799 126.079 177.123C126.254 177.44 126.489 177.686 126.785 177.861C127.087 178.036 127.41 178.124 127.753 178.124C128.15 178.124 128.482 178.03 128.751 177.841C129.02 177.652 129.239 177.416 129.407 177.133L130.052 177.477C129.945 177.72 129.78 177.945 129.558 178.155C129.336 178.357 129.071 178.522 128.761 178.65C128.459 178.772 128.123 178.832 127.753 178.832ZM131.497 178.711V173.289H132.253V174.321L132.132 174.169C132.28 173.852 132.498 173.606 132.788 173.43C133.083 173.255 133.406 173.167 133.756 173.167C134.173 173.167 134.549 173.285 134.885 173.522C135.221 173.758 135.46 174.064 135.601 174.442L135.389 174.452C135.524 174.034 135.756 173.717 136.085 173.501C136.421 173.279 136.791 173.167 137.195 173.167C137.558 173.167 137.89 173.255 138.193 173.43C138.502 173.606 138.748 173.849 138.929 174.159C139.117 174.462 139.212 174.806 139.212 175.191V178.711H138.455V175.484C138.455 175.154 138.395 174.874 138.274 174.644C138.159 174.415 138.001 174.24 137.8 174.118C137.598 173.99 137.366 173.926 137.104 173.926C136.848 173.926 136.616 173.99 136.408 174.118C136.2 174.24 136.035 174.418 135.914 174.654C135.793 174.884 135.732 175.16 135.732 175.484V178.711H134.976V175.484C134.976 175.154 134.915 174.874 134.794 174.644C134.68 174.415 134.522 174.24 134.32 174.118C134.119 173.99 133.887 173.926 133.625 173.926C133.362 173.926 133.127 173.99 132.919 174.118C132.717 174.24 132.556 174.418 132.435 174.654C132.314 174.884 132.253 175.16 132.253 175.484V178.711H131.497ZM140.656 180.734V173.289H141.412V174.503L141.291 174.29C141.506 173.946 141.792 173.673 142.149 173.471C142.512 173.269 142.925 173.167 143.389 173.167C143.9 173.167 144.354 173.292 144.75 173.542C145.154 173.785 145.47 174.118 145.698 174.543C145.934 174.968 146.051 175.454 146.051 176C146.051 176.539 145.934 177.025 145.698 177.457C145.47 177.881 145.154 178.219 144.75 178.468C144.354 178.711 143.9 178.832 143.389 178.832C142.925 178.832 142.505 178.728 142.128 178.519C141.759 178.303 141.48 177.999 141.291 177.608L141.412 177.497V180.734H140.656ZM143.349 178.074C143.712 178.074 144.034 177.983 144.317 177.8C144.606 177.618 144.831 177.372 144.992 177.062C145.161 176.745 145.245 176.391 145.245 176C145.245 175.602 145.161 175.248 144.992 174.938C144.831 174.628 144.606 174.381 144.317 174.199C144.034 174.017 143.712 173.926 143.349 173.926C142.986 173.926 142.656 174.017 142.36 174.199C142.071 174.381 141.839 174.631 141.664 174.948C141.496 175.258 141.412 175.609 141.412 176C141.412 176.391 141.496 176.745 141.664 177.062C141.839 177.372 142.071 177.618 142.36 177.8C142.656 177.983 142.986 178.074 143.349 178.074ZM147.383 178.711V173.289H148.139V174.179L148.038 174.048C148.166 173.791 148.357 173.589 148.613 173.441C148.875 173.292 149.191 173.218 149.561 173.218H149.904V173.977H149.43C149.04 173.977 148.727 174.098 148.492 174.341C148.257 174.584 148.139 174.928 148.139 175.373V178.711H147.383ZM153.251 178.832C152.747 178.832 152.289 178.711 151.879 178.468C151.476 178.219 151.156 177.878 150.921 177.446C150.686 177.015 150.568 176.526 150.568 175.98C150.568 175.433 150.683 174.951 150.911 174.533C151.14 174.108 151.449 173.774 151.839 173.532C152.236 173.289 152.679 173.167 153.17 173.167C153.56 173.167 153.906 173.242 154.209 173.39C154.518 173.532 154.78 173.727 154.995 173.977C155.211 174.219 155.375 174.496 155.49 174.806C155.604 175.11 155.661 175.423 155.661 175.747C155.661 175.814 155.658 175.892 155.651 175.98C155.644 176.061 155.634 176.145 155.621 176.233H151.052V175.524H155.187L154.824 175.828C154.885 175.457 154.841 175.127 154.693 174.837C154.552 174.54 154.347 174.307 154.078 174.139C153.809 173.963 153.506 173.876 153.17 173.876C152.834 173.876 152.521 173.963 152.232 174.139C151.95 174.314 151.728 174.56 151.567 174.877C151.405 175.187 151.341 175.558 151.375 175.99C151.341 176.421 151.409 176.799 151.577 177.123C151.752 177.44 151.987 177.686 152.283 177.861C152.585 178.036 152.908 178.124 153.251 178.124C153.647 178.124 153.98 178.03 154.249 177.841C154.518 177.652 154.737 177.416 154.905 177.133L155.55 177.477C155.443 177.72 155.278 177.945 155.056 178.155C154.834 178.357 154.569 178.522 154.259 178.65C153.957 178.772 153.621 178.832 153.251 178.832ZM158.708 178.711V171.053H159.465V178.711H158.708ZM161.013 178.711V173.289H161.769V178.711H161.013ZM161.013 172.287V171.175H161.769V172.287H161.013ZM165.879 180.936C165.509 180.936 165.166 180.879 164.85 180.764C164.541 180.65 164.272 180.491 164.043 180.289C163.821 180.093 163.65 179.864 163.529 179.601L164.225 179.227C164.332 179.483 164.524 179.706 164.8 179.894C165.075 180.083 165.428 180.178 165.858 180.178C166.188 180.178 166.49 180.114 166.766 179.985C167.042 179.857 167.264 179.668 167.432 179.419C167.6 179.169 167.684 178.863 167.684 178.498V177.295L167.805 177.406C167.617 177.797 167.338 178.101 166.968 178.316C166.598 178.525 166.195 178.63 165.758 178.63C165.253 178.63 164.8 178.509 164.396 178.266C163.993 178.023 163.673 177.696 163.438 177.285C163.21 176.866 163.095 176.404 163.095 175.899C163.095 175.386 163.21 174.924 163.438 174.513C163.673 174.101 163.989 173.774 164.386 173.532C164.79 173.289 165.247 173.167 165.758 173.167C166.195 173.167 166.591 173.269 166.948 173.471C167.311 173.673 167.596 173.946 167.805 174.29L167.684 174.503V173.289H168.44V178.498C168.44 178.964 168.329 179.379 168.107 179.743C167.892 180.114 167.59 180.404 167.2 180.613C166.817 180.828 166.376 180.936 165.879 180.936ZM165.798 177.871C166.148 177.871 166.464 177.784 166.746 177.608C167.028 177.426 167.254 177.187 167.422 176.89C167.596 176.587 167.684 176.256 167.684 175.899C167.684 175.541 167.596 175.214 167.422 174.917C167.254 174.614 167.028 174.375 166.746 174.199C166.464 174.017 166.148 173.926 165.798 173.926C165.442 173.926 165.119 174.017 164.83 174.199C164.541 174.375 164.312 174.611 164.144 174.907C163.983 175.204 163.902 175.535 163.902 175.899C163.902 176.256 163.983 176.587 164.144 176.89C164.312 177.187 164.537 177.426 164.82 177.608C165.109 177.784 165.435 177.871 165.798 177.871ZM171.558 178.832C171.215 178.832 170.909 178.768 170.64 178.64C170.371 178.505 170.159 178.323 170.004 178.094C169.85 177.865 169.773 177.602 169.773 177.305C169.773 177.022 169.833 176.765 169.954 176.536C170.075 176.3 170.263 176.101 170.519 175.939C170.774 175.777 171.1 175.663 171.497 175.595L173.615 175.241V175.929L171.679 176.253C171.289 176.32 171.006 176.445 170.831 176.627C170.663 176.809 170.579 177.025 170.579 177.274C170.579 177.517 170.673 177.723 170.862 177.891C171.057 178.06 171.305 178.144 171.608 178.144C171.978 178.144 172.3 178.067 172.576 177.912C172.852 177.75 173.067 177.534 173.222 177.264C173.376 176.995 173.453 176.694 173.453 176.364V174.988C173.453 174.665 173.336 174.402 173.101 174.199C172.865 173.997 172.559 173.896 172.183 173.896C171.853 173.896 171.564 173.98 171.315 174.149C171.067 174.311 170.882 174.523 170.761 174.786L170.075 174.412C170.176 174.182 170.334 173.973 170.549 173.785C170.771 173.596 171.023 173.447 171.305 173.339C171.588 173.225 171.88 173.167 172.183 173.167C172.579 173.167 172.929 173.245 173.232 173.4C173.541 173.555 173.78 173.771 173.948 174.048C174.122 174.317 174.21 174.631 174.21 174.988V178.711H173.453V177.628L173.564 177.74C173.47 177.942 173.322 178.128 173.121 178.296C172.926 178.458 172.694 178.589 172.425 178.691C172.163 178.785 171.874 178.832 171.558 178.832ZM178.206 178.832C177.702 178.832 177.248 178.711 176.845 178.468C176.441 178.219 176.122 177.881 175.887 177.457C175.658 177.025 175.544 176.539 175.544 176C175.544 175.454 175.658 174.968 175.887 174.543C176.122 174.118 176.438 173.785 176.835 173.542C177.238 173.292 177.695 173.167 178.206 173.167C178.67 173.167 179.084 173.269 179.447 173.471C179.81 173.673 180.095 173.946 180.304 174.29L180.183 174.503V171.053H180.939V178.711H180.183V177.497L180.304 177.608C180.116 177.999 179.833 178.303 179.457 178.519C179.087 178.728 178.67 178.832 178.206 178.832ZM178.247 178.074C178.61 178.074 178.936 177.983 179.225 177.8C179.521 177.618 179.753 177.372 179.921 177.062C180.095 176.745 180.183 176.391 180.183 176C180.183 175.609 180.095 175.258 179.921 174.948C179.753 174.631 179.521 174.381 179.225 174.199C178.936 174.017 178.61 173.926 178.247 173.926C177.89 173.926 177.568 174.017 177.278 174.199C176.989 174.381 176.761 174.628 176.593 174.938C176.431 175.248 176.351 175.602 176.351 176C176.351 176.391 176.431 176.745 176.593 177.062C176.761 177.372 176.986 177.618 177.268 177.8C177.557 177.983 177.884 178.074 178.247 178.074ZM185.024 178.832C184.513 178.832 184.049 178.711 183.632 178.468C183.215 178.219 182.882 177.881 182.633 177.457C182.391 177.025 182.27 176.536 182.27 175.99C182.27 175.45 182.391 174.968 182.633 174.543C182.876 174.118 183.202 173.785 183.612 173.542C184.029 173.292 184.499 173.167 185.024 173.167C185.548 173.167 186.015 173.289 186.425 173.532C186.842 173.774 187.168 174.108 187.404 174.533C187.646 174.958 187.767 175.443 187.767 175.99C187.767 176.543 187.642 177.035 187.394 177.467C187.145 177.892 186.812 178.225 186.395 178.468C185.985 178.711 185.528 178.832 185.024 178.832ZM185.024 178.074C185.387 178.074 185.713 177.983 186.002 177.8C186.298 177.618 186.53 177.369 186.698 177.052C186.872 176.735 186.96 176.381 186.96 175.99C186.96 175.599 186.872 175.248 186.698 174.938C186.53 174.628 186.298 174.381 186.002 174.199C185.713 174.017 185.387 173.926 185.024 173.926C184.661 173.926 184.331 174.017 184.035 174.199C183.746 174.381 183.514 174.628 183.339 174.938C183.165 175.248 183.077 175.599 183.077 175.99C183.077 176.381 183.165 176.735 183.339 177.052C183.514 177.369 183.746 177.618 184.035 177.8C184.331 177.983 184.661 178.074 185.024 178.074Z" fill="#2F2F2F"/>
</g>
</g>
</g>
<defs>
<filter id="filter0_d_976_1021" x="-4.39648" y="-2.62793" width="259.795" height="212.76" filterUnits="userSpaceOnUse" color-interpolation-filters="sRGB">
<feFlood flood-opacity="0" result="BackgroundImageFix"/>
<feColorMatrix in="SourceAlpha" type="matrix" values="0 0 0 0 0 0 0 0 0 0 0 0 0 0 0 0 0 0 127 0" result="hardAlpha"/>
<feOffset dy="4"/>
<feGaussianBlur stdDeviation="5"/>
<feComposite in2="hardAlpha" operator="out"/>
<feColorMatrix type="matrix" values="0 0 0 0 0 0 0 0 0 0 0 0 0 0 0 0 0 0 0.25 0"/>
<feBlend mode="normal" in2="BackgroundImageFix" result="effect1_dropShadow_976_1021"/>
<feBlend mode="normal" in="SourceGraphic" in2="effect1_dropShadow_976_1021" result="shape"/>
</filter>
<linearGradient id="paint0_linear_976_1021" x1="125.5" y1="167.83" x2="125.5" y2="-30.3472" gradientUnits="userSpaceOnUse">
<stop offset="0.0570912" stop-color="#FBFAF8" stop-opacity="0"/>
<stop offset="1" stop-color="#FBFAF8" stop-opacity="0.7"/>
</linearGradient>
<clipPath id="clip0_976_1021">
<rect width="251" height="204" fill="white"/>
</clipPath>
</defs>
</svg>
