<svg width="287" height="204" viewBox="0 0 287 204" fill="none" xmlns="http://www.w3.org/2000/svg">
<g clip-path="url(#clip0_976_1026)">
<g filter="url(#filter0_d_976_1026)">
<path d="M261.871 3.98706H25.1294C14.9032 3.98706 6.61328 12.3172 6.61328 22.5929V176.091C6.61328 186.367 14.9032 194.697 25.1294 194.697H261.871C272.098 194.697 280.387 186.367 280.387 176.091V22.5929C280.387 12.3172 272.098 3.98706 261.871 3.98706Z" fill="#F5F1EC"/>
<path d="M37.5137 164.795V152.914H41.9258C42.7299 152.914 43.4388 153.063 44.0525 153.36C44.6768 153.647 45.1635 154.073 45.5126 154.636C45.8618 155.189 46.0364 155.864 46.0364 156.662C46.0364 157.448 45.8565 158.123 45.4968 158.687C45.1476 159.24 44.6662 159.665 44.0525 159.963C43.4388 160.26 42.7299 160.409 41.9258 160.409H39.6721V164.795H37.5137ZM39.6721 158.496H41.9575C42.349 158.496 42.6876 158.421 42.9733 158.272C43.259 158.113 43.4812 157.895 43.6399 157.618C43.7986 157.342 43.8779 157.023 43.8779 156.662C43.8779 156.289 43.7986 155.97 43.6399 155.705C43.4812 155.428 43.259 155.216 42.9733 155.067C42.6876 154.907 42.349 154.828 41.9575 154.828H39.6721V158.496ZM47.6304 164.795V156.119H49.5826V158.049L49.4238 157.762C49.6249 157.113 49.937 156.662 50.3602 156.406C50.794 156.151 51.3125 156.024 51.9156 156.024H52.4235V157.874H51.6775C51.085 157.874 50.6089 158.06 50.2491 158.432C49.8894 158.793 49.7095 159.304 49.7095 159.963V164.795H47.6304ZM57.6613 164.986C56.7725 164.986 55.9948 164.784 55.3282 164.38C54.6617 163.976 54.1432 163.429 53.7729 162.738C53.4026 162.047 53.2174 161.281 53.2174 160.441C53.2174 159.569 53.4026 158.799 53.7729 158.129C54.1538 157.448 54.6669 156.911 55.3124 156.518C55.9684 156.125 56.6984 155.928 57.5026 155.928C58.1797 155.928 58.7722 156.04 59.2801 156.263C59.7986 156.486 60.2377 156.794 60.5974 157.188C60.9571 157.581 61.2322 158.033 61.4227 158.543C61.6131 159.043 61.7084 159.585 61.7084 160.17C61.7084 160.319 61.6978 160.473 61.6766 160.633C61.666 160.792 61.6396 160.93 61.5973 161.047H54.9315V159.452H60.4228L59.4388 160.202C59.534 159.713 59.5076 159.277 59.3595 158.894C59.2219 158.511 58.9891 158.208 58.6611 157.985C58.3437 157.762 57.9575 157.65 57.5026 157.65C57.0688 157.65 56.6826 157.762 56.344 157.985C56.0054 158.198 55.7462 158.517 55.5663 158.942C55.397 159.357 55.3335 159.862 55.3758 160.457C55.3335 160.989 55.4023 161.462 55.5822 161.876C55.7726 162.281 56.0477 162.594 56.4075 162.817C56.7778 163.041 57.201 163.152 57.6771 163.152C58.1533 163.152 58.5553 163.051 58.8833 162.849C59.2219 162.647 59.4864 162.376 59.6769 162.036L61.3592 162.865C61.1899 163.28 60.9254 163.647 60.5657 163.966C60.2059 164.285 59.7774 164.534 59.2801 164.715C58.7934 164.896 58.2538 164.986 57.6613 164.986ZM67.4423 164.986C66.5853 164.986 65.8132 164.79 65.1254 164.396C64.4483 163.992 63.914 163.45 63.5225 162.77C63.131 162.079 62.9353 161.302 62.9353 160.441C62.9353 159.58 63.131 158.809 63.5225 158.129C63.914 157.448 64.4483 156.911 65.1254 156.518C65.8132 156.125 66.5853 155.928 67.4423 155.928C68.056 155.928 68.6274 156.04 69.1564 156.263C69.6854 156.475 70.1404 156.773 70.5213 157.156C70.9128 157.528 71.1932 157.975 71.3625 158.496L69.5373 159.293C69.3786 158.857 69.1088 158.506 68.7279 158.24C68.3576 157.975 67.9291 157.842 67.4423 157.842C66.9874 157.842 66.58 157.953 66.2203 158.177C65.8714 158.4 65.5963 158.708 65.3953 159.102C65.1942 159.495 65.0937 159.947 65.0937 160.457C65.0937 160.967 65.1942 161.419 65.3953 161.813C65.5963 162.206 65.8714 162.514 66.2203 162.738C66.58 162.961 66.9874 163.073 67.4423 163.073C67.9396 163.073 68.3734 162.94 68.7438 162.674C69.1141 162.408 69.3786 162.052 69.5373 161.605L71.3625 162.435C71.1932 162.924 70.9181 163.365 70.5372 163.758C70.1563 164.141 69.7013 164.444 69.1723 164.667C68.6432 164.88 68.0666 164.986 67.4423 164.986ZM72.9403 164.795V156.119H75.0194V164.795H72.9403ZM72.9403 155.146V152.914H75.0194V155.146H72.9403ZM80.2244 164.986C79.3039 164.986 78.4998 164.768 77.812 164.332C77.1349 163.886 76.6693 163.285 76.4154 162.53L77.9707 161.781C78.1929 162.27 78.4998 162.653 78.8913 162.929C79.2933 163.205 79.7377 163.344 80.2244 163.344C80.6053 163.344 80.9069 163.259 81.1291 163.089C81.3513 162.918 81.4624 162.695 81.4624 162.419C81.4624 162.249 81.4147 162.11 81.3195 162.004C81.2349 161.887 81.1132 161.791 80.9545 161.717C80.8064 161.632 80.6424 161.563 80.4625 161.51L79.05 161.111C78.3199 160.898 77.7644 160.574 77.3835 160.138C77.0132 159.702 76.828 159.187 76.828 158.591C76.828 158.06 76.9603 157.597 77.2248 157.204C77.4999 156.8 77.8755 156.486 78.3517 156.263C78.8384 156.04 79.3938 155.928 80.0181 155.928C80.8328 155.928 81.5523 156.125 82.1766 156.518C82.8008 156.911 83.2452 157.464 83.5097 158.177L81.9226 158.926C81.7745 158.533 81.5258 158.219 81.1767 157.985C80.8275 157.751 80.436 157.634 80.0022 157.634C79.6531 157.634 79.378 157.714 79.1769 157.874C78.9759 158.033 78.8754 158.24 78.8754 158.496C78.8754 158.655 78.9177 158.793 79.0024 158.91C79.087 159.027 79.2034 159.123 79.3515 159.197C79.5102 159.272 79.6901 159.341 79.8911 159.405L81.2719 159.819C81.9808 160.032 82.5257 160.351 82.9066 160.776C83.2981 161.201 83.4939 161.722 83.4939 162.339C83.4939 162.86 83.3563 163.322 83.0812 163.726C82.8061 164.12 82.4252 164.428 81.9385 164.651C81.4518 164.875 80.8804 164.986 80.2244 164.986ZM87.7102 164.986C87.1071 164.986 86.5834 164.885 86.139 164.683C85.6946 164.481 85.3508 164.194 85.1074 163.822C84.864 163.439 84.7424 162.998 84.7424 162.498C84.7424 162.02 84.8482 161.595 85.0598 161.223C85.2714 160.84 85.5994 160.521 86.0438 160.266C86.4882 160.011 87.0489 159.83 87.7261 159.724L90.5511 159.261V160.856L88.1229 161.27C87.7102 161.345 87.4034 161.478 87.2024 161.669C87.0013 161.861 86.9008 162.11 86.9008 162.419C86.9008 162.716 87.0119 162.956 87.2341 163.136C87.4669 163.306 87.7526 163.392 88.0911 163.392C88.5249 163.392 88.9058 163.301 89.2338 163.12C89.5724 162.929 89.8317 162.669 90.0115 162.339C90.202 162.009 90.2972 161.648 90.2972 161.255V159.022C90.2972 158.65 90.1491 158.341 89.8528 158.097C89.5671 157.842 89.1862 157.714 88.7101 157.714C88.2657 157.714 87.8689 157.836 87.5198 158.081C87.1812 158.315 86.9326 158.628 86.7738 159.022L85.0757 158.193C85.2449 157.735 85.5095 157.342 85.8692 157.012C86.2395 156.672 86.6733 156.406 87.1706 156.215C87.6679 156.024 88.2075 155.928 88.7895 155.928C89.4984 155.928 90.1226 156.061 90.6622 156.327C91.2018 156.582 91.6198 156.943 91.916 157.411C92.2229 157.868 92.3763 158.405 92.3763 159.022V164.795H90.4083V163.312L90.8527 163.28C90.6305 163.652 90.366 163.966 90.0591 164.221C89.7523 164.465 89.4031 164.657 89.0117 164.795C88.6202 164.923 88.1864 164.986 87.7102 164.986ZM101.134 164.986C100.298 164.986 99.552 164.79 98.896 164.396C98.24 163.992 97.7215 163.445 97.3406 162.754C96.9597 162.063 96.7693 161.297 96.7693 160.457C96.7693 159.607 96.9597 158.841 97.3406 158.161C97.7215 157.48 98.24 156.938 98.896 156.534C99.5625 156.13 100.303 155.928 101.118 155.928C101.774 155.928 102.356 156.061 102.864 156.327C103.382 156.582 103.79 156.943 104.086 157.411L103.768 157.842V152.722H105.847V164.795H103.879V163.12L104.102 163.535C103.805 164.003 103.393 164.364 102.864 164.62C102.335 164.864 101.758 164.986 101.134 164.986ZM101.356 163.073C101.832 163.073 102.25 162.961 102.61 162.738C102.97 162.514 103.25 162.206 103.451 161.813C103.663 161.419 103.768 160.967 103.768 160.457C103.768 159.957 103.663 159.511 103.451 159.118C103.25 158.713 102.97 158.4 102.61 158.177C102.25 157.953 101.832 157.842 101.356 157.842C100.89 157.842 100.472 157.959 100.102 158.193C99.7318 158.416 99.4409 158.724 99.2293 159.118C99.0282 159.5 98.9277 159.947 98.9277 160.457C98.9277 160.967 99.0282 161.419 99.2293 161.813C99.4409 162.206 99.7318 162.514 100.102 162.738C100.472 162.961 100.89 163.073 101.356 163.073ZM111.876 164.986C110.988 164.986 110.21 164.784 109.543 164.38C108.877 163.976 108.358 163.429 107.988 162.738C107.618 162.047 107.433 161.281 107.433 160.441C107.433 159.569 107.618 158.799 107.988 158.129C108.369 157.448 108.882 156.911 109.528 156.518C110.184 156.125 110.914 155.928 111.718 155.928C112.395 155.928 112.987 156.04 113.495 156.263C114.014 156.486 114.453 156.794 114.813 157.188C115.172 157.581 115.447 158.033 115.638 158.543C115.828 159.043 115.924 159.585 115.924 160.17C115.924 160.319 115.913 160.473 115.892 160.633C115.881 160.792 115.855 160.93 115.812 161.047H109.147V159.452H114.638L113.654 160.202C113.749 159.713 113.723 159.277 113.575 158.894C113.437 158.511 113.204 158.208 112.876 157.985C112.559 157.762 112.173 157.65 111.718 157.65C111.284 157.65 110.898 157.762 110.559 157.985C110.221 158.198 109.961 158.517 109.781 158.942C109.612 159.357 109.549 159.862 109.591 160.457C109.549 160.989 109.617 161.462 109.797 161.876C109.988 162.281 110.263 162.594 110.623 162.817C110.993 163.041 111.416 163.152 111.892 163.152C112.368 163.152 112.77 163.051 113.098 162.849C113.437 162.647 113.702 162.376 113.892 162.036L115.574 162.865C115.405 163.28 115.141 163.647 114.781 163.966C114.421 164.285 113.993 164.534 113.495 164.715C113.009 164.896 112.469 164.986 111.876 164.986ZM122.939 164.986C122.336 164.986 121.812 164.885 121.368 164.683C120.924 164.481 120.58 164.194 120.336 163.822C120.093 163.439 119.971 162.998 119.971 162.498C119.971 162.02 120.077 161.595 120.289 161.223C120.5 160.84 120.828 160.521 121.273 160.266C121.717 160.011 122.278 159.83 122.955 159.724L125.78 159.261V160.856L123.352 161.27C122.939 161.345 122.632 161.478 122.431 161.669C122.23 161.861 122.13 162.11 122.13 162.419C122.13 162.716 122.241 162.956 122.463 163.136C122.696 163.306 122.981 163.392 123.32 163.392C123.754 163.392 124.135 163.301 124.463 163.12C124.801 162.929 125.061 162.669 125.24 162.339C125.431 162.009 125.526 161.648 125.526 161.255V159.022C125.526 158.65 125.378 158.341 125.082 158.097C124.796 157.842 124.415 157.714 123.939 157.714C123.495 157.714 123.098 157.836 122.749 158.081C122.41 158.315 122.161 158.628 122.003 159.022L120.305 158.193C120.474 157.735 120.738 157.342 121.098 157.012C121.468 156.672 121.902 156.406 122.4 156.215C122.897 156.024 123.436 155.928 124.018 155.928C124.727 155.928 125.352 156.061 125.891 156.327C126.431 156.582 126.849 156.943 127.145 157.411C127.452 157.868 127.605 158.405 127.605 159.022V164.795H125.637V163.312L126.082 163.28C125.859 163.652 125.595 163.966 125.288 164.221C124.981 164.465 124.632 164.657 124.241 164.795C123.849 164.923 123.415 164.986 122.939 164.986ZM128.337 168.319C128.199 168.319 128.056 168.314 127.908 168.303C127.76 168.293 127.638 168.277 127.543 168.256V166.438C127.734 166.469 127.924 166.485 128.114 166.485C128.559 166.485 128.903 166.379 129.146 166.166C129.4 165.964 129.527 165.651 129.527 165.226V156.119H131.606V165.226C131.606 165.885 131.474 166.443 131.209 166.9C130.945 167.368 130.564 167.719 130.067 167.953C129.58 168.197 129.003 168.319 128.337 168.319ZM129.527 155.146V152.914H131.606V155.146H129.527ZM136.605 164.986C135.938 164.986 135.356 164.837 134.859 164.54C134.372 164.242 133.997 163.827 133.732 163.296C133.478 162.764 133.351 162.142 133.351 161.43V156.119H135.43V161.255C135.43 161.616 135.499 161.935 135.637 162.211C135.785 162.477 135.991 162.69 136.256 162.849C136.531 162.998 136.837 163.073 137.176 163.073C137.515 163.073 137.816 162.998 138.081 162.849C138.345 162.69 138.552 162.472 138.7 162.195C138.848 161.919 138.922 161.589 138.922 161.207V156.119H141.001V164.795H139.033V163.089L139.208 163.392C139.007 163.923 138.673 164.322 138.208 164.588C137.753 164.853 137.218 164.986 136.605 164.986ZM146.949 164.986C146.113 164.986 145.367 164.79 144.711 164.396C144.055 163.992 143.537 163.445 143.156 162.754C142.775 162.063 142.585 161.297 142.585 160.457C142.585 159.607 142.775 158.841 143.156 158.161C143.537 157.48 144.055 156.938 144.711 156.534C145.378 156.13 146.119 155.928 146.933 155.928C147.589 155.928 148.171 156.061 148.679 156.327C149.198 156.582 149.605 156.943 149.901 157.411L149.584 157.842V152.722H151.663V164.795H149.695V163.12L149.917 163.535C149.621 164.003 149.208 164.364 148.679 164.62C148.15 164.864 147.574 164.986 146.949 164.986ZM147.171 163.073C147.648 163.073 148.066 162.961 148.425 162.738C148.785 162.514 149.065 162.206 149.266 161.813C149.478 161.419 149.584 160.967 149.584 160.457C149.584 159.957 149.478 159.511 149.266 159.118C149.065 158.713 148.785 158.4 148.425 158.177C148.066 157.953 147.648 157.842 147.171 157.842C146.706 157.842 146.288 157.959 145.918 158.193C145.547 158.416 145.256 158.724 145.045 159.118C144.844 159.5 144.743 159.947 144.743 160.457C144.743 160.967 144.844 161.419 145.045 161.813C145.256 162.206 145.547 162.514 145.918 162.738C146.288 162.961 146.706 163.073 147.171 163.073ZM156.216 164.986C155.613 164.986 155.089 164.885 154.645 164.683C154.2 164.481 153.856 164.194 153.613 163.822C153.37 163.439 153.248 162.998 153.248 162.498C153.248 162.02 153.354 161.595 153.565 161.223C153.777 160.84 154.105 160.521 154.549 160.266C154.994 160.011 155.555 159.83 156.232 159.724L159.057 159.261V160.856L156.629 161.27C156.216 161.345 155.909 161.478 155.708 161.669C155.507 161.861 155.407 162.11 155.407 162.419C155.407 162.716 155.518 162.956 155.74 163.136C155.973 163.306 156.258 163.392 156.597 163.392C157.031 163.392 157.412 163.301 157.74 163.12C158.078 162.929 158.337 162.669 158.517 162.339C158.708 162.009 158.803 161.648 158.803 161.255V159.022C158.803 158.65 158.655 158.341 158.359 158.097C158.073 157.842 157.692 157.714 157.216 157.714C156.771 157.714 156.375 157.836 156.025 158.081C155.687 158.315 155.438 158.628 155.28 159.022L153.581 158.193C153.751 157.735 154.015 157.342 154.375 157.012C154.745 156.672 155.179 156.406 155.676 156.215C156.174 156.024 156.713 155.928 157.295 155.928C158.004 155.928 158.628 156.061 159.168 156.327C159.708 156.582 160.125 156.943 160.422 157.411C160.729 157.868 160.882 158.405 160.882 159.022V164.795H158.914V163.312L159.358 163.28C159.136 163.652 158.872 163.966 158.565 164.221C158.258 164.465 157.909 164.657 157.517 164.795C157.126 164.923 156.692 164.986 156.216 164.986ZM165.184 161.191V160.872C165.184 160.404 165.253 159.989 165.391 159.628C165.539 159.266 165.724 158.947 165.946 158.671C166.168 158.384 166.401 158.123 166.644 157.89C166.972 157.56 167.263 157.257 167.517 156.98C167.782 156.693 167.914 156.359 167.914 155.976C167.914 155.742 167.856 155.524 167.74 155.322C167.623 155.12 167.449 154.96 167.216 154.843C166.994 154.727 166.719 154.668 166.391 154.668C165.946 154.668 165.56 154.806 165.232 155.083C164.915 155.359 164.719 155.726 164.645 156.183L162.708 155.705C162.804 155.109 163.015 154.588 163.343 154.142C163.682 153.695 164.116 153.35 164.645 153.105C165.184 152.85 165.782 152.722 166.438 152.722C167.211 152.722 167.867 152.877 168.406 153.185C168.956 153.493 169.374 153.892 169.66 154.381C169.946 154.87 170.088 155.386 170.088 155.928C170.088 156.353 170.004 156.731 169.835 157.06C169.665 157.39 169.454 157.693 169.2 157.969C168.956 158.235 168.702 158.501 168.438 158.767C168.099 159.086 167.803 159.421 167.549 159.771C167.295 160.122 167.168 160.532 167.168 160.999V161.191H165.184ZM165.137 164.795V162.562H167.248V164.795H165.137Z" fill="black"/>
<path d="M224.253 38.2669C223.685 33.5981 221.87 30.1622 218.859 28.0572C216.825 26.6354 214.353 25.9153 211.511 25.9153C211.303 25.9153 211.122 25.9181 210.977 25.921C210.126 25.9366 202.572 26.2533 199.062 32.2601C198.066 33.9631 197.501 35.9744 197.425 38.0751L197.396 38.8493L198.138 38.6433C201.138 37.8124 204.599 37.2002 206.957 37.0823C207.887 37.0369 208.827 37.0141 209.748 37.0141C211.526 37.0141 213.303 37.0993 215.03 37.2684L215.218 37.2869L215.224 37.284L215.924 37.3635C219.351 37.757 221.952 38.4047 223.529 38.8791L224.356 39.1276L224.253 38.2669Z" fill="#EDE6DE"/>
<path d="M196.377 42.8136C194.908 42.8136 193.956 42.4769 193.62 41.8391C193.378 41.3804 193.412 40.7029 193.7 40.2313C193.812 40.0481 193.965 39.8961 194.153 39.7796L194.168 39.7711C194.248 39.727 194.333 39.6844 194.424 39.6418L194.44 39.6347C194.773 39.5012 195.201 39.4373 195.75 39.4373C196.591 39.4373 197.635 39.585 198.846 39.7569L199.071 39.7881C199.355 39.8279 199.648 39.8691 199.947 39.9088L200.147 39.9358L200.186 40.1347C200.308 40.7383 200.428 41.3136 200.543 41.842L200.596 42.0906L200.357 42.1715C199.757 42.3761 199.141 42.528 198.526 42.626C197.738 42.7496 197.015 42.8136 196.377 42.8136Z" fill="#173D2E"/>
<path d="M195.748 39.7215C196.566 39.7215 197.604 39.8677 198.805 40.0382C199.159 40.0879 199.527 40.1404 199.908 40.1916C200.033 40.8052 200.152 41.3733 200.266 41.9031C199.682 42.102 199.084 42.2511 198.481 42.3463C197.698 42.4699 196.991 42.5309 196.376 42.5309C195.049 42.5309 194.153 42.2483 193.869 41.7086C193.674 41.3378 193.705 40.7682 193.941 40.3819C194.032 40.2342 194.153 40.1149 194.301 40.0225C194.378 39.9813 194.458 39.9402 194.543 39.9004C194.859 39.7726 195.265 39.7215 195.748 39.7215ZM195.748 39.1533C195.164 39.1533 194.7 39.2243 194.334 39.3706L194.319 39.3763L194.303 39.3834C194.215 39.4246 194.126 39.4686 194.033 39.5197L194.018 39.5283L194.003 39.5368C193.777 39.6774 193.594 39.8606 193.459 40.0808C193.116 40.6433 193.079 41.4202 193.368 41.9713C193.762 42.7185 194.773 43.0962 196.376 43.0962C197.028 43.0962 197.766 43.0324 198.569 42.9059C199.199 42.8065 199.832 42.6503 200.447 42.44L200.925 42.2767L200.817 41.781C200.703 41.2497 200.583 40.6773 200.461 40.078L200.381 39.6817L199.982 39.6277C199.68 39.5865 199.384 39.5453 199.097 39.5056L198.881 39.4757C197.663 39.3024 196.608 39.1533 195.748 39.1533Z" fill="#173D2E"/>
<path d="M204.368 40.2486C202.32 40.2486 200.392 39.9759 198.844 39.7557C197.937 39.6279 197.079 39.5058 196.352 39.4603L194.912 39.368L196.28 38.9078C199.419 37.851 204.004 36.9448 206.942 36.8013C207.875 36.7559 208.818 36.7332 209.744 36.7332C211.263 36.7332 212.783 36.7957 214.265 36.9178L215.188 36.9945L214.379 37.4491C210.584 39.581 207.435 40.0469 206.561 40.1392C205.86 40.2117 205.122 40.2486 204.368 40.2486Z" fill="#173D2E" stroke="#173D2E" stroke-miterlimit="10"/>
<path d="M209.745 37.0157C211.351 37.0157 212.853 37.0839 214.242 37.1989C210.433 39.3381 207.247 39.7798 206.532 39.855C205.797 39.9332 205.074 39.9644 204.368 39.9644C202.347 39.9644 200.471 39.7002 198.884 39.4744C197.951 39.3423 197.106 39.223 196.371 39.1761C199.363 38.1691 203.917 37.233 206.956 37.0839C207.917 37.0371 208.847 37.0157 209.745 37.0157ZM209.745 36.449C208.815 36.449 207.868 36.4717 206.929 36.5186C203.968 36.6635 199.352 37.5754 196.191 38.6406L194.396 39.3452L196.335 39.7457C197.051 39.7911 197.903 39.9119 198.806 40.0397C200.363 40.2599 202.302 40.5354 204.369 40.5354C205.134 40.5354 205.882 40.4971 206.593 40.4232C207.481 40.3295 210.676 39.8565 214.52 37.699L216.136 36.7899L214.289 36.6379C212.799 36.51 211.271 36.449 209.745 36.449Z" fill="#173D2E"/>
<path d="M171.639 73.1318C171.264 72.876 170.916 72.6188 170.592 72.3616C170.219 72.0653 169.881 71.7669 169.572 71.4725C168.701 70.6406 168.07 69.8239 167.618 69.0923C167.26 68.5155 167.857 67.8803 168.42 68.0683C168.492 68.0923 168.562 68.1308 168.632 68.1833C168.812 68.3222 168.989 68.4544 169.159 68.578C170 69.1873 170.664 69.5847 170.664 69.5847L170.739 69.8591C170.669 69.8791 170.589 69.8704 170.52 69.8292C170.492 69.812 169.982 69.5056 169.292 69.0212C169.053 68.8518 168.793 68.6631 168.524 68.4571V68.4557C168.503 68.4405 168.483 68.4245 168.462 68.4092C168.261 68.2544 168.058 68.3195 167.933 68.4331C167.812 68.5441 167.73 68.7355 167.859 68.9428C168.26 69.592 168.742 70.2127 169.306 70.8067V70.808C169.622 71.1416 169.963 71.4639 170.329 71.7782C170.702 72.0992 171.1 72.4088 171.524 72.7072L171.639 73.1318Z" fill="#EDE6DE"/>
<path d="M201.349 87.2915L194.271 84.1298L193.684 83.8667L193.5 84.486C193.265 85.2847 193.05 86.0217 192.846 86.726C180.538 79.38 171.947 70.4612 169.251 62.2218C169.159 61.9348 168.905 61.7488 168.607 61.7488C168.58 61.7488 168.555 61.7502 168.528 61.753C168.213 61.7885 167.974 62.0243 167.931 62.3424C167.786 63.4575 167.752 65.277 168.354 67.7613C168.306 67.754 168.259 67.75 168.21 67.75C167.97 67.75 167.736 67.8437 167.55 68.0125C167.193 68.3394 167.122 68.8325 167.376 69.2425C167.755 69.8578 168.213 70.4585 168.738 71.0293V71.0326L168.893 71.1988C169.179 71.4998 169.489 71.7981 169.819 72.0879L170.346 73.173C170.556 73.6076 170.788 74.0594 171.034 74.5166C174.942 81.7835 182.178 89.7089 192.539 98.0749C193.122 98.5454 193.853 98.8039 194.596 98.8039C194.802 98.8039 195.009 98.784 195.212 98.7454C196.158 98.5633 196.973 97.9753 197.448 97.1333C198.842 94.6661 200.253 91.6008 201.643 88.0185L201.84 87.5141L201.349 87.2915Z" fill="#FFCC99"/>
<path d="M224.876 61.1591C223.183 61.1336 222.008 61.1875 221.789 61.1989L222.042 61.7742L221.785 61.2003H221.783C219.584 56.7375 220.865 52.9437 222.121 50.3032C223.492 47.4624 224.179 44.4952 224.162 41.4826C224.158 40.5907 224.116 39.7299 224.036 38.9203L224.018 38.7328L223.839 38.6774C222.072 38.132 219.146 37.399 215.239 37.007L215.146 36.9971L215.065 37.0454C212.302 38.7115 209.122 39.8677 206.561 40.1375C204.275 40.3776 202.14 40.183 200.535 39.9856L200.146 39.9373L200.225 40.3236C200.328 40.8335 200.428 41.3122 200.524 41.7624L200.599 42.0778L200.903 41.9684C200.92 41.9627 200.937 41.9556 200.954 41.9485C200.91 41.9656 200.867 41.9826 200.824 41.9997L200.594 42.0848L200.647 42.3263C201.134 44.5435 201.56 46.1187 202.027 47.8062C203.809 54.2533 204.674 55.3015 205.7 56.0798C206.23 56.4819 208.566 58.0329 211.967 57.1664C211.933 57.175 211.898 57.1864 211.864 57.1935L211.503 57.2801L211.683 57.6068C211.896 57.996 212.792 59.8339 213.298 62.9374C213.298 62.9403 213.298 62.9346 213.298 62.9374L213.015 62.9985C212.374 63.1192 211.693 63.2499 211.055 63.3806L210.723 63.4488L211.045 64.0226C211.307 64.6718 211.758 65.2555 212.386 65.7583C213.615 66.7439 215.389 67.2881 217.283 67.2881C217.665 67.2881 218.05 67.2655 218.438 67.2216C224.121 66.5638 225.199 62.892 225.395 61.7827L225.209 61.1634L224.876 61.1591ZM212.377 57.0514C212.289 57.0784 212.203 57.1026 212.115 57.1267C212.203 57.1026 212.289 57.077 212.377 57.0514ZM214.742 55.9861C214.712 56.0032 214.682 56.0216 214.653 56.0386C214.682 56.0216 214.712 56.0046 214.742 55.9861ZM214.337 56.2177C214.299 56.2389 214.261 56.2589 214.223 56.2787C214.261 56.2589 214.299 56.2375 214.337 56.2177ZM213.564 56.6011C213.501 56.6296 213.437 56.658 213.375 56.6849C213.438 56.658 213.501 56.631 213.564 56.6011ZM213.18 56.7659C213.103 56.7972 213.026 56.827 212.949 56.8554C213.026 56.827 213.102 56.7972 213.18 56.7659ZM212.781 56.9179C212.694 56.9491 212.606 56.9776 212.52 57.0059C212.606 56.9776 212.692 56.9491 212.781 56.9179Z" fill="#FFCC99"/>
<path d="M211.619 57.2504C212.675 57.0259 213.84 56.5714 215.092 55.7717" stroke="#173D2E" stroke-miterlimit="10" stroke-linecap="round" stroke-linejoin="round"/>
<path d="M206.711 52.8217C206.711 52.8217 208.729 54.1228 211.334 51.9937" stroke="#173D2E" stroke-miterlimit="10" stroke-linecap="round" stroke-linejoin="round"/>
<path d="M206.613 44.4641C206.631 44.5422 205.561 48.6159 206.239 49.1954C206.916 49.7749 209.183 48.6457 209.183 48.6457" stroke="#173D2E" stroke-miterlimit="10" stroke-linecap="round" stroke-linejoin="round"/>
<path d="M218.479 41.4458C218.204 40.2555 218.711 39.1206 219.611 38.9105C220.512 38.7002 221.464 39.4942 221.74 40.6845C222.016 41.8748 221.508 43.0097 220.608 43.2198" stroke="#173D2E" stroke-miterlimit="10" stroke-linecap="round" stroke-linejoin="round"/>
<path d="M210.913 43.8945C211.104 43.8292 211.173 43.5223 211.067 43.2085C210.961 42.8946 210.72 42.6943 210.53 42.7582C210.339 42.8235 210.27 43.1303 210.376 43.4442C210.482 43.7582 210.722 43.9598 210.913 43.8945Z" stroke="#173D2E" stroke-miterlimit="10" stroke-linecap="round" stroke-linejoin="round"/>
<path d="M203.536 45.6162C203.727 45.5509 203.796 45.244 203.69 44.9302C203.584 44.6163 203.344 44.416 203.153 44.4799C202.962 44.5452 202.893 44.852 202.999 45.1659C203.105 45.4798 203.345 45.6801 203.536 45.6162Z" stroke="#173D2E" stroke-miterlimit="10" stroke-linecap="round" stroke-linejoin="round"/>
<path d="M231.633 61.6678C229.847 61.3965 227.85 61.2304 225.701 61.1764L225.207 61.1636L225.13 61.6536C224.957 62.7317 223.963 66.2969 218.406 66.9401C218.033 66.9826 217.657 67.0039 217.29 67.0039C215.451 67.0039 213.727 66.469 212.561 65.5341C211.945 65.0398 211.513 64.4674 211.275 63.8325L211.106 63.3751L210.63 63.476C206.133 64.4262 203.033 65.5469 200.503 68.4671C198.09 71.2527 196.173 75.5905 193.666 83.9366L193.521 84.415L201.649 88.0146L203.743 82.06C203.743 82.06 207.524 87.8451 209.732 94.8383H228.843C230.648 94.8383 232.115 93.3624 232.115 91.5497V62.2289V61.7403L231.633 61.6678Z" fill="#173D2E"/>
<path d="M159.717 69.2086C159.566 68.8365 159.188 68.6364 158.798 68.7228C158.408 68.8079 158.148 69.1474 158.164 69.5495C158.342 73.7012 157.678 78.2723 156.19 83.1357C156.166 83.2148 156.177 83.3032 156.223 83.373L157.697 85.6635C157.749 85.7459 157.84 85.7931 157.934 85.7931C157.952 85.7931 157.969 85.7917 157.988 85.7871L161.189 85.1711C161.31 85.1478 161.402 85.0488 161.417 84.9252C162.442 76.2496 160 69.903 159.717 69.2086Z" fill="#FFCC99"/>
<path d="M132.023 127.957H143.232C144.79 127.957 146.055 126.687 146.055 125.119V70.582" stroke="#173D2E" stroke-miterlimit="10" stroke-linecap="round" stroke-linejoin="round"/>
<path d="M160.94 84.6952C160.829 84.7045 160.72 84.7092 160.62 84.7092C158.838 84.7092 157.24 83.5317 156.794 83.1709L156.309 82.7788L156.124 83.3755C154.923 87.2555 153.223 91.2956 151.069 95.3803C148.251 100.722 145.364 104.821 144.076 106.563H144.063C143.857 106.421 143.653 106.281 143.449 106.141C143.243 105.999 143.038 105.859 142.834 105.718C133.931 99.5879 126.898 94.7457 115.092 91.8252L114.952 91.7914L114.821 91.8492L100.193 98.2895L99.9219 98.4084L99.941 98.7068L101.621 124.595L101.629 124.732L101.718 124.839L104.47 128.156L104.597 128.309H104.795H128.392H128.825L128.815 127.874C128.779 126.279 128.818 124.68 128.927 123.118C129.035 121.549 129.197 120.242 129.339 119.089C129.639 116.667 129.876 114.754 129.507 112.071C129.387 111.201 129.213 110.337 128.989 109.482C135.43 114.421 141.862 118.072 145.187 119.839C145.577 120.047 146.013 120.156 146.452 120.156C147.399 120.156 148.287 119.649 148.772 118.832C152.586 112.399 155.452 106.576 157.534 101.029C159.624 95.46 160.888 90.2683 161.395 85.159L161.446 84.6507L160.94 84.6952Z" fill="#8ECEC9"/>
<path d="M222.463 32.4292H228.84C230.493 32.4292 231.831 33.7743 231.831 35.4347V37.2074H223.834C223.834 37.2074 223.41 34.5541 222.463 32.4292Z" fill="#8ECEC9"/>
<path d="M206.707 26.5674C206.707 26.5674 215.64 26.9125 215.625 36.9915" stroke="#173D2E" stroke-miterlimit="10" stroke-linecap="round" stroke-linejoin="round"/>
<path d="M77.4925 70.5821H57.2441V68.8093C57.2441 67.1494 58.5827 65.804 60.235 65.804H83.4818C83.4818 65.804 83.3588 68.3847 83.6352 70.5821H77.4925Z" fill="#DB9612"/>
<path d="M116.152 65.804H143.064C144.716 65.804 146.055 67.1494 146.055 68.8093V70.5821H116.792C116.792 70.5821 116.74 68.3222 116.152 65.804Z" fill="#DB9612"/>
<path d="M151.509 94.5552H146.328" stroke="#173D2E" stroke-miterlimit="10" stroke-linecap="round" stroke-linejoin="round"/>
<path d="M188.496 94.5552H159.33" stroke="#173D2E" stroke-miterlimit="10" stroke-linecap="round" stroke-linejoin="round"/>
<path d="M146.227 32.4038C144.575 32.4038 143.236 33.7489 143.236 35.4093V37.1819H152.512H197.698C197.831 35.0457 199.349 32.4038 199.349 32.4038H146.227ZM146.288 35.6196C146.159 35.6863 146.018 35.7204 145.876 35.7204C145.784 35.7204 145.694 35.7061 145.604 35.6778C145.374 35.6053 145.188 35.4477 145.078 35.2332C144.85 34.7915 145.022 34.2461 145.462 34.0173C145.676 33.9066 145.917 33.8852 146.146 33.9591C146.375 34.0316 146.561 34.1892 146.67 34.4037C146.9 34.8454 146.727 35.3908 146.288 35.6196ZM149.607 35.6196C149.478 35.6863 149.336 35.7204 149.195 35.7204C149.103 35.7204 149.013 35.7061 148.922 35.6778C148.693 35.6053 148.507 35.4477 148.396 35.2332C148.169 34.7915 148.341 34.2461 148.781 34.0173C148.994 33.9066 149.236 33.8852 149.465 33.9591C149.694 34.0316 149.879 34.1892 149.989 34.4037C150.218 34.8454 150.046 35.3908 149.607 35.6196ZM152.925 35.6196C152.797 35.6863 152.655 35.7204 152.514 35.7204C152.422 35.7204 152.332 35.7061 152.241 35.6778C152.012 35.6053 151.825 35.4477 151.715 35.2332C151.488 34.7915 151.66 34.2461 152.1 34.0173C152.313 33.9066 152.555 33.8852 152.784 33.9591C153.013 34.0316 153.198 34.1892 153.308 34.4037C153.537 34.8454 153.365 35.3908 152.925 35.6196Z" fill="#8ECEC9"/>
<path d="M113.028 60.0968L116.153 68.7893L114.98 92.0213C114.636 92.9716 112.953 97.3034 108.504 99.1275C106.902 99.7853 105.067 99.9228 103.98 99.9115L89.9902 71.721L95.2905 59.5343L108.522 56.8398L113.028 60.0968Z" fill="#FFCC99"/>
<path d="M95.3744 68.905C95.885 73.1857 97.308 75.9765 98.6796 77.8278C100.287 79.9967 101.62 80.6027 102.009 82.7338C102.666 86.3327 99.7449 87.8537 100.423 91.4945C100.962 94.3804 102.987 94.1917 103.787 97.3447C104.697 100.937 102.316 102.147 102.802 105.83C103.329 109.817 106.375 110.327 107.899 114.351C109.717 119.155 107.543 124.154 106.853 125.741C101.351 138.401 78.3079 143.548 70.0265 136.087C66.849 133.225 66.6976 129.289 62.9168 128.284C58.5338 127.117 56.0504 131.746 51.5416 130.922C46.8971 130.072 42.6115 123.893 43.0102 118.611C43.5783 111.09 52.7444 104.341 60.7288 103.332C64.8079 102.816 68.1703 103.841 70.658 101.316C72.5083 99.4385 71.9628 97.5394 73.7311 94.0495C75.7308 90.0997 78.4461 88.5514 80.1687 86.8909C88.132 79.2239 78.9744 65.5555 86.1918 56.4295C90.508 50.9696 99.4315 49.2523 105.786 51.6485C111.917 53.9609 114.794 59.7902 115.849 61.9306C119.221 68.7654 116.908 72.7996 119.233 82.062C120.654 87.7188 123.321 92.5271 124.879 95.0695C124.879 95.0695 116.154 91.6354 109.756 90.8267C109.756 90.8267 108.005 87.2364 108.757 83.496C108.757 83.496 113.831 82.8089 113.585 73.2282C113.49 69.511 112.413 66.0668 111.133 63.2445C111.133 63.2445 108.703 63.5101 106.112 61.3895C106.112 61.3881 104.006 67.0112 95.3744 68.905Z" fill="#C26917"/>
<path d="M107.155 58.9563C106.864 60.1891 106.431 61.2061 105.971 62.03C102.508 68.2371 94.443 69.1734 92.957 69.3222" stroke="#173D2E" stroke-miterlimit="10" stroke-linecap="round" stroke-linejoin="round"/>
<path d="M128.744 109.273C128.135 107.259 127.088 105.065 126.424 103.894" stroke="#173D2E" stroke-miterlimit="10" stroke-linecap="round" stroke-linejoin="round"/>
<path d="M109.814 90.8101C110.043 91.4759 110.302 92.0979 110.578 92.6793" stroke="#173D2E" stroke-miterlimit="10" stroke-linecap="round" stroke-linejoin="round"/>
<path d="M106.305 61.3879C107.531 62.4859 109.82 63.8466 113.028 62.885" stroke="#173D2E" stroke-miterlimit="10" stroke-linecap="round" stroke-linejoin="round"/>
<path d="M109.039 83.468C107.333 84.0189 105.687 83.7817 105.117 83.682" stroke="#173D2E" stroke-miterlimit="10" stroke-linecap="round" stroke-linejoin="round"/>
<path d="M107.535 70.3933C107.535 70.3933 109.709 72.63 109.5 73.3703C109.27 74.1843 107.722 74.4354 107.722 74.4354" stroke="#173D2E" stroke-miterlimit="10" stroke-linecap="round" stroke-linejoin="round"/>
<path d="M111.085 76.8643C111.064 76.9553 110.725 78.3428 109.388 78.8232C108.443 79.1627 107.621 78.8272 107.432 78.7448" stroke="#173D2E" stroke-miterlimit="10" stroke-linecap="round" stroke-linejoin="round"/>
<path d="M102.141 72.2705C102.326 72.1914 102.372 71.8804 102.244 71.5748C102.115 71.2698 101.861 71.0877 101.674 71.1674C101.489 71.2465 101.442 71.5575 101.571 71.8618C101.701 72.1688 101.956 72.3502 102.141 72.2705Z" stroke="#173D2E" stroke-miterlimit="10" stroke-linecap="round" stroke-linejoin="round"/>
<path d="M110.97 69.3407C111.156 69.261 111.202 68.95 111.074 68.6443C110.945 68.3393 110.689 68.1573 110.504 68.237C110.319 68.3167 110.272 68.6277 110.401 68.9327C110.531 69.2371 110.785 69.4198 110.97 69.3407Z" stroke="#173D2E" stroke-miterlimit="10" stroke-linecap="round" stroke-linejoin="round"/>
<path d="M60.108 69.1222C60.0161 69.1222 59.9256 69.1076 59.8352 69.079C59.6062 69.0066 59.4196 68.8491 59.3094 68.6345C59.0818 68.1933 59.2542 67.6477 59.6938 67.4191C59.9073 67.3081 60.149 67.2869 60.3779 67.3606C60.6069 67.4331 60.7921 67.5906 60.9023 67.8052C61.1298 68.2471 60.9574 68.7926 60.5178 69.0199C60.3892 69.0877 60.2493 69.1222 60.108 69.1222Z" fill="#F5F1EC"/>
<path d="M63.4244 69.1222C63.3325 69.1222 63.242 69.1076 63.1516 69.079C62.9226 69.0066 62.736 68.8491 62.6258 68.6345C62.3982 68.1933 62.5706 67.6477 63.0103 67.4191C63.2237 67.3081 63.4654 67.2869 63.6943 67.3606C63.9233 67.4331 64.1085 67.5906 64.2187 67.8052C64.4462 68.2471 64.2739 68.7926 63.8342 69.0199C63.7071 69.0877 63.5657 69.1222 63.4244 69.1222Z" fill="#F5F1EC"/>
<path d="M66.7449 69.1222C66.6529 69.1222 66.5623 69.1076 66.4718 69.079C66.2429 69.0066 66.0563 68.8491 65.9461 68.6345C65.7185 68.1933 65.891 67.6477 66.3302 67.4191C66.5438 67.3081 66.7859 67.2869 67.0147 67.3606C67.2435 67.4331 67.4286 67.5906 67.5391 67.8052C67.7666 68.2471 67.594 68.7926 67.1549 69.0199C67.0272 69.0877 66.8857 69.1222 66.7449 69.1222Z" fill="#F5F1EC"/>
<path d="M142.932 108.234C142.932 108.234 143.665 107.451 144.127 106.667" stroke="#173D2E" stroke-miterlimit="10" stroke-linecap="round" stroke-linejoin="round"/>
<path d="M159.973 79.5813C159.973 79.5813 160.634 78.6809 161.303 77.5034C161.68 76.8389 162.7 77.1951 162.579 77.9513C162.351 79.366 161.765 81.1768 160.426 83.2347" fill="#FFCC99"/>
<path d="M159.973 79.5813C159.973 79.5813 160.634 78.6809 161.303 77.5034C161.68 76.8389 162.7 77.1951 162.579 77.9513C162.351 79.366 161.765 81.1768 160.426 83.2347" stroke="#173D2E" stroke-miterlimit="10" stroke-linecap="round" stroke-linejoin="round"/>
<path d="M170.664 69.5834C170.664 69.5834 169.706 69.01 168.633 68.1813C168.028 67.7142 167.217 68.4398 167.62 69.0904C168.373 70.3077 169.609 71.7523 171.641 73.1318" fill="#FFCC99"/>
<path d="M170.664 69.5834C170.664 69.5834 169.706 69.01 168.633 68.1813C168.028 67.7142 167.217 68.4398 167.62 69.0904C168.373 70.3077 169.609 71.7523 171.641 73.1318" stroke="#173D2E" stroke-miterlimit="10" stroke-linecap="round" stroke-linejoin="round"/>
<path d="M172.617 55.7917L178.573 45.4258" stroke="#D64315" stroke-miterlimit="10" stroke-linecap="round" stroke-linejoin="round"/>
<path d="M152.83 58.9564L146.055 53.9666" stroke="#D64315" stroke-miterlimit="10" stroke-linecap="round" stroke-linejoin="round"/>
<path d="M157.79 53.6041L155.236 46.2295" stroke="#D64315" stroke-miterlimit="10" stroke-linecap="round" stroke-linejoin="round"/>
<path d="M149.889 65.034L146.631 63.2429" stroke="#D64315" stroke-miterlimit="10" stroke-linecap="round" stroke-linejoin="round"/>
<path d="M165.908 81.7463L165.557 86.8782" stroke="#D64315" stroke-miterlimit="10" stroke-linecap="round" stroke-linejoin="round"/>
<path d="M169.957 80.8611L171.637 82.2758" stroke="#D64315" stroke-miterlimit="10" stroke-linecap="round" stroke-linejoin="round"/>
<path d="M167.201 54.296L167.816 49.6897" stroke="#D64315" stroke-miterlimit="10" stroke-linecap="round" stroke-linejoin="round"/>
<path d="M57.2441 70.582V104.108" stroke="#173D2E" stroke-miterlimit="10" stroke-linecap="round" stroke-linejoin="round"/>
<path d="M105.668 127.957H132.024" stroke="#173D2E" stroke-miterlimit="10" stroke-linecap="round" stroke-linejoin="round"/>
<path d="M143.236 37.1819V65.8039" stroke="#173D2E" stroke-miterlimit="10" stroke-linecap="round" stroke-linejoin="round"/>
<path d="M231.831 37.2075V91.7171C231.831 93.284 230.567 94.5552 229.007 94.5552H198.488" stroke="#173D2E" stroke-miterlimit="10" stroke-linecap="round" stroke-linejoin="round"/>
<path d="M192.846 86.7261L192.369 88.6112" stroke="#173D2E" stroke-miterlimit="10" stroke-linecap="round" stroke-linejoin="round"/>
</g>
</g>
<defs>
<filter id="filter0_d_976_1026" x="-3.38672" y="-2.01294" width="293.773" height="210.71" filterUnits="userSpaceOnUse" color-interpolation-filters="sRGB">
<feFlood flood-opacity="0" result="BackgroundImageFix"/>
<feColorMatrix in="SourceAlpha" type="matrix" values="0 0 0 0 0 0 0 0 0 0 0 0 0 0 0 0 0 0 127 0" result="hardAlpha"/>
<feOffset dy="4"/>
<feGaussianBlur stdDeviation="5"/>
<feComposite in2="hardAlpha" operator="out"/>
<feColorMatrix type="matrix" values="0 0 0 0 0 0 0 0 0 0 0 0 0 0 0 0 0 0 0.25 0"/>
<feBlend mode="normal" in2="BackgroundImageFix" result="effect1_dropShadow_976_1026"/>
<feBlend mode="normal" in="SourceGraphic" in2="effect1_dropShadow_976_1026" result="shape"/>
</filter>
<clipPath id="clip0_976_1026">
<rect width="287" height="204" fill="white"/>
</clipPath>
</defs>
</svg>
