<svg width="356" height="94" viewBox="0 0 356 94" fill="none" xmlns="http://www.w3.org/2000/svg">
<g filter="url(#filter0_d_976_954)">
<path d="M63.0816 6H27.8426C17.9884 6 10 13.3624 10 22.4444V63.5556C10 72.6376 17.9884 80 27.8426 80H63.0816C72.9358 80 80.9242 72.6376 80.9242 63.5556V22.4444C80.9242 13.3624 72.9358 6 63.0816 6Z" fill="#173D2E"/>
</g>
<path d="M30.5723 41.0984V31.2975H32.5135V35.5731H37.0384V31.2975H38.9939V41.0984H37.0384V37.1517H32.5135V41.0984H30.5723ZM40.8844 41.0984V33.9418H42.7543V41.0984H40.8844ZM40.8844 33.1393V31.2975H42.7543V33.1393H40.8844ZM48.2489 43.9926C47.6681 43.9926 47.131 43.9049 46.6359 43.7295C46.1408 43.5541 45.7126 43.3085 45.3512 42.9928C44.9989 42.6859 44.7419 42.3219 44.5805 41.9009L46.3219 41.2957C46.4361 41.629 46.66 41.8965 46.9928 42.0982C47.3353 42.3087 47.7538 42.414 48.2489 42.414C48.6298 42.414 48.9626 42.3482 49.2481 42.2166C49.5434 42.0851 49.7718 41.8921 49.9332 41.6378C50.0947 41.3922 50.1759 41.094 50.1759 40.7432V39.1119L50.5327 39.5066C50.266 39.9364 49.9091 40.2608 49.4622 40.4801C49.0152 40.6994 48.5058 40.809 47.9348 40.809C47.2113 40.809 46.5645 40.6555 45.9936 40.3485C45.4226 40.0416 44.9757 39.6206 44.6518 39.0856C44.328 38.5506 44.1665 37.9499 44.1665 37.2833C44.1665 36.608 44.328 36.0072 44.6518 35.481C44.9757 34.9548 45.4182 34.5426 45.9793 34.2444C46.5405 33.9374 47.1783 33.7839 47.892 33.7839C48.4728 33.7839 48.9813 33.898 49.4193 34.126C49.8663 34.3452 50.2374 34.6653 50.5327 35.0863L50.2758 35.5204V33.9418H52.0458V40.7432C52.0458 41.3659 51.8789 41.9228 51.5462 42.414C51.2223 42.9051 50.7754 43.291 50.2044 43.5716C49.6433 43.8523 48.9911 43.9926 48.2489 43.9926ZM48.1632 39.2172C48.5629 39.2172 48.91 39.1382 49.2052 38.9804C49.5095 38.8137 49.7476 38.5857 49.9189 38.2963C50.0902 38.0068 50.1759 37.6736 50.1759 37.2964C50.1759 36.9281 50.0858 36.5992 49.9047 36.3098C49.7334 36.0116 49.4952 35.7792 49.191 35.6125C48.8957 35.4459 48.5531 35.3626 48.1632 35.3626C47.7734 35.3626 47.421 35.4459 47.107 35.6125C46.7929 35.7792 46.5458 36.0116 46.3647 36.3098C46.1934 36.5992 46.1078 36.9281 46.1078 37.2964C46.1078 37.6648 46.1934 37.9937 46.3647 38.2831C46.5458 38.5725 46.7885 38.8005 47.0927 38.9672C47.4067 39.1339 47.7636 39.2172 48.1632 39.2172ZM53.7917 41.0984V31.1396H55.6616V35.3494L55.4046 35.0995C55.5858 34.6697 55.881 34.3452 56.2896 34.126C56.7089 33.898 57.1943 33.7839 57.7456 33.7839C58.3165 33.7839 58.8215 33.898 59.2586 34.126C59.7065 34.354 60.0535 34.6741 60.3007 35.0863C60.5487 35.4898 60.6718 35.9589 60.6718 36.494V41.0984H58.8019V36.9018C58.8019 36.586 58.7358 36.3141 58.602 36.0861C58.4691 35.8581 58.2835 35.6827 58.0453 35.5599C57.817 35.4284 57.5458 35.3626 57.2317 35.3626C56.9275 35.3626 56.6563 35.4284 56.4181 35.5599C56.1808 35.6827 55.9952 35.8581 55.8614 36.0861C55.7285 36.3141 55.6616 36.586 55.6616 36.9018V41.0984H53.7917Z" fill="#00FA9A"/>
<path d="M32.9687 53.5501C32.5619 53.5501 32.2086 53.4876 31.9089 53.3627C31.6091 53.2377 31.3772 53.0601 31.213 52.8299C31.0489 52.5931 30.9668 52.3201 30.9668 52.0109C30.9668 51.7149 31.0382 51.4518 31.1809 51.2216C31.3236 50.9848 31.5449 50.7875 31.8446 50.6296C32.1444 50.4717 32.5227 50.3599 32.9794 50.2941L34.885 50.008V50.9947L33.2471 51.2512C32.9687 51.2972 32.7617 51.3795 32.6261 51.4979C32.4905 51.6163 32.4227 51.7708 32.4227 51.9616C32.4227 52.1458 32.4977 52.2938 32.6476 52.4056C32.8046 52.5108 32.9973 52.5635 33.2257 52.5635C33.5183 52.5635 33.7752 52.5075 33.9965 52.3957C34.2248 52.2773 34.3997 52.1162 34.521 51.9123C34.6495 51.7083 34.7137 51.4847 34.7137 51.2413V49.86C34.7137 49.6298 34.6138 49.439 34.414 49.2877C34.2213 49.1299 33.9643 49.0509 33.6432 49.0509C33.3434 49.0509 33.0758 49.1266 32.8403 49.2779C32.6119 49.4226 32.4441 49.6166 32.3371 49.86L31.1916 49.3469C31.3058 49.0641 31.4842 48.8207 31.7269 48.6168C31.9767 48.4063 32.2693 48.2419 32.6047 48.1235C32.9402 48.0051 33.3042 47.9459 33.6967 47.9459C34.1749 47.9459 34.596 48.0281 34.9599 48.1925C35.3239 48.3504 35.6058 48.574 35.8057 48.8635C36.0127 49.1463 36.1162 49.4785 36.1162 49.86V53.4317H34.7887V52.5141L35.0884 52.4944C34.9385 52.7246 34.7601 52.9187 34.5531 53.0765C34.3462 53.2278 34.1107 53.3462 33.8466 53.4317C33.5825 53.5107 33.2899 53.5501 32.9687 53.5501ZM39.6285 53.5501C39.0075 53.5501 38.4651 53.4153 38.0012 53.1456C37.5444 52.8693 37.2304 52.4977 37.0591 52.0307L38.1083 51.5669C38.2582 51.8695 38.4651 52.1063 38.7292 52.2773C39.0004 52.4483 39.3002 52.5339 39.6285 52.5339C39.8854 52.5339 40.0888 52.4812 40.2387 52.376C40.3886 52.2707 40.4635 52.1326 40.4635 51.9616C40.4635 51.8563 40.4314 51.7708 40.3671 51.7051C40.31 51.6327 40.228 51.5735 40.1209 51.5275C40.021 51.4748 39.9104 51.4321 39.7891 51.3992L38.8362 51.1525C38.3438 51.021 37.9691 50.8203 37.7122 50.5507C37.4624 50.281 37.3375 49.9619 37.3375 49.5936C37.3375 49.2647 37.4267 48.9786 37.6051 48.7352C37.7907 48.4852 38.0441 48.2912 38.3652 48.1531C38.6935 48.0149 39.0682 47.9459 39.4893 47.9459C40.0388 47.9459 40.5242 48.0675 40.9453 48.3109C41.3663 48.5543 41.6661 48.8963 41.8445 49.3371L40.7739 49.8008C40.674 49.5574 40.5063 49.3634 40.2708 49.2187C40.0353 49.0739 39.7712 49.0016 39.4786 49.0016C39.2431 49.0016 39.0575 49.0509 38.9219 49.1496C38.7863 49.2483 38.7185 49.3765 38.7185 49.5344C38.7185 49.6331 38.7471 49.7186 38.8041 49.7909C38.8612 49.8633 38.9397 49.9225 39.0396 49.9685C39.1467 50.0146 39.2681 50.0573 39.4037 50.0968L40.335 50.3533C40.8132 50.4849 41.1808 50.6822 41.4377 50.9453C41.7018 51.2084 41.8338 51.5307 41.8338 51.9123C41.8338 52.2346 41.741 52.5207 41.5555 52.7707C41.3699 53.014 41.113 53.2048 40.7847 53.3429C40.4564 53.4811 40.071 53.5501 39.6285 53.5501ZM45.1275 53.5501C44.5066 53.5501 43.9642 53.4153 43.5003 53.1456C43.0435 52.8693 42.7295 52.4977 42.5582 52.0307L43.6074 51.5669C43.7572 51.8695 43.9642 52.1063 44.2283 52.2773C44.4995 52.4483 44.7992 52.5339 45.1275 52.5339C45.3845 52.5339 45.5879 52.4812 45.7378 52.376C45.8876 52.2707 45.9626 52.1326 45.9626 51.9616C45.9626 51.8563 45.9305 51.7708 45.8662 51.7051C45.8091 51.6327 45.727 51.5735 45.62 51.5275C45.5201 51.4748 45.4094 51.4321 45.2881 51.3992L44.3353 51.1525C43.8429 51.021 43.4682 50.8203 43.2113 50.5507C42.9615 50.281 42.8366 49.9619 42.8366 49.5936C42.8366 49.2647 42.9258 48.9786 43.1042 48.7352C43.2897 48.4852 43.5431 48.2912 43.8643 48.1531C44.1926 48.0149 44.5673 47.9459 44.9884 47.9459C45.5379 47.9459 46.0232 48.0675 46.4443 48.3109C46.8654 48.5543 47.1652 48.8963 47.3436 49.3371L46.273 49.8008C46.1731 49.5574 46.0054 49.3634 45.7699 49.2187C45.5343 49.0739 45.2703 49.0016 44.9777 49.0016C44.7421 49.0016 44.5566 49.0509 44.421 49.1496C44.2854 49.2483 44.2176 49.3765 44.2176 49.5344C44.2176 49.6331 44.2461 49.7186 44.3032 49.7909C44.3603 49.8633 44.4388 49.9225 44.5387 49.9685C44.6458 50.0146 44.7671 50.0573 44.9027 50.0968L45.8341 50.3533C46.3123 50.4849 46.6799 50.6822 46.9368 50.9453C47.2009 51.2084 47.3329 51.5307 47.3329 51.9123C47.3329 52.2346 47.2401 52.5207 47.0545 52.7707C46.869 53.014 46.6121 53.2048 46.2838 53.3429C45.9555 53.4811 45.57 53.5501 45.1275 53.5501ZM48.4106 53.4317V48.0643H49.813V53.4317H48.4106ZM48.4106 47.4624V46.0811H49.813V47.4624H48.4106ZM53.3244 53.5501C52.7035 53.5501 52.1611 53.4153 51.6972 53.1456C51.2404 52.8693 50.9264 52.4977 50.7551 52.0307L51.8042 51.5669C51.9541 51.8695 52.1611 52.1063 52.4251 52.2773C52.6963 52.4483 52.9961 52.5339 53.3244 52.5339C53.5814 52.5339 53.7848 52.4812 53.9346 52.376C54.0845 52.2707 54.1594 52.1326 54.1594 51.9616C54.1594 51.8563 54.1273 51.7708 54.0631 51.7051C54.006 51.6327 53.9239 51.5735 53.8169 51.5275C53.717 51.4748 53.6063 51.4321 53.485 51.3992L52.5322 51.1525C52.0398 51.021 51.6651 50.8203 51.4081 50.5507C51.1583 50.281 51.0334 49.9619 51.0334 49.5936C51.0334 49.2647 51.1227 48.9786 51.3011 48.7352C51.4866 48.4852 51.74 48.2912 52.0612 48.1531C52.3895 48.0149 52.7642 47.9459 53.1853 47.9459C53.7348 47.9459 54.2201 48.0675 54.6412 48.3109C55.0623 48.5543 55.362 48.8963 55.5405 49.3371L54.4699 49.8008C54.37 49.5574 54.2023 49.3634 53.9668 49.2187C53.7312 49.0739 53.4672 49.0016 53.1746 49.0016C52.939 49.0016 52.7534 49.0509 52.6178 49.1496C52.4822 49.2483 52.4144 49.3765 52.4144 49.5344C52.4144 49.6331 52.443 49.7186 52.5001 49.7909C52.5572 49.8633 52.6357 49.9225 52.7356 49.9685C52.8427 50.0146 52.964 50.0573 53.0996 50.0968L54.031 50.3533C54.5092 50.4849 54.8767 50.6822 55.1337 50.9453C55.3977 51.2084 55.5298 51.5307 55.5298 51.9123C55.5298 52.2346 55.437 52.5207 55.2514 52.7707C55.0658 53.014 54.8089 53.2048 54.4806 53.3429C54.1523 53.4811 53.7669 53.5501 53.3244 53.5501ZM59.2624 53.4909C58.6058 53.4909 58.0955 53.3265 57.7315 52.9976C57.3747 52.6621 57.1963 52.1918 57.1963 51.5867V49.2187H56.1899V48.0643H56.297C56.5825 48.0643 56.8037 47.9952 56.9607 47.8571C57.1177 47.7189 57.1963 47.5183 57.1963 47.2552V46.8408H58.5987V48.0643H59.9369V49.2187H58.5987V51.5176C58.5987 51.6952 58.6308 51.8465 58.695 51.9715C58.7664 52.0964 58.8734 52.1918 59.0162 52.2576C59.1661 52.3234 59.3552 52.3563 59.5836 52.3563C59.6336 52.3563 59.6906 52.353 59.7549 52.3464C59.8262 52.3398 59.894 52.3332 59.9583 52.3267V53.4317C59.8584 53.4449 59.7442 53.458 59.6157 53.4712C59.4873 53.4843 59.3695 53.4909 59.2624 53.4909Z" fill="#F5F1EC"/>
<g filter="url(#filter1_d_976_954)">
<path d="M152.082 6H116.843C106.988 6 99 13.3624 99 22.4444V63.5556C99 72.6376 106.988 80 116.843 80H152.082C161.936 80 169.924 72.6376 169.924 63.5556V22.4444C169.924 13.3624 161.936 6 152.082 6Z" fill="#8ACCA8"/>
</g>
<path d="M120.729 41.0987V31.2979H122.67V39.5201H127.223V41.0987H120.729ZM132.119 41.2566C131.358 41.2566 130.663 41.0944 130.035 40.7698C129.416 40.4453 128.921 40.0025 128.55 39.4411C128.189 38.8798 128.008 38.2396 128.008 37.5204C128.008 36.8012 128.189 36.161 128.55 35.5997C128.921 35.0384 129.416 34.5955 130.035 34.271C130.653 33.9465 131.348 33.7843 132.119 33.7843C132.88 33.7843 133.57 33.9465 134.189 34.271C134.807 34.5955 135.297 35.0384 135.659 35.5997C136.03 36.1523 136.215 36.7925 136.215 37.5204C136.215 38.2396 136.03 38.8798 135.659 39.4411C135.288 40.0025 134.793 40.4453 134.174 40.7698C133.556 41.0944 132.871 41.2566 132.119 41.2566ZM132.119 39.6779C132.538 39.6779 132.904 39.5859 133.218 39.4017C133.541 39.2175 133.794 38.9632 133.974 38.6387C134.165 38.3054 134.26 37.9326 134.26 37.5204C134.26 37.0995 134.165 36.7311 133.974 36.4154C133.794 36.0908 133.541 35.8365 133.218 35.6523C132.904 35.4594 132.538 35.3629 132.119 35.3629C131.691 35.3629 131.315 35.4594 130.991 35.6523C130.668 35.8365 130.411 36.0908 130.22 36.4154C130.04 36.7311 129.949 37.0995 129.949 37.5204C129.949 37.9326 130.04 38.3054 130.22 38.6387C130.411 38.9632 130.668 39.2175 130.991 39.4017C131.315 39.5859 131.691 39.6779 132.119 39.6779ZM139.45 41.0987L136.78 33.9421H138.75L140.706 39.3754L140.021 39.3622L142.105 33.9421H143.76L145.83 39.3622L145.145 39.3754L147.101 33.9421H149.07L146.401 41.0987H144.731L142.618 35.4287H143.247L141.105 41.0987H139.45Z" fill="#F5F1EC"/>
<path d="M121.969 53.5501C121.562 53.5501 121.209 53.4876 120.909 53.3627C120.609 53.2377 120.377 53.0601 120.213 52.8299C120.049 52.5931 119.967 52.3201 119.967 52.0109C119.967 51.7149 120.038 51.4518 120.181 51.2216C120.324 50.9848 120.545 50.7875 120.845 50.6296C121.144 50.4717 121.523 50.3599 121.979 50.2941L123.885 50.008V50.9947L122.247 51.2512C121.969 51.2972 121.762 51.3795 121.626 51.4979C121.491 51.6163 121.423 51.7708 121.423 51.9616C121.423 52.1458 121.498 52.2938 121.648 52.4056C121.805 52.5108 121.997 52.5635 122.226 52.5635C122.518 52.5635 122.775 52.5075 122.996 52.3957C123.225 52.2773 123.4 52.1162 123.521 51.9123C123.65 51.7083 123.714 51.4847 123.714 51.2413V49.86C123.714 49.6298 123.614 49.439 123.414 49.2877C123.221 49.1299 122.964 49.0509 122.643 49.0509C122.343 49.0509 122.076 49.1266 121.84 49.2779C121.612 49.4226 121.444 49.6166 121.337 49.86L120.192 49.3469C120.306 49.0641 120.484 48.8207 120.727 48.6168C120.977 48.4063 121.269 48.2419 121.605 48.1235C121.94 48.0051 122.304 47.9459 122.697 47.9459C123.175 47.9459 123.596 48.0281 123.96 48.1925C124.324 48.3504 124.606 48.574 124.806 48.8635C125.013 49.1463 125.116 49.4785 125.116 49.86V53.4317H123.789V52.5141L124.088 52.4944C123.939 52.7246 123.76 52.9187 123.553 53.0765C123.346 53.2278 123.111 53.3462 122.847 53.4317C122.583 53.5107 122.29 53.5501 121.969 53.5501ZM128.628 53.5501C128.007 53.5501 127.465 53.4153 127.001 53.1456C126.544 52.8693 126.23 52.4977 126.059 52.0307L127.108 51.5669C127.258 51.8695 127.465 52.1063 127.729 52.2773C128 52.4483 128.3 52.5339 128.628 52.5339C128.885 52.5339 129.089 52.4812 129.239 52.376C129.388 52.2707 129.463 52.1326 129.463 51.9616C129.463 51.8563 129.431 51.7708 129.367 51.7051C129.31 51.6327 129.228 51.5735 129.121 51.5275C129.021 51.4748 128.91 51.4321 128.789 51.3992L127.836 51.1525C127.344 51.021 126.969 50.8203 126.712 50.5507C126.462 50.281 126.337 49.9619 126.337 49.5936C126.337 49.2647 126.427 48.9786 126.605 48.7352C126.791 48.4852 127.044 48.2912 127.365 48.1531C127.693 48.0149 128.068 47.9459 128.489 47.9459C129.039 47.9459 129.524 48.0675 129.945 48.3109C130.366 48.5543 130.666 48.8963 130.844 49.3371L129.774 49.8008C129.674 49.5574 129.506 49.3634 129.271 49.2187C129.035 49.0739 128.771 49.0016 128.479 49.0016C128.243 49.0016 128.057 49.0509 127.922 49.1496C127.786 49.2483 127.718 49.3765 127.718 49.5344C127.718 49.6331 127.747 49.7186 127.804 49.7909C127.861 49.8633 127.94 49.9225 128.04 49.9685C128.147 50.0146 128.268 50.0573 128.404 50.0968L129.335 50.3533C129.813 50.4849 130.181 50.6822 130.438 50.9453C130.702 51.2084 130.834 51.5307 130.834 51.9123C130.834 52.2346 130.741 52.5207 130.555 52.7707C130.37 53.014 130.113 53.2048 129.785 53.3429C129.456 53.4811 129.071 53.5501 128.628 53.5501ZM134.128 53.5501C133.507 53.5501 132.964 53.4153 132.5 53.1456C132.044 52.8693 131.73 52.4977 131.558 52.0307L132.607 51.5669C132.757 51.8695 132.964 52.1063 133.228 52.2773C133.499 52.4483 133.799 52.5339 134.128 52.5339C134.384 52.5339 134.588 52.4812 134.738 52.376C134.888 52.2707 134.963 52.1326 134.963 51.9616C134.963 51.8563 134.93 51.7708 134.866 51.7051C134.809 51.6327 134.727 51.5735 134.62 51.5275C134.52 51.4748 134.409 51.4321 134.288 51.3992L133.335 51.1525C132.843 51.021 132.468 50.8203 132.211 50.5507C131.961 50.281 131.837 49.9619 131.837 49.5936C131.837 49.2647 131.926 48.9786 132.104 48.7352C132.29 48.4852 132.543 48.2912 132.864 48.1531C133.193 48.0149 133.567 47.9459 133.988 47.9459C134.538 47.9459 135.023 48.0675 135.444 48.3109C135.865 48.5543 136.165 48.8963 136.344 49.3371L135.273 49.8008C135.173 49.5574 135.005 49.3634 134.77 49.2187C134.534 49.0739 134.27 49.0016 133.978 49.0016C133.742 49.0016 133.557 49.0509 133.421 49.1496C133.285 49.2483 133.218 49.3765 133.218 49.5344C133.218 49.6331 133.246 49.7186 133.303 49.7909C133.36 49.8633 133.439 49.9225 133.539 49.9685C133.646 50.0146 133.767 50.0573 133.903 50.0968L134.834 50.3533C135.312 50.4849 135.68 50.6822 135.937 50.9453C136.201 51.2084 136.333 51.5307 136.333 51.9123C136.333 52.2346 136.24 52.5207 136.055 52.7707C135.869 53.014 135.612 53.2048 135.284 53.3429C134.955 53.4811 134.57 53.5501 134.128 53.5501ZM137.411 53.4317V48.0643H138.813V53.4317H137.411ZM137.411 47.4624V46.0811H138.813V47.4624H137.411ZM142.324 53.5501C141.703 53.5501 141.161 53.4153 140.697 53.1456C140.24 52.8693 139.926 52.4977 139.755 52.0307L140.804 51.5669C140.954 51.8695 141.161 52.1063 141.425 52.2773C141.696 52.4483 141.996 52.5339 142.324 52.5339C142.581 52.5339 142.784 52.4812 142.934 52.376C143.084 52.2707 143.159 52.1326 143.159 51.9616C143.159 51.8563 143.127 51.7708 143.063 51.7051C143.006 51.6327 142.923 51.5735 142.816 51.5275C142.717 51.4748 142.606 51.4321 142.485 51.3992L141.532 51.1525C141.039 51.021 140.665 50.8203 140.408 50.5507C140.158 50.281 140.033 49.9619 140.033 49.5936C140.033 49.2647 140.122 48.9786 140.301 48.7352C140.486 48.4852 140.74 48.2912 141.061 48.1531C141.389 48.0149 141.764 47.9459 142.185 47.9459C142.734 47.9459 143.22 48.0675 143.641 48.3109C144.062 48.5543 144.362 48.8963 144.54 49.3371L143.469 49.8008C143.37 49.5574 143.202 49.3634 142.966 49.2187C142.731 49.0739 142.467 49.0016 142.174 49.0016C141.939 49.0016 141.753 49.0509 141.617 49.1496C141.482 49.2483 141.414 49.3765 141.414 49.5344C141.414 49.6331 141.443 49.7186 141.5 49.7909C141.557 49.8633 141.635 49.9225 141.735 49.9685C141.842 50.0146 141.964 50.0573 142.099 50.0968L143.031 50.3533C143.509 50.4849 143.876 50.6822 144.133 50.9453C144.397 51.2084 144.529 51.5307 144.529 51.9123C144.529 52.2346 144.437 52.5207 144.251 52.7707C144.065 53.014 143.808 53.2048 143.48 53.3429C143.152 53.4811 142.766 53.5501 142.324 53.5501ZM148.262 53.4909C147.605 53.4909 147.095 53.3265 146.731 52.9976C146.374 52.6621 146.196 52.1918 146.196 51.5867V49.2187H145.19V48.0643H145.297C145.582 48.0643 145.803 47.9952 145.96 47.8571C146.117 47.7189 146.196 47.5183 146.196 47.2552V46.8408H147.598V48.0643H148.937V49.2187H147.598V51.5176C147.598 51.6952 147.63 51.8465 147.695 51.9715C147.766 52.0964 147.873 52.1918 148.016 52.2576C148.166 52.3234 148.355 52.3563 148.583 52.3563C148.633 52.3563 148.69 52.353 148.755 52.3464C148.826 52.3398 148.894 52.3332 148.958 52.3267V53.4317C148.858 53.4449 148.744 53.458 148.615 53.4712C148.487 53.4843 148.369 53.4909 148.262 53.4909Z" fill="#2F2F2F"/>
<g filter="url(#filter2_d_976_954)">
<path d="M241.082 6H205.843C195.988 6 188 13.3624 188 22.4444V63.5556C188 72.6376 195.988 80 205.843 80H241.082C250.936 80 258.924 72.6376 258.924 63.5556V22.4444C258.924 13.3624 250.936 6 241.082 6Z" fill="#DB9612"/>
</g>
<path d="M206.807 41.0987L210.475 31.2979H212.987L216.656 41.0987H214.543L213.787 38.9939H209.676L208.905 41.0987H206.807ZM210.232 37.4152H213.23L211.46 32.5345H212.002L210.232 37.4152ZM220.313 41.2566C219.713 41.2566 219.189 41.1338 218.742 40.8883C218.304 40.6427 217.966 40.3006 217.729 39.8621C217.501 39.4236 217.386 38.9106 217.386 38.3229V33.9421H219.256V38.1782C219.256 38.4764 219.318 38.7395 219.442 38.9675C219.575 39.1868 219.76 39.3622 219.999 39.4938C220.246 39.6165 220.521 39.6779 220.826 39.6779C221.131 39.6779 221.402 39.6165 221.64 39.4938C221.877 39.3622 222.063 39.1824 222.197 38.9544C222.33 38.7264 222.397 38.4545 222.397 38.1387V33.9421H224.266V41.0987H222.496V39.6911L222.654 39.9411C222.472 40.3795 222.173 40.7084 221.754 40.9277C221.345 41.147 220.864 41.2566 220.313 41.2566ZM229.544 41.1777C228.669 41.1777 227.988 40.9584 227.503 40.5199C227.028 40.0726 226.789 39.4455 226.789 38.6387V35.4813H225.448V33.9421H225.59C225.971 33.9421 226.266 33.85 226.475 33.6659C226.685 33.4817 226.789 33.2142 226.789 32.8634V32.3108H228.659V33.9421H230.444V35.4813H228.659V38.5466C228.659 38.7834 228.702 38.9851 228.788 39.1517C228.883 39.3184 229.026 39.4455 229.216 39.5332C229.416 39.621 229.668 39.6648 229.973 39.6648C230.039 39.6648 230.115 39.6604 230.201 39.6516C230.296 39.6428 230.386 39.6341 230.472 39.6253V41.0987C230.339 41.1163 230.187 41.1338 230.015 41.1514C229.844 41.1689 229.687 41.1777 229.544 41.1777ZM235.628 41.2566C234.867 41.2566 234.172 41.0944 233.544 40.7698C232.925 40.4453 232.43 40.0025 232.059 39.4411C231.698 38.8798 231.517 38.2396 231.517 37.5204C231.517 36.8012 231.698 36.161 232.059 35.5997C232.43 35.0384 232.925 34.5955 233.544 34.271C234.163 33.9465 234.857 33.7843 235.628 33.7843C236.39 33.7843 237.079 33.9465 237.697 34.271C238.317 34.5955 238.806 35.0384 239.168 35.5997C239.539 36.1523 239.724 36.7925 239.724 37.5204C239.724 38.2396 239.539 38.8798 239.168 39.4411C238.797 40.0025 238.302 40.4453 237.683 40.7698C237.065 41.0944 236.38 41.2566 235.628 41.2566ZM235.628 39.6779C236.047 39.6779 236.413 39.5859 236.727 39.4017C237.051 39.2175 237.303 38.9632 237.483 38.6387C237.674 38.3054 237.769 37.9326 237.769 37.5204C237.769 37.0995 237.674 36.7311 237.483 36.4154C237.303 36.0908 237.051 35.8365 236.727 35.6523C236.413 35.4594 236.047 35.3629 235.628 35.3629C235.2 35.3629 234.824 35.4594 234.5 35.6523C234.177 35.8365 233.92 36.0908 233.729 36.4154C233.549 36.7311 233.458 37.0995 233.458 37.5204C233.458 37.9326 233.549 38.3054 233.729 38.6387C233.92 38.9632 234.177 39.2175 234.5 39.4017C234.824 39.5859 235.2 39.6779 235.628 39.6779Z" fill="#2F2F2F"/>
<path d="M210.967 53.5501C210.56 53.5501 210.207 53.4876 209.907 53.3627C209.607 53.2377 209.375 53.0601 209.211 52.8299C209.047 52.5931 208.965 52.3201 208.965 52.0109C208.965 51.7149 209.036 51.4518 209.179 51.2216C209.322 50.9848 209.543 50.7875 209.843 50.6296C210.142 50.4717 210.521 50.3599 210.977 50.2941L212.883 50.008V50.9947L211.245 51.2512C210.967 51.2972 210.76 51.3795 210.624 51.4979C210.489 51.6163 210.421 51.7708 210.421 51.9616C210.421 52.1458 210.496 52.2938 210.646 52.4056C210.803 52.5108 210.995 52.5635 211.224 52.5635C211.516 52.5635 211.773 52.5075 211.995 52.3957C212.223 52.2773 212.398 52.1162 212.519 51.9123C212.648 51.7083 212.712 51.4847 212.712 51.2413V49.86C212.712 49.6298 212.612 49.439 212.412 49.2877C212.219 49.1299 211.962 49.0509 211.641 49.0509C211.341 49.0509 211.074 49.1266 210.838 49.2779C210.61 49.4226 210.442 49.6166 210.335 49.86L209.19 49.3469C209.304 49.0641 209.482 48.8207 209.725 48.6168C209.975 48.4063 210.267 48.2419 210.603 48.1235C210.938 48.0051 211.302 47.9459 211.695 47.9459C212.173 47.9459 212.594 48.0281 212.958 48.1925C213.322 48.3504 213.604 48.574 213.804 48.8635C214.011 49.1463 214.114 49.4785 214.114 49.86V53.4317H212.787V52.5141L213.086 52.4944C212.937 52.7246 212.758 52.9187 212.551 53.0765C212.344 53.2278 212.109 53.3462 211.845 53.4317C211.581 53.5107 211.288 53.5501 210.967 53.5501ZM217.627 53.5501C217.006 53.5501 216.463 53.4153 215.999 53.1456C215.543 52.8693 215.228 52.4977 215.057 52.0307L216.106 51.5669C216.256 51.8695 216.463 52.1063 216.727 52.2773C216.998 52.4483 217.298 52.5339 217.627 52.5339C217.883 52.5339 218.087 52.4812 218.237 52.376C218.387 52.2707 218.462 52.1326 218.462 51.9616C218.462 51.8563 218.429 51.7708 218.365 51.7051C218.308 51.6327 218.226 51.5735 218.119 51.5275C218.019 51.4748 217.908 51.4321 217.787 51.3992L216.834 51.1525C216.342 51.021 215.967 50.8203 215.71 50.5507C215.46 50.281 215.336 49.9619 215.336 49.5936C215.336 49.2647 215.425 48.9786 215.603 48.7352C215.789 48.4852 216.042 48.2912 216.363 48.1531C216.692 48.0149 217.066 47.9459 217.487 47.9459C218.037 47.9459 218.522 48.0675 218.943 48.3109C219.364 48.5543 219.664 48.8963 219.843 49.3371L218.772 49.8008C218.672 49.5574 218.504 49.3634 218.269 49.2187C218.033 49.0739 217.769 49.0016 217.477 49.0016C217.241 49.0016 217.056 49.0509 216.92 49.1496C216.784 49.2483 216.717 49.3765 216.717 49.5344C216.717 49.6331 216.745 49.7186 216.802 49.7909C216.859 49.8633 216.938 49.9225 217.038 49.9685C217.145 50.0146 217.266 50.0573 217.402 50.0968L218.333 50.3533C218.811 50.4849 219.179 50.6822 219.436 50.9453C219.7 51.2084 219.832 51.5307 219.832 51.9123C219.832 52.2346 219.739 52.5207 219.554 52.7707C219.368 53.014 219.111 53.2048 218.783 53.3429C218.454 53.4811 218.069 53.5501 217.627 53.5501ZM223.126 53.5501C222.505 53.5501 221.962 53.4153 221.498 53.1456C221.042 52.8693 220.728 52.4977 220.556 52.0307L221.605 51.5669C221.755 51.8695 221.962 52.1063 222.226 52.2773C222.498 52.4483 222.797 52.5339 223.126 52.5339C223.383 52.5339 223.586 52.4812 223.736 52.376C223.886 52.2707 223.961 52.1326 223.961 51.9616C223.961 51.8563 223.929 51.7708 223.864 51.7051C223.807 51.6327 223.725 51.5735 223.618 51.5275C223.518 51.4748 223.408 51.4321 223.286 51.3992L222.333 51.1525C221.841 51.021 221.466 50.8203 221.209 50.5507C220.96 50.281 220.835 49.9619 220.835 49.5936C220.835 49.2647 220.924 48.9786 221.102 48.7352C221.288 48.4852 221.541 48.2912 221.862 48.1531C222.191 48.0149 222.565 47.9459 222.986 47.9459C223.536 47.9459 224.021 48.0675 224.442 48.3109C224.863 48.5543 225.163 48.8963 225.342 49.3371L224.271 49.8008C224.171 49.5574 224.003 49.3634 223.768 49.2187C223.532 49.0739 223.268 49.0016 222.976 49.0016C222.74 49.0016 222.555 49.0509 222.419 49.1496C222.283 49.2483 222.216 49.3765 222.216 49.5344C222.216 49.6331 222.244 49.7186 222.301 49.7909C222.358 49.8633 222.437 49.9225 222.537 49.9685C222.644 50.0146 222.765 50.0573 222.901 50.0968L223.832 50.3533C224.31 50.4849 224.678 50.6822 224.935 50.9453C225.199 51.2084 225.331 51.5307 225.331 51.9123C225.331 52.2346 225.238 52.5207 225.053 52.7707C224.867 53.014 224.61 53.2048 224.282 53.3429C223.953 53.4811 223.568 53.5501 223.126 53.5501ZM226.409 53.4317V48.0643H227.811V53.4317H226.409ZM226.409 47.4624V46.0811H227.811V47.4624H226.409ZM231.322 53.5501C230.702 53.5501 230.159 53.4153 229.695 53.1456C229.238 52.8693 228.924 52.4977 228.753 52.0307L229.802 51.5669C229.952 51.8695 230.159 52.1063 230.423 52.2773C230.694 52.4483 230.994 52.5339 231.322 52.5339C231.579 52.5339 231.783 52.4812 231.933 52.376C232.083 52.2707 232.158 52.1326 232.158 51.9616C232.158 51.8563 232.125 51.7708 232.061 51.7051C232.004 51.6327 231.922 51.5735 231.815 51.5275C231.715 51.4748 231.604 51.4321 231.483 51.3992L230.53 51.1525C230.038 51.021 229.663 50.8203 229.406 50.5507C229.156 50.281 229.031 49.9619 229.031 49.5936C229.031 49.2647 229.121 48.9786 229.299 48.7352C229.485 48.4852 229.738 48.2912 230.059 48.1531C230.388 48.0149 230.762 47.9459 231.183 47.9459C231.733 47.9459 232.218 48.0675 232.639 48.3109C233.06 48.5543 233.36 48.8963 233.539 49.3371L232.468 49.8008C232.368 49.5574 232.2 49.3634 231.965 49.2187C231.729 49.0739 231.465 49.0016 231.173 49.0016C230.937 49.0016 230.752 49.0509 230.616 49.1496C230.48 49.2483 230.413 49.3765 230.413 49.5344C230.413 49.6331 230.441 49.7186 230.498 49.7909C230.555 49.8633 230.634 49.9225 230.734 49.9685C230.841 50.0146 230.962 50.0573 231.098 50.0968L232.029 50.3533C232.507 50.4849 232.875 50.6822 233.132 50.9453C233.396 51.2084 233.528 51.5307 233.528 51.9123C233.528 52.2346 233.435 52.5207 233.249 52.7707C233.064 53.014 232.807 53.2048 232.479 53.3429C232.15 53.4811 231.765 53.5501 231.322 53.5501ZM237.26 53.4909C236.604 53.4909 236.094 53.3265 235.73 52.9976C235.373 52.6621 235.194 52.1918 235.194 51.5867V49.2187H234.188V48.0643H234.295C234.581 48.0643 234.802 47.9952 234.959 47.8571C235.116 47.7189 235.194 47.5183 235.194 47.2552V46.8408H236.597V48.0643H237.935V49.2187H236.597V51.5176C236.597 51.6952 236.629 51.8465 236.693 51.9715C236.764 52.0964 236.872 52.1918 237.014 52.2576C237.164 52.3234 237.353 52.3563 237.582 52.3563C237.632 52.3563 237.689 52.353 237.753 52.3464C237.824 52.3398 237.892 52.3332 237.956 52.3267V53.4317C237.856 53.4449 237.742 53.458 237.614 53.4712C237.485 53.4843 237.368 53.4909 237.26 53.4909Z" fill="#F5F1EC"/>
<g filter="url(#filter3_d_976_954)">
<path d="M328.082 6H292.843C282.988 6 275 13.3624 275 22.4444V63.5556C275 72.6376 282.988 80 292.843 80H328.082C337.936 80 345.924 72.6376 345.924 63.5556V22.4444C345.924 13.3624 337.936 6 328.082 6Z" fill="#D2C9BD"/>
</g>
<path d="M301.114 41.0987V31.2979H302.627L308.479 38.5597L307.694 38.7044V31.2979H309.635V41.0987H308.108L302.341 33.7843L303.055 33.6395V41.0987H301.114ZM315.333 41.2566C314.572 41.2566 313.877 41.0944 313.249 40.7698C312.631 40.4453 312.136 40.0025 311.765 39.4411C311.403 38.8798 311.222 38.2396 311.222 37.5204C311.222 36.8012 311.403 36.161 311.765 35.5997C312.136 35.0384 312.631 34.5955 313.249 34.271C313.867 33.9465 314.562 33.7843 315.333 33.7843C316.094 33.7843 316.785 33.9465 317.403 34.271C318.021 34.5955 318.512 35.0384 318.873 35.5997C319.244 36.1523 319.43 36.7925 319.43 37.5204C319.43 38.2396 319.244 38.8798 318.873 39.4411C318.502 40.0025 318.007 40.4453 317.389 40.7698C316.77 41.0944 316.085 41.2566 315.333 41.2566ZM315.333 39.6779C315.752 39.6779 316.118 39.5859 316.432 39.4017C316.756 39.2175 317.008 38.9632 317.189 38.6387C317.379 38.3054 317.474 37.9326 317.474 37.5204C317.474 37.0994 317.379 36.7311 317.189 36.4154C317.008 36.0908 316.756 35.8365 316.432 35.6523C316.118 35.4594 315.752 35.3629 315.333 35.3629C314.905 35.3629 314.529 35.4594 314.206 35.6523C313.882 35.8365 313.625 36.0908 313.435 36.4154C313.254 36.7311 313.164 37.0994 313.164 37.5204C313.164 37.9326 313.254 38.3054 313.435 38.6387C313.625 38.9632 313.882 39.2175 314.206 39.4017C314.529 39.5859 314.905 39.6779 315.333 39.6779ZM297.537 53.5505C297.13 53.5505 296.777 53.488 296.477 53.363C296.177 53.238 295.946 53.0604 295.781 52.8302C295.617 52.5934 295.535 52.3204 295.535 52.0113C295.535 51.7153 295.607 51.4522 295.749 51.2219C295.892 50.9851 296.113 50.7878 296.413 50.6299C296.713 50.4721 297.091 50.3602 297.548 50.2945L299.453 50.0083V50.995L297.815 51.2515C297.537 51.2976 297.33 51.3798 297.195 51.4982C297.059 51.6166 296.991 51.7712 296.991 51.9619C296.991 52.1461 297.066 52.2941 297.216 52.4059C297.373 52.5112 297.566 52.5638 297.794 52.5638C298.087 52.5638 298.344 52.5079 298.565 52.3961C298.793 52.2777 298.968 52.1165 299.089 51.9126C299.218 51.7087 299.282 51.485 299.282 51.2417V49.8603C299.282 49.6301 299.182 49.4394 298.982 49.2881C298.79 49.1302 298.533 49.0513 298.212 49.0513C297.912 49.0513 297.644 49.1269 297.409 49.2782C297.18 49.4229 297.013 49.617 296.905 49.8603L295.76 49.3473C295.874 49.0644 296.053 48.8211 296.295 48.6171C296.545 48.4067 296.838 48.2422 297.173 48.1238C297.509 48.0054 297.873 47.9462 298.265 47.9462C298.743 47.9462 299.164 48.0284 299.528 48.1929C299.892 48.3507 300.174 48.5744 300.374 48.8638C300.581 49.1466 300.685 49.4788 300.685 49.8603V53.4321H299.357V52.5145L299.657 52.4947C299.507 52.725 299.328 52.919 299.122 53.0769C298.915 53.2282 298.679 53.3466 298.415 53.4321C298.151 53.511 297.858 53.5505 297.537 53.5505ZM304.197 53.5505C303.576 53.5505 303.033 53.4156 302.57 53.1459C302.113 52.8697 301.799 52.498 301.627 52.031L302.677 51.5673C302.827 51.8698 303.033 52.1066 303.298 52.2777C303.569 52.4487 303.869 52.5342 304.197 52.5342C304.454 52.5342 304.657 52.4816 304.807 52.3763C304.957 52.2711 305.032 52.133 305.032 51.9619C305.032 51.8567 305 51.7712 304.936 51.7054C304.878 51.6331 304.796 51.5738 304.689 51.5278C304.589 51.4752 304.479 51.4324 304.357 51.3995L303.405 51.1529C302.912 51.0213 302.537 50.8207 302.281 50.551C302.031 50.2813 301.906 49.9623 301.906 49.5939C301.906 49.265 301.995 48.9789 302.173 48.7355C302.359 48.4856 302.612 48.2915 302.934 48.1534C303.262 48.0153 303.637 47.9462 304.058 47.9462C304.607 47.9462 305.093 48.0679 305.514 48.3113C305.935 48.5546 306.234 48.8967 306.413 49.3374L305.342 49.8011C305.242 49.5578 305.075 49.3637 304.839 49.219C304.604 49.0743 304.34 49.0019 304.047 49.0019C303.811 49.0019 303.626 49.0513 303.49 49.1499C303.355 49.2486 303.287 49.3769 303.287 49.5347C303.287 49.6334 303.315 49.7189 303.372 49.7913C303.43 49.8636 303.508 49.9228 303.608 49.9689C303.715 50.0149 303.836 50.0577 303.972 50.0971L304.903 50.3537C305.382 50.4852 305.749 50.6826 306.006 50.9457C306.27 51.2088 306.402 51.5311 306.402 51.9126C306.402 52.2349 306.309 52.521 306.124 52.771C305.938 53.0144 305.681 53.2051 305.353 53.3433C305.025 53.4814 304.639 53.5505 304.197 53.5505ZM309.696 53.5505C309.075 53.5505 308.533 53.4156 308.069 53.1459C307.612 52.8697 307.298 52.498 307.127 52.031L308.176 51.5673C308.326 51.8698 308.533 52.1066 308.797 52.2777C309.068 52.4487 309.368 52.5342 309.696 52.5342C309.953 52.5342 310.156 52.4816 310.306 52.3763C310.456 52.2711 310.531 52.133 310.531 51.9619C310.531 51.8567 310.499 51.7712 310.435 51.7054C310.377 51.6331 310.295 51.5738 310.188 51.5278C310.088 51.4752 309.978 51.4324 309.856 51.3995L308.904 51.1529C308.411 51.0213 308.037 50.8207 307.78 50.551C307.53 50.2813 307.405 49.9623 307.405 49.5939C307.405 49.265 307.494 48.9789 307.673 48.7355C307.858 48.4856 308.111 48.2915 308.433 48.1534C308.761 48.0153 309.136 47.9462 309.557 47.9462C310.106 47.9462 310.592 48.0679 311.013 48.3113C311.434 48.5546 311.734 48.8967 311.912 49.3374L310.841 49.8011C310.741 49.5578 310.574 49.3637 310.338 49.219C310.103 49.0743 309.839 49.0019 309.546 49.0019C309.31 49.0019 309.125 49.0513 308.989 49.1499C308.854 49.2486 308.786 49.3769 308.786 49.5347C308.786 49.6334 308.814 49.7189 308.872 49.7913C308.929 49.8636 309.007 49.9228 309.107 49.9689C309.214 50.0149 309.335 50.0577 309.471 50.0971L310.402 50.3537C310.881 50.4852 311.248 50.6826 311.505 50.9457C311.769 51.2088 311.901 51.5311 311.901 51.9126C311.901 52.2349 311.808 52.521 311.623 52.771C311.437 53.0144 311.18 53.2051 310.852 53.3433C310.524 53.4814 310.138 53.5505 309.696 53.5505ZM312.979 53.4321V48.0646H314.381V53.4321H312.979ZM312.979 47.4627V46.0814H314.381V47.4627H312.979ZM317.893 53.5505C317.272 53.5505 316.729 53.4156 316.266 53.1459C315.809 52.8697 315.495 52.498 315.323 52.031L316.373 51.5673C316.522 51.8698 316.729 52.1066 316.994 52.2777C317.265 52.4487 317.564 52.5342 317.893 52.5342C318.15 52.5342 318.353 52.4816 318.503 52.3763C318.653 52.2711 318.728 52.133 318.728 51.9619C318.728 51.8567 318.696 51.7712 318.631 51.7054C318.574 51.6331 318.492 51.5738 318.385 51.5278C318.285 51.4752 318.175 51.4324 318.053 51.3995L317.101 51.1529C316.608 51.0213 316.233 50.8207 315.976 50.551C315.727 50.2813 315.602 49.9623 315.602 49.5939C315.602 49.265 315.691 48.9789 315.869 48.7355C316.055 48.4856 316.308 48.2915 316.63 48.1534C316.958 48.0153 317.333 47.9462 317.754 47.9462C318.303 47.9462 318.788 48.0679 319.21 48.3113C319.631 48.5546 319.93 48.8967 320.109 49.3374L319.038 49.8011C318.938 49.5578 318.771 49.3637 318.535 49.219C318.3 49.0743 318.036 49.0019 317.743 49.0019C317.507 49.0019 317.322 49.0513 317.186 49.1499C317.051 49.2486 316.983 49.3769 316.983 49.5347C316.983 49.6334 317.011 49.7189 317.068 49.7913C317.126 49.8636 317.204 49.9228 317.304 49.9689C317.411 50.0149 317.532 50.0577 317.668 50.0971L318.599 50.3537C319.078 50.4852 319.445 50.6826 319.702 50.9457C319.966 51.2088 320.098 51.5311 320.098 51.9126C320.098 52.2349 320.005 52.521 319.82 52.771C319.634 53.0144 319.377 53.2051 319.049 53.3433C318.721 53.4814 318.335 53.5505 317.893 53.5505ZM323.831 53.4913C323.174 53.4913 322.664 53.3268 322.3 52.9979C321.943 52.6625 321.765 52.1922 321.765 51.587V49.219H320.758V48.0646H320.865C321.151 48.0646 321.372 47.9955 321.529 47.8574C321.686 47.7193 321.765 47.5186 321.765 47.2555V46.8411H323.167V48.0646H324.505V49.219H323.167V51.5179C323.167 51.6955 323.199 51.8468 323.263 51.9718C323.335 52.0968 323.442 52.1922 323.585 52.2579C323.734 52.3237 323.924 52.3566 324.152 52.3566C324.202 52.3566 324.259 52.3533 324.323 52.3467C324.395 52.3402 324.462 52.3336 324.527 52.327V53.4321C324.427 53.4452 324.313 53.4584 324.184 53.4715C324.056 53.4847 323.938 53.4913 323.831 53.4913Z" fill="#2F2F2F"/>
<defs>
<filter id="filter0_d_976_954" x="0" y="0" width="90.9238" height="94" filterUnits="userSpaceOnUse" color-interpolation-filters="sRGB">
<feFlood flood-opacity="0" result="BackgroundImageFix"/>
<feColorMatrix in="SourceAlpha" type="matrix" values="0 0 0 0 0 0 0 0 0 0 0 0 0 0 0 0 0 0 127 0" result="hardAlpha"/>
<feOffset dy="4"/>
<feGaussianBlur stdDeviation="5"/>
<feComposite in2="hardAlpha" operator="out"/>
<feColorMatrix type="matrix" values="0 0 0 0 0 0 0 0 0 0 0 0 0 0 0 0 0 0 0.25 0"/>
<feBlend mode="normal" in2="BackgroundImageFix" result="effect1_dropShadow_976_954"/>
<feBlend mode="normal" in="SourceGraphic" in2="effect1_dropShadow_976_954" result="shape"/>
</filter>
<filter id="filter1_d_976_954" x="89" y="0" width="90.9238" height="94" filterUnits="userSpaceOnUse" color-interpolation-filters="sRGB">
<feFlood flood-opacity="0" result="BackgroundImageFix"/>
<feColorMatrix in="SourceAlpha" type="matrix" values="0 0 0 0 0 0 0 0 0 0 0 0 0 0 0 0 0 0 127 0" result="hardAlpha"/>
<feOffset dy="4"/>
<feGaussianBlur stdDeviation="5"/>
<feComposite in2="hardAlpha" operator="out"/>
<feColorMatrix type="matrix" values="0 0 0 0 0 0 0 0 0 0 0 0 0 0 0 0 0 0 0.25 0"/>
<feBlend mode="normal" in2="BackgroundImageFix" result="effect1_dropShadow_976_954"/>
<feBlend mode="normal" in="SourceGraphic" in2="effect1_dropShadow_976_954" result="shape"/>
</filter>
<filter id="filter2_d_976_954" x="178" y="0" width="90.9238" height="94" filterUnits="userSpaceOnUse" color-interpolation-filters="sRGB">
<feFlood flood-opacity="0" result="BackgroundImageFix"/>
<feColorMatrix in="SourceAlpha" type="matrix" values="0 0 0 0 0 0 0 0 0 0 0 0 0 0 0 0 0 0 127 0" result="hardAlpha"/>
<feOffset dy="4"/>
<feGaussianBlur stdDeviation="5"/>
<feComposite in2="hardAlpha" operator="out"/>
<feColorMatrix type="matrix" values="0 0 0 0 0 0 0 0 0 0 0 0 0 0 0 0 0 0 0.25 0"/>
<feBlend mode="normal" in2="BackgroundImageFix" result="effect1_dropShadow_976_954"/>
<feBlend mode="normal" in="SourceGraphic" in2="effect1_dropShadow_976_954" result="shape"/>
</filter>
<filter id="filter3_d_976_954" x="265" y="0" width="90.9238" height="94" filterUnits="userSpaceOnUse" color-interpolation-filters="sRGB">
<feFlood flood-opacity="0" result="BackgroundImageFix"/>
<feColorMatrix in="SourceAlpha" type="matrix" values="0 0 0 0 0 0 0 0 0 0 0 0 0 0 0 0 0 0 127 0" result="hardAlpha"/>
<feOffset dy="4"/>
<feGaussianBlur stdDeviation="5"/>
<feComposite in2="hardAlpha" operator="out"/>
<feColorMatrix type="matrix" values="0 0 0 0 0 0 0 0 0 0 0 0 0 0 0 0 0 0 0.25 0"/>
<feBlend mode="normal" in2="BackgroundImageFix" result="effect1_dropShadow_976_954"/>
<feBlend mode="normal" in="SourceGraphic" in2="effect1_dropShadow_976_954" result="shape"/>
</filter>
</defs>
</svg>
