<svg width="448" height="117" viewBox="0 0 448 117" fill="none" xmlns="http://www.w3.org/2000/svg">
<g filter="url(#filter0_d_976_948)">
<rect x="10" y="6" width="428" height="97" rx="28" fill="#EDE6DE"/>
<path d="M140.206 24.7142C135.586 22.5928 129.63 25.758 129.63 26.9545C129.63 27.9866 131.346 26.9357 132.301 27.8762C134.417 29.9613 131.831 54.5123 125.686 54.5123C122.176 54.5123 130.156 41.3725 125.303 38.799C122.32 37.218 115.811 38.8867 115.811 40.458C115.811 41.4063 117.512 40.4119 118.524 41.4089C119.956 42.8204 118.579 52.0979 118.579 56.6357C118.579 58.8656 119.245 61 121.158 61C123.84 61 126.679 58.0556 130.777 53.9115C144.213 40.3248 144.361 26.6219 140.206 24.7142Z" fill="#173D2E"/>
<path d="M93.508 78V67.57H95.328L99.234 72.876H98.366L102.188 67.57H104.008V78H102.09V69.74L102.832 69.922L98.87 75.2H98.646L94.782 69.922L95.412 69.74V78H93.508ZM105.85 78V70.384H107.684V78H105.85ZM105.85 69.53V67.57H107.684V69.53H105.85ZM109.377 78V70.384H111.099V71.882L110.959 71.616C111.137 71.1587 111.426 70.8133 111.827 70.58C112.238 70.3373 112.714 70.216 113.255 70.216C113.815 70.216 114.31 70.3373 114.739 70.58C115.178 70.8227 115.519 71.1633 115.761 71.602C116.004 72.0313 116.125 72.5307 116.125 73.1V78H114.291V73.534C114.291 73.198 114.226 72.9087 114.095 72.666C113.965 72.4233 113.783 72.2367 113.549 72.106C113.325 71.966 113.059 71.896 112.751 71.896C112.453 71.896 112.187 71.966 111.953 72.106C111.72 72.2367 111.538 72.4233 111.407 72.666C111.277 72.9087 111.211 73.198 111.211 73.534V78H109.377ZM117.676 78V67.402H119.51V71.882L119.258 71.616C119.436 71.1587 119.725 70.8133 120.126 70.58C120.537 70.3373 121.013 70.216 121.554 70.216C122.114 70.216 122.609 70.3373 123.038 70.58C123.477 70.8227 123.818 71.1633 124.06 71.602C124.303 72.0313 124.424 72.5307 124.424 73.1V78H122.59V73.534C122.59 73.198 122.525 72.9087 122.394 72.666C122.264 72.4233 122.082 72.2367 121.848 72.106C121.624 71.966 121.358 71.896 121.05 71.896C120.752 71.896 120.486 71.966 120.252 72.106C120.019 72.2367 119.837 72.4233 119.706 72.666C119.576 72.9087 119.51 73.198 119.51 73.534V78H117.676ZM128.285 78.168C127.753 78.168 127.291 78.0793 126.899 77.902C126.507 77.7247 126.204 77.4727 125.989 77.146C125.774 76.81 125.667 76.4227 125.667 75.984C125.667 75.564 125.76 75.1907 125.947 74.864C126.134 74.528 126.423 74.248 126.815 74.024C127.207 73.8 127.702 73.6413 128.299 73.548L130.791 73.142V74.542L128.649 74.906C128.285 74.9713 128.014 75.088 127.837 75.256C127.66 75.424 127.571 75.6433 127.571 75.914C127.571 76.1753 127.669 76.3853 127.865 76.544C128.07 76.6933 128.322 76.768 128.621 76.768C129.004 76.768 129.34 76.6887 129.629 76.53C129.928 76.362 130.156 76.1333 130.315 75.844C130.483 75.5547 130.567 75.2373 130.567 74.892V72.932C130.567 72.6053 130.436 72.3347 130.175 72.12C129.923 71.896 129.587 71.784 129.167 71.784C128.775 71.784 128.425 71.8913 128.117 72.106C127.818 72.3113 127.599 72.5867 127.459 72.932L125.961 72.204C126.11 71.8027 126.344 71.4573 126.661 71.168C126.988 70.8693 127.37 70.636 127.809 70.468C128.248 70.3 128.724 70.216 129.237 70.216C129.862 70.216 130.413 70.3327 130.889 70.566C131.365 70.79 131.734 71.1073 131.995 71.518C132.266 71.9193 132.401 72.3907 132.401 72.932V78H130.665V76.698L131.057 76.67C130.861 76.9967 130.628 77.272 130.357 77.496C130.086 77.7107 129.778 77.8787 129.433 78C129.088 78.112 128.705 78.168 128.285 78.168ZM139.524 78L135.884 67.57H137.956L140.812 76.208H140.406L143.262 67.57H145.334L141.708 78H139.524ZM149.261 78.168C148.477 78.168 147.791 77.9907 147.203 77.636C146.615 77.2813 146.158 76.8007 145.831 76.194C145.504 75.5873 145.341 74.9153 145.341 74.178C145.341 73.4127 145.504 72.736 145.831 72.148C146.167 71.5507 146.62 71.0793 147.189 70.734C147.768 70.3887 148.412 70.216 149.121 70.216C149.718 70.216 150.241 70.314 150.689 70.51C151.146 70.706 151.534 70.9767 151.851 71.322C152.168 71.6673 152.411 72.064 152.579 72.512C152.747 72.9507 152.831 73.4267 152.831 73.94C152.831 74.0707 152.822 74.206 152.803 74.346C152.794 74.486 152.77 74.6073 152.733 74.71H146.853V73.31H151.697L150.829 73.968C150.913 73.5387 150.89 73.156 150.759 72.82C150.638 72.484 150.432 72.218 150.143 72.022C149.863 71.826 149.522 71.728 149.121 71.728C148.738 71.728 148.398 71.826 148.099 72.022C147.8 72.2087 147.572 72.4887 147.413 72.862C147.264 73.226 147.208 73.6693 147.245 74.192C147.208 74.6587 147.268 75.074 147.427 75.438C147.595 75.7927 147.838 76.068 148.155 76.264C148.482 76.46 148.855 76.558 149.275 76.558C149.695 76.558 150.05 76.4693 150.339 76.292C150.638 76.1147 150.871 75.8767 151.039 75.578L152.523 76.306C152.374 76.67 152.14 76.992 151.823 77.272C151.506 77.552 151.128 77.7713 150.689 77.93C150.26 78.0887 149.784 78.168 149.261 78.168ZM154.221 78V67.402H156.055V78H154.221ZM160.059 78.168C159.527 78.168 159.065 78.0793 158.673 77.902C158.281 77.7247 157.977 77.4727 157.763 77.146C157.548 76.81 157.441 76.4227 157.441 75.984C157.441 75.564 157.534 75.1907 157.721 74.864C157.907 74.528 158.197 74.248 158.589 74.024C158.981 73.8 159.475 73.6413 160.073 73.548L162.565 73.142V74.542L160.423 74.906C160.059 74.9713 159.788 75.088 159.611 75.256C159.433 75.424 159.345 75.6433 159.345 75.914C159.345 76.1753 159.443 76.3853 159.639 76.544C159.844 76.6933 160.096 76.768 160.395 76.768C160.777 76.768 161.113 76.6887 161.403 76.53C161.701 76.362 161.93 76.1333 162.089 75.844C162.257 75.5547 162.341 75.2373 162.341 74.892V72.932C162.341 72.6053 162.21 72.3347 161.949 72.12C161.697 71.896 161.361 71.784 160.941 71.784C160.549 71.784 160.199 71.8913 159.891 72.106C159.592 72.3113 159.373 72.5867 159.233 72.932L157.735 72.204C157.884 71.8027 158.117 71.4573 158.435 71.168C158.761 70.8693 159.144 70.636 159.583 70.468C160.021 70.3 160.497 70.216 161.011 70.216C161.636 70.216 162.187 70.3327 162.663 70.566C163.139 70.79 163.507 71.1073 163.769 71.518C164.039 71.9193 164.175 72.3907 164.175 72.932V78H162.439V76.698L162.831 76.67C162.635 76.9967 162.401 77.272 162.131 77.496C161.86 77.7107 161.552 77.8787 161.207 78C160.861 78.112 160.479 78.168 160.059 78.168Z" fill="#2F2F2F"/>
<path d="M299 38L291 41V60L299 57L319 60L327 57V38L319 41L299 38Z" stroke="#D2C9BD" stroke-width="2" stroke-linecap="round" stroke-linejoin="round"/>
<path d="M299 38V57" stroke="#D2C9BD" stroke-width="2" stroke-linecap="round"/>
<path d="M319 41V60" stroke="#D2C9BD" stroke-width="2" stroke-linecap="round"/>
<path d="M291 48C291 48 296 42.5 303 47C310 51.5 307 56.5 315 55C323 53.5 320.5 44.5 327 40.5" stroke="#D2C9BD" stroke-width="2" stroke-linecap="round" stroke-dasharray="3 3"/>
<path fill-rule="evenodd" clip-rule="evenodd" d="M310.215 44.7261C312.454 42.5959 317 37.6616 317 32.7273C317 28.0018 313.418 24 309 24C304.582 24 301 28.0018 301 32.7273C301 37.6616 305.546 42.5959 307.785 44.7261C308.474 45.3823 309.526 45.3823 310.215 44.7261ZM309.002 33.4547C310.609 33.4547 311.911 32.1522 311.911 30.5456C311.911 28.9389 310.609 27.6365 309.002 27.6365C307.395 27.6365 306.093 28.9389 306.093 30.5456C306.093 32.1522 307.395 33.4547 309.002 33.4547Z" fill="#D2C9BD"/>
<path d="M285.008 78V67.57H286.492L292.232 75.298L291.462 75.452V67.57H293.366V78H291.868L286.212 70.216L286.912 70.062V78H285.008ZM297.541 78.168C297.009 78.168 296.547 78.0793 296.155 77.902C295.763 77.7247 295.46 77.4727 295.245 77.146C295.03 76.81 294.923 76.4227 294.923 75.984C294.923 75.564 295.016 75.1907 295.203 74.864C295.39 74.528 295.679 74.248 296.071 74.024C296.463 73.8 296.958 73.6413 297.555 73.548L300.047 73.142V74.542L297.905 74.906C297.541 74.9713 297.27 75.088 297.093 75.256C296.916 75.424 296.827 75.6433 296.827 75.914C296.827 76.1753 296.925 76.3853 297.121 76.544C297.326 76.6933 297.578 76.768 297.877 76.768C298.26 76.768 298.596 76.6887 298.885 76.53C299.184 76.362 299.412 76.1333 299.571 75.844C299.739 75.5547 299.823 75.2373 299.823 74.892V72.932C299.823 72.6053 299.692 72.3347 299.431 72.12C299.179 71.896 298.843 71.784 298.423 71.784C298.031 71.784 297.681 71.8913 297.373 72.106C297.074 72.3113 296.855 72.5867 296.715 72.932L295.217 72.204C295.366 71.8027 295.6 71.4573 295.917 71.168C296.244 70.8693 296.626 70.636 297.065 70.468C297.504 70.3 297.98 70.216 298.493 70.216C299.118 70.216 299.669 70.3327 300.145 70.566C300.621 70.79 300.99 71.1073 301.251 71.518C301.522 71.9193 301.657 72.3907 301.657 72.932V78H299.921V76.698L300.313 76.67C300.117 76.9967 299.884 77.272 299.613 77.496C299.342 77.7107 299.034 77.8787 298.689 78C298.344 78.112 297.961 78.168 297.541 78.168ZM305.511 78L302.515 70.384H304.517L306.687 76.376H305.945L308.129 70.384H310.131L307.135 78H305.511ZM314.62 78.168C313.836 78.168 313.15 77.9907 312.562 77.636C311.974 77.2813 311.517 76.8007 311.19 76.194C310.864 75.5873 310.7 74.9153 310.7 74.178C310.7 73.4127 310.864 72.736 311.19 72.148C311.526 71.5507 311.979 71.0793 312.548 70.734C313.127 70.3887 313.771 70.216 314.48 70.216C315.078 70.216 315.6 70.314 316.048 70.51C316.506 70.706 316.893 70.9767 317.21 71.322C317.528 71.6673 317.77 72.064 317.938 72.512C318.106 72.9507 318.19 73.4267 318.19 73.94C318.19 74.0707 318.181 74.206 318.162 74.346C318.153 74.486 318.13 74.6073 318.092 74.71H312.212V73.31H317.056L316.188 73.968C316.272 73.5387 316.249 73.156 316.118 72.82C315.997 72.484 315.792 72.218 315.502 72.022C315.222 71.826 314.882 71.728 314.48 71.728C314.098 71.728 313.757 71.826 313.458 72.022C313.16 72.2087 312.931 72.4887 312.772 72.862C312.623 73.226 312.567 73.6693 312.604 74.192C312.567 74.6587 312.628 75.074 312.786 75.438C312.954 75.7927 313.197 76.068 313.514 76.264C313.841 76.46 314.214 76.558 314.634 76.558C315.054 76.558 315.409 76.4693 315.698 76.292C315.997 76.1147 316.23 75.8767 316.398 75.578L317.882 76.306C317.733 76.67 317.5 76.992 317.182 77.272C316.865 77.552 316.487 77.7713 316.048 77.93C315.619 78.0887 315.143 78.168 314.62 78.168ZM323.277 81.08C322.707 81.08 322.18 80.9867 321.695 80.8C321.209 80.6133 320.789 80.352 320.435 80.016C320.089 79.6893 319.837 79.302 319.679 78.854L321.387 78.21C321.499 78.5647 321.718 78.8493 322.045 79.064C322.381 79.288 322.791 79.4 323.277 79.4C323.65 79.4 323.977 79.33 324.257 79.19C324.546 79.05 324.77 78.8447 324.929 78.574C325.087 78.3127 325.167 77.9953 325.167 77.622V75.886L325.517 76.306C325.255 76.7633 324.905 77.1087 324.467 77.342C324.028 77.5753 323.529 77.692 322.969 77.692C322.259 77.692 321.625 77.5287 321.065 77.202C320.505 76.8753 320.066 76.4273 319.749 75.858C319.431 75.2887 319.273 74.6493 319.273 73.94C319.273 73.2213 319.431 72.582 319.749 72.022C320.066 71.462 320.5 71.0233 321.051 70.706C321.601 70.3793 322.227 70.216 322.927 70.216C323.496 70.216 323.995 70.3373 324.425 70.58C324.863 70.8133 325.227 71.154 325.517 71.602L325.265 72.064V70.384H327.001V77.622C327.001 78.2847 326.837 78.8773 326.511 79.4C326.193 79.9227 325.755 80.3333 325.195 80.632C324.644 80.9307 324.005 81.08 323.277 81.08ZM323.193 75.998C323.585 75.998 323.925 75.914 324.215 75.746C324.513 75.5687 324.747 75.326 324.915 75.018C325.083 74.71 325.167 74.3553 325.167 73.954C325.167 73.562 325.078 73.212 324.901 72.904C324.733 72.5867 324.499 72.3393 324.201 72.162C323.911 71.9847 323.575 71.896 323.193 71.896C322.81 71.896 322.465 71.9847 322.157 72.162C321.849 72.3393 321.606 72.5867 321.429 72.904C321.261 73.212 321.177 73.562 321.177 73.954C321.177 74.346 321.261 74.696 321.429 75.004C321.606 75.312 321.844 75.5547 322.143 75.732C322.451 75.9093 322.801 75.998 323.193 75.998ZM331.023 78.168C330.491 78.168 330.029 78.0793 329.637 77.902C329.245 77.7247 328.942 77.4727 328.727 77.146C328.513 76.81 328.405 76.4227 328.405 75.984C328.405 75.564 328.499 75.1907 328.685 74.864C328.872 74.528 329.161 74.248 329.553 74.024C329.945 73.8 330.44 73.6413 331.037 73.548L333.529 73.142V74.542L331.387 74.906C331.023 74.9713 330.753 75.088 330.575 75.256C330.398 75.424 330.309 75.6433 330.309 75.914C330.309 76.1753 330.407 76.3853 330.603 76.544C330.809 76.6933 331.061 76.768 331.359 76.768C331.742 76.768 332.078 76.6887 332.367 76.53C332.666 76.362 332.895 76.1333 333.053 75.844C333.221 75.5547 333.305 75.2373 333.305 74.892V72.932C333.305 72.6053 333.175 72.3347 332.913 72.12C332.661 71.896 332.325 71.784 331.905 71.784C331.513 71.784 331.163 71.8913 330.855 72.106C330.557 72.3113 330.337 72.5867 330.197 72.932L328.699 72.204C328.849 71.8027 329.082 71.4573 329.399 71.168C329.726 70.8693 330.109 70.636 330.547 70.468C330.986 70.3 331.462 70.216 331.975 70.216C332.601 70.216 333.151 70.3327 333.627 70.566C334.103 70.79 334.472 71.1073 334.733 71.518C335.004 71.9193 335.139 72.3907 335.139 72.932V78H333.403V76.698L333.795 76.67C333.599 76.9967 333.366 77.272 333.095 77.496C332.825 77.7107 332.517 77.8787 332.171 78C331.826 78.112 331.443 78.168 331.023 78.168ZM336.834 78V70.384H338.556V72.078L338.416 71.826C338.594 71.2567 338.869 70.86 339.242 70.636C339.625 70.412 340.082 70.3 340.614 70.3H341.062V71.924H340.404C339.882 71.924 339.462 72.0873 339.144 72.414C338.827 72.7313 338.668 73.1793 338.668 73.758V78H336.834Z" fill="#D2C9BD"/>
</g>
<defs>
<filter id="filter0_d_976_948" x="0" y="0" width="448" height="117" filterUnits="userSpaceOnUse" color-interpolation-filters="sRGB">
<feFlood flood-opacity="0" result="BackgroundImageFix"/>
<feColorMatrix in="SourceAlpha" type="matrix" values="0 0 0 0 0 0 0 0 0 0 0 0 0 0 0 0 0 0 127 0" result="hardAlpha"/>
<feOffset dy="4"/>
<feGaussianBlur stdDeviation="5"/>
<feComposite in2="hardAlpha" operator="out"/>
<feColorMatrix type="matrix" values="0 0 0 0 0 0 0 0 0 0 0 0 0 0 0 0 0 0 0.25 0"/>
<feBlend mode="normal" in2="BackgroundImageFix" result="effect1_dropShadow_976_948"/>
<feBlend mode="normal" in="SourceGraphic" in2="effect1_dropShadow_976_948" result="shape"/>
</filter>
</defs>
</svg>
