<svg width="448" height="117" viewBox="0 0 448 117" fill="none" xmlns="http://www.w3.org/2000/svg">
<g filter="url(#filter0_d_976_1024)">
<rect x="10" y="6" width="428" height="97" rx="28" fill="#EDE6DE"/>
<path d="M132.206 19.7142C127.586 17.5928 121.63 20.758 121.63 21.9545C121.63 22.9866 123.346 21.9357 124.301 22.8762C126.417 24.9613 123.831 49.5123 117.686 49.5123C114.176 49.5123 122.156 36.3725 117.303 33.799C114.32 32.218 107.811 33.8867 107.811 35.458C107.811 36.4063 109.512 35.4119 110.524 36.4089C111.956 37.8204 110.579 47.0979 110.579 51.6357C110.579 53.8656 111.245 56 113.158 56C115.84 56 118.679 53.0556 122.777 48.9115C136.213 35.3248 136.361 21.6219 132.206 19.7142Z" fill="#D2C9BD"/>
<path d="M85.508 73V62.57H87.328L91.234 67.876H90.366L94.188 62.57H96.008V73H94.09V64.74L94.832 64.922L90.87 70.2H90.646L86.782 64.922L87.412 64.74V73H85.508ZM97.8501 73V65.384H99.6841V73H97.8501ZM97.8501 64.53V62.57H99.6841V64.53H97.8501ZM101.377 73V65.384H103.099V66.882L102.959 66.616C103.137 66.1587 103.426 65.8133 103.827 65.58C104.238 65.3373 104.714 65.216 105.255 65.216C105.815 65.216 106.31 65.3373 106.739 65.58C107.178 65.8227 107.519 66.1633 107.761 66.602C108.004 67.0313 108.125 67.5307 108.125 68.1V73H106.291V68.534C106.291 68.198 106.226 67.9087 106.095 67.666C105.965 67.4233 105.783 67.2367 105.549 67.106C105.325 66.966 105.059 66.896 104.751 66.896C104.453 66.896 104.187 66.966 103.953 67.106C103.72 67.2367 103.538 67.4233 103.407 67.666C103.277 67.9087 103.211 68.198 103.211 68.534V73H101.377ZM109.676 73V62.402H111.51V66.882L111.258 66.616C111.436 66.1587 111.725 65.8133 112.126 65.58C112.537 65.3373 113.013 65.216 113.554 65.216C114.114 65.216 114.609 65.3373 115.038 65.58C115.477 65.8227 115.818 66.1633 116.06 66.602C116.303 67.0313 116.424 67.5307 116.424 68.1V73H114.59V68.534C114.59 68.198 114.525 67.9087 114.394 67.666C114.264 67.4233 114.082 67.2367 113.848 67.106C113.624 66.966 113.358 66.896 113.05 66.896C112.752 66.896 112.486 66.966 112.252 67.106C112.019 67.2367 111.837 67.4233 111.706 67.666C111.576 67.9087 111.51 68.198 111.51 68.534V73H109.676ZM120.285 73.168C119.753 73.168 119.291 73.0793 118.899 72.902C118.507 72.7247 118.204 72.4727 117.989 72.146C117.774 71.81 117.667 71.4227 117.667 70.984C117.667 70.564 117.76 70.1907 117.947 69.864C118.134 69.528 118.423 69.248 118.815 69.024C119.207 68.8 119.702 68.6413 120.299 68.548L122.791 68.142V69.542L120.649 69.906C120.285 69.9713 120.014 70.088 119.837 70.256C119.66 70.424 119.571 70.6433 119.571 70.914C119.571 71.1753 119.669 71.3853 119.865 71.544C120.07 71.6933 120.322 71.768 120.621 71.768C121.004 71.768 121.34 71.6887 121.629 71.53C121.928 71.362 122.156 71.1333 122.315 70.844C122.483 70.5547 122.567 70.2373 122.567 69.892V67.932C122.567 67.6053 122.436 67.3347 122.175 67.12C121.923 66.896 121.587 66.784 121.167 66.784C120.775 66.784 120.425 66.8913 120.117 67.106C119.818 67.3113 119.599 67.5867 119.459 67.932L117.961 67.204C118.11 66.8027 118.344 66.4573 118.661 66.168C118.988 65.8693 119.37 65.636 119.809 65.468C120.248 65.3 120.724 65.216 121.237 65.216C121.862 65.216 122.413 65.3327 122.889 65.566C123.365 65.79 123.734 66.1073 123.995 66.518C124.266 66.9193 124.401 67.3907 124.401 67.932V73H122.665V71.698L123.057 71.67C122.861 71.9967 122.628 72.272 122.357 72.496C122.086 72.7107 121.778 72.8787 121.433 73C121.088 73.112 120.705 73.168 120.285 73.168ZM131.524 73L127.884 62.57H129.956L132.812 71.208H132.406L135.262 62.57H137.334L133.708 73H131.524ZM141.261 73.168C140.477 73.168 139.791 72.9907 139.203 72.636C138.615 72.2813 138.158 71.8007 137.831 71.194C137.504 70.5873 137.341 69.9153 137.341 69.178C137.341 68.4127 137.504 67.736 137.831 67.148C138.167 66.5507 138.62 66.0793 139.189 65.734C139.768 65.3887 140.412 65.216 141.121 65.216C141.718 65.216 142.241 65.314 142.689 65.51C143.146 65.706 143.534 65.9767 143.851 66.322C144.168 66.6673 144.411 67.064 144.579 67.512C144.747 67.9507 144.831 68.4267 144.831 68.94C144.831 69.0707 144.822 69.206 144.803 69.346C144.794 69.486 144.77 69.6073 144.733 69.71H138.853V68.31H143.697L142.829 68.968C142.913 68.5387 142.89 68.156 142.759 67.82C142.638 67.484 142.432 67.218 142.143 67.022C141.863 66.826 141.522 66.728 141.121 66.728C140.738 66.728 140.398 66.826 140.099 67.022C139.8 67.2087 139.572 67.4887 139.413 67.862C139.264 68.226 139.208 68.6693 139.245 69.192C139.208 69.6587 139.268 70.074 139.427 70.438C139.595 70.7927 139.838 71.068 140.155 71.264C140.482 71.46 140.855 71.558 141.275 71.558C141.695 71.558 142.05 71.4693 142.339 71.292C142.638 71.1147 142.871 70.8767 143.039 70.578L144.523 71.306C144.374 71.67 144.14 71.992 143.823 72.272C143.506 72.552 143.128 72.7713 142.689 72.93C142.26 73.0887 141.784 73.168 141.261 73.168ZM146.221 73V62.402H148.055V73H146.221ZM152.059 73.168C151.527 73.168 151.065 73.0793 150.673 72.902C150.281 72.7247 149.977 72.4727 149.763 72.146C149.548 71.81 149.441 71.4227 149.441 70.984C149.441 70.564 149.534 70.1907 149.721 69.864C149.907 69.528 150.197 69.248 150.589 69.024C150.981 68.8 151.475 68.6413 152.073 68.548L154.565 68.142V69.542L152.423 69.906C152.059 69.9713 151.788 70.088 151.611 70.256C151.433 70.424 151.345 70.6433 151.345 70.914C151.345 71.1753 151.443 71.3853 151.639 71.544C151.844 71.6933 152.096 71.768 152.395 71.768C152.777 71.768 153.113 71.6887 153.403 71.53C153.701 71.362 153.93 71.1333 154.089 70.844C154.257 70.5547 154.341 70.2373 154.341 69.892V67.932C154.341 67.6053 154.21 67.3347 153.949 67.12C153.697 66.896 153.361 66.784 152.941 66.784C152.549 66.784 152.199 66.8913 151.891 67.106C151.592 67.3113 151.373 67.5867 151.233 67.932L149.735 67.204C149.884 66.8027 150.117 66.4573 150.435 66.168C150.761 65.8693 151.144 65.636 151.583 65.468C152.021 65.3 152.497 65.216 153.011 65.216C153.636 65.216 154.187 65.3327 154.663 65.566C155.139 65.79 155.507 66.1073 155.769 66.518C156.039 66.9193 156.175 67.3907 156.175 67.932V73H154.439V71.698L154.831 71.67C154.635 71.9967 154.401 72.272 154.131 72.496C153.86 72.7107 153.552 72.8787 153.207 73C152.861 73.112 152.479 73.168 152.059 73.168Z" fill="#D2C9BD"/>
<path d="M318 36L310 39V58L318 55L338 58L346 55V36L338 39L318 36Z" stroke="#2F2F2F" stroke-width="2" stroke-linecap="round" stroke-linejoin="round"/>
<path d="M318 36V55" stroke="#2F2F2F" stroke-width="2" stroke-linecap="round"/>
<path d="M338 39V58" stroke="#2F2F2F" stroke-width="2" stroke-linecap="round"/>
<path d="M310 46C310 46 315 40.5 322 45C329 49.5 326 54.5 334 53C342 51.5 339.5 42.5 346 38.5" stroke="#2F2F2F" stroke-width="2" stroke-linecap="round" stroke-dasharray="3 3"/>
<path fill-rule="evenodd" clip-rule="evenodd" d="M329.215 42.7261C331.454 40.5959 336 35.6616 336 30.7273C336 26.0018 332.418 22 328 22C323.582 22 320 26.0018 320 30.7273C320 35.6616 324.546 40.5959 326.785 42.7261C327.474 43.3823 328.526 43.3823 329.215 42.7261ZM328.002 31.4547C329.609 31.4547 330.911 30.1522 330.911 28.5456C330.911 26.9389 329.609 25.6365 328.002 25.6365C326.395 25.6365 325.093 26.9389 325.093 28.5456C325.093 30.1522 326.395 31.4547 328.002 31.4547Z" fill="#D64315"/>
<path d="M300.008 76V65.57H301.492L307.232 73.298L306.462 73.452V65.57H308.366V76H306.868L301.212 68.216L301.912 68.062V76H300.008ZM312.541 76.168C312.009 76.168 311.547 76.0793 311.155 75.902C310.763 75.7247 310.46 75.4727 310.245 75.146C310.03 74.81 309.923 74.4227 309.923 73.984C309.923 73.564 310.016 73.1907 310.203 72.864C310.39 72.528 310.679 72.248 311.071 72.024C311.463 71.8 311.958 71.6413 312.555 71.548L315.047 71.142V72.542L312.905 72.906C312.541 72.9713 312.27 73.088 312.093 73.256C311.916 73.424 311.827 73.6433 311.827 73.914C311.827 74.1753 311.925 74.3853 312.121 74.544C312.326 74.6933 312.578 74.768 312.877 74.768C313.26 74.768 313.596 74.6887 313.885 74.53C314.184 74.362 314.412 74.1333 314.571 73.844C314.739 73.5547 314.823 73.2373 314.823 72.892V70.932C314.823 70.6053 314.692 70.3347 314.431 70.12C314.179 69.896 313.843 69.784 313.423 69.784C313.031 69.784 312.681 69.8913 312.373 70.106C312.074 70.3113 311.855 70.5867 311.715 70.932L310.217 70.204C310.366 69.8027 310.6 69.4573 310.917 69.168C311.244 68.8693 311.626 68.636 312.065 68.468C312.504 68.3 312.98 68.216 313.493 68.216C314.118 68.216 314.669 68.3327 315.145 68.566C315.621 68.79 315.99 69.1073 316.251 69.518C316.522 69.9193 316.657 70.3907 316.657 70.932V76H314.921V74.698L315.313 74.67C315.117 74.9967 314.884 75.272 314.613 75.496C314.342 75.7107 314.034 75.8787 313.689 76C313.344 76.112 312.961 76.168 312.541 76.168ZM320.511 76L317.515 68.384H319.517L321.687 74.376H320.945L323.129 68.384H325.131L322.135 76H320.511ZM329.62 76.168C328.836 76.168 328.15 75.9907 327.562 75.636C326.974 75.2813 326.517 74.8007 326.19 74.194C325.864 73.5873 325.7 72.9153 325.7 72.178C325.7 71.4127 325.864 70.736 326.19 70.148C326.526 69.5507 326.979 69.0793 327.548 68.734C328.127 68.3887 328.771 68.216 329.48 68.216C330.078 68.216 330.6 68.314 331.048 68.51C331.506 68.706 331.893 68.9767 332.21 69.322C332.528 69.6673 332.77 70.064 332.938 70.512C333.106 70.9507 333.19 71.4267 333.19 71.94C333.19 72.0707 333.181 72.206 333.162 72.346C333.153 72.486 333.13 72.6073 333.092 72.71H327.212V71.31H332.056L331.188 71.968C331.272 71.5387 331.249 71.156 331.118 70.82C330.997 70.484 330.792 70.218 330.502 70.022C330.222 69.826 329.882 69.728 329.48 69.728C329.098 69.728 328.757 69.826 328.458 70.022C328.16 70.2087 327.931 70.4887 327.772 70.862C327.623 71.226 327.567 71.6693 327.604 72.192C327.567 72.6587 327.628 73.074 327.786 73.438C327.954 73.7927 328.197 74.068 328.514 74.264C328.841 74.46 329.214 74.558 329.634 74.558C330.054 74.558 330.409 74.4693 330.698 74.292C330.997 74.1147 331.23 73.8767 331.398 73.578L332.882 74.306C332.733 74.67 332.5 74.992 332.182 75.272C331.865 75.552 331.487 75.7713 331.048 75.93C330.619 76.0887 330.143 76.168 329.62 76.168ZM338.277 79.08C337.707 79.08 337.18 78.9867 336.695 78.8C336.209 78.6133 335.789 78.352 335.435 78.016C335.089 77.6893 334.837 77.302 334.679 76.854L336.387 76.21C336.499 76.5647 336.718 76.8493 337.045 77.064C337.381 77.288 337.791 77.4 338.277 77.4C338.65 77.4 338.977 77.33 339.257 77.19C339.546 77.05 339.77 76.8447 339.929 76.574C340.087 76.3127 340.167 75.9953 340.167 75.622V73.886L340.517 74.306C340.255 74.7633 339.905 75.1087 339.467 75.342C339.028 75.5753 338.529 75.692 337.969 75.692C337.259 75.692 336.625 75.5287 336.065 75.202C335.505 74.8753 335.066 74.4273 334.749 73.858C334.431 73.2887 334.273 72.6493 334.273 71.94C334.273 71.2213 334.431 70.582 334.749 70.022C335.066 69.462 335.5 69.0233 336.051 68.706C336.601 68.3793 337.227 68.216 337.927 68.216C338.496 68.216 338.995 68.3373 339.425 68.58C339.863 68.8133 340.227 69.154 340.517 69.602L340.265 70.064V68.384H342.001V75.622C342.001 76.2847 341.837 76.8773 341.511 77.4C341.193 77.9227 340.755 78.3333 340.195 78.632C339.644 78.9307 339.005 79.08 338.277 79.08ZM338.193 73.998C338.585 73.998 338.925 73.914 339.215 73.746C339.513 73.5687 339.747 73.326 339.915 73.018C340.083 72.71 340.167 72.3553 340.167 71.954C340.167 71.562 340.078 71.212 339.901 70.904C339.733 70.5867 339.499 70.3393 339.201 70.162C338.911 69.9847 338.575 69.896 338.193 69.896C337.81 69.896 337.465 69.9847 337.157 70.162C336.849 70.3393 336.606 70.5867 336.429 70.904C336.261 71.212 336.177 71.562 336.177 71.954C336.177 72.346 336.261 72.696 336.429 73.004C336.606 73.312 336.844 73.5547 337.143 73.732C337.451 73.9093 337.801 73.998 338.193 73.998ZM346.023 76.168C345.491 76.168 345.029 76.0793 344.637 75.902C344.245 75.7247 343.942 75.4727 343.727 75.146C343.513 74.81 343.405 74.4227 343.405 73.984C343.405 73.564 343.499 73.1907 343.685 72.864C343.872 72.528 344.161 72.248 344.553 72.024C344.945 71.8 345.44 71.6413 346.037 71.548L348.529 71.142V72.542L346.387 72.906C346.023 72.9713 345.753 73.088 345.575 73.256C345.398 73.424 345.309 73.6433 345.309 73.914C345.309 74.1753 345.407 74.3853 345.603 74.544C345.809 74.6933 346.061 74.768 346.359 74.768C346.742 74.768 347.078 74.6887 347.367 74.53C347.666 74.362 347.895 74.1333 348.053 73.844C348.221 73.5547 348.305 73.2373 348.305 72.892V70.932C348.305 70.6053 348.175 70.3347 347.913 70.12C347.661 69.896 347.325 69.784 346.905 69.784C346.513 69.784 346.163 69.8913 345.855 70.106C345.557 70.3113 345.337 70.5867 345.197 70.932L343.699 70.204C343.849 69.8027 344.082 69.4573 344.399 69.168C344.726 68.8693 345.109 68.636 345.547 68.468C345.986 68.3 346.462 68.216 346.975 68.216C347.601 68.216 348.151 68.3327 348.627 68.566C349.103 68.79 349.472 69.1073 349.733 69.518C350.004 69.9193 350.139 70.3907 350.139 70.932V76H348.403V74.698L348.795 74.67C348.599 74.9967 348.366 75.272 348.095 75.496C347.825 75.7107 347.517 75.8787 347.171 76C346.826 76.112 346.443 76.168 346.023 76.168ZM351.834 76V68.384H353.556V70.078L353.416 69.826C353.594 69.2567 353.869 68.86 354.242 68.636C354.625 68.412 355.082 68.3 355.614 68.3H356.062V69.924H355.404C354.882 69.924 354.462 70.0873 354.144 70.414C353.827 70.7313 353.668 71.1793 353.668 71.758V76H351.834Z" fill="#2F2F2F"/>
</g>
<defs>
<filter id="filter0_d_976_1024" x="0" y="0" width="448" height="117" filterUnits="userSpaceOnUse" color-interpolation-filters="sRGB">
<feFlood flood-opacity="0" result="BackgroundImageFix"/>
<feColorMatrix in="SourceAlpha" type="matrix" values="0 0 0 0 0 0 0 0 0 0 0 0 0 0 0 0 0 0 127 0" result="hardAlpha"/>
<feOffset dy="4"/>
<feGaussianBlur stdDeviation="5"/>
<feComposite in2="hardAlpha" operator="out"/>
<feColorMatrix type="matrix" values="0 0 0 0 0 0 0 0 0 0 0 0 0 0 0 0 0 0 0.25 0"/>
<feBlend mode="normal" in2="BackgroundImageFix" result="effect1_dropShadow_976_1024"/>
<feBlend mode="normal" in="SourceGraphic" in2="effect1_dropShadow_976_1024" result="shape"/>
</filter>
</defs>
</svg>
