<svg width="269" height="206" viewBox="0 0 269 206" fill="none" xmlns="http://www.w3.org/2000/svg">
<g filter="url(#filter0_d_976_1025)">
<mask id="mask0_976_1025" style="mask-type:luminance" maskUnits="userSpaceOnUse" x="10" y="6" width="249" height="186">
<path d="M242.71 6H26.2897C17.2932 6 10 12.9603 10 21.5463V176.454C10 185.04 17.2932 192 26.2897 192H242.71C251.707 192 259 185.04 259 176.454V21.5463C259 12.9603 251.707 6 242.71 6Z" fill="white"/>
</mask>
<g mask="url(#mask0_976_1025)">
<path d="M242.71 6H26.2897C17.2932 6 10 12.9603 10 21.5463V176.454C10 185.04 17.2932 192 26.2897 192H242.71C251.707 192 259 185.04 259 176.454V21.5463C259 12.9603 251.707 6 242.71 6Z" fill="#EDE6DE"/>
<path d="M172.668 -29.4784L196.897 -29.4648C207.421 -29.4584 215.95 -21.3098 215.948 -11.2596L215.887 166.259L53.0508 166.182L53.1103 -11.3364C53.1125 -21.3918 61.6536 -29.5405 72.1854 -29.5342L93.3905 -29.5236L101.911 -29.5184C105.16 -29.5162 107.793 -26.8851 107.793 -23.6424L107.792 -19.4472C107.791 -16.2033 110.425 -13.5733 113.674 -13.5712L160.899 -13.5449C164.148 -13.5428 166.782 -16.1708 166.782 -19.4136L166.783 -23.6098C166.783 -26.8515 169.419 -29.4794 172.668 -29.4784Z" fill="url(#paint0_linear_976_1025)"/>
<path opacity="0.1" d="M134.499 145.916C169.843 145.916 198.495 118.572 198.495 84.8412C198.495 51.1106 169.843 23.7666 134.499 23.7666C99.1556 23.7666 70.5039 51.1106 70.5039 84.8412C70.5039 118.572 99.1556 145.916 134.499 145.916Z" fill="#00FA9A"/>
<path opacity="0.1" d="M134.5 134.948C163.497 134.948 187.003 112.626 187.003 85.0907C187.003 57.5555 163.497 35.2339 134.5 35.2339C105.504 35.2339 81.998 57.5555 81.998 85.0907C81.998 112.626 105.504 134.948 134.5 134.948Z" fill="#00FA9A"/>
<path opacity="0.1" d="M134.665 125.69C157.891 125.69 176.719 107.721 176.719 85.5552C176.719 63.3894 157.891 45.4204 134.665 45.4204C111.44 45.4204 92.6113 63.3894 92.6113 85.5552C92.6113 107.721 111.44 125.69 134.665 125.69Z" fill="#00FA9A"/>
<path d="M133.918 70.9614V73.586" stroke="#2F2F2F" stroke-width="2" stroke-linecap="round"/>
<path d="M123.828 92.7517L123.497 93.1315C122.678 94.0698 122.229 95.2524 122.229 96.4745C122.229 96.5172 122.265 96.5522 122.311 96.5522H145.524C145.569 96.5522 145.605 96.5172 145.605 96.4745C145.605 95.2524 145.157 94.0698 144.337 93.1315L144.006 92.7517C142.818 91.3914 142.168 89.6769 142.168 87.9063V81.4601C142.168 77.1116 138.474 73.5859 133.917 73.5859C129.36 73.5859 125.666 77.1116 125.666 81.4601V87.9063C125.666 89.6769 125.016 91.3914 123.828 92.7517Z" fill="#DB9612"/>
<path d="M137.356 96.5522C137.356 98.3639 135.817 99.8331 133.918 99.8331C132.019 99.8331 130.48 98.3639 130.48 96.5522" stroke="#2F2F2F" stroke-width="2" stroke-linecap="round"/>
<path d="M88.9716 133.702V122.12H90.6983L97.3771 130.701L96.4812 130.872V122.12H98.6966V133.702H96.9536L90.3725 125.058L91.187 124.887V133.702H88.9716ZM105.2 133.888C104.33 133.888 103.538 133.697 102.821 133.313C102.115 132.929 101.551 132.406 101.127 131.743C100.714 131.079 100.508 130.323 100.508 129.473C100.508 128.623 100.714 127.867 101.127 127.203C101.551 126.54 102.115 126.017 102.821 125.633C103.527 125.25 104.32 125.058 105.2 125.058C106.068 125.058 106.855 125.25 107.562 125.633C108.267 126.017 108.826 126.54 109.24 127.203C109.663 127.856 109.875 128.613 109.875 129.473C109.875 130.323 109.663 131.079 109.24 131.743C108.816 132.406 108.251 132.929 107.545 133.313C106.839 133.697 106.057 133.888 105.2 133.888ZM105.2 132.023C105.677 132.023 106.096 131.914 106.454 131.696C106.823 131.479 107.111 131.178 107.317 130.795C107.534 130.401 107.643 129.96 107.643 129.473C107.643 128.976 107.534 128.54 107.317 128.167C107.111 127.784 106.823 127.483 106.454 127.266C106.096 127.037 105.677 126.924 105.2 126.924C104.711 126.924 104.282 127.037 103.913 127.266C103.543 127.483 103.25 127.784 103.033 128.167C102.827 128.54 102.724 128.976 102.724 129.473C102.724 129.96 102.827 130.401 103.033 130.795C103.25 131.178 103.543 131.479 103.913 131.696C104.282 131.914 104.711 132.023 105.2 132.023ZM115.374 133.795C114.374 133.795 113.598 133.536 113.044 133.018C112.501 132.489 112.23 131.748 112.23 130.795V127.063H110.699V125.245H110.862C111.296 125.245 111.632 125.136 111.871 124.918C112.11 124.7 112.23 124.385 112.23 123.97V123.317H114.364V125.245H116.4V127.063H114.364V130.686C114.364 130.966 114.413 131.204 114.51 131.401C114.619 131.598 114.782 131.748 114.999 131.852C115.227 131.956 115.515 132.007 115.862 132.007C115.938 132.007 116.025 132.002 116.123 131.992C116.231 131.981 116.335 131.971 116.433 131.961V133.702C116.28 133.722 116.107 133.743 115.911 133.764C115.716 133.784 115.537 133.795 115.374 133.795ZM118.063 133.702V125.245H120.197V133.702H118.063ZM118.063 124.296V122.12H120.197V124.296H118.063ZM123.193 133.702V127.063H121.63V125.245H123.193V124.965C123.193 124.322 123.329 123.778 123.601 123.332C123.883 122.877 124.274 122.529 124.774 122.291C125.273 122.053 125.865 121.933 126.549 121.933C126.679 121.933 126.82 121.944 126.973 121.964C127.136 121.975 127.271 121.99 127.38 122.011V123.768C127.271 123.747 127.168 123.737 127.07 123.737C126.983 123.726 126.902 123.721 126.826 123.721C126.348 123.721 125.979 123.825 125.718 124.032C125.458 124.229 125.327 124.54 125.327 124.965V125.245H129.204V127.063H125.327V133.702H123.193ZM128.406 133.702V125.245H130.556V133.702H128.406ZM136.6 133.888C135.72 133.888 134.928 133.697 134.222 133.313C133.527 132.919 132.978 132.391 132.576 131.727C132.175 131.054 131.974 130.297 131.974 129.458C131.974 128.618 132.175 127.867 132.576 127.203C132.978 126.54 133.527 126.017 134.222 125.633C134.928 125.25 135.72 125.058 136.6 125.058C137.23 125.058 137.816 125.167 138.359 125.384C138.903 125.592 139.369 125.882 139.76 126.255C140.162 126.618 140.45 127.053 140.623 127.561L138.75 128.338C138.587 127.914 138.31 127.572 137.919 127.312C137.539 127.053 137.1 126.924 136.6 126.924C136.133 126.924 135.715 127.032 135.346 127.25C134.987 127.468 134.705 127.768 134.498 128.152C134.293 128.535 134.189 128.976 134.189 129.473C134.189 129.971 134.293 130.411 134.498 130.795C134.705 131.178 134.987 131.479 135.346 131.696C135.715 131.914 136.133 132.023 136.6 132.023C137.111 132.023 137.556 131.893 137.936 131.634C138.316 131.375 138.587 131.028 138.75 130.592L140.623 131.401C140.45 131.878 140.167 132.308 139.776 132.691C139.385 133.064 138.919 133.36 138.375 133.577C137.833 133.784 137.241 133.888 136.6 133.888ZM144.899 133.888C144.28 133.888 143.742 133.79 143.286 133.593C142.83 133.396 142.477 133.116 142.227 132.753C141.978 132.38 141.853 131.95 141.853 131.463C141.853 130.997 141.961 130.582 142.178 130.219C142.395 129.846 142.732 129.535 143.188 129.287C143.645 129.038 144.22 128.862 144.915 128.758L147.815 128.307V129.862L145.322 130.266C144.899 130.339 144.584 130.468 144.378 130.655C144.171 130.841 144.068 131.085 144.068 131.385C144.068 131.676 144.182 131.909 144.41 132.085C144.649 132.251 144.942 132.334 145.29 132.334C145.735 132.334 146.126 132.245 146.463 132.069C146.81 131.883 147.076 131.629 147.261 131.308C147.456 130.986 147.554 130.634 147.554 130.25V128.074C147.554 127.711 147.402 127.411 147.098 127.172C146.805 126.924 146.414 126.799 145.925 126.799C145.469 126.799 145.062 126.919 144.703 127.157C144.356 127.385 144.101 127.69 143.938 128.074L142.195 127.266C142.369 126.82 142.64 126.437 143.009 126.115C143.389 125.784 143.835 125.524 144.345 125.338C144.855 125.151 145.409 125.058 146.007 125.058C146.734 125.058 147.375 125.187 147.929 125.447C148.483 125.695 148.911 126.048 149.216 126.504C149.53 126.95 149.688 127.473 149.688 128.074V133.702H147.668V132.256L148.124 132.225C147.896 132.587 147.624 132.893 147.31 133.142C146.995 133.38 146.637 133.567 146.235 133.702C145.833 133.826 145.388 133.888 144.899 133.888ZM155.928 133.888C155.049 133.888 154.256 133.697 153.55 133.313C152.855 132.919 152.307 132.391 151.905 131.727C151.503 131.054 151.302 130.297 151.302 129.458C151.302 128.618 151.503 127.867 151.905 127.203C152.307 126.54 152.855 126.017 153.55 125.633C154.256 125.25 155.049 125.058 155.928 125.058C156.558 125.058 157.145 125.167 157.687 125.384C158.23 125.592 158.697 125.882 159.088 126.255C159.49 126.618 159.778 127.053 159.952 127.561L158.078 128.338C157.916 127.914 157.639 127.572 157.248 127.312C156.868 127.053 156.428 126.924 155.928 126.924C155.461 126.924 155.043 127.032 154.674 127.25C154.315 127.468 154.033 127.768 153.827 128.152C153.62 128.535 153.517 128.976 153.517 129.473C153.517 129.971 153.62 130.411 153.827 130.795C154.033 131.178 154.315 131.479 154.674 131.696C155.043 131.914 155.461 132.023 155.928 132.023C156.438 132.023 156.884 131.893 157.264 131.634C157.644 131.375 157.916 131.028 158.078 130.592L159.952 131.401C159.778 131.878 159.496 132.308 159.105 132.691C158.714 133.064 158.247 133.36 157.704 133.577C157.161 133.784 156.569 133.888 155.928 133.888ZM156.091 137.386C155.809 137.386 155.488 137.34 155.13 137.246C154.783 137.164 154.489 137.039 154.25 136.873L154.706 135.707C154.869 135.811 155.049 135.889 155.244 135.94C155.439 136.003 155.63 136.034 155.814 136.034C156.053 136.034 156.238 135.987 156.368 135.894C156.498 135.8 156.563 135.671 156.563 135.505C156.563 135.308 156.433 135.148 156.173 135.023C155.912 134.909 155.532 134.826 155.032 134.774L155.374 133.546H156.629L156.482 134.168C157.047 134.241 157.492 134.406 157.818 134.666C158.144 134.935 158.306 135.267 158.306 135.661C158.306 136.189 158.106 136.609 157.704 136.92C157.302 137.231 156.764 137.386 156.091 137.386ZM164.227 133.888C163.608 133.888 163.071 133.79 162.615 133.593C162.158 133.396 161.805 133.116 161.556 132.753C161.306 132.38 161.181 131.95 161.181 131.463C161.181 130.997 161.289 130.582 161.507 130.219C161.724 129.846 162.061 129.535 162.517 129.287C162.973 129.038 163.548 128.862 164.243 128.758L167.143 128.307V129.862L164.651 130.266C164.227 130.339 163.912 130.468 163.706 130.655C163.499 130.841 163.396 131.085 163.396 131.385C163.396 131.676 163.51 131.909 163.739 132.085C163.977 132.251 164.27 132.334 164.618 132.334C165.063 132.334 165.454 132.245 165.791 132.069C166.138 131.883 166.404 131.629 166.589 131.308C166.785 130.986 166.882 130.634 166.882 130.25V128.074C166.882 127.711 166.73 127.411 166.426 127.172C166.133 126.924 165.742 126.799 165.253 126.799C164.797 126.799 164.39 126.919 164.032 127.157C163.684 127.385 163.429 127.69 163.266 128.074L161.523 127.266C161.696 126.82 161.968 126.437 162.338 126.115C162.717 125.784 163.163 125.524 163.673 125.338C164.184 125.151 164.737 125.058 165.335 125.058C166.062 125.058 166.703 125.187 167.257 125.447C167.811 125.695 168.24 126.048 168.544 126.504C168.859 126.95 169.016 127.473 169.016 128.074V133.702H166.996V132.256L167.453 132.225C167.225 132.587 166.953 132.893 166.638 133.142C166.323 133.38 165.964 133.567 165.563 133.702C165.161 133.826 164.716 133.888 164.227 133.888ZM166.524 123.752C166.231 123.752 165.981 123.71 165.775 123.628C165.579 123.534 165.411 123.436 165.27 123.332C165.128 123.219 164.987 123.12 164.846 123.037C164.705 122.944 164.542 122.897 164.358 122.897C164.173 122.897 164.032 122.964 163.934 123.099C163.836 123.224 163.787 123.421 163.787 123.69H162.142C162.142 122.861 162.338 122.255 162.729 121.871C163.12 121.477 163.592 121.28 164.146 121.28C164.449 121.28 164.705 121.322 164.911 121.405C165.117 121.487 165.297 121.586 165.449 121.7C165.601 121.814 165.742 121.913 165.872 121.995C166.013 122.078 166.166 122.12 166.329 122.12C166.546 122.12 166.697 122.053 166.785 121.918C166.871 121.773 166.915 121.581 166.915 121.342H168.56C168.549 122.13 168.349 122.731 167.958 123.146C167.567 123.55 167.088 123.752 166.524 123.752ZM175.322 133.888C174.452 133.888 173.66 133.697 172.943 133.313C172.237 132.929 171.673 132.406 171.249 131.743C170.836 131.079 170.63 130.323 170.63 129.473C170.63 128.623 170.836 127.867 171.249 127.203C171.673 126.54 172.237 126.017 172.943 125.633C173.649 125.25 174.442 125.058 175.322 125.058C176.19 125.058 176.977 125.25 177.684 125.633C178.389 126.017 178.948 126.54 179.362 127.203C179.785 127.856 179.997 128.613 179.997 129.473C179.997 130.323 179.785 131.079 179.362 131.743C178.938 132.406 178.373 132.929 177.667 133.313C176.961 133.697 176.179 133.888 175.322 133.888ZM175.322 132.023C175.799 132.023 176.218 131.914 176.576 131.696C176.945 131.479 177.233 131.178 177.439 130.795C177.656 130.401 177.765 129.96 177.765 129.473C177.765 128.976 177.656 128.54 177.439 128.167C177.233 127.784 176.945 127.483 176.576 127.266C176.218 127.037 175.799 126.924 175.322 126.924C174.833 126.924 174.404 127.037 174.035 127.266C173.665 127.483 173.372 127.784 173.155 128.167C172.949 128.54 172.846 128.976 172.846 129.473C172.846 129.96 172.949 130.401 173.155 130.795C173.372 131.178 173.665 131.479 174.035 131.696C174.404 131.914 174.833 132.023 175.322 132.023ZM63.05 162.018V154.573H65.7308C66.2405 154.573 66.6873 154.669 67.0712 154.862C67.4552 155.049 67.7519 155.315 67.9614 155.662C68.1778 156.002 68.286 156.398 68.286 156.851C68.286 157.304 68.1778 157.701 67.9614 158.041C67.7519 158.38 67.4552 158.647 67.0712 158.84C66.6943 159.027 66.2474 159.12 65.7308 159.12H63.8878V162.018H63.05ZM63.8878 158.37H65.7727C66.1078 158.37 66.401 158.31 66.6524 158.19C66.9037 158.064 67.0992 157.887 67.2388 157.661C67.3784 157.428 67.4482 157.154 67.4482 156.841C67.4482 156.528 67.3784 156.258 67.2388 156.032C67.0992 155.805 66.9037 155.632 66.6524 155.512C66.401 155.385 66.1078 155.322 65.7727 155.322H63.8878V158.37ZM70.8673 162.138C70.5113 162.138 70.1936 162.075 69.9144 161.948C69.6351 161.815 69.4152 161.635 69.2546 161.409C69.0941 161.182 69.0138 160.922 69.0138 160.629C69.0138 160.349 69.0766 160.096 69.2023 159.869C69.328 159.636 69.5234 159.44 69.7887 159.28C70.054 159.12 70.3926 159.007 70.8045 158.94L73.0036 158.59V159.27L70.993 159.59C70.5881 159.656 70.2949 159.779 70.1133 159.959C69.9388 160.139 69.8515 160.352 69.8515 160.599C69.8515 160.839 69.9493 161.042 70.1448 161.209C70.3472 161.375 70.6055 161.458 70.9197 161.458C71.3037 161.458 71.6388 161.382 71.925 161.229C72.2112 161.069 72.4346 160.856 72.5952 160.589C72.7558 160.323 72.8361 160.026 72.8361 159.7V158.34C72.8361 158.021 72.7139 157.761 72.4695 157.561C72.2252 157.361 71.9075 157.261 71.5166 157.261C71.1745 157.261 70.8743 157.344 70.616 157.511C70.3577 157.671 70.1657 157.881 70.04 158.14L69.3279 157.771C69.4327 157.544 69.5967 157.338 69.8201 157.151C70.0505 156.965 70.3123 156.818 70.6055 156.711C70.8987 156.598 71.2024 156.541 71.5166 156.541C71.9285 156.541 72.2915 156.618 72.6057 156.771C72.9268 156.925 73.1747 157.138 73.3492 157.411C73.5307 157.677 73.6215 157.987 73.6215 158.34V162.018H72.8361V160.949L72.9513 161.059C72.8535 161.259 72.6999 161.442 72.4905 161.608C72.288 161.768 72.0472 161.898 71.7679 161.998C71.4956 162.091 71.1955 162.138 70.8673 162.138ZM75.237 162.018V156.661H76.0224V157.541L75.9177 157.411C76.0504 157.158 76.2493 156.958 76.5146 156.811C76.7869 156.665 77.115 156.591 77.499 156.591H77.855V157.341H77.3629C76.9579 157.341 76.6333 157.461 76.389 157.701C76.1446 157.941 76.0224 158.28 76.0224 158.72V162.018H75.237ZM80.3986 162.138C80.0425 162.138 79.7249 162.075 79.4456 161.948C79.1664 161.815 78.9464 161.635 78.7859 161.409C78.6253 161.182 78.545 160.922 78.545 160.629C78.545 160.349 78.6079 160.096 78.7335 159.869C78.8592 159.636 79.0547 159.44 79.3199 159.28C79.5852 159.12 79.9238 159.007 80.3357 158.94L82.5348 158.59V159.27L80.5242 159.59C80.1193 159.656 79.8261 159.779 79.6446 159.959C79.47 160.139 79.3828 160.352 79.3828 160.599C79.3828 160.839 79.4805 161.042 79.676 161.209C79.8785 161.375 80.1368 161.458 80.4509 161.458C80.8349 161.458 81.17 161.382 81.4562 161.229C81.7425 161.069 81.9659 160.856 82.1264 160.589C82.287 160.323 82.3673 160.026 82.3673 159.7V158.34C82.3673 158.021 82.2451 157.761 82.0008 157.561C81.7564 157.361 81.4388 157.261 81.0478 157.261C80.7057 157.261 80.4055 157.344 80.1472 157.511C79.8889 157.671 79.6969 157.881 79.5713 158.14L78.8592 157.771C78.9639 157.544 79.128 157.338 79.3514 157.151C79.5817 156.965 79.8435 156.818 80.1368 156.711C80.43 156.598 80.7337 156.541 81.0478 156.541C81.4597 156.541 81.8227 156.618 82.1369 156.771C82.458 156.925 82.7059 157.138 82.8804 157.411C83.0619 157.677 83.1527 157.987 83.1527 158.34V162.018H82.3673V160.949L82.4825 161.059C82.3847 161.259 82.2312 161.442 82.0217 161.608C81.8193 161.768 81.5784 161.898 81.2991 161.998C81.0269 162.091 80.7267 162.138 80.3986 162.138ZM88.537 162.138C88.1461 162.138 87.79 162.051 87.4689 161.878C87.1477 161.698 86.8929 161.452 86.7044 161.139C86.5229 160.819 86.4322 160.452 86.4322 160.039V156.661H87.2176V159.949C87.2176 160.236 87.2769 160.489 87.3956 160.709C87.5212 160.922 87.6923 161.089 87.9087 161.209C88.1321 161.329 88.3869 161.389 88.6732 161.389C88.9594 161.389 89.2142 161.329 89.4376 161.209C89.661 161.082 89.8355 160.905 89.9612 160.679C90.0869 160.446 90.1497 160.169 90.1497 159.849V156.661H90.9351V162.018H90.1497V160.979L90.3277 161.019C90.1951 161.365 89.9682 161.638 89.647 161.838C89.3259 162.038 88.9559 162.138 88.537 162.138ZM92.5507 162.018V156.661H93.3361V157.681L93.2104 157.531C93.364 157.218 93.5909 156.975 93.8911 156.801C94.1983 156.628 94.5334 156.541 94.8964 156.541C95.3293 156.541 95.7202 156.658 96.0693 156.891C96.4183 157.124 96.6662 157.428 96.8128 157.801L96.5929 157.811C96.7325 157.398 96.9733 157.084 97.3154 156.871C97.6645 156.651 98.0485 156.541 98.4674 156.541C98.8443 156.541 99.1899 156.628 99.5041 156.801C99.8252 156.975 100.08 157.214 100.269 157.521C100.464 157.821 100.562 158.16 100.562 158.54V162.018H99.7763V158.83C99.7763 158.504 99.7135 158.227 99.5879 158.001C99.4692 157.774 99.3051 157.601 99.0957 157.481C98.8862 157.354 98.6454 157.291 98.3731 157.291C98.1078 157.291 97.867 157.354 97.6505 157.481C97.4341 157.601 97.2631 157.777 97.1374 158.011C97.0117 158.237 96.9489 158.51 96.9489 158.83V162.018H96.1635V158.83C96.1635 158.504 96.1007 158.227 95.975 158.001C95.8563 157.774 95.6923 157.601 95.4828 157.481C95.2734 157.354 95.0325 157.291 94.7603 157.291C94.488 157.291 94.2437 157.354 94.0272 157.481C93.8178 157.601 93.6502 157.777 93.5246 158.011C93.3989 158.237 93.3361 158.51 93.3361 158.83V162.018H92.5507ZM103.684 162.138C103.328 162.138 103.01 162.075 102.731 161.948C102.452 161.815 102.232 161.635 102.071 161.409C101.911 161.182 101.831 160.922 101.831 160.629C101.831 160.349 101.893 160.096 102.019 159.869C102.145 159.636 102.34 159.44 102.606 159.28C102.871 159.12 103.209 159.007 103.621 158.94L105.82 158.59V159.27L103.81 159.59C103.405 159.656 103.112 159.779 102.93 159.959C102.756 160.139 102.668 160.352 102.668 160.599C102.668 160.839 102.766 161.042 102.962 161.209C103.164 161.375 103.422 161.458 103.736 161.458C104.12 161.458 104.456 161.382 104.742 161.229C105.028 161.069 105.251 160.856 105.412 160.589C105.573 160.323 105.653 160.026 105.653 159.7V158.34C105.653 158.021 105.531 157.761 105.286 157.561C105.042 157.361 104.724 157.261 104.333 157.261C103.991 157.261 103.691 157.344 103.433 157.511C103.175 157.671 102.983 157.881 102.857 158.14L102.145 157.771C102.249 157.544 102.414 157.338 102.637 157.151C102.867 156.965 103.129 156.818 103.422 156.711C103.716 156.598 104.019 156.541 104.333 156.541C104.745 156.541 105.108 156.618 105.422 156.771C105.744 156.925 105.991 157.138 106.166 157.411C106.348 157.677 106.438 157.987 106.438 158.34V162.018H105.653V160.949L105.768 161.059C105.67 161.259 105.517 161.442 105.307 161.608C105.105 161.768 104.864 161.898 104.585 161.998C104.312 162.091 104.012 162.138 103.684 162.138ZM109.834 162.018V156.661H110.619V157.681L110.493 157.531C110.647 157.218 110.874 156.975 111.174 156.801C111.481 156.628 111.816 156.541 112.179 156.541C112.612 156.541 113.003 156.658 113.352 156.891C113.701 157.124 113.949 157.428 114.096 157.801L113.876 157.811C114.015 157.398 114.256 157.084 114.598 156.871C114.947 156.651 115.331 156.541 115.75 156.541C116.127 156.541 116.473 156.628 116.787 156.801C117.108 156.975 117.363 157.214 117.551 157.521C117.747 157.821 117.845 158.16 117.845 158.54V162.018H117.059V158.83C117.059 158.504 116.996 158.227 116.871 158.001C116.752 157.774 116.588 157.601 116.378 157.481C116.169 157.354 115.928 157.291 115.656 157.291C115.391 157.291 115.15 157.354 114.933 157.481C114.717 157.601 114.546 157.777 114.42 158.011C114.295 158.237 114.232 158.51 114.232 158.83V162.018H113.446V158.83C113.446 158.504 113.383 158.227 113.258 158.001C113.139 157.774 112.975 157.601 112.766 157.481C112.556 157.354 112.315 157.291 112.043 157.291C111.771 157.291 111.526 157.354 111.31 157.481C111.101 157.601 110.933 157.777 110.807 158.011C110.682 158.237 110.619 158.51 110.619 158.83V162.018H109.834ZM121.9 162.138C121.376 162.138 120.901 162.018 120.475 161.778C120.056 161.532 119.725 161.195 119.481 160.769C119.236 160.342 119.114 159.859 119.114 159.32C119.114 158.78 119.233 158.304 119.47 157.891C119.707 157.471 120.029 157.141 120.433 156.901C120.845 156.661 121.306 156.541 121.816 156.541C122.221 156.541 122.58 156.615 122.894 156.761C123.216 156.901 123.488 157.094 123.711 157.341C123.935 157.581 124.106 157.854 124.224 158.16C124.343 158.46 124.402 158.77 124.402 159.09C124.402 159.157 124.399 159.233 124.392 159.32C124.385 159.4 124.374 159.483 124.36 159.57H119.617V158.87H123.91L123.533 159.17C123.596 158.803 123.551 158.477 123.397 158.19C123.25 157.897 123.037 157.667 122.758 157.501C122.479 157.328 122.165 157.241 121.816 157.241C121.467 157.241 121.142 157.328 120.842 157.501C120.549 157.674 120.318 157.917 120.151 158.23C119.983 158.537 119.917 158.903 119.952 159.33C119.917 159.756 119.987 160.129 120.161 160.449C120.343 160.762 120.587 161.005 120.894 161.179C121.208 161.352 121.543 161.438 121.9 161.438C122.311 161.438 122.657 161.345 122.936 161.159C123.216 160.972 123.442 160.739 123.617 160.459L124.287 160.799C124.175 161.039 124.004 161.262 123.774 161.468C123.544 161.668 123.268 161.832 122.947 161.958C122.633 162.078 122.284 162.138 121.9 162.138ZM125.787 162.018V154.453H126.572V162.018H125.787ZM128.18 162.018V154.453H128.965V157.701L128.787 157.661C128.927 157.314 129.154 157.041 129.468 156.841C129.789 156.641 130.159 156.541 130.578 156.541C130.976 156.541 131.332 156.628 131.646 156.801C131.967 156.975 132.218 157.214 132.4 157.521C132.589 157.821 132.683 158.16 132.683 158.54V162.018H131.897V158.83C131.897 158.504 131.835 158.227 131.709 158.001C131.583 157.774 131.409 157.601 131.185 157.481C130.969 157.354 130.721 157.291 130.442 157.291C130.162 157.291 129.911 157.354 129.688 157.481C129.464 157.601 129.286 157.777 129.154 158.011C129.028 158.237 128.965 158.51 128.965 158.83V162.018H128.18ZM136.811 162.138C136.28 162.138 135.799 162.018 135.366 161.778C134.933 161.532 134.587 161.199 134.329 160.779C134.078 160.352 133.952 159.869 133.952 159.33C133.952 158.797 134.078 158.32 134.329 157.901C134.58 157.481 134.919 157.151 135.345 156.911C135.778 156.665 136.266 156.541 136.811 156.541C137.356 156.541 137.841 156.661 138.267 156.901C138.699 157.141 139.038 157.471 139.282 157.891C139.534 158.31 139.659 158.79 139.659 159.33C139.659 159.876 139.53 160.362 139.272 160.789C139.014 161.209 138.668 161.538 138.235 161.778C137.809 162.018 137.335 162.138 136.811 162.138ZM136.811 161.389C137.188 161.389 137.527 161.299 137.827 161.119C138.134 160.939 138.375 160.692 138.549 160.379C138.731 160.066 138.822 159.716 138.822 159.33C138.822 158.943 138.731 158.597 138.549 158.29C138.375 157.984 138.134 157.741 137.827 157.561C137.527 157.381 137.188 157.291 136.811 157.291C136.434 157.291 136.092 157.381 135.785 157.561C135.485 157.741 135.244 157.984 135.062 158.29C134.881 158.597 134.79 158.943 134.79 159.33C134.79 159.716 134.881 160.066 135.062 160.379C135.244 160.692 135.485 160.939 135.785 161.119C136.092 161.299 136.434 161.389 136.811 161.389ZM141.045 162.018V156.661H141.83V157.541L141.725 157.411C141.858 157.158 142.057 156.958 142.322 156.811C142.594 156.665 142.923 156.591 143.307 156.591H143.663V157.341H143.17C142.765 157.341 142.441 157.461 142.197 157.701C141.952 157.941 141.83 158.28 141.83 158.72V162.018H141.045ZM148.918 162.138C148.394 162.138 147.919 162.018 147.494 161.778C147.075 161.532 146.743 161.195 146.499 160.769C146.254 160.342 146.132 159.859 146.132 159.32C146.132 158.78 146.251 158.304 146.488 157.891C146.726 157.471 147.047 157.141 147.452 156.901C147.864 156.661 148.324 156.541 148.834 156.541C149.239 156.541 149.598 156.615 149.913 156.761C150.234 156.901 150.506 157.094 150.729 157.341C150.953 157.581 151.124 157.854 151.243 158.16C151.361 158.46 151.421 158.77 151.421 159.09C151.421 159.157 151.417 159.233 151.41 159.32C151.403 159.4 151.393 159.483 151.379 159.57H146.635V158.87H150.928L150.551 159.17C150.614 158.803 150.569 158.477 150.415 158.19C150.269 157.897 150.056 157.667 149.776 157.501C149.497 157.328 149.183 157.241 148.834 157.241C148.485 157.241 148.16 157.328 147.86 157.501C147.567 157.674 147.337 157.917 147.169 158.23C147.001 158.537 146.935 158.903 146.97 159.33C146.935 159.756 147.005 160.129 147.179 160.449C147.361 160.762 147.605 161.005 147.912 161.179C148.227 161.352 148.562 161.438 148.918 161.438C149.33 161.438 149.675 161.345 149.955 161.159C150.234 160.972 150.461 160.739 150.635 160.459L151.305 160.799C151.194 161.039 151.023 161.262 150.792 161.468C150.562 161.668 150.286 161.832 149.965 161.958C149.651 162.078 149.302 162.138 148.918 162.138ZM152.012 162.018L153.98 159.34L152.022 156.661H152.986L154.724 159.07H154.19L155.918 156.661H156.881L154.923 159.34L156.881 162.018H155.918L154.19 159.61H154.724L152.986 162.018H152.012ZM157.806 164.017V156.661H158.592V157.861L158.466 157.651C158.689 157.311 158.986 157.041 159.356 156.841C159.733 156.641 160.162 156.541 160.644 156.541C161.175 156.541 161.646 156.665 162.058 156.911C162.477 157.151 162.805 157.481 163.042 157.901C163.286 158.32 163.409 158.8 163.409 159.34C163.409 159.873 163.286 160.352 163.042 160.779C162.805 161.199 162.477 161.532 162.058 161.778C161.646 162.018 161.175 162.138 160.644 162.138C160.162 162.138 159.726 162.035 159.335 161.828C158.951 161.615 158.661 161.315 158.466 160.929L158.592 160.819V164.017H157.806ZM160.602 161.389C160.979 161.389 161.314 161.299 161.607 161.119C161.908 160.939 162.142 160.696 162.309 160.389C162.484 160.076 162.571 159.726 162.571 159.34C162.571 158.947 162.484 158.597 162.309 158.29C162.142 157.984 161.908 157.741 161.607 157.561C161.314 157.381 160.979 157.291 160.602 157.291C160.225 157.291 159.883 157.381 159.576 157.561C159.276 157.741 159.035 157.987 158.853 158.3C158.679 158.607 158.592 158.953 158.592 159.34C158.592 159.726 158.679 160.076 158.853 160.389C159.035 160.696 159.276 160.939 159.576 161.119C159.883 161.299 160.225 161.389 160.602 161.389ZM167.346 162.138C166.823 162.138 166.348 162.018 165.922 161.778C165.503 161.532 165.171 161.195 164.927 160.769C164.683 160.342 164.561 159.859 164.561 159.32C164.561 158.78 164.679 158.304 164.917 157.891C165.154 157.471 165.475 157.141 165.88 156.901C166.292 156.661 166.753 156.541 167.262 156.541C167.667 156.541 168.027 156.615 168.341 156.761C168.662 156.901 168.934 157.094 169.158 157.341C169.381 157.581 169.552 157.854 169.671 158.16C169.79 158.46 169.849 158.77 169.849 159.09C169.849 159.157 169.845 159.233 169.838 159.32C169.831 159.4 169.821 159.483 169.807 159.57H165.063V158.87H169.357L168.98 159.17C169.043 158.803 168.997 158.477 168.844 158.19C168.697 157.897 168.484 157.667 168.205 157.501C167.926 157.328 167.611 157.241 167.262 157.241C166.913 157.241 166.589 157.328 166.288 157.501C165.995 157.674 165.765 157.917 165.597 158.23C165.43 158.537 165.363 158.903 165.398 159.33C165.363 159.756 165.433 160.129 165.608 160.449C165.789 160.762 166.034 161.005 166.341 161.179C166.655 161.352 166.99 161.438 167.346 161.438C167.758 161.438 168.104 161.345 168.383 161.159C168.662 160.972 168.889 160.739 169.064 160.459L169.734 160.799C169.622 161.039 169.451 161.262 169.221 161.468C168.99 161.668 168.714 161.832 168.393 161.958C168.079 162.078 167.73 162.138 167.346 162.138ZM171.234 162.018V156.661H172.019V157.541L171.914 157.411C172.047 157.158 172.246 156.958 172.511 156.811C172.783 156.665 173.112 156.591 173.495 156.591H173.852V157.341H173.359C172.954 157.341 172.63 157.461 172.385 157.701C172.141 157.941 172.019 158.28 172.019 158.72V162.018H171.234ZM174.772 162.018V156.661H175.557V162.018H174.772ZM174.772 155.672V154.573H175.557V155.672H174.772ZM179.72 162.138C179.196 162.138 178.722 162.018 178.296 161.778C177.877 161.532 177.545 161.195 177.301 160.769C177.057 160.342 176.934 159.859 176.934 159.32C176.934 158.78 177.053 158.304 177.29 157.891C177.528 157.471 177.849 157.141 178.254 156.901C178.666 156.661 179.126 156.541 179.636 156.541C180.041 156.541 180.401 156.615 180.715 156.761C181.036 156.901 181.308 157.094 181.532 157.341C181.755 157.581 181.926 157.854 182.045 158.16C182.163 158.46 182.223 158.77 182.223 159.09C182.223 159.157 182.219 159.233 182.212 159.32C182.205 159.4 182.195 159.483 182.181 159.57H177.437V158.87H181.731L181.354 159.17C181.416 158.803 181.371 158.477 181.217 158.19C181.071 157.897 180.858 157.667 180.579 157.501C180.299 157.328 179.985 157.241 179.636 157.241C179.287 157.241 178.962 157.328 178.662 157.501C178.369 157.674 178.139 157.917 177.971 158.23C177.804 158.537 177.737 158.903 177.772 159.33C177.737 159.756 177.807 160.129 177.982 160.449C178.163 160.762 178.407 161.005 178.715 161.179C179.029 161.352 179.364 161.438 179.72 161.438C180.132 161.438 180.477 161.345 180.757 161.159C181.036 160.972 181.263 160.739 181.437 160.459L182.107 160.799C181.996 161.039 181.825 161.262 181.594 161.468C181.364 161.668 181.088 161.832 180.767 161.958C180.453 162.078 180.104 162.138 179.72 162.138ZM183.607 162.018V156.661H184.393V157.701L184.215 157.661C184.354 157.314 184.581 157.041 184.895 156.841C185.217 156.641 185.587 156.541 186.005 156.541C186.403 156.541 186.759 156.628 187.074 156.801C187.395 156.975 187.646 157.214 187.828 157.521C188.016 157.821 188.11 158.16 188.11 158.54V162.018H187.325V158.83C187.325 158.504 187.262 158.227 187.136 158.001C187.018 157.774 186.847 157.601 186.623 157.481C186.407 157.354 186.155 157.291 185.869 157.291C185.583 157.291 185.328 157.354 185.105 157.481C184.881 157.601 184.707 157.777 184.581 158.011C184.456 158.237 184.393 158.51 184.393 158.83V162.018H183.607ZM192.176 162.138C191.625 162.138 191.14 162.015 190.721 161.768C190.302 161.522 189.974 161.189 189.736 160.769C189.499 160.342 189.38 159.863 189.38 159.33C189.38 158.797 189.499 158.32 189.736 157.901C189.974 157.481 190.302 157.151 190.721 156.911C191.14 156.665 191.625 156.541 192.176 156.541C192.525 156.541 192.853 156.601 193.161 156.721C193.468 156.841 193.74 157.004 193.977 157.211C194.215 157.411 194.393 157.644 194.512 157.911L193.799 158.26C193.66 157.974 193.447 157.741 193.161 157.561C192.874 157.381 192.546 157.291 192.176 157.291C191.806 157.291 191.471 157.381 191.171 157.561C190.878 157.734 190.644 157.977 190.469 158.29C190.302 158.597 190.218 158.947 190.218 159.34C190.218 159.726 190.302 160.076 190.469 160.389C190.644 160.696 190.878 160.939 191.171 161.119C191.471 161.299 191.806 161.389 192.176 161.389C192.546 161.389 192.871 161.299 193.15 161.119C193.436 160.939 193.653 160.699 193.799 160.399L194.512 160.769C194.393 161.029 194.215 161.262 193.977 161.468C193.74 161.675 193.468 161.838 193.161 161.958C192.853 162.078 192.525 162.138 192.176 162.138ZM195.89 162.018V156.661H196.675V162.018H195.89ZM195.89 155.672V154.573H196.675V155.672H195.89ZM199.906 162.138C199.55 162.138 199.232 162.075 198.953 161.948C198.674 161.815 198.454 161.635 198.293 161.409C198.133 161.182 198.052 160.922 198.052 160.629C198.052 160.349 198.115 160.096 198.241 159.869C198.366 159.636 198.562 159.44 198.827 159.28C199.092 159.12 199.431 159.007 199.843 158.94L202.042 158.59V159.27L200.031 159.59C199.627 159.656 199.333 159.779 199.152 159.959C198.977 160.139 198.89 160.352 198.89 160.599C198.89 160.839 198.988 161.042 199.183 161.209C199.386 161.375 199.644 161.458 199.958 161.458C200.342 161.458 200.677 161.382 200.963 161.229C201.25 161.069 201.473 160.856 201.634 160.589C201.794 160.323 201.875 160.026 201.875 159.7V158.34C201.875 158.021 201.752 157.761 201.508 157.561C201.264 157.361 200.946 157.261 200.555 157.261C200.213 157.261 199.913 157.344 199.654 157.511C199.396 157.671 199.204 157.881 199.078 158.14L198.366 157.771C198.471 157.544 198.635 157.338 198.859 157.151C199.089 156.965 199.351 156.818 199.644 156.711C199.937 156.598 200.241 156.541 200.555 156.541C200.967 156.541 201.33 156.618 201.644 156.771C201.965 156.925 202.213 157.138 202.388 157.411C202.569 157.677 202.66 157.987 202.66 158.34V162.018H201.875V160.949L201.99 161.059C201.892 161.259 201.738 161.442 201.529 161.608C201.326 161.768 201.086 161.898 200.806 161.998C200.534 162.091 200.234 162.138 199.906 162.138ZM204.307 163.317V162.968C204.516 162.914 204.67 162.811 204.768 162.658C204.865 162.505 204.914 162.291 204.914 162.018H204.516V160.919H205.354V161.758C205.354 162.191 205.267 162.538 205.092 162.798C204.918 163.064 204.656 163.237 204.307 163.317ZM55.9141 179.008V171.652H56.6995V172.852L56.5738 172.642C56.7972 172.302 57.0939 172.032 57.4639 171.832C57.8409 171.632 58.2703 171.532 58.752 171.532C59.2825 171.532 59.7538 171.656 60.1657 171.902C60.5846 172.142 60.9127 172.472 61.15 172.892C61.3944 173.311 61.5166 173.791 61.5166 174.331C61.5166 174.864 61.3944 175.344 61.15 175.77C60.9127 176.19 60.5846 176.523 60.1657 176.769C59.7538 177.009 59.2825 177.129 58.752 177.129C58.2703 177.129 57.8339 177.026 57.443 176.819C57.059 176.606 56.7693 176.306 56.5738 175.92L56.6995 175.81V179.008H55.9141ZM58.7101 176.38C59.0871 176.38 59.4222 176.29 59.7154 176.11C60.0156 175.93 60.2495 175.687 60.417 175.38C60.5915 175.067 60.6788 174.717 60.6788 174.331C60.6788 173.938 60.5915 173.588 60.417 173.281C60.2495 172.975 60.0156 172.732 59.7154 172.552C59.4222 172.372 59.0871 172.282 58.7101 172.282C58.3331 172.282 57.991 172.372 57.6838 172.552C57.3836 172.732 57.1428 172.978 56.9613 173.291C56.7867 173.598 56.6995 173.944 56.6995 174.331C56.6995 174.717 56.7867 175.067 56.9613 175.38C57.1428 175.687 57.3836 175.93 57.6838 176.11C57.991 176.29 58.3331 176.38 58.7101 176.38ZM65.4539 177.129C64.9303 177.129 64.4556 177.009 64.0297 176.769C63.6108 176.523 63.2792 176.186 63.0349 175.76C62.7905 175.334 62.6684 174.85 62.6684 174.311C62.6684 173.771 62.787 173.295 63.0244 172.882C63.2618 172.462 63.5829 172.132 63.9878 171.892C64.3997 171.652 64.8605 171.532 65.3701 171.532C65.775 171.532 66.1346 171.606 66.4487 171.752C66.7699 171.892 67.0422 172.085 67.2656 172.332C67.489 172.572 67.66 172.845 67.7787 173.152C67.8974 173.451 67.9567 173.761 67.9567 174.081C67.9567 174.148 67.9532 174.224 67.9462 174.311C67.9393 174.391 67.9288 174.474 67.9148 174.561H63.171V173.861H67.4645L67.0875 174.161C67.1504 173.794 67.105 173.468 66.9514 173.181C66.8048 172.888 66.5919 172.658 66.3126 172.492C66.0334 172.319 65.7192 172.232 65.3701 172.232C65.0211 172.232 64.6964 172.319 64.3962 172.492C64.103 172.665 63.8726 172.908 63.7051 173.221C63.5375 173.528 63.4712 173.894 63.5061 174.321C63.4712 174.747 63.541 175.12 63.7156 175.44C63.8971 175.753 64.1414 175.996 64.4486 176.17C64.7628 176.343 65.0979 176.43 65.4539 176.43C65.8658 176.43 66.2114 176.336 66.4906 176.15C66.7699 175.963 66.9968 175.73 67.1713 175.45L67.8415 175.79C67.7298 176.03 67.5588 176.253 67.3284 176.46C67.098 176.659 66.8222 176.823 66.5011 176.949C66.1869 177.069 65.8379 177.129 65.4539 177.129ZM69.3413 177.009V171.652H70.1267V172.532L70.022 172.402C70.1547 172.149 70.3536 171.949 70.6189 171.802C70.8912 171.656 71.2193 171.582 71.6033 171.582H71.9593V172.332H71.4671C71.0622 172.332 70.7376 172.452 70.4932 172.692C70.2489 172.932 70.1267 173.271 70.1267 173.711V177.009H69.3413ZM72.8797 177.009V171.652H73.6651V172.672L73.5394 172.522C73.693 172.209 73.9199 171.966 74.2201 171.792C74.5273 171.619 74.8624 171.532 75.2254 171.532C75.6583 171.532 76.0492 171.649 76.3983 171.882C76.7473 172.115 76.9952 172.419 77.1418 172.792L76.9219 172.802C77.0615 172.389 77.3024 172.075 77.6444 171.862C77.9935 171.642 78.3775 171.532 78.7964 171.532C79.1733 171.532 79.5189 171.619 79.8331 171.792C80.1542 171.966 80.409 172.205 80.5975 172.512C80.793 172.812 80.8907 173.152 80.8907 173.531V177.009H80.1054V173.821C80.1054 173.495 80.0425 173.218 79.9169 172.992C79.7982 172.765 79.6341 172.592 79.4247 172.472C79.2152 172.345 78.9744 172.282 78.7021 172.282C78.4368 172.282 78.196 172.345 77.9795 172.472C77.7631 172.592 77.5921 172.768 77.4664 173.002C77.3407 173.228 77.2779 173.501 77.2779 173.821V177.009H76.4925V173.821C76.4925 173.495 76.4297 173.218 76.304 172.992C76.1853 172.765 76.0213 172.592 75.8118 172.472C75.6024 172.345 75.3615 172.282 75.0893 172.282C74.817 172.282 74.5727 172.345 74.3562 172.472C74.1468 172.592 73.9792 172.768 73.8536 173.002C73.7279 173.228 73.6651 173.501 73.6651 173.821V177.009H72.8797ZM82.3906 177.009V171.652H83.176V177.009H82.3906ZM82.3906 170.663V169.564H83.176V170.663H82.3906ZM86.9302 177.069C86.4275 177.069 86.04 176.929 85.7678 176.649C85.4955 176.37 85.3594 175.97 85.3594 175.45V172.402H84.3226V171.652H84.5844C84.8218 171.652 85.0103 171.579 85.1499 171.433C85.2895 171.279 85.3594 171.089 85.3594 170.863V170.413H86.1448V171.652H87.3804V172.402H86.1448V175.45C86.1448 175.63 86.1727 175.79 86.2285 175.93C86.2844 176.063 86.3786 176.17 86.5113 176.25C86.6509 176.33 86.8359 176.37 87.0663 176.37C87.1221 176.37 87.1885 176.366 87.2653 176.36C87.3421 176.353 87.4084 176.346 87.4642 176.34V177.009C87.3804 177.029 87.2862 177.043 87.1815 177.049C87.0768 177.062 86.993 177.069 86.9302 177.069ZM91.194 177.129C90.6704 177.129 90.1957 177.009 89.7698 176.769C89.3509 176.523 89.0193 176.186 88.775 175.76C88.5306 175.334 88.4084 174.85 88.4084 174.311C88.4084 173.771 88.5271 173.295 88.7645 172.882C89.0019 172.462 89.323 172.132 89.7279 171.892C90.1398 171.652 90.6006 171.532 91.1102 171.532C91.5151 171.532 91.8747 171.606 92.1888 171.752C92.51 171.892 92.7822 172.085 93.0056 172.332C93.229 172.572 93.4001 172.845 93.5188 173.152C93.6375 173.451 93.6968 173.761 93.6968 174.081C93.6968 174.148 93.6933 174.224 93.6863 174.311C93.6793 174.391 93.6689 174.474 93.6549 174.561H88.9111V173.861H93.2046L92.8276 174.161C92.8905 173.794 92.8451 173.468 92.6915 173.181C92.5449 172.888 92.3319 172.658 92.0527 172.492C91.7734 172.319 91.4593 172.232 91.1102 172.232C90.7612 172.232 90.4365 172.319 90.1363 172.492C89.8431 172.665 89.6127 172.908 89.4452 173.221C89.2776 173.528 89.2113 173.894 89.2462 174.321C89.2113 174.747 89.2811 175.12 89.4556 175.44C89.6372 175.753 89.8815 175.996 90.1887 176.17C90.5028 176.343 90.8379 176.43 91.194 176.43C91.6059 176.43 91.9515 176.336 92.2307 176.15C92.51 175.963 92.7369 175.73 92.9114 175.45L93.5816 175.79C93.4699 176.03 93.2989 176.253 93.0685 176.46C92.8381 176.659 92.5623 176.823 92.2412 176.949C91.927 177.069 91.578 177.129 91.194 177.129ZM95.05 174.681V173.981H98.7152V174.681H95.05ZM100.297 177.009V171.652H101.082V172.692L100.904 172.652C101.044 172.305 101.271 172.032 101.585 171.832C101.906 171.632 102.276 171.532 102.695 171.532C103.093 171.532 103.449 171.619 103.763 171.792C104.084 171.966 104.336 172.205 104.517 172.512C104.706 172.812 104.8 173.152 104.8 173.531V177.009H104.015V173.821C104.015 173.495 103.952 173.218 103.826 172.992C103.707 172.765 103.536 172.592 103.313 172.472C103.097 172.345 102.845 172.282 102.559 172.282C102.273 172.282 102.018 172.345 101.795 172.472C101.571 172.592 101.397 172.768 101.271 173.002C101.145 173.228 101.082 173.501 101.082 173.821V177.009H100.297ZM108.929 177.129C108.398 177.129 107.917 177.009 107.484 176.769C107.051 176.523 106.705 176.19 106.447 175.77C106.196 175.344 106.07 174.86 106.07 174.321C106.07 173.788 106.196 173.311 106.447 172.892C106.698 172.472 107.037 172.142 107.463 171.902C107.896 171.656 108.384 171.532 108.929 171.532C109.473 171.532 109.959 171.652 110.384 171.892C110.817 172.132 111.156 172.462 111.4 172.882C111.652 173.301 111.777 173.781 111.777 174.321C111.777 174.867 111.648 175.354 111.39 175.78C111.131 176.2 110.786 176.529 110.353 176.769C109.927 177.009 109.452 177.129 108.929 177.129ZM108.929 176.38C109.306 176.38 109.644 176.29 109.945 176.11C110.252 175.93 110.493 175.683 110.667 175.37C110.849 175.057 110.939 174.707 110.939 174.321C110.939 173.934 110.849 173.588 110.667 173.281C110.493 172.975 110.252 172.732 109.945 172.552C109.644 172.372 109.306 172.282 108.929 172.282C108.552 172.282 108.21 172.372 107.903 172.552C107.602 172.732 107.362 172.975 107.18 173.281C106.999 173.588 106.908 173.934 106.908 174.321C106.908 174.707 106.999 175.057 107.18 175.37C107.362 175.683 107.602 175.93 107.903 176.11C108.21 176.29 108.552 176.38 108.929 176.38ZM115.11 177.129C114.573 177.129 114.101 176.999 113.696 176.739C113.292 176.48 112.998 176.126 112.817 175.68L113.477 175.38C113.637 175.707 113.861 175.966 114.147 176.16C114.44 176.353 114.761 176.45 115.11 176.45C115.445 176.45 115.728 176.373 115.958 176.22C116.189 176.06 116.304 175.853 116.304 175.6C116.304 175.413 116.248 175.267 116.136 175.16C116.025 175.047 115.896 174.96 115.749 174.9C115.602 174.84 115.473 174.797 115.362 174.771L114.555 174.551C114.039 174.411 113.665 174.214 113.435 173.961C113.204 173.708 113.089 173.415 113.089 173.082C113.089 172.768 113.173 172.495 113.34 172.262C113.508 172.029 113.735 171.849 114.021 171.722C114.307 171.596 114.625 171.532 114.974 171.532C115.449 171.532 115.878 171.652 116.262 171.892C116.653 172.125 116.929 172.452 117.089 172.872L116.419 173.172C116.28 172.872 116.077 172.638 115.812 172.472C115.554 172.299 115.264 172.212 114.943 172.212C114.629 172.212 114.377 172.289 114.189 172.442C114 172.595 113.906 172.788 113.906 173.022C113.906 173.201 113.955 173.345 114.053 173.451C114.15 173.558 114.262 173.638 114.388 173.691C114.52 173.744 114.635 173.784 114.733 173.811L115.665 174.071C116.119 174.198 116.472 174.394 116.723 174.661C116.981 174.927 117.11 175.24 117.11 175.6C117.11 175.893 117.023 176.156 116.849 176.39C116.681 176.623 116.447 176.806 116.147 176.939C115.847 177.066 115.501 177.129 115.11 177.129ZM122.825 177.129C122.301 177.129 121.826 177.009 121.4 176.769C120.981 176.523 120.65 176.186 120.406 175.76C120.161 175.334 120.039 174.85 120.039 174.311C120.039 173.771 120.158 173.295 120.395 172.882C120.632 172.462 120.954 172.132 121.358 171.892C121.77 171.652 122.231 171.532 122.741 171.532C123.146 171.532 123.505 171.606 123.819 171.752C124.141 171.892 124.413 172.085 124.636 172.332C124.86 172.572 125.031 172.845 125.149 173.152C125.268 173.451 125.327 173.761 125.327 174.081C125.327 174.148 125.324 174.224 125.317 174.311C125.31 174.391 125.299 174.474 125.285 174.561H120.542V173.861H124.835L124.458 174.161C124.521 173.794 124.476 173.468 124.322 173.181C124.175 172.888 123.963 172.658 123.683 172.492C123.404 172.319 123.09 172.232 122.741 172.232C122.392 172.232 122.067 172.319 121.767 172.492C121.474 172.665 121.243 172.908 121.076 173.221C120.908 173.528 120.842 173.894 120.877 174.321C120.842 174.747 120.912 175.12 121.086 175.44C121.268 175.753 121.512 175.996 121.819 176.17C122.133 176.343 122.469 176.43 122.825 176.43C123.236 176.43 123.582 176.336 123.861 176.15C124.141 175.963 124.367 175.73 124.542 175.45L125.212 175.79C125.1 176.03 124.929 176.253 124.699 176.46C124.469 176.659 124.193 176.823 123.872 176.949C123.558 177.069 123.209 177.129 122.825 177.129ZM126.713 177.009V171.652H127.498V172.692L127.32 172.652C127.46 172.305 127.686 172.032 128.001 171.832C128.322 171.632 128.692 171.532 129.111 171.532C129.509 171.532 129.865 171.619 130.179 171.792C130.5 171.966 130.751 172.205 130.933 172.512C131.121 172.812 131.216 173.152 131.216 173.531V177.009H130.43V173.821C130.43 173.495 130.367 173.218 130.242 172.992C130.123 172.765 129.952 172.592 129.728 172.472C129.512 172.345 129.261 172.282 128.975 172.282C128.688 172.282 128.433 172.345 128.21 172.472C127.987 172.592 127.812 172.768 127.686 173.002C127.561 173.228 127.498 173.501 127.498 173.821V177.009H126.713ZM134.11 177.009L131.922 171.652H132.801L134.644 176.35H134.362L136.215 171.652H137.105L134.896 177.009H134.11ZM138.023 177.009V171.652H138.808V177.009H138.023ZM138.023 170.663V169.564H138.808V170.663H138.023ZM142.039 177.129C141.683 177.129 141.365 177.066 141.086 176.939C140.807 176.806 140.587 176.626 140.426 176.4C140.266 176.173 140.185 175.913 140.185 175.62C140.185 175.34 140.248 175.087 140.374 174.86C140.499 174.627 140.695 174.431 140.96 174.271C141.226 174.111 141.564 173.998 141.976 173.931L144.175 173.581V174.261L142.165 174.581C141.76 174.647 141.466 174.771 141.285 174.95C141.11 175.13 141.023 175.344 141.023 175.59C141.023 175.83 141.121 176.033 141.316 176.2C141.519 176.366 141.777 176.45 142.091 176.45C142.475 176.45 142.81 176.373 143.097 176.22C143.383 176.06 143.606 175.847 143.767 175.58C143.927 175.314 144.008 175.017 144.008 174.691V173.331C144.008 173.012 143.885 172.752 143.641 172.552C143.397 172.352 143.079 172.252 142.688 172.252C142.346 172.252 142.046 172.335 141.788 172.502C141.529 172.662 141.337 172.872 141.212 173.132L140.499 172.762C140.604 172.535 140.768 172.329 140.992 172.142C141.222 171.956 141.484 171.809 141.777 171.702C142.07 171.589 142.374 171.532 142.688 171.532C143.1 171.532 143.463 171.609 143.777 171.762C144.098 171.916 144.346 172.129 144.521 172.402C144.702 172.668 144.793 172.978 144.793 173.331V177.009H144.008V175.94L144.123 176.05C144.025 176.25 143.871 176.433 143.662 176.599C143.46 176.759 143.219 176.889 142.939 176.989C142.667 177.082 142.367 177.129 142.039 177.129ZM146.409 177.009V171.652H147.194V172.532L147.089 172.402C147.222 172.149 147.421 171.949 147.686 171.802C147.958 171.656 148.287 171.582 148.671 171.582H149.027V172.332H148.534C148.129 172.332 147.805 172.452 147.56 172.692C147.316 172.932 147.194 173.271 147.194 173.711V177.009H146.409ZM151.727 177.009V171.652H152.512V172.692L152.334 172.652C152.474 172.305 152.7 172.032 153.015 171.832C153.336 171.632 153.706 171.532 154.125 171.532C154.523 171.532 154.879 171.619 155.193 171.792C155.514 171.966 155.765 172.205 155.947 172.512C156.135 172.812 156.23 173.152 156.23 173.531V177.009H155.444V173.821C155.444 173.495 155.381 173.218 155.256 172.992C155.137 172.765 154.966 172.592 154.743 172.472C154.526 172.345 154.275 172.282 153.989 172.282C153.702 172.282 153.447 172.345 153.224 172.472C153.001 172.592 152.826 172.768 152.7 173.002C152.575 173.228 152.512 173.501 152.512 173.821V177.009H151.727ZM160.358 177.129C159.827 177.129 159.346 177.009 158.913 176.769C158.48 176.523 158.134 176.19 157.876 175.77C157.625 175.344 157.499 174.86 157.499 174.321C157.499 173.788 157.625 173.311 157.876 172.892C158.127 172.472 158.466 172.142 158.892 171.902C159.325 171.656 159.813 171.532 160.358 171.532C160.902 171.532 161.388 171.652 161.813 171.892C162.246 172.132 162.585 172.462 162.829 172.882C163.081 173.301 163.206 173.781 163.206 174.321C163.206 174.867 163.077 175.354 162.819 175.78C162.56 176.2 162.215 176.529 161.782 176.769C161.356 177.009 160.881 177.129 160.358 177.129ZM160.358 176.38C160.735 176.38 161.073 176.29 161.374 176.11C161.681 175.93 161.922 175.683 162.096 175.37C162.278 175.057 162.368 174.707 162.368 174.321C162.368 173.934 162.278 173.588 162.096 173.281C161.922 172.975 161.681 172.732 161.374 172.552C161.073 172.372 160.735 172.282 160.358 172.282C159.981 172.282 159.639 172.372 159.332 172.552C159.031 172.732 158.791 172.975 158.609 173.281C158.427 173.588 158.337 173.934 158.337 174.321C158.337 174.707 158.427 175.057 158.609 175.37C158.791 175.683 159.031 175.93 159.332 176.11C159.639 176.29 159.981 176.38 160.358 176.38ZM166.636 177.069C166.133 177.069 165.746 176.929 165.473 176.649C165.201 176.37 165.065 175.97 165.065 175.45V172.402H164.028V171.652H164.29C164.527 171.652 164.716 171.579 164.856 171.433C164.995 171.279 165.065 171.089 165.065 170.863V170.413H165.85V171.652H167.086V172.402H165.85V175.45C165.85 175.63 165.878 175.79 165.934 175.93C165.99 176.063 166.084 176.17 166.217 176.25C166.357 176.33 166.542 176.37 166.772 176.37C166.828 176.37 166.894 176.366 166.971 176.36C167.048 176.353 167.114 176.346 167.17 176.34V177.009C167.086 177.029 166.992 177.043 166.887 177.049C166.782 177.062 166.699 177.069 166.636 177.069ZM168.549 177.009V171.652H169.335V177.009H168.549ZM168.549 170.663V169.564H169.335V170.663H168.549ZM171.518 177.009V172.402H170.398V171.652H171.518V171.173C171.518 170.8 171.605 170.486 171.78 170.233C171.954 169.973 172.185 169.777 172.471 169.644C172.757 169.51 173.064 169.444 173.393 169.444C173.462 169.444 173.543 169.45 173.633 169.464C173.724 169.47 173.797 169.48 173.853 169.494V170.173C173.804 170.16 173.738 170.153 173.654 170.153C173.571 170.147 173.511 170.143 173.476 170.143C173.141 170.143 172.862 170.22 172.639 170.373C172.415 170.526 172.303 170.793 172.303 171.173V171.652H175.455V172.402H172.303V177.009H171.518ZM174.796 177.009V171.652H175.581V177.009H174.796ZM179.603 177.129C179.051 177.129 178.566 177.006 178.147 176.759C177.728 176.513 177.4 176.18 177.163 175.76C176.926 175.334 176.807 174.854 176.807 174.321C176.807 173.788 176.926 173.311 177.163 172.892C177.4 172.472 177.728 172.142 178.147 171.902C178.566 171.656 179.051 171.532 179.603 171.532C179.952 171.532 180.28 171.592 180.587 171.712C180.895 171.832 181.167 171.996 181.404 172.202C181.642 172.402 181.82 172.635 181.938 172.902L181.226 173.251C181.086 172.965 180.874 172.732 180.587 172.552C180.301 172.372 179.973 172.282 179.603 172.282C179.233 172.282 178.898 172.372 178.598 172.552C178.304 172.725 178.071 172.968 177.896 173.281C177.728 173.588 177.645 173.938 177.645 174.331C177.645 174.717 177.728 175.067 177.896 175.38C178.071 175.687 178.304 175.93 178.598 176.11C178.898 176.29 179.233 176.38 179.603 176.38C179.973 176.38 180.298 176.29 180.577 176.11C180.863 175.93 181.08 175.69 181.226 175.39L181.938 175.76C181.82 176.02 181.642 176.253 181.404 176.46C181.167 176.666 180.895 176.829 180.587 176.949C180.28 177.069 179.952 177.129 179.603 177.129ZM184.837 177.129C184.481 177.129 184.164 177.066 183.884 176.939C183.605 176.806 183.385 176.626 183.225 176.4C183.064 176.173 182.984 175.913 182.984 175.62C182.984 175.34 183.046 175.087 183.172 174.86C183.298 174.627 183.493 174.431 183.759 174.271C184.024 174.111 184.362 173.998 184.774 173.931L186.973 173.581V174.261L184.963 174.581C184.558 174.647 184.265 174.771 184.083 174.95C183.909 175.13 183.821 175.344 183.821 175.59C183.821 175.83 183.919 176.033 184.115 176.2C184.317 176.366 184.575 176.45 184.89 176.45C185.274 176.45 185.609 176.373 185.895 176.22C186.181 176.06 186.405 175.847 186.565 175.58C186.726 175.314 186.806 175.017 186.806 174.691V173.331C186.806 173.012 186.684 172.752 186.439 172.552C186.195 172.352 185.877 172.252 185.486 172.252C185.144 172.252 184.844 172.335 184.586 172.502C184.328 172.662 184.136 172.872 184.01 173.132L183.298 172.762C183.403 172.535 183.567 172.329 183.79 172.142C184.02 171.956 184.282 171.809 184.575 171.702C184.869 171.589 185.172 171.532 185.486 171.532C185.898 171.532 186.261 171.609 186.576 171.762C186.897 171.916 187.145 172.129 187.319 172.402C187.501 172.668 187.591 172.978 187.591 173.331V177.009H186.806V175.94L186.921 176.05C186.823 176.25 186.67 176.433 186.46 176.599C186.258 176.759 186.017 176.889 185.738 176.989C185.466 177.082 185.165 177.129 184.837 177.129ZM191.772 177.129C191.22 177.129 190.735 177.006 190.316 176.759C189.897 176.513 189.569 176.18 189.332 175.76C189.095 175.334 188.976 174.854 188.976 174.321C188.976 173.788 189.095 173.311 189.332 172.892C189.569 172.472 189.897 172.142 190.316 171.902C190.735 171.656 191.22 171.532 191.772 171.532C192.121 171.532 192.449 171.592 192.756 171.712C193.064 171.832 193.336 171.996 193.573 172.202C193.811 172.402 193.989 172.635 194.107 172.902L193.395 173.251C193.255 172.965 193.043 172.732 192.756 172.552C192.47 172.372 192.142 172.282 191.772 172.282C191.402 172.282 191.067 172.372 190.767 172.552C190.473 172.725 190.24 172.968 190.065 173.281C189.897 173.588 189.814 173.938 189.814 174.331C189.814 174.717 189.897 175.067 190.065 175.38C190.24 175.687 190.473 175.93 190.767 176.11C191.067 176.29 191.402 176.38 191.772 176.38C192.142 176.38 192.467 176.29 192.746 176.11C193.032 175.93 193.249 175.69 193.395 175.39L194.107 175.76C193.989 176.02 193.811 176.253 193.573 176.46C193.336 176.666 193.064 176.829 192.756 176.949C192.449 177.069 192.121 177.129 191.772 177.129ZM191.898 179.308C191.695 179.308 191.493 179.275 191.29 179.208C191.095 179.141 190.934 179.051 190.809 178.938L191.028 178.408C191.133 178.502 191.252 178.575 191.385 178.628C191.524 178.682 191.66 178.708 191.793 178.708C191.946 178.708 192.069 178.668 192.159 178.588C192.257 178.515 192.306 178.418 192.306 178.298C192.306 178.145 192.226 178.025 192.065 177.939C191.905 177.852 191.643 177.789 191.28 177.749L191.531 176.909H192.097L191.96 177.389C192.323 177.462 192.596 177.579 192.777 177.739C192.966 177.905 193.06 178.109 193.06 178.348C193.06 178.628 192.948 178.858 192.725 179.038C192.508 179.218 192.233 179.308 191.898 179.308ZM198.114 177.129C197.583 177.129 197.102 177.009 196.669 176.769C196.236 176.523 195.89 176.19 195.632 175.77C195.381 175.344 195.255 174.86 195.255 174.321C195.255 173.788 195.381 173.311 195.632 172.892C195.883 172.472 196.222 172.142 196.648 171.902C197.081 171.656 197.569 171.532 198.114 171.532C198.658 171.532 199.144 171.652 199.57 171.892C200.002 172.132 200.341 172.462 200.585 172.882C200.837 173.301 200.962 173.781 200.962 174.321C200.962 174.867 200.833 175.354 200.575 175.78C200.317 176.2 199.971 176.529 199.538 176.769C199.112 177.009 198.637 177.129 198.114 177.129ZM198.114 176.38C198.491 176.38 198.829 176.29 199.13 176.11C199.437 175.93 199.678 175.683 199.852 175.37C200.034 175.057 200.125 174.707 200.125 174.321C200.125 173.934 200.034 173.588 199.852 173.281C199.678 172.975 199.437 172.732 199.13 172.552C198.829 172.372 198.491 172.282 198.114 172.282C197.737 172.282 197.395 172.372 197.088 172.552C196.787 172.732 196.547 172.975 196.365 173.281C196.184 173.588 196.093 173.934 196.093 174.321C196.093 174.707 196.184 175.057 196.365 175.37C196.547 175.683 196.787 175.93 197.088 176.11C197.395 176.29 197.737 176.38 198.114 176.38ZM198.732 170.613C198.55 170.613 198.404 170.583 198.292 170.523C198.18 170.456 198.086 170.383 198.009 170.303C197.932 170.217 197.852 170.143 197.768 170.083C197.692 170.017 197.594 169.983 197.475 169.983C197.363 169.983 197.273 170.027 197.203 170.113C197.133 170.2 197.098 170.353 197.098 170.573H196.449C196.449 170.173 196.54 169.87 196.721 169.664C196.91 169.45 197.161 169.344 197.475 169.344C197.657 169.344 197.803 169.377 197.915 169.444C198.027 169.504 198.121 169.577 198.198 169.664C198.274 169.744 198.351 169.817 198.428 169.883C198.512 169.943 198.613 169.973 198.732 169.973C198.857 169.973 198.955 169.923 199.025 169.824C199.102 169.717 199.14 169.57 199.14 169.384H199.779C199.779 169.75 199.685 170.047 199.496 170.273C199.308 170.5 199.053 170.613 198.732 170.613ZM204.903 177.129C204.379 177.129 203.904 177.009 203.478 176.769C203.06 176.523 202.728 176.186 202.484 175.76C202.239 175.334 202.117 174.85 202.117 174.311C202.117 173.771 202.236 173.295 202.473 172.882C202.711 172.462 203.032 172.132 203.437 171.892C203.848 171.652 204.309 171.532 204.819 171.532C205.224 171.532 205.583 171.606 205.897 171.752C206.219 171.892 206.491 172.085 206.714 172.332C206.938 172.572 207.109 172.845 207.227 173.152C207.346 173.451 207.405 173.761 207.405 174.081C207.405 174.148 207.402 174.224 207.395 174.311C207.388 174.391 207.378 174.474 207.364 174.561H202.62V173.861H206.913L206.536 174.161C206.599 173.794 206.554 173.468 206.4 173.181C206.254 172.888 206.041 172.658 205.761 172.492C205.482 172.319 205.168 172.232 204.819 172.232C204.47 172.232 204.145 172.319 203.845 172.492C203.552 172.665 203.321 172.908 203.154 173.221C202.986 173.528 202.92 173.894 202.955 174.321C202.92 174.747 202.99 175.12 203.164 175.44C203.346 175.753 203.59 175.996 203.897 176.17C204.211 176.343 204.547 176.43 204.903 176.43C205.315 176.43 205.66 176.336 205.939 176.15C206.219 175.963 206.446 175.73 206.62 175.45L207.29 175.79C207.179 176.03 207.008 176.253 206.777 176.46C206.547 176.659 206.271 176.823 205.95 176.949C205.636 177.069 205.287 177.129 204.903 177.129ZM210.738 177.129C210.201 177.129 209.73 176.999 209.325 176.739C208.92 176.48 208.627 176.126 208.445 175.68L209.105 175.38C209.265 175.707 209.489 175.966 209.775 176.16C210.068 176.353 210.389 176.45 210.738 176.45C211.074 176.45 211.356 176.373 211.587 176.22C211.817 176.06 211.932 175.853 211.932 175.6C211.932 175.413 211.876 175.267 211.765 175.16C211.653 175.047 211.524 174.96 211.377 174.9C211.231 174.84 211.101 174.797 210.99 174.771L210.183 174.551C209.667 174.411 209.293 174.214 209.063 173.961C208.833 173.708 208.717 173.415 208.717 173.082C208.717 172.768 208.801 172.495 208.969 172.262C209.136 172.029 209.363 171.849 209.649 171.722C209.936 171.596 210.253 171.532 210.602 171.532C211.077 171.532 211.506 171.652 211.89 171.892C212.281 172.125 212.557 172.452 212.718 172.872L212.047 173.172C211.908 172.872 211.705 172.638 211.44 172.472C211.182 172.299 210.892 172.212 210.571 172.212C210.257 172.212 210.005 172.289 209.817 172.442C209.628 172.595 209.534 172.788 209.534 173.022C209.534 173.201 209.583 173.345 209.681 173.451C209.779 173.558 209.89 173.638 210.016 173.691C210.149 173.744 210.264 173.784 210.361 173.811L211.293 174.071C211.747 174.198 212.1 174.394 212.351 174.661C212.609 174.927 212.739 175.24 212.739 175.6C212.739 175.893 212.651 176.156 212.477 176.39C212.309 176.623 212.075 176.806 211.775 176.939C211.475 177.066 211.129 177.129 210.738 177.129Z" fill="#2F2F2F"/>
</g>
</g>
<defs>
<filter id="filter0_d_976_1025" x="0" y="0" width="269" height="206" filterUnits="userSpaceOnUse" color-interpolation-filters="sRGB">
<feFlood flood-opacity="0" result="BackgroundImageFix"/>
<feColorMatrix in="SourceAlpha" type="matrix" values="0 0 0 0 0 0 0 0 0 0 0 0 0 0 0 0 0 0 127 0" result="hardAlpha"/>
<feOffset dy="4"/>
<feGaussianBlur stdDeviation="5"/>
<feComposite in2="hardAlpha" operator="out"/>
<feColorMatrix type="matrix" values="0 0 0 0 0 0 0 0 0 0 0 0 0 0 0 0 0 0 0.25 0"/>
<feBlend mode="normal" in2="BackgroundImageFix" result="effect1_dropShadow_976_1025"/>
<feBlend mode="normal" in="SourceGraphic" in2="effect1_dropShadow_976_1025" result="shape"/>
</filter>
<linearGradient id="paint0_linear_976_1025" x1="134.499" y1="166.259" x2="134.499" y2="-29.5342" gradientUnits="userSpaceOnUse">
<stop offset="0.0570912" stop-color="#FBFAF8" stop-opacity="0"/>
<stop offset="1" stop-color="#FBFAF8" stop-opacity="0.7"/>
</linearGradient>
</defs>
</svg>
