<svg width="299" height="117" viewBox="0 0 299 117" fill="none" xmlns="http://www.w3.org/2000/svg">
<rect width="299" height="114.578" rx="28" fill="#F5F1EC"/>
<path d="M57.98 29C57.98 25.02 61.24 21.78 65.24 21.78C69.24 21.78 72.5 25.02 72.5 29C72.5 32.98 69.24 36.22 65.24 36.22C61.24 36.22 57.98 32.98 57.98 29ZM59.56 29C59.56 32.28 62.14 34.82 65.24 34.82C68.36 34.82 70.92 32.28 70.92 29C70.92 25.72 68.36 23.18 65.24 23.18C62.14 23.18 59.56 25.72 59.56 29ZM80.5536 40.48V26.04H82.0536V28.02C82.9336 26.52 84.3536 25.82 86.0136 25.82C89.0336 25.82 90.9736 28.16 90.9736 31.02C90.9736 33.88 89.0336 36.22 86.0136 36.22C84.3536 36.22 82.9336 35.52 82.0536 34.02V40.48H80.5536ZM89.4736 31.02C89.4736 28.92 88.1336 27.16 85.8736 27.16C83.7536 27.16 82.0336 28.7 82.0336 31.02C82.0336 33.34 83.7536 34.88 85.8736 34.88C88.1336 34.88 89.4736 33.16 89.4736 31.02ZM103.104 26.04V36H101.604V34.02C100.724 35.52 99.3042 36.22 97.6442 36.22C94.6242 36.22 92.6842 33.88 92.6842 31.02C92.6842 28.16 94.6242 25.82 97.6442 25.82C99.3042 25.82 100.724 26.52 101.604 28.02V26.04H103.104ZM94.1842 31.02C94.1842 33.12 95.5242 34.88 97.7842 34.88C99.9042 34.88 101.624 33.34 101.624 31.02C101.624 28.7 99.9042 27.16 97.7842 27.16C95.5242 27.16 94.1842 28.88 94.1842 31.02ZM107.915 26.04V36H106.415V26.04H107.915ZM106.075 22.7C106.075 22.06 106.535 21.58 107.155 21.58C107.775 21.58 108.255 22.06 108.255 22.7C108.255 23.34 107.775 23.8 107.155 23.8C106.535 23.8 106.075 23.34 106.075 22.7ZM118.697 36V30.34C118.697 27.92 117.417 27.16 116.137 27.16C115.037 27.16 112.777 27.94 112.737 31.16V36H111.237V26.04H112.737V28.16C113.277 26.58 114.757 25.82 116.237 25.82C118.397 25.82 120.197 27.08 120.197 30.34V36H118.697ZM131.488 33.58L132.348 34.48C131.088 35.82 129.508 36.22 128.088 36.22C124.648 36.22 122.488 33.9 122.488 31.06C122.488 28.16 124.748 25.82 127.848 25.82C130.408 25.82 132.808 27.42 132.848 31H123.988C123.988 31.06 123.988 31.1 123.988 31.16C123.988 33.3 125.588 34.9 128.088 34.9C129.288 34.9 130.468 34.52 131.488 33.58ZM127.888 27.14C126.288 27.14 124.728 27.98 124.148 29.84H131.288C130.828 27.76 129.268 27.14 127.888 27.14ZM136.743 21.54V36H135.243V21.54H136.743ZM155.175 21.54V36H153.675V34.02C152.795 35.52 151.375 36.22 149.715 36.22C146.695 36.22 144.755 33.88 144.755 31.02C144.755 28.16 146.695 25.82 149.715 25.82C151.375 25.82 152.795 26.52 153.675 28.02V21.54H155.175ZM146.255 31.02C146.255 33.12 147.595 34.88 149.855 34.88C151.975 34.88 153.695 33.34 153.695 31.02C153.695 28.7 151.975 27.16 149.855 27.16C147.595 27.16 146.255 28.88 146.255 31.02ZM168.065 26.04V36H166.565V34.02C165.685 35.52 164.265 36.22 162.605 36.22C159.585 36.22 157.645 33.88 157.645 31.02C157.645 28.16 159.585 25.82 162.605 25.82C164.265 25.82 165.685 26.52 166.565 28.02V26.04H168.065ZM159.145 31.02C159.145 33.12 160.485 34.88 162.745 34.88C164.865 34.88 166.585 33.34 166.585 31.02C166.585 28.7 164.865 27.16 162.745 27.16C160.485 27.16 159.145 28.88 159.145 31.02ZM182.525 27.98L181.185 28.3C180.905 27.46 180.265 27.14 179.585 27.14C178.425 27.14 177.765 27.92 177.765 28.68C177.765 29.5 178.465 29.9 179.145 30.12L180.625 30.6C182.385 31.18 183.005 32.22 183.005 33.32C183.005 35.14 181.345 36.22 179.505 36.22C177.805 36.22 176.285 35.38 175.825 33.84L177.145 33.5C177.445 34.34 178.385 34.9 179.505 34.9C180.625 34.9 181.505 34.28 181.505 33.32C181.505 32.54 180.945 32.14 180.085 31.86L178.685 31.4C177.265 30.94 176.265 30.14 176.265 28.74C176.265 27.16 177.485 25.82 179.485 25.82C180.785 25.82 182.145 26.46 182.525 27.98ZM186.718 26.04V31.7C186.718 34.14 187.998 34.88 189.278 34.88C190.378 34.88 192.638 34.12 192.678 30.88V26.04H194.178V36H192.678V33.88C192.138 35.48 190.658 36.22 189.178 36.22C187.018 36.22 185.218 34.98 185.218 31.7V26.04H186.718ZM207.069 26.04V36H205.569V34.02C204.689 35.52 203.269 36.22 201.609 36.22C198.589 36.22 196.649 33.88 196.649 31.02C196.649 28.16 198.589 25.82 201.609 25.82C203.269 25.82 204.689 26.52 205.569 28.02V26.04H207.069ZM198.149 31.02C198.149 33.12 199.489 34.88 201.749 34.88C203.869 34.88 205.589 33.34 205.589 31.02C205.589 28.7 203.869 27.16 201.749 27.16C199.489 27.16 198.149 28.88 198.149 31.02ZM64.14 63H62.56L57.58 49H59.16L63.36 61.06L67.54 49H69.14L64.14 63ZM78.4025 60.58L79.2625 61.48C78.0025 62.82 76.4225 63.22 75.0025 63.22C71.5625 63.22 69.4025 60.9 69.4025 58.06C69.4025 55.16 71.6625 52.82 74.7625 52.82C77.3225 52.82 79.7225 54.42 79.7625 58H70.9025C70.9025 58.06 70.9025 58.1 70.9025 58.16C70.9025 60.3 72.5025 61.9 75.0025 61.9C76.2025 61.9 77.3825 61.52 78.4025 60.58ZM74.8025 54.14C73.2025 54.14 71.6425 54.98 71.0625 56.84H78.2025C77.7425 54.76 76.1825 54.14 74.8025 54.14ZM83.657 48.54V63H82.157V48.54H83.657ZM96.6394 53.04V63H95.1394V61.02C94.2594 62.52 92.8394 63.22 91.1794 63.22C88.1594 63.22 86.2194 60.88 86.2194 58.02C86.2194 55.16 88.1594 52.82 91.1794 52.82C92.8394 52.82 94.2594 53.52 95.1394 55.02V53.04H96.6394ZM87.7194 58.02C87.7194 60.12 89.0594 61.88 91.3194 61.88C93.4394 61.88 95.1594 60.34 95.1594 58.02C95.1594 55.7 93.4394 54.16 91.3194 54.16C89.0594 54.16 87.7194 55.88 87.7194 58.02ZM112.779 63V57.34C112.779 54.92 111.499 54.16 110.219 54.16C109.119 54.16 106.859 54.94 106.819 58.16V63H105.319V53.04H106.819V55.16C107.359 53.58 108.839 52.82 110.319 52.82C112.479 52.82 114.279 54.08 114.279 57.34V63H112.779ZM127.01 53.04V63H125.51V61.02C124.63 62.52 123.21 63.22 121.55 63.22C118.53 63.22 116.59 60.88 116.59 58.02C116.59 55.16 118.53 52.82 121.55 52.82C123.21 52.82 124.63 53.52 125.51 55.02V53.04H127.01ZM118.09 58.02C118.09 60.12 119.43 61.88 121.69 61.88C123.81 61.88 125.53 60.34 125.53 58.02C125.53 55.7 123.81 54.16 121.69 54.16C119.43 54.16 118.09 55.88 118.09 58.02ZM135.69 67.48V53.04H137.19V55.02C138.07 53.52 139.49 52.82 141.15 52.82C144.17 52.82 146.11 55.16 146.11 58.02C146.11 60.88 144.17 63.22 141.15 63.22C139.49 63.22 138.07 62.52 137.19 61.02V67.48H135.69ZM144.61 58.02C144.61 55.92 143.27 54.16 141.01 54.16C138.89 54.16 137.17 55.7 137.17 58.02C137.17 60.34 138.89 61.88 141.01 61.88C143.27 61.88 144.61 60.16 144.61 58.02ZM158.241 53.04V63H156.741V61.02C155.861 62.52 154.441 63.22 152.781 63.22C149.761 63.22 147.821 60.88 147.821 58.02C147.821 55.16 149.761 52.82 152.781 52.82C154.441 52.82 155.861 53.52 156.741 55.02V53.04H158.241ZM149.321 58.02C149.321 60.12 150.661 61.88 152.921 61.88C155.041 61.88 156.761 60.34 156.761 58.02C156.761 55.7 155.041 54.16 152.921 54.16C150.661 54.16 149.321 55.88 149.321 58.02ZM163.052 48.54V63H161.552V48.54H163.052ZM173.474 63V57.34C173.474 54.92 172.234 54.16 170.954 54.16C169.854 54.16 167.914 54.94 167.874 58.16V63H166.374V53.04H167.874V55.14C168.414 53.54 169.854 52.82 171.214 52.82C172.274 52.82 173.874 53.2 174.634 55.16C175.414 53.28 176.954 52.82 178.134 52.82C180.394 52.82 182.074 54.04 182.074 57.34V63H180.574V57.34C180.574 54.92 179.334 54.16 178.054 54.16C177.014 54.16 175.074 54.84 174.974 58V63H173.474ZM194.843 53.04V63H193.343V61.02C192.463 62.52 191.043 63.22 189.383 63.22C186.363 63.22 184.423 60.88 184.423 58.02C184.423 55.16 186.363 52.82 189.383 52.82C191.043 52.82 192.463 53.52 193.343 55.02V53.04H194.843ZM185.923 58.02C185.923 60.12 187.263 61.88 189.523 61.88C191.643 61.88 193.363 60.34 193.363 58.02C193.363 55.7 191.643 54.16 189.523 54.16C187.263 54.16 185.923 55.88 185.923 58.02ZM68.28 75.54V90H66.78V88.02C65.9 89.52 64.48 90.22 62.82 90.22C59.8 90.22 57.86 87.88 57.86 85.02C57.86 82.16 59.8 79.82 62.82 79.82C64.48 79.82 65.9 80.52 66.78 82.02V75.54H68.28ZM59.36 85.02C59.36 87.12 60.7 88.88 62.96 88.88C65.08 88.88 66.8 87.34 66.8 85.02C66.8 82.7 65.08 81.16 62.96 81.16C60.7 81.16 59.36 82.88 59.36 85.02ZM81.1706 80.04V90H79.6706V88.02C78.7906 89.52 77.3706 90.22 75.7106 90.22C72.6906 90.22 70.7506 87.88 70.7506 85.02C70.7506 82.16 72.6906 79.82 75.7106 79.82C77.3706 79.82 78.7906 80.52 79.6706 82.02V80.04H81.1706ZM72.2506 85.02C72.2506 87.12 73.5906 88.88 75.8506 88.88C77.9706 88.88 79.6906 87.34 79.6906 85.02C79.6906 82.7 77.9706 81.16 75.8506 81.16C73.5906 81.16 72.2506 82.88 72.2506 85.02ZM95.6305 81.98L94.2905 82.3C94.0105 81.46 93.3705 81.14 92.6905 81.14C91.5305 81.14 90.8705 81.92 90.8705 82.68C90.8705 83.5 91.5705 83.9 92.2505 84.12L93.7305 84.6C95.4905 85.18 96.1105 86.22 96.1105 87.32C96.1105 89.14 94.4505 90.22 92.6105 90.22C90.9105 90.22 89.3905 89.38 88.9305 87.84L90.2505 87.5C90.5505 88.34 91.4905 88.9 92.6105 88.9C93.7305 88.9 94.6105 88.28 94.6105 87.32C94.6105 86.54 94.0505 86.14 93.1905 85.86L91.7905 85.4C90.3705 84.94 89.3705 84.14 89.3705 82.74C89.3705 81.16 90.5905 79.82 92.5905 79.82C93.8905 79.82 95.2505 80.46 95.6305 81.98ZM99.8233 80.04V85.7C99.8233 88.14 101.103 88.88 102.383 88.88C103.483 88.88 105.743 88.12 105.783 84.88V80.04H107.283V90H105.783V87.88C105.243 89.48 103.763 90.22 102.283 90.22C100.123 90.22 98.3233 88.98 98.3233 85.7V80.04H99.8233ZM120.175 80.04V90H118.675V88.02C117.795 89.52 116.375 90.22 114.715 90.22C111.695 90.22 109.755 87.88 109.755 85.02C109.755 82.16 111.695 79.82 114.715 79.82C116.375 79.82 117.795 80.52 118.675 82.02V80.04H120.175ZM111.255 85.02C111.255 87.12 112.595 88.88 114.855 88.88C116.975 88.88 118.695 87.34 118.695 85.02C118.695 82.7 116.975 81.16 114.855 81.16C112.595 81.16 111.255 82.88 111.255 85.02ZM135.954 90V84.34C135.954 81.92 134.714 81.16 133.434 81.16C132.334 81.16 130.394 81.94 130.354 85.16V90H128.854V80.04H130.354V82.14C130.894 80.54 132.334 79.82 133.694 79.82C134.754 79.82 136.354 80.2 137.114 82.16C137.894 80.28 139.434 79.82 140.614 79.82C142.874 79.82 144.554 81.04 144.554 84.34V90H143.054V84.34C143.054 81.92 141.814 81.16 140.534 81.16C139.494 81.16 137.554 81.84 137.454 85V90H135.954ZM157.323 80.04V90H155.823V88.02C154.943 89.52 153.523 90.22 151.863 90.22C148.843 90.22 146.903 87.88 146.903 85.02C146.903 82.16 148.843 79.82 151.863 79.82C153.523 79.82 154.943 80.52 155.823 82.02V80.04H157.323ZM148.403 85.02C148.403 87.12 149.743 88.88 152.003 88.88C154.123 88.88 155.843 87.34 155.843 85.02C155.843 82.7 154.123 81.16 152.003 81.16C149.743 81.16 148.403 82.88 148.403 85.02ZM153.183 77.92C152.303 77.92 151.363 77.1 150.623 77.1C150.143 77.1 149.983 77.36 149.683 78.06L148.963 77.88C149.343 76.5 149.783 76 150.583 76C151.443 76 152.423 76.84 153.123 76.84C153.603 76.84 153.783 76.6 154.083 75.88L154.783 76.08C154.423 77.44 153.963 77.92 153.183 77.92ZM159.774 85.02C159.774 82.16 162.114 79.82 164.994 79.82C167.874 79.82 170.234 82.18 170.234 85.02C170.234 87.9 167.874 90.22 164.994 90.22C162.114 90.22 159.774 87.92 159.774 85.02ZM161.274 85.04C161.274 87.16 162.954 88.88 164.994 88.88C167.054 88.88 168.734 87.16 168.734 85.04C168.734 82.9 167.054 81.16 164.994 81.16C162.954 81.16 161.274 82.9 161.274 85.04Z" fill="#2F2F2F"/>
<line x1="41.5" y1="96.4355" x2="41.5" y2="17.9999" stroke="#11D9B8" stroke-width="3"/>
<line x1="41.5" y1="96.4355" x2="41.5" y2="17.9999" stroke="black" stroke-opacity="0.2" stroke-width="3"/>
</svg>
