<svg width="380" height="159" viewBox="0 0 380 159" fill="none" xmlns="http://www.w3.org/2000/svg">
<rect width="380" height="159" rx="28" fill="#F5F1EC"/>
<path d="M37.52 44.72H43.92L40.72 36.5L37.52 44.72ZM44.4 46H37.06L35.9 49H34.28L39.8 35H41.64L47.16 49H45.56L44.4 46ZM51.0375 49H49.4975V35H54.9575C57.5775 35 59.0375 37.02 59.0375 39.32C59.0375 41.64 57.5575 43.54 54.9575 43.54H51.0375V49ZM51.0375 42.26H54.6575C56.4175 42.26 57.4575 41 57.4575 39.3C57.4575 37.58 56.4175 36.28 54.6575 36.28H51.0375V42.26ZM69.9608 47.72V49H61.8608V35H63.4008V47.72H69.9608ZM73.8695 35V49H72.3295V35H73.8695ZM76.9136 42C76.9136 38.1 79.7136 34.78 84.4736 34.78C86.4936 34.78 87.8536 35.38 89.0536 36.28L88.4536 37.44C87.4736 36.72 86.0536 36.18 84.3936 36.18C80.7136 36.18 78.4936 38.86 78.4936 42C78.4936 45.16 80.7336 47.82 84.4136 47.82C86.0536 47.82 87.4736 47.3 88.4536 46.58L89.0536 47.76C87.8536 48.64 86.4936 49.22 84.4936 49.22C79.7136 49.22 76.9136 45.9 76.9136 42ZM93.2231 44.72H99.6231L96.4231 36.5L93.2231 44.72ZM100.103 46H92.7631L91.6031 49H89.9831L95.5031 35H97.3431L102.863 49H101.263L100.103 46ZM101.957 35H113.277V36.28H108.377V49H106.837V36.28H101.957V35ZM117.209 35V49H115.669V35H117.209ZM126.413 49H124.833L119.853 35H121.433L125.633 47.06L129.813 35H131.413L126.413 49ZM132.48 42C132.48 38.02 135.74 34.78 139.74 34.78C143.74 34.78 147 38.02 147 42C147 45.98 143.74 49.22 139.74 49.22C135.74 49.22 132.48 45.98 132.48 42ZM134.06 42C134.06 45.28 136.64 47.82 139.74 47.82C142.86 47.82 145.42 45.28 145.42 42C145.42 38.72 142.86 36.18 139.74 36.18C136.64 36.18 134.06 38.72 134.06 42ZM165.374 42C165.374 38.84 163.234 36.28 159.674 36.28H157.034V47.72H159.674C163.234 47.72 165.374 45.16 165.374 42ZM166.934 42C166.934 45.86 164.214 49 159.674 49H155.494V35H159.674C164.214 35 166.934 38.14 166.934 42ZM178.686 47.72V49H169.986V35H178.686V36.28H171.526V41.5H177.786V42.8H171.526V47.72H178.686ZM186.132 42C186.132 38.1 188.932 34.78 193.692 34.78C195.712 34.78 197.072 35.38 198.272 36.28L197.672 37.44C196.692 36.72 195.272 36.18 193.612 36.18C189.932 36.18 187.712 38.86 187.712 42C187.712 45.16 189.952 47.82 193.632 47.82C195.272 47.82 196.692 47.3 197.672 46.58L198.272 47.76C197.072 48.64 195.712 49.22 193.712 49.22C188.932 49.22 186.132 45.9 186.132 42ZM199.628 42C199.628 38.02 202.888 34.78 206.888 34.78C210.888 34.78 214.148 38.02 214.148 42C214.148 45.98 210.888 49.22 206.888 49.22C202.888 49.22 199.628 45.98 199.628 42ZM201.208 42C201.208 45.28 203.788 47.82 206.888 47.82C210.008 47.82 212.568 45.28 212.568 42C212.568 38.72 210.008 36.18 206.888 36.18C203.788 36.18 201.208 38.72 201.208 42ZM227.013 49L218.733 37.78V49H217.193V35H218.373L226.633 46.18V35H228.173V49H227.013ZM233.83 49H232.29V35H240.99V36.28H233.83V41.5H240.09V42.78H233.83V49ZM245.393 35V49H243.853V35H245.393ZM256.137 36.18C251.877 36.18 250.017 39.26 250.017 42.04C250.017 45.02 252.157 47.82 255.997 47.82C257.237 47.82 258.497 47.54 259.597 46.74V43.48H255.557V42.18H260.997V47.36C259.277 48.9 257.277 49.22 255.897 49.22C251.537 49.22 248.437 46 248.437 42.02C248.437 37.98 251.617 34.78 255.937 34.78C257.297 34.78 259.197 35.1 260.677 36.22L260.077 37.42C258.337 36.26 256.817 36.18 256.137 36.18ZM273.404 35H274.944V43.88C274.944 47.4 272.444 49.22 269.504 49.22C266.544 49.22 264.044 47.4 264.044 43.88V35H265.584V43.88C265.584 46.52 267.384 47.82 269.504 47.82C271.604 47.82 273.404 46.52 273.404 43.88V35ZM280.393 49H278.853V35H284.593C287.193 35 288.673 37.02 288.673 39.32C288.673 41.42 287.453 43.18 285.273 43.48C285.393 45.08 286.353 47.9 288.253 47.9C288.873 47.9 289.433 47.66 289.833 47.32C290.013 47.7 290.193 48.04 290.393 48.4C289.773 48.98 288.953 49.22 288.173 49.22C284.953 49.22 283.933 45.32 283.793 43.54H280.393V49ZM280.393 42.26H284.293C286.033 42.26 287.092 41 287.092 39.3C287.092 37.58 286.033 36.28 284.293 36.28H280.393V42.26ZM293.887 44.72H300.287L297.087 36.5L293.887 44.72ZM300.767 46H293.427L292.267 49H290.647L296.167 35H298.007L303.527 49H301.927L300.767 46ZM304.394 42C304.394 38.1 307.194 34.78 311.954 34.78C313.974 34.78 315.334 35.38 316.534 36.28L315.934 37.44C314.954 36.72 313.534 36.18 311.874 36.18C308.194 36.18 305.974 38.86 305.974 42C305.974 45.16 308.214 47.82 311.894 47.82C313.534 47.82 314.954 47.3 315.934 46.58L316.534 47.76C315.374 48.62 314.074 49.18 312.194 49.22C312.854 49.9 313.054 50.66 313.054 51.18C313.054 52.78 311.694 53.48 310.514 53.48C309.214 53.48 308.214 52.54 307.954 51.34L308.674 50.92C308.974 51.76 309.554 52.34 310.474 52.34C311.154 52.34 311.914 51.86 311.914 50.9C311.914 50.46 311.734 49.8 311.214 49.2C306.894 48.88 304.394 45.7 304.394 42ZM320.704 44.72H327.104L323.904 36.5L320.704 44.72ZM327.584 46H320.244L319.084 49H317.464L322.984 35H324.824L330.344 49H328.744L327.584 46ZM325.204 33.26C324.324 33.26 323.384 32.42 322.644 32.42C322.164 32.42 322.004 32.68 321.704 33.4L320.984 33.2C321.364 31.82 321.804 31.34 322.604 31.34C323.464 31.34 324.444 32.16 325.144 32.16C325.624 32.16 325.804 31.92 326.104 31.2L326.804 31.4C326.444 32.78 325.984 33.26 325.204 33.26ZM331.21 42C331.21 38.02 334.47 34.78 338.47 34.78C342.47 34.78 345.73 38.02 345.73 42C345.73 45.98 342.47 49.22 338.47 49.22C334.47 49.22 331.21 45.98 331.21 42ZM332.79 42C332.79 45.28 335.37 47.82 338.47 47.82C341.59 47.82 344.15 45.28 344.15 42C344.15 38.72 341.59 36.18 338.47 36.18C335.37 36.18 332.79 38.72 332.79 42Z" fill="#2F2F2F"/>
<path d="M60.6 101H59.06V87H64.52C67.14 87 68.6 89.02 68.6 91.32C68.6 93.64 67.12 95.54 64.52 95.54H60.6V101ZM60.6 94.26H64.22C65.98 94.26 67.02 93 67.02 91.3C67.02 89.58 65.98 88.28 64.22 88.28H60.6V94.26ZM80.2917 91.04V101H78.7917V99.02C77.9117 100.52 76.4917 101.22 74.8317 101.22C71.8117 101.22 69.8717 98.88 69.8717 96.02C69.8717 93.16 71.8117 90.82 74.8317 90.82C76.4917 90.82 77.9117 91.52 78.7917 93.02V91.04H80.2917ZM71.3717 96.02C71.3717 98.12 72.7117 99.88 74.9717 99.88C77.0917 99.88 78.8117 98.34 78.8117 96.02C78.8117 93.7 77.0917 92.16 74.9717 92.16C72.7117 92.16 71.3717 93.88 71.3717 96.02ZM85.0223 91.04V93.44C85.4023 91.84 86.4623 90.82 87.9623 90.82C88.2623 90.82 88.5423 90.88 88.7823 90.98V92.46C88.5223 92.32 88.1623 92.26 87.8623 92.26C86.5223 92.26 85.0223 93.42 85.0223 97.2V101H83.5223V91.04H85.0223ZM99.9792 91.04V101H98.4792V99.02C97.5992 100.52 96.1792 101.22 94.5192 101.22C91.4992 101.22 89.5592 98.88 89.5592 96.02C89.5592 93.16 91.4992 90.82 94.5192 90.82C96.1792 90.82 97.5992 91.52 98.4792 93.02V91.04H99.9792ZM91.0592 96.02C91.0592 98.12 92.3992 99.88 94.6592 99.88C96.7792 99.88 98.4992 98.34 98.4992 96.02C98.4992 93.7 96.7792 92.16 94.6592 92.16C92.3992 92.16 91.0592 93.88 91.0592 96.02ZM107.899 96.02C107.899 92.68 110.459 90.86 113.519 90.82C114.359 90.82 115.719 91.04 117.039 92L116.319 93.04C115.219 92.22 113.979 92.16 113.559 92.16C111.079 92.16 109.419 93.8 109.399 96.02C109.419 98.24 111.079 99.88 113.559 99.88C113.979 99.88 115.219 99.82 116.319 99L117.039 100.04C115.719 101 114.359 101.22 113.519 101.22C110.459 101.18 107.899 99.36 107.899 96.02ZM118.289 96.02C118.289 93.16 120.629 90.82 123.509 90.82C126.389 90.82 128.749 93.18 128.749 96.02C128.749 98.9 126.389 101.22 123.509 101.22C120.629 101.22 118.289 98.92 118.289 96.02ZM119.789 96.04C119.789 98.16 121.469 99.88 123.509 99.88C125.569 99.88 127.249 98.16 127.249 96.04C127.249 93.9 125.569 92.16 123.509 92.16C121.469 92.16 119.789 93.9 119.789 96.04ZM138.318 101V95.34C138.318 92.92 137.078 92.16 135.798 92.16C134.698 92.16 132.758 92.94 132.718 96.16V101H131.218V91.04H132.718V93.14C133.258 91.54 134.698 90.82 136.058 90.82C137.118 90.82 138.718 91.2 139.478 93.16C140.258 91.28 141.798 90.82 142.978 90.82C145.238 90.82 146.918 92.04 146.918 95.34V101H145.418V95.34C145.418 92.92 144.178 92.16 142.898 92.16C141.858 92.16 139.918 92.84 139.818 96V101H138.318ZM150.026 105.48V91.04H151.526V93.02C152.406 91.52 153.826 90.82 155.486 90.82C158.506 90.82 160.446 93.16 160.446 96.02C160.446 98.88 158.506 101.22 155.486 101.22C153.826 101.22 152.406 100.52 151.526 99.02V105.48H150.026ZM158.946 96.02C158.946 93.92 157.606 92.16 155.346 92.16C153.226 92.16 151.506 93.7 151.506 96.02C151.506 98.34 153.226 99.88 155.346 99.88C157.606 99.88 158.946 98.16 158.946 96.02ZM164.497 86.54V101H162.997V86.54H164.497ZM176.039 98.58L176.899 99.48C175.639 100.82 174.059 101.22 172.639 101.22C169.199 101.22 167.039 98.9 167.039 96.06C167.039 93.16 169.299 90.82 172.399 90.82C174.959 90.82 177.359 92.42 177.399 96H168.539C168.539 96.06 168.539 96.1 168.539 96.16C168.539 98.3 170.139 99.9 172.639 99.9C173.839 99.9 175.019 99.52 176.039 98.58ZM172.439 92.14C170.839 92.14 169.279 92.98 168.699 94.84H175.839C175.379 92.76 173.819 92.14 172.439 92.14ZM186.814 101V95.34C186.814 92.92 185.574 92.16 184.294 92.16C183.194 92.16 181.254 92.94 181.214 96.16V101H179.714V91.04H181.214V93.14C181.754 91.54 183.194 90.82 184.554 90.82C185.614 90.82 187.214 91.2 187.974 93.16C188.754 91.28 190.294 90.82 191.474 90.82C193.734 90.82 195.414 92.04 195.414 95.34V101H193.914V95.34C193.914 92.92 192.674 92.16 191.394 92.16C190.354 92.16 188.414 92.84 188.314 96V101H186.814ZM206.742 98.58L207.602 99.48C206.342 100.82 204.762 101.22 203.342 101.22C199.902 101.22 197.742 98.9 197.742 96.06C197.742 93.16 200.002 90.82 203.102 90.82C205.662 90.82 208.062 92.42 208.102 96H199.242C199.242 96.06 199.242 96.1 199.242 96.16C199.242 98.3 200.842 99.9 203.342 99.9C204.542 99.9 205.722 99.52 206.742 98.58ZM203.142 92.14C201.542 92.14 199.982 92.98 199.402 94.84H206.542C206.082 92.76 204.522 92.14 203.142 92.14ZM217.877 101V95.34C217.877 92.92 216.597 92.16 215.317 92.16C214.217 92.16 211.957 92.94 211.917 96.16V101H210.417V91.04H211.917V93.16C212.457 91.58 213.937 90.82 215.417 90.82C217.577 90.82 219.377 92.08 219.377 95.34V101H217.877ZM224.251 92.24V98C224.251 99.44 224.991 99.88 225.731 99.88C226.531 99.88 227.171 99.42 227.171 98.58C227.171 98.48 227.151 98.12 227.031 97.86H228.411C228.571 98.22 228.571 98.76 228.571 98.76C228.571 100.14 227.531 101.22 225.711 101.22C224.231 101.22 222.751 100.52 222.751 97.9V92.24H221.071V91.04H222.751L223.111 88.02H224.251V91.04H227.491V92.24H224.251ZM240.077 91.04V101H238.577V99.02C237.697 100.52 236.277 101.22 234.617 101.22C231.597 101.22 229.657 98.88 229.657 96.02C229.657 93.16 231.597 90.82 234.617 90.82C236.277 90.82 237.697 91.52 238.577 93.02V91.04H240.077ZM231.157 96.02C231.157 98.12 232.497 99.88 234.757 99.88C236.877 99.88 238.597 98.34 238.597 96.02C238.597 93.7 236.877 92.16 234.757 92.16C232.497 92.16 231.157 93.88 231.157 96.02ZM244.808 91.04V93.44C245.188 91.84 246.248 90.82 247.748 90.82C248.048 90.82 248.328 90.88 248.568 90.98V92.46C248.308 92.32 247.948 92.26 247.648 92.26C246.308 92.26 244.808 93.42 244.808 97.2V101H243.308V91.04H244.808ZM264.921 91.04V101H263.421V99.02C262.541 100.52 261.121 101.22 259.461 101.22C256.441 101.22 254.501 98.88 254.501 96.02C254.501 93.16 256.441 90.82 259.461 90.82C261.121 90.82 262.541 91.52 263.421 93.02V91.04H264.921ZM256.001 96.02C256.001 98.12 257.341 99.88 259.601 99.88C261.721 99.88 263.441 98.34 263.441 96.02C263.441 93.7 261.721 92.16 259.601 92.16C257.341 92.16 256.001 93.88 256.001 96.02ZM64.4 119.98L63.06 120.3C62.78 119.46 62.14 119.14 61.46 119.14C60.3 119.14 59.64 119.92 59.64 120.68C59.64 121.5 60.34 121.9 61.02 122.12L62.5 122.6C64.26 123.18 64.88 124.22 64.88 125.32C64.88 127.14 63.22 128.22 61.38 128.22C59.68 128.22 58.16 127.38 57.7 125.84L59.02 125.5C59.32 126.34 60.26 126.9 61.38 126.9C62.5 126.9 63.38 126.28 63.38 125.32C63.38 124.54 62.82 124.14 61.96 123.86L60.56 123.4C59.14 122.94 58.14 122.14 58.14 120.74C58.14 119.16 59.36 117.82 61.36 117.82C62.66 117.82 64.02 118.46 64.4 119.98ZM68.5928 118.04V123.7C68.5928 126.14 69.8728 126.88 71.1528 126.88C72.2528 126.88 74.5128 126.12 74.5528 122.88V118.04H76.0528V128H74.5528V125.88C74.0128 127.48 72.5328 128.22 71.0528 128.22C68.8928 128.22 67.0928 126.98 67.0928 123.7V118.04H68.5928ZM88.9441 118.04V128H87.4441V126.02C86.5641 127.52 85.1441 128.22 83.4841 128.22C80.4641 128.22 78.5241 125.88 78.5241 123.02C78.5241 120.16 80.4641 117.82 83.4841 117.82C85.1441 117.82 86.5641 118.52 87.4441 120.02V118.04H88.9441ZM80.0241 123.02C80.0241 125.12 81.3641 126.88 83.6241 126.88C85.7441 126.88 87.4641 125.34 87.4641 123.02C87.4641 120.7 85.7441 119.16 83.6241 119.16C81.3641 119.16 80.0241 120.88 80.0241 123.02ZM105.844 125.58L106.704 126.48C105.444 127.82 103.864 128.22 102.444 128.22C99.0039 128.22 96.8439 125.9 96.8439 123.06C96.8439 120.16 99.1039 117.82 102.204 117.82C104.764 117.82 107.164 119.42 107.204 123H98.3439C98.3439 123.06 98.3439 123.1 98.3439 123.16C98.3439 125.3 99.9439 126.9 102.444 126.9C103.644 126.9 104.824 126.52 105.844 125.58ZM102.244 119.14C100.644 119.14 99.0839 119.98 98.5039 121.84H105.644C105.184 119.76 103.624 119.14 102.244 119.14ZM113.343 123.68L109.743 128H107.943V127.86L112.343 122.78L108.343 118.18V118.04H110.063L113.343 121.94L116.623 118.04H118.343V118.18L114.343 122.78L118.743 127.86V128H116.943L113.343 123.68ZM120.612 132.48V118.04H122.112V120.02C122.992 118.52 124.412 117.82 126.072 117.82C129.092 117.82 131.032 120.16 131.032 123.02C131.032 125.88 129.092 128.22 126.072 128.22C124.412 128.22 122.992 127.52 122.112 126.02V132.48H120.612ZM129.532 123.02C129.532 120.92 128.192 119.16 125.932 119.16C123.812 119.16 122.092 120.7 122.092 123.02C122.092 125.34 123.812 126.88 125.932 126.88C128.192 126.88 129.532 125.16 129.532 123.02ZM141.723 125.58L142.583 126.48C141.323 127.82 139.743 128.22 138.323 128.22C134.883 128.22 132.723 125.9 132.723 123.06C132.723 120.16 134.983 117.82 138.083 117.82C140.643 117.82 143.043 119.42 143.083 123H134.223C134.223 123.06 134.223 123.1 134.223 123.16C134.223 125.3 135.823 126.9 138.323 126.9C139.523 126.9 140.703 126.52 141.723 125.58ZM138.123 119.14C136.523 119.14 134.963 119.98 134.383 121.84H141.523C141.063 119.76 139.503 119.14 138.123 119.14ZM146.897 118.04V120.44C147.277 118.84 148.337 117.82 149.837 117.82C150.137 117.82 150.417 117.88 150.657 117.98V119.46C150.397 119.32 150.037 119.26 149.737 119.26C148.397 119.26 146.897 120.42 146.897 124.2V128H145.397V118.04H146.897ZM154.028 118.04V128H152.528V118.04H154.028ZM152.188 114.7C152.188 114.06 152.648 113.58 153.268 113.58C153.888 113.58 154.368 114.06 154.368 114.7C154.368 115.34 153.888 115.8 153.268 115.8C152.648 115.8 152.188 115.34 152.188 114.7ZM165.57 125.58L166.43 126.48C165.17 127.82 163.59 128.22 162.17 128.22C158.73 128.22 156.57 125.9 156.57 123.06C156.57 120.16 158.83 117.82 161.93 117.82C164.49 117.82 166.89 119.42 166.93 123H158.07C158.07 123.06 158.07 123.1 158.07 123.16C158.07 125.3 159.67 126.9 162.17 126.9C163.37 126.9 164.55 126.52 165.57 125.58ZM161.97 119.14C160.37 119.14 158.81 119.98 158.23 121.84H165.37C164.91 119.76 163.35 119.14 161.97 119.14ZM176.705 128V122.34C176.705 119.92 175.425 119.16 174.145 119.16C173.045 119.16 170.785 119.94 170.745 123.16V128H169.245V118.04H170.745V120.16C171.285 118.58 172.765 117.82 174.245 117.82C176.405 117.82 178.205 119.08 178.205 122.34V128H176.705ZM180.516 123.02C180.516 119.68 183.076 117.86 186.136 117.82C186.976 117.82 188.336 118.04 189.656 119L188.936 120.04C187.836 119.22 186.596 119.16 186.176 119.16C183.696 119.16 182.036 120.8 182.016 123.02C182.036 125.24 183.696 126.88 186.176 126.88C186.596 126.88 187.836 126.82 188.936 126L189.656 127.04C188.336 128 186.976 128.22 186.136 128.22C183.076 128.18 180.516 126.36 180.516 123.02ZM193.481 118.04V128H191.981V118.04H193.481ZM191.641 114.7C191.641 114.06 192.101 113.58 192.721 113.58C193.341 113.58 193.821 114.06 193.821 114.7C193.821 115.34 193.341 115.8 192.721 115.8C192.101 115.8 191.641 115.34 191.641 114.7ZM206.464 118.04V128H204.964V126.02C204.084 127.52 202.664 128.22 201.004 128.22C197.984 128.22 196.044 125.88 196.044 123.02C196.044 120.16 197.984 117.82 201.004 117.82C202.664 117.82 204.084 118.52 204.964 120.02V118.04H206.464ZM197.544 123.02C197.544 125.12 198.884 126.88 201.144 126.88C203.264 126.88 204.984 125.34 204.984 123.02C204.984 120.7 203.264 119.16 201.144 119.16C198.884 119.16 197.544 120.88 197.544 123.02Z" fill="#2F2F2F"/>
<line x1="34.3828" y1="64.7202" x2="342.107" y2="64.7202" stroke="#11D9B8" stroke-width="3"/>
<line x1="34.3828" y1="64.7202" x2="342.107" y2="64.7202" stroke="black" stroke-opacity="0.2" stroke-width="3"/>
</svg>
