<svg width="584" height="553" viewBox="0 0 584 553" fill="none" xmlns="http://www.w3.org/2000/svg">
<ellipse cx="278.5" cy="276.5" rx="278.5" ry="276.5" fill="#EDE6DE"/>
<path d="M391.891 163H199.923C191.086 163 183.923 170.163 183.923 179V355.789H403.891C406.1 355.789 407.891 353.999 407.891 351.789V179C407.891 170.163 400.727 163 391.891 163Z" stroke="#173D2E" stroke-width="8"/>
<circle cx="32.4256" cy="32.4256" r="28.4256" transform="matrix(-1 0 0 1 375.727 327.367)" fill="#F5F1EC" stroke="#173D2E" stroke-width="8"/>
<path d="M182.422 190.18H114.047C108.675 190.18 103.528 192.341 99.7668 196.177L44.7205 252.316C41.0544 256.054 39.0008 261.082 39.0008 266.318V346.802C39.0008 351.22 42.5825 354.802 47.0008 354.802H182.422" stroke="#173D2E" stroke-width="8"/>
<circle cx="32.4256" cy="32.4256" r="28.4256" transform="matrix(-1 0 0 1 136.273 327.367)" fill="#F5F1EC" stroke="#173D2E" stroke-width="8"/>
<line x1="4" y1="-4" x2="128.197" y2="-4" transform="matrix(1 0 0 -1 451.805 218.859)" stroke="#173D2E" stroke-width="8" stroke-linecap="round"/>
<line x1="4" y1="-4" x2="99.5126" y2="-4" transform="matrix(1 -7.38572e-08 -1.0348e-07 -1 451.805 250.039)" stroke="#173D2E" stroke-width="8" stroke-linecap="round"/>
<line x1="4" y1="-4" x2="67.087" y2="-4" transform="matrix(1 -7.38572e-08 -1.0348e-07 -1 451.805 279.969)" stroke="#173D2E" stroke-width="8" stroke-linecap="round"/>
<path d="M83.27 213.875H132.273C134.483 213.875 136.273 215.666 136.273 217.875V253.525C136.273 255.734 134.483 257.525 132.273 257.525H47.7265" stroke="#173D2E" stroke-width="8" stroke-linecap="round" stroke-linejoin="round"/>
<path fill-rule="evenodd" clip-rule="evenodd" d="M295.908 233.726C305.451 218.221 330.828 224.638 330.828 244.857C330.828 258.045 322.071 269.633 313.623 277.78C309.366 281.881 305.115 285.185 301.932 287.46C300.34 288.598 299.011 289.483 298.071 290.083C297.6 290.382 297.238 290.614 296.983 290.771C296.855 290.846 296.761 290.907 296.694 290.948C296.66 290.968 296.633 290.982 296.613 290.996H296.607C296.56 291.023 296.513 291.05 296.459 291.077C296.278 291.159 296.09 291.2 295.908 291.2C295.72 291.2 295.532 291.159 295.358 291.077C295.304 291.057 295.257 291.03 295.21 290.996H295.203C295.183 290.982 295.163 290.968 295.123 290.948C295.055 290.907 294.955 290.846 294.834 290.771C294.579 290.614 294.209 290.382 293.746 290.083C292.812 289.483 291.483 288.598 289.885 287.46C286.701 285.185 282.451 281.888 278.193 277.78C269.745 269.633 260.988 258.052 260.988 244.857C260.988 224.638 286.366 218.221 295.908 233.726Z" fill="#D64315"/>
</svg>
