<svg width="88" height="43" viewBox="0 0 88 43" fill="none" xmlns="http://www.w3.org/2000/svg">
<rect y="0.697266" width="88" height="42" rx="5" fill="#D64315"/>
<path d="M18.9518 26.6973L19.6718 24.7323V24.7623H23.7968V24.7323L24.5468 26.6973H26.9768L22.8668 16.1973H20.6018L16.5518 26.6973H18.9518ZM21.7418 18.6573L23.1368 22.8573H20.3018L21.7418 18.6573ZM27.5808 24.8973C28.1058 26.5023 29.6658 26.8623 30.8058 26.8623C32.5008 26.8623 33.9558 26.0523 33.9558 24.4773C33.9558 23.9673 33.7908 22.7823 31.9758 22.2573L30.8208 21.8073C30.4308 21.6573 30.1008 21.4773 30.1008 21.1473C30.1008 20.7573 30.5358 20.5173 30.9558 20.5173C31.3008 20.5173 31.8558 20.6373 32.0508 21.2523L33.7758 20.4573C33.0558 19.0773 31.8858 18.8373 31.0008 18.8373C29.3508 18.8373 27.9858 19.6473 27.9858 21.1923C27.9858 21.5373 28.0758 22.7523 29.9058 23.3973L31.2558 23.9673C31.6758 24.1173 31.8258 24.2973 31.8258 24.5523C31.8258 24.9423 31.3158 25.1373 30.8208 25.1373C30.2058 25.1373 29.4258 24.8673 29.2008 23.9823L27.5808 24.8973ZM35.1025 24.8973C35.6275 26.5023 37.1875 26.8623 38.3275 26.8623C40.0225 26.8623 41.4775 26.0523 41.4775 24.4773C41.4775 23.9673 41.3125 22.7823 39.4975 22.2573L38.3425 21.8073C37.9525 21.6573 37.6225 21.4773 37.6225 21.1473C37.6225 20.7573 38.0575 20.5173 38.4775 20.5173C38.8225 20.5173 39.3775 20.6373 39.5725 21.2523L41.2975 20.4573C40.5775 19.0773 39.4075 18.8373 38.5225 18.8373C36.8725 18.8373 35.5075 19.6473 35.5075 21.1923C35.5075 21.5373 35.5975 22.7523 37.4275 23.3973L38.7775 23.9673C39.1975 24.1173 39.3475 24.2973 39.3475 24.5523C39.3475 24.9423 38.8375 25.1373 38.3425 25.1373C37.7275 25.1373 36.9475 24.8673 36.7225 23.9823L35.1025 24.8973ZM45.4892 26.6973V19.0023H43.2542V26.6973H45.4892ZM42.9842 16.9623C42.9842 17.6973 43.5842 18.2073 44.3942 18.2073C45.1892 18.2073 45.8192 17.6973 45.8192 16.9623C45.8192 16.2123 45.1892 15.6873 44.3942 15.6873C43.5842 15.6873 42.9842 16.2123 42.9842 16.9623ZM47.7429 26.6973H49.9779V22.5723C49.9779 21.5073 50.4129 20.6823 51.4479 20.6823C52.4829 20.6823 52.8729 21.4923 52.8729 22.5573V26.6973H55.1079V22.5123C55.1079 20.5623 54.5229 18.8373 52.3629 18.8373C51.4329 18.8373 50.6229 19.1523 49.9779 20.0523V19.0023H47.7429V26.6973ZM60.4371 23.1573C60.9321 23.1573 61.5471 23.2623 62.1621 23.4573V24.2823C61.6071 24.7773 61.0371 25.1073 60.0621 25.1073C59.3271 25.1073 58.9971 24.6273 58.9971 24.2523C58.9971 23.8323 59.2521 23.1573 60.4371 23.1573ZM59.4621 26.8623C60.6021 26.8623 61.5471 26.3673 62.1171 25.6473V26.6973H64.3521V22.2273C64.3521 20.8623 63.8871 18.8373 60.6471 18.8373C59.5371 18.8373 58.1721 19.0923 57.2271 20.0373L58.0521 21.4473C59.1321 20.6373 60.2421 20.7123 60.5121 20.7123C61.0671 20.7123 62.1171 21.1023 62.1171 22.0023C62.1171 22.0323 62.1171 22.1823 62.1171 22.2123C61.3371 21.9873 60.7071 21.8823 60.0021 21.8823C58.0971 21.8823 56.7321 22.8723 56.7321 24.3123C56.7321 26.0073 58.1421 26.8623 59.4621 26.8623ZM68.6527 19.0023H66.4777V26.6973H68.7127V22.5123C68.7127 21.4923 69.5527 20.9973 70.3927 20.9973C70.6177 20.9973 71.0227 21.0273 71.3377 21.1023V18.8973C71.0977 18.8523 71.0227 18.8373 70.7677 18.8373C70.0927 18.8373 68.9077 19.2873 68.6527 20.6823V19.0023Z" fill="#F5F1EC"/>
</svg>
