<svg width="280" height="113" viewBox="0 0 280 113" fill="none" xmlns="http://www.w3.org/2000/svg">
<path d="M38 38.7891L55.5 13.7891L50.5 32.7891H62.5L42.5 57.7891L48.5 38.7891H38Z" fill="#00FA9A"/>
<path d="M59.5 48.7891L54.1318 56.6624C53.2266 57.99 54.1774 59.7891 55.7843 59.7891H63.2157C64.8226 59.7891 65.7734 57.99 64.8682 56.6624L59.5 48.7891ZM59.5 48.7891L54.1318 40.9157C53.2266 39.5881 54.1774 37.7891 55.7843 37.7891H63.2157C64.8226 37.7891 65.7734 39.5881 64.8682 40.9157L61.5 45.8557" stroke="#2F2F2F" stroke-width="2" stroke-linecap="round"/>
<path d="M13.4813 82.1731L15.7213 76.1251L17.9933 82.1731H13.4813ZM18.4733 83.4691L19.3533 85.7891H20.9693L16.6493 74.5891H14.7933L10.4893 85.7891H12.1373L13.0013 83.4691H18.4733ZM23.6716 77.7891H22.1196V82.3011C22.1196 84.8771 23.4636 85.9651 25.1916 85.9651C26.5036 85.9651 27.5436 85.3251 27.8796 84.1891V85.7891H29.4316V77.7891H27.8796V81.5011C27.8796 84.0291 26.1356 84.5891 25.3036 84.5891C24.4556 84.5891 23.6716 83.9971 23.6716 82.3011V77.7891ZM33.8243 79.0051H36.3683V77.7891H33.8243V75.4851H32.6243L32.2723 77.7891H30.9603V79.0051H32.2723V83.2611C32.2723 85.3091 33.5043 85.9651 34.7682 85.9651C36.3203 85.9651 37.1363 85.0691 37.1363 83.9331C37.1363 83.9331 37.1363 83.3891 36.9923 83.0691C36.5283 83.0691 36.0963 83.0691 35.6323 83.0691C35.7443 83.3091 35.7603 83.6131 35.7603 83.7251C35.7603 84.3171 35.2803 84.6051 34.7843 84.6051C34.2563 84.6051 33.8243 84.2531 33.8243 83.3731V79.0051ZM37.9834 81.7891C37.9834 84.1091 39.8714 85.9651 42.1754 85.9651C44.4954 85.9651 46.3834 84.0931 46.3834 81.7891C46.3834 79.5011 44.4954 77.6131 42.1754 77.6131C39.8714 77.6131 37.9834 79.4851 37.9834 81.7891ZM39.5354 81.8051C39.5354 80.2531 40.7194 78.9891 42.1754 78.9891C43.6474 78.9891 44.8314 80.2531 44.8314 81.8051C44.8314 83.3411 43.6474 84.5891 42.1754 84.5891C40.7194 84.5891 39.5354 83.3411 39.5354 81.8051ZM53.992 85.7891H55.544V81.2771C55.544 78.7011 54.2 77.6131 52.472 77.6131C51.16 77.6131 50.12 78.2531 49.784 79.3891V77.7891H48.232V85.7891H49.784V82.0771C49.784 79.5491 51.528 78.9891 52.36 78.9891C53.208 78.9891 53.992 79.5811 53.992 81.2771V85.7891ZM57.2803 81.7891C57.2803 84.1091 59.1683 85.9651 61.4723 85.9651C63.7923 85.9651 65.6803 84.0931 65.6803 81.7891C65.6803 79.5011 63.7923 77.6131 61.4723 77.6131C59.1683 77.6131 57.2803 79.4851 57.2803 81.7891ZM58.8323 81.8051C58.8323 80.2531 60.0163 78.9891 61.4723 78.9891C62.9443 78.9891 64.1283 80.2531 64.1283 81.8051C64.1283 83.3411 62.9443 84.5891 61.4723 84.5891C60.0163 84.5891 58.8323 83.3411 58.8323 81.8051ZM72.9849 85.7891H74.5369V81.9011C74.6169 79.4531 76.0569 78.9891 76.8089 78.9891C77.6569 78.9891 78.4409 79.5811 78.4409 81.2771V85.7891H79.9929V81.2771C79.9929 78.7011 78.7929 77.6131 76.9049 77.6131C75.9449 77.6131 74.8409 77.9011 74.1849 79.2931C73.5609 77.8691 72.4089 77.6131 71.6409 77.6131C70.4569 77.6131 69.4169 78.2211 69.0809 79.3891V77.7891H67.5289V85.7891H69.0809V82.0771C69.0809 79.5491 70.5209 78.9891 71.3529 78.9891C72.2009 78.9891 72.9849 79.5811 72.9849 81.2771V85.7891ZM83.9414 85.7891H82.3894V77.7891H83.9414V85.7891ZM82.0854 75.2131C82.0854 75.8211 82.5494 76.2851 83.1574 76.2851C83.7654 76.2851 84.2454 75.8211 84.2454 75.2131C84.2454 74.6051 83.7654 74.1251 83.1574 74.1251C82.5494 74.1251 82.0854 74.6051 82.0854 75.2131ZM85.8588 81.7891C85.8588 84.0771 87.4268 85.9651 89.8268 85.9651C90.8988 85.9651 91.9548 85.5971 92.7228 84.5091V85.7891H94.2748V77.7891H92.7228V79.0691C91.9548 77.9811 90.8988 77.6131 89.8268 77.6131C87.4268 77.6131 85.8588 79.5011 85.8588 81.7891ZM92.7548 81.7891C92.7388 83.4051 91.6348 84.5891 90.0188 84.5891C88.3548 84.5891 87.4108 83.3091 87.4108 81.7891C87.4108 80.2691 88.3548 78.9891 90.0188 78.9891C91.6348 78.9891 92.7388 80.1731 92.7548 81.7891ZM15.4216 100.789C15.4216 103.077 16.9896 104.965 19.3896 104.965C20.4616 104.965 21.5176 104.597 22.2856 103.509V104.789H23.8376V93.2211H22.2856V98.0691C21.5176 96.9811 20.4616 96.6131 19.3896 96.6131C16.9896 96.6131 15.4216 98.5011 15.4216 100.789ZM22.3176 100.789C22.3016 102.405 21.1976 103.589 19.5816 103.589C17.9176 103.589 16.9736 102.309 16.9736 100.789C16.9736 99.2691 17.9176 97.9891 19.5816 97.9891C21.1976 97.9891 22.3016 99.1731 22.3176 100.789ZM32.8385 102.581C32.0385 103.269 31.1745 103.589 30.2145 103.589C28.4385 103.589 27.1905 102.485 27.2385 100.933H34.0705C34.0705 97.9731 32.1025 96.6131 29.9905 96.6131C27.5105 96.6131 25.6865 98.4851 25.6865 100.821C25.6865 103.093 27.4145 104.965 30.1985 104.965C31.3825 104.965 32.6785 104.629 33.7025 103.477L32.8385 102.581ZM30.0225 97.9731C30.9025 97.9731 32.0385 98.2771 32.4705 99.7331H27.3825C27.9105 98.3411 29.0785 97.9731 30.0225 97.9731ZM39.4529 96.6131L41.9969 95.4771V104.789H43.5489V93.5891H42.7649L39.0529 95.3171L39.4529 96.6131ZM45.5336 103.669C46.2696 104.341 47.6616 104.965 49.3256 104.965C52.1576 104.965 53.7256 103.349 53.7256 101.045C53.7256 99.1251 52.2536 97.3331 49.7896 97.3331C48.8456 97.3331 47.9336 97.6371 47.3416 98.2131L47.6136 94.9011H52.9096V93.5891H46.2056L45.8536 99.0771L46.9576 99.5731C47.6776 99.0451 48.6536 98.7411 49.5816 98.7411C51.3736 98.7411 52.2216 99.9251 52.2216 101.045C52.2216 102.405 51.3416 103.557 49.3576 103.557C48.4296 103.557 46.9576 103.141 46.4456 102.645L45.5336 103.669ZM59.2338 100.789C59.2338 103.077 60.8018 104.965 63.2018 104.965C64.2738 104.965 65.3298 104.597 66.0978 103.509V104.789H67.6498V96.7891H66.0978V98.0691C65.3298 96.9811 64.2738 96.6131 63.2018 96.6131C60.8018 96.6131 59.2338 98.5011 59.2338 100.789ZM66.1298 100.789C66.1138 102.405 65.0098 103.589 63.3938 103.589C61.7298 103.589 60.7858 102.309 60.7858 100.789C60.7858 99.2691 61.7298 97.9891 63.3938 97.9891C65.0098 97.9891 66.1138 99.1731 66.1298 100.789ZM75.867 104.789H77.419V100.277C77.419 97.7011 76.075 96.6131 74.347 96.6131C73.035 96.6131 71.995 97.2531 71.659 98.3891V96.7891H70.107V104.789H71.659V101.077C71.659 98.5491 73.403 97.9891 74.235 97.9891C75.083 97.9891 75.867 98.5811 75.867 100.277V104.789ZM79.1553 100.789C79.1553 103.109 81.0433 104.965 83.3473 104.965C85.6673 104.965 87.5553 103.093 87.5553 100.789C87.5553 98.5011 85.6673 96.6131 83.3473 96.6131C81.0433 96.6131 79.1553 98.4851 79.1553 100.789ZM80.7073 100.805C80.7073 99.2531 81.8913 97.9891 83.3473 97.9891C84.8193 97.9891 86.0033 99.2531 86.0033 100.805C86.0033 102.341 84.8193 103.589 83.3473 103.589C81.8913 103.589 80.7073 102.341 80.7073 100.805ZM94.3799 98.5171C93.9319 97.0771 92.8279 96.6131 91.7079 96.6131C90.1239 96.6131 89.0679 97.6371 89.0679 98.9971C89.0679 100.101 89.7559 100.789 91.0359 101.173L92.1079 101.541C92.6679 101.733 93.1159 102.005 93.1159 102.549C93.1159 103.173 92.5399 103.637 91.7399 103.637C90.9239 103.637 90.2039 103.173 90.0119 102.533L88.6359 102.869C89.0039 104.245 90.3159 104.965 91.7239 104.965C93.2759 104.965 94.6039 104.085 94.6039 102.565C94.6039 101.717 94.2039 100.773 92.6839 100.309L91.5319 99.9251C91.0519 99.7651 90.5719 99.4931 90.5719 98.9651C90.5719 98.3891 91.0359 97.9411 91.7559 97.9411C92.2519 97.9411 92.7479 98.1011 93.0039 98.8211L94.3799 98.5171Z" fill="#2F2F2F"/>
<path fill-rule="evenodd" clip-rule="evenodd" d="M201 57.7891C202.333 57.7891 213 48.4557 213 37.7891C213 31.1616 207.627 25.7891 201 25.7891C194.373 25.7891 189 31.1616 189 37.7891C189 48.4557 199.667 57.7891 201 57.7891ZM203 36.7891C205.209 36.7891 207 34.9982 207 32.7891C207 30.5799 205.209 28.7891 203 28.7891C200.791 28.7891 199 30.5799 199 32.7891C199 34.9982 200.791 36.7891 203 36.7891Z" fill="#D64315"/>
<path d="M201 21.7891C205.45 21.7891 209.476 23.6058 212.376 26.538" stroke="#2F2F2F" stroke-width="2" stroke-linecap="round"/>
<path d="M201 16.7891C206.783 16.7891 212.02 19.1267 215.818 22.9085" stroke="#2F2F2F" stroke-width="2" stroke-linecap="round"/>
<path d="M189 59.7891H213" stroke="#2F2F2F" stroke-width="2" stroke-linecap="round" stroke-linejoin="round"/>
<path d="M148.007 87.4771H142.887V77.5891H141.287V88.7891H148.007V87.4771ZM148.608 84.7891C148.608 87.1091 150.496 88.9651 152.8 88.9651C155.12 88.9651 157.008 87.0931 157.008 84.7891C157.008 82.5011 155.12 80.6131 152.8 80.6131C150.496 80.6131 148.608 82.4851 148.608 84.7891ZM150.16 84.8051C150.16 83.2531 151.344 81.9891 152.8 81.9891C154.272 81.9891 155.456 83.2531 155.456 84.8051C155.456 86.3411 154.272 87.5891 152.8 87.5891C151.344 87.5891 150.16 86.3411 150.16 84.8051ZM158.265 84.8851C158.265 87.1571 159.929 88.9651 162.761 88.9651C163.481 88.9651 164.553 88.7891 165.625 87.9891L164.889 86.9331C164.041 87.5731 163.033 87.5891 162.825 87.5891C161.097 87.5891 159.817 86.4371 159.817 84.7891C159.817 83.1411 161.097 81.9891 162.825 81.9891C163.033 81.9891 164.041 82.0051 164.889 82.6451L165.625 81.5891C164.553 80.7891 163.481 80.6131 162.761 80.6131C159.849 80.6131 158.265 82.5331 158.265 84.8851ZM166.562 84.7891C166.562 87.0771 168.13 88.9651 170.53 88.9651C171.602 88.9651 172.658 88.5971 173.426 87.5091V88.7891H174.978V80.7891H173.426V82.0691C172.658 80.9811 171.602 80.6131 170.53 80.6131C168.13 80.6131 166.562 82.5011 166.562 84.7891ZM173.458 84.7891C173.442 86.4051 172.338 87.5891 170.722 87.5891C169.058 87.5891 168.114 86.3091 168.114 84.7891C168.114 83.2691 169.058 81.9891 170.722 81.9891C172.338 81.9891 173.442 83.1731 173.458 84.7891ZM179.035 77.2211H177.483V88.7891H179.035V77.2211ZM183.145 88.7891H181.593V80.7891H183.145V88.7891ZM181.289 78.2131C181.289 78.8211 181.753 79.2851 182.361 79.2851C182.969 79.2851 183.449 78.8211 183.449 78.2131C183.449 77.6051 182.969 77.1251 182.361 77.1251C181.753 77.1251 181.289 77.6051 181.289 78.2131ZM192.822 88.7891L192.838 87.5411H187.078L192.486 81.7651V80.7891H185.254V82.0371H190.31L184.902 87.8131V88.7891H192.822ZM193.859 84.7891C193.859 87.0771 195.427 88.9651 197.827 88.9651C198.899 88.9651 199.955 88.5971 200.723 87.5091V88.7891H202.275V80.7891H200.723V82.0691C199.955 80.9811 198.899 80.6131 197.827 80.6131C195.427 80.6131 193.859 82.5011 193.859 84.7891ZM200.755 84.7891C200.739 86.4051 199.635 87.5891 198.019 87.5891C196.355 87.5891 195.411 86.3091 195.411 84.7891C195.411 83.2691 196.355 81.9891 198.019 81.9891C199.635 81.9891 200.739 83.1731 200.755 84.7891ZM208.78 88.9651C209.484 88.9331 210.492 88.7411 211.5 87.9891L210.764 86.9331C209.916 87.5731 208.908 87.5891 208.7 87.5891C206.972 87.5891 205.692 86.4371 205.692 84.7891C205.692 83.1411 206.972 81.9891 208.7 81.9891C208.908 81.9891 209.916 82.0051 210.764 82.6451L211.5 81.5891C210.428 80.7891 209.356 80.6131 208.636 80.6131C205.724 80.6131 204.14 82.5331 204.14 84.8851C204.14 86.9331 205.484 88.5971 207.836 88.9011C208.172 89.3811 208.316 89.8931 208.316 90.2291C208.316 90.8531 207.82 91.2051 207.372 91.2051C206.812 91.2051 206.332 90.8531 206.06 90.2611L205.372 90.6451C205.596 91.6051 206.38 92.3571 207.42 92.3571C208.332 92.3571 209.452 91.8451 209.452 90.5491C209.452 90.1171 209.292 89.5251 208.78 88.9651ZM219.269 77.6051L218.565 77.3971C218.341 77.9731 218.181 78.1811 217.797 78.1811C217.285 78.1811 216.469 77.5411 215.797 77.5411C215.093 77.5411 214.693 78.0211 214.389 79.2051L215.093 79.4131C215.317 78.8371 215.477 78.6291 215.861 78.6291C216.373 78.6291 217.189 79.2691 217.861 79.2691C218.565 79.2691 218.965 78.7891 219.269 77.6051ZM212.453 84.7891C212.453 82.5011 214.021 80.6131 216.421 80.6131C217.493 80.6131 218.549 80.9811 219.317 82.0691V80.7891H220.869V88.7891H219.317V87.5091C218.549 88.5971 217.493 88.9651 216.421 88.9651C214.021 88.9651 212.453 87.0771 212.453 84.7891ZM219.349 84.7891C219.333 83.1731 218.229 81.9891 216.613 81.9891C214.949 81.9891 214.005 83.2691 214.005 84.7891C214.005 86.3091 214.949 87.5891 216.613 87.5891C218.229 87.5891 219.333 86.4051 219.349 84.7891ZM222.718 84.7891C222.718 87.1091 224.606 88.9651 226.91 88.9651C229.23 88.9651 231.118 87.0931 231.118 84.7891C231.118 82.5011 229.23 80.6131 226.91 80.6131C224.606 80.6131 222.718 82.4851 222.718 84.7891ZM224.27 84.8051C224.27 83.2531 225.454 81.9891 226.91 81.9891C228.382 81.9891 229.566 83.2531 229.566 84.8051C229.566 86.3411 228.382 87.5891 226.91 87.5891C225.454 87.5891 224.27 86.3411 224.27 84.8051ZM243.729 86.5811C242.929 87.2691 242.065 87.5891 241.105 87.5891C239.329 87.5891 238.081 86.4851 238.129 84.9331H244.961C244.961 81.9731 242.993 80.6131 240.881 80.6131C238.401 80.6131 236.577 82.4851 236.577 84.8211C236.577 87.0931 238.305 88.9651 241.089 88.9651C242.273 88.9651 243.569 88.6291 244.593 87.4771L243.729 86.5811ZM240.913 81.9731C241.793 81.9731 242.929 82.2771 243.361 83.7331H238.273C238.801 82.3411 239.969 81.9731 240.913 81.9731ZM252.157 88.7891H253.709V84.9011C253.789 82.4531 255.229 81.9891 255.981 81.9891C256.829 81.9891 257.613 82.5811 257.613 84.2771V88.7891H259.165V84.2771C259.165 81.7011 257.965 80.6131 256.077 80.6131C255.117 80.6131 254.013 80.9011 253.357 82.2931C252.733 80.8691 251.581 80.6131 250.813 80.6131C249.629 80.6131 248.589 81.2211 248.253 82.3891V80.7891H246.701V88.7891H248.253V85.0771C248.253 82.5491 249.693 81.9891 250.525 81.9891C251.373 81.9891 252.157 82.5811 252.157 84.2771V88.7891ZM160.785 101.005H163.329V99.7891H160.785V97.4851H159.585L159.233 99.7891H157.921V101.005H159.233V105.261C159.233 107.309 160.465 107.965 161.729 107.965C163.281 107.965 164.097 107.069 164.097 105.933C164.097 105.933 164.097 105.389 163.953 105.069C163.489 105.069 163.057 105.069 162.593 105.069C162.705 105.309 162.721 105.613 162.721 105.725C162.721 106.317 162.241 106.605 161.745 106.605C161.217 106.605 160.785 106.253 160.785 105.373V101.005ZM172.096 105.581C171.296 106.269 170.432 106.589 169.472 106.589C167.696 106.589 166.448 105.485 166.496 103.933H173.328C173.328 100.973 171.36 99.6131 169.248 99.6131C166.768 99.6131 164.944 101.485 164.944 103.821C164.944 106.093 166.672 107.965 169.456 107.965C170.64 107.965 171.936 107.629 172.96 106.477L172.096 105.581ZM169.28 100.973C170.16 100.973 171.296 101.277 171.728 102.733H166.64C167.168 101.341 168.336 100.973 169.28 100.973ZM180.524 107.789H182.076V103.901C182.156 101.453 183.596 100.989 184.348 100.989C185.196 100.989 185.98 101.581 185.98 103.277V107.789H187.532V103.277C187.532 100.701 186.332 99.6131 184.444 99.6131C183.484 99.6131 182.38 99.9011 181.724 101.293C181.1 99.8691 179.948 99.6131 179.18 99.6131C177.996 99.6131 176.956 100.221 176.62 101.389V99.7891H175.068V107.789H176.62V104.077C176.62 101.549 178.06 100.989 178.892 100.989C179.74 100.989 180.524 101.581 180.524 103.277V107.789ZM198.296 103.789C198.296 101.501 196.728 99.6131 194.328 99.6131C193.256 99.6131 192.2 99.9811 191.432 101.069V99.7891H189.88V111.373H191.432V106.509C192.2 107.597 193.256 107.965 194.328 107.965C196.728 107.965 198.296 106.077 198.296 103.789ZM191.4 103.789C191.416 102.173 192.52 100.989 194.136 100.989C195.8 100.989 196.744 102.269 196.744 103.789C196.744 105.309 195.8 106.589 194.136 106.589C192.52 106.589 191.416 105.405 191.4 103.789ZM199.554 103.789C199.554 106.109 201.442 107.965 203.746 107.965C206.066 107.965 207.954 106.093 207.954 103.789C207.954 101.501 206.066 99.6131 203.746 99.6131C201.442 99.6131 199.554 101.485 199.554 103.789ZM201.106 103.805C201.106 102.253 202.29 100.989 203.746 100.989C205.218 100.989 206.402 102.253 206.402 103.805C206.402 105.341 205.218 106.589 203.746 106.589C202.29 106.589 201.106 105.341 201.106 103.805ZM215.573 99.7891H214.021V107.789H215.573V104.765C215.573 101.357 217.077 101.101 217.605 101.101C217.893 101.101 218.197 101.165 218.453 101.309V99.7891C218.229 99.6931 218.005 99.6131 217.717 99.6131C216.725 99.6131 215.845 100.333 215.573 101.597V99.7891ZM226.253 105.581C225.453 106.269 224.589 106.589 223.629 106.589C221.853 106.589 220.605 105.485 220.653 103.933H227.485C227.485 100.973 225.517 99.6131 223.405 99.6131C220.925 99.6131 219.101 101.485 219.101 103.821C219.101 106.093 220.829 107.965 223.613 107.965C224.797 107.965 226.093 107.629 227.117 106.477L226.253 105.581ZM223.437 100.973C224.317 100.973 225.453 101.277 225.885 102.733H220.797C221.325 101.341 222.493 100.973 223.437 100.973ZM228.632 103.789C228.632 106.077 230.2 107.965 232.6 107.965C233.672 107.965 234.728 107.597 235.496 106.509V107.789H237.048V99.7891H235.496V101.069C234.728 99.9811 233.672 99.6131 232.6 99.6131C230.2 99.6131 228.632 101.501 228.632 103.789ZM235.528 103.789C235.512 105.405 234.408 106.589 232.792 106.589C231.128 106.589 230.184 105.309 230.184 103.789C230.184 102.269 231.128 100.989 232.792 100.989C234.408 100.989 235.512 102.173 235.528 103.789ZM241.105 96.2211H239.553V107.789H241.105V96.2211Z" fill="#2F2F2F"/>
</svg>
