<svg width="340" height="138" viewBox="0 0 340 138" fill="none" xmlns="http://www.w3.org/2000/svg">
<path d="M37.2407 55.6037H46.4688V0.860252H34.3471V33.8627L10.26 0.860252H0.953613V55.5254H13.0754V22.2884L37.2407 55.6037Z" fill="#2F2F2F"/>
<path d="M56.0153 28.232C56.0153 43.7947 68.7627 56.4639 84.4819 56.4639C100.123 56.4639 112.87 43.7947 112.87 28.232C112.87 12.6692 100.123 0 84.4819 0C68.7627 0 56.0153 12.6692 56.0153 28.232ZM67.9807 28.232C67.9807 18.2217 75.4101 11.1051 84.4819 11.1051C93.4755 11.1051 100.905 18.2217 100.905 28.232C100.905 38.2422 93.4755 45.3588 84.4819 45.3588C75.4101 45.3588 67.9807 38.2422 67.9807 28.232Z" fill="#2F2F2F"/>
<path d="M134.254 55.6037H145.438L164.833 0.860252H152.007L139.885 39.7281L127.763 0.860252H114.938L134.254 55.6037Z" fill="#2F2F2F"/>
<path d="M166.907 28.232C166.907 43.7947 179.655 56.4639 195.374 56.4639C211.015 56.4639 223.762 43.7947 223.762 28.232C223.762 12.6692 211.015 0 195.374 0C179.655 0 166.907 12.6692 166.907 28.232ZM178.873 28.232C178.873 18.2217 186.302 11.1051 195.374 11.1051C204.367 11.1051 211.797 18.2217 211.797 28.232C211.797 38.2422 204.367 45.3588 195.374 45.3588C186.302 45.3588 178.873 38.2422 178.873 28.232Z" fill="#2F2F2F"/>
<path d="M31.8573 135.813V129.012H36.4774C39.8911 129.012 41.8931 126.522 41.8931 123.493C41.8931 120.464 39.9168 117.846 36.4774 117.846H29.2905V135.813H31.8573ZM31.8573 126.958V119.951H35.9383C37.9661 119.951 39.2237 121.388 39.2237 123.467C39.2237 125.521 37.9917 126.958 35.9383 126.958H31.8573Z" fill="#2F2F2F"/>
<path d="M56.0877 133.709H47.8742V117.846H45.3075V135.813H56.0877V133.709Z" fill="#2F2F2F"/>
<path d="M61.6114 130.013L65.2048 120.31L68.8495 130.013H61.6114ZM69.6196 132.092L71.0313 135.813H73.6237L66.6935 117.846H63.7161L56.8116 135.813H59.4553L60.8414 132.092H69.6196Z" fill="#2F2F2F"/>
<path d="M88.887 135.813H90.7864V117.846H88.194V131.091L78.3635 117.846H76.4641V135.813H79.0308V122.518L88.887 135.813Z" fill="#2F2F2F"/>
<path d="M94.4801 126.83C94.4801 131.938 98.6638 136.096 103.797 136.096C108.931 136.096 113.115 131.938 113.115 126.83C113.115 121.722 108.931 117.564 103.797 117.564C98.6638 117.564 94.4801 121.722 94.4801 126.83ZM97.0981 126.83C97.0981 122.877 100.127 119.874 103.797 119.874C107.468 119.874 110.496 122.877 110.496 126.83C110.496 130.783 107.468 133.786 103.797 133.786C100.127 133.786 97.0981 130.783 97.0981 126.83Z" fill="#2F2F2F"/>
<path d="M297.255 63.1984C298.989 61.0927 302.224 61.0927 303.959 63.1984L306.357 66.1104C307.577 67.5906 309.629 68.0945 311.399 67.3482L314.882 65.88C317.4 64.8184 320.264 66.3157 320.818 68.9831L321.583 72.6718C321.972 74.5469 323.554 75.9429 325.47 76.1015L329.239 76.4136C331.964 76.6392 333.801 79.2908 333.047 81.9088L332.003 85.5292C331.473 87.3696 332.222 89.338 333.845 90.3652L337.036 92.3859C339.344 93.8472 339.734 97.0455 337.844 99.0144L335.231 101.737C333.903 103.121 333.648 105.211 334.605 106.872L336.488 110.138C337.85 112.5 336.703 115.513 334.111 116.381L330.527 117.583C328.705 118.193 327.504 119.926 327.577 121.839L327.72 125.603C327.824 128.325 325.403 130.461 322.702 130.031L318.968 129.436C317.07 129.133 315.198 130.111 314.37 131.839L312.741 135.238C311.563 137.696 308.422 138.467 306.232 136.836L303.203 134.581C301.664 133.434 299.55 133.434 298.01 134.581L294.982 136.836C292.792 138.467 289.651 137.696 288.473 135.238L286.843 131.839C286.015 130.111 284.143 129.133 282.245 129.436L278.511 130.031C275.811 130.461 273.39 128.325 273.493 125.603L273.636 121.839C273.709 119.926 272.509 118.193 270.687 117.583L267.102 116.381C264.511 115.513 263.364 112.5 264.725 110.138L266.608 106.872C267.565 105.211 267.311 103.121 265.982 101.737L263.369 99.0144C261.48 97.0455 261.869 93.8472 264.177 92.386L267.369 90.3652C268.991 89.338 269.74 87.3696 269.21 85.5292L268.167 81.9088C267.412 79.2907 269.25 76.6392 271.975 76.4136L275.744 76.1015C277.659 75.9429 279.241 74.5469 279.63 72.6718L280.396 68.9831C280.949 66.3157 283.813 64.8184 286.332 65.88L289.814 67.3482C291.584 68.0945 293.637 67.5906 294.856 66.1104L297.255 63.1984Z" fill="#00FA9A"/>
<path d="M296.311 103.841H281.848V94.3087H296.311V79.8164H305.902V94.2312H320.287V103.841H305.902V118.256H296.311V103.841Z" fill="#2F2F2F"/>
<path d="M135.277 135.814H146.403L165.698 81.351H152.938L140.878 120.02L128.819 81.351H116.059L135.277 135.814Z" fill="#2F2F2F"/>
<path d="M186.193 104.459C190.083 104.459 195.296 106.404 196.074 111.539H176.079C177.479 106.17 182.459 104.459 186.193 104.459ZM199.109 122.431C196.308 125.077 192.184 127.177 188.06 127.177C180.669 127.177 176.079 123.521 175.845 118.541H207.978C207.978 102.669 197.397 95.0445 186.349 95.0445C173.511 95.0445 164.33 104.303 164.33 116.052C164.33 127.411 172.422 136.67 187.205 136.67C192.573 136.67 200.12 135.036 205.8 128.811L199.109 122.431Z" fill="#2F2F2F"/>
<path d="M226.512 135.814V79.5615H214.919V135.814H226.512Z" fill="#2F2F2F"/>
<path d="M253.218 117.452C255.786 117.452 258.976 117.997 262.166 119.008V123.287C259.287 125.855 256.33 127.566 251.273 127.566C247.461 127.566 245.749 125.077 245.749 123.132C245.749 120.953 247.072 117.452 253.218 117.452ZM248.161 136.67C254.074 136.67 258.976 134.102 261.932 130.367V135.814H273.525V112.628C273.525 105.548 271.113 95.0445 254.307 95.0445C248.55 95.0445 241.47 96.3671 236.568 101.269L240.847 108.582C246.449 104.381 252.207 104.77 253.607 104.77C256.486 104.77 261.932 106.793 261.932 111.461C261.932 111.617 261.932 112.395 261.932 112.55C257.886 111.383 254.619 110.839 250.962 110.839C241.081 110.839 234.001 115.974 234.001 123.443C234.001 132.235 241.314 136.67 248.161 136.67Z" fill="#2F2F2F"/>
</svg>
