<svg width="278" height="134" viewBox="0 0 278 134" fill="none" xmlns="http://www.w3.org/2000/svg">
<path d="M147.102 58.0211L140.097 37.1729" stroke="#928C86" stroke-width="1.5" stroke-linecap="square" stroke-linejoin="round"/>
<path d="M108.003 83.4674L90.1172 26.6094M95.2326 25.001L113.738 83.8322" stroke="#928C86" stroke-width="1.5" stroke-linecap="square" stroke-linejoin="round"/>
<path d="M90.6011 35.8678L98.9509 33.231" stroke="#928C86" stroke-width="1.5" stroke-linecap="square" stroke-linejoin="round"/>
<path d="M62.3827 97.6561C63.549 97.6625 64.7051 97.4388 65.7849 96.998C66.8647 96.5571 67.847 95.9077 68.6755 95.0869C69.5041 94.2661 70.1628 93.29 70.6138 92.2144C71.0647 91.1388 71.2993 89.9848 71.3039 88.8185C71.3096 87.6524 71.0856 86.4965 70.6446 85.4169C70.2035 84.3374 69.554 83.3554 68.7333 82.5269C67.9126 81.6985 66.9367 81.0398 65.8614 80.5886C64.7861 80.1374 63.6324 79.9025 62.4662 79.8973C61.3001 79.8915 60.1442 80.1156 59.0646 80.5566C57.9851 80.9977 57.0031 81.6471 56.1746 82.4678C55.3461 83.2885 54.6875 84.2645 54.2363 85.3398C53.7851 86.4151 53.5502 87.5688 53.545 88.7349C53.5392 89.9011 53.7633 91.057 54.2043 92.1365C54.6454 93.216 55.2949 94.1981 56.1156 95.0266C56.9363 95.8551 57.9122 96.5136 58.9875 96.9648C60.0628 97.416 61.2165 97.6509 62.3827 97.6561V97.6561Z" stroke="#928C86" stroke-width="1.5" stroke-linecap="round" stroke-linejoin="round"/>
<path d="M184.18 128.641C194.602 128.688 204.616 124.594 212.021 117.259C219.425 109.925 223.614 99.9503 223.666 89.5284C223.714 79.106 219.621 69.0915 212.286 61.6868C204.951 54.282 194.976 50.0936 184.554 50.0424C174.131 49.9945 164.117 54.0879 156.712 61.4226C149.307 68.7573 145.119 78.7326 145.068 89.1549C145.022 99.5765 149.116 109.59 156.451 116.994C163.785 124.398 173.759 128.587 184.18 128.641V128.641Z" stroke="#928C86" stroke-width="1.5" stroke-linecap="round" stroke-linejoin="round"/>
<path d="M179.403 45.7144C168.722 46.9301 158.859 52.0218 151.683 60.0245C144.507 68.0271 140.515 78.3846 140.466 89.1336C140.418 96.7586 142.368 104.263 146.122 110.9" stroke="#928C86" stroke-width="1.5" stroke-linecap="square" stroke-linejoin="round"/>
<path d="M184.203 123.45C193.252 123.491 201.947 119.935 208.376 113.566C214.804 107.196 218.439 98.5334 218.481 89.4838C218.502 85.0027 217.64 80.5613 215.944 76.4134C214.248 72.2655 211.752 68.4923 208.598 65.3092C205.444 62.1261 201.693 59.5955 197.561 57.8619C193.429 56.1283 188.996 55.2256 184.515 55.2054C180.033 55.1846 175.592 56.0467 171.444 57.7425C167.296 59.4382 163.523 61.9344 160.34 65.0885C157.157 68.2426 154.626 71.9929 152.893 76.1251C151.159 80.2574 150.256 84.6906 150.236 89.1717C150.215 93.6529 151.077 98.0945 152.772 102.243C154.468 106.391 156.964 110.164 160.118 113.348C163.272 116.531 167.023 119.061 171.155 120.795C175.288 122.528 179.721 123.43 184.203 123.45Z" stroke="#928C86" stroke-width="1.5" stroke-linecap="round" stroke-linejoin="round"/>
<path d="M101.723 87.9053C101.492 77.6684 97.2758 67.9256 89.9712 60.7499C82.6666 53.5741 72.8503 49.5318 62.6109 49.4829C52.1882 49.4338 42.1729 53.5269 34.7679 60.8618C27.363 68.1967 23.1749 78.1727 23.1249 88.5953C23.0793 99.0169 27.1735 109.03 34.5077 116.434C41.8418 123.839 51.8158 128.028 62.2374 128.081C70.6854 128.123 78.9224 125.444 85.7292 120.44C92.536 115.436 97.5684 108.106 100.049 100.03" stroke="#928C86" stroke-width="1.5" stroke-linecap="round" stroke-linejoin="round"/>
<path d="M62.268 122.901C71.3176 122.942 80.0129 119.387 86.4413 113.017C92.8696 106.647 96.5044 97.9846 96.5463 88.935C96.5671 84.4539 95.7051 80.0125 94.0093 75.8646C92.3135 71.7167 89.8173 67.9435 86.6632 64.7604C83.5091 61.5773 79.7588 59.0467 75.6266 57.313C71.4943 55.5794 67.0611 54.6768 62.58 54.6566C58.0992 54.6358 53.6583 55.4977 49.5107 57.1932C45.3631 58.8887 41.59 61.3845 38.407 64.5382C35.2239 67.6918 32.6932 71.4416 30.9594 75.5733C29.2255 79.705 28.3224 84.1378 28.3016 88.6186C28.2808 93.0999 29.1429 97.5413 30.8386 101.689C32.5343 105.838 35.0305 109.611 38.1845 112.795C41.3386 115.978 45.0888 118.509 49.2211 120.243C53.3533 121.977 57.7867 122.88 62.268 122.901V122.901Z" stroke="#928C86" stroke-width="1.5" stroke-linecap="round" stroke-linejoin="round"/>
<path d="M97.3069 62.125C93.2347 56.7842 87.9889 52.4513 81.9751 49.4611C75.9612 46.471 69.3404 44.9037 62.6243 44.8803C50.9836 44.8278 39.7988 49.4013 31.5301 57.595C23.2614 65.7887 18.5861 76.9313 18.5326 88.572C18.5244 90.5113 18.6434 92.4491 18.8886 94.3729" stroke="#928C86" stroke-width="1.5" stroke-linecap="square"/>
<path d="M94.5558 38.7222L64.3909 85.1781" stroke="#928C86" stroke-width="1.5" stroke-linecap="square" stroke-linejoin="round"/>
<path d="M99.1656 93.2525L62.4263 88.7788" stroke="#928C86" stroke-width="1.5" stroke-linecap="square" stroke-linejoin="round"/>
<path d="M120.326 87.3216L163.332 40.4834" stroke="#928C86" stroke-width="1.5" stroke-linecap="square"/>
<path d="M161.794 36.999H97.6318" stroke="#928C86" stroke-width="1.5" stroke-linecap="square" stroke-linejoin="round"/>
<path d="M169.926 31.6532C165.355 30.9281 161.695 29.5261 161.796 26.8893C161.998 21.8926 171.684 22.7364 171.684 22.7364L169.926 31.6532Z" stroke="#928C86" stroke-width="1.5" stroke-linecap="round"/>
<path d="M62.2395 92.559C62.7301 92.5614 63.2164 92.4671 63.6705 92.2815C64.1247 92.0958 64.5377 91.8224 64.8862 91.4769C65.2346 91.1315 65.5115 90.7207 65.7011 90.2682C65.8906 89.8157 65.9891 89.3302 65.9909 88.8396C65.9933 88.349 65.899 87.8627 65.7133 87.4086C65.5276 86.9544 65.2542 86.5413 64.9088 86.1929C64.5634 85.8445 64.1526 85.5676 63.7001 85.378C63.2476 85.1884 62.7621 85.09 62.2715 85.0882C61.7808 85.0858 61.2946 85.1801 60.8404 85.3657C60.3863 85.5514 59.9732 85.8248 59.6247 86.1703C59.2763 86.5157 58.9994 86.9265 58.8099 87.379C58.6203 87.8315 58.5219 88.317 58.5201 88.8076C58.5177 89.2982 58.612 89.7845 58.7977 90.2386C58.9833 90.6928 59.2567 91.106 59.6022 91.4544C59.9476 91.8028 60.3583 92.0796 60.8109 92.2692C61.2634 92.4587 61.7489 92.5572 62.2395 92.559V92.559Z" stroke="#928C86" stroke-width="1.5" stroke-linecap="round" stroke-linejoin="round"/>
<path d="M107.397 106.417L62.4749 92.5605" stroke="#928C86" stroke-width="1.5" stroke-linecap="round" stroke-linejoin="round"/>
<path d="M156.485 32.4907H166.751" stroke="#928C86" stroke-width="1.5" stroke-linecap="square" stroke-linejoin="round"/>
<path d="M184.338 94.2305C184.957 94.2334 185.571 94.1144 186.144 93.88C186.717 93.6456 187.238 93.3006 187.677 92.8647C188.117 92.4288 188.466 91.9106 188.705 91.3397C188.945 90.7687 189.069 90.1561 189.071 89.537C189.077 88.2887 188.588 87.089 187.71 86.2009C186.833 85.3129 185.639 84.8089 184.391 84.7996C183.141 84.7949 181.94 85.2865 181.051 86.1665C180.163 87.0464 179.66 88.2429 179.653 89.4932C179.648 90.7423 180.138 91.9426 181.016 92.8308C181.894 93.719 183.089 94.2224 184.338 94.2305V94.2305Z" stroke="#928C86" stroke-width="1.5" stroke-linecap="round" stroke-linejoin="round"/>
<path d="M110.891 95.2131L119.904 110.779" stroke="#928C86" stroke-width="1.5" stroke-linecap="square"/>
<path d="M110.944 83.4788L62.4749 85.0872" stroke="#928C86" stroke-width="1.5" stroke-linecap="square" stroke-linejoin="round"/>
<path d="M115.325 111.336L125.112 111.393" stroke="#928C86" stroke-width="1.5" stroke-linecap="square"/>
<path d="M141.798 15.5908L163.609 15.6875C161.234 16.5459 159.29 18.299 158.191 20.5721C157.092 22.8453 156.926 25.4581 157.729 27.852L169.687 63.6991C171.682 69.6923 174.525 75.3692 178.129 80.5571L184.352 89.5222" stroke="#928C86" stroke-width="1.5" stroke-linecap="square" stroke-linejoin="round"/>
<path d="M110.89 106.946C117.371 106.946 122.624 101.693 122.624 95.2125C122.624 88.7321 117.371 83.4788 110.89 83.4788C104.41 83.4788 99.1567 88.7321 99.1567 95.2125C99.1567 101.693 104.41 106.946 110.89 106.946Z" stroke="#928C86" stroke-width="1.5" stroke-linecap="round" stroke-linejoin="round"/>
<path d="M77.8555 24.0011V24.0011C77.8555 21.8167 79.6263 20.0459 81.8107 20.0459H104.663" stroke="#928C86" stroke-width="1.5"/>
<path d="M86.2057 23.1221L81.811 24.8799L86.2057 26.6378L81.811 28.3957" stroke="#928C86" stroke-width="1.5" stroke-linecap="square"/>
<path d="M19.5916 98.052C19.5916 98.052 21.6659 104.934 17.6667 108.542" stroke="#928C86" stroke-width="1.5" stroke-linecap="square" stroke-linejoin="round"/>
<path d="M150.368 13.8946C150.368 12.681 149.384 11.6973 148.17 11.6973C146.957 11.6973 145.973 12.681 145.973 13.8946" stroke="#928C86" stroke-width="1.5"/>
<path d="M219.167 17.6973L222.75 20.9821L227.061 18.7365L229.671 22.8368L234.417 21.7835L235.877 26.4197L240.734 26.6305L240.944 31.4868L245.581 32.9473L244.527 37.6926L248.627 40.3033L246.382 44.6143L249.667 48.1973L246.382 51.7802L248.627 56.0912L244.527 58.7019L245.581 63.4473L240.944 64.9078L240.734 69.764L235.877 69.9748L234.417 74.611L229.671 73.5578L227.061 77.658L222.75 75.4124L219.167 78.6973L215.584 75.4124L211.273 77.658L208.662 73.5578L203.917 74.611L202.456 69.9748L197.6 69.764L197.389 64.9078L192.753 63.4473L193.806 58.7019L189.706 56.0912L191.952 51.7802L188.667 48.1973L191.952 44.6143L189.706 40.3033L193.806 37.6926L192.753 32.9473L197.389 31.4868L197.6 26.6305L202.456 26.4197L203.917 21.7835L208.662 22.8368L211.273 18.7365L215.584 20.9821L219.167 17.6973Z" fill="#00FA9A"/>
<path d="M205.165 53.6519V49.7361H208.907V47.407H205.165V46.0823H209.46V43.4621H202.109V53.6519H205.165ZM214.522 50.2164C214.638 51.2645 215.133 53.812 217.783 53.812C218.816 53.812 219.704 53.5354 220.446 53.0259L219.515 51.0899C219.136 51.3373 218.758 51.4392 218.409 51.4392C217.812 51.4392 217.346 50.988 217.215 50.0272C218.554 49.6051 219.326 48.5133 219.326 47.0139C219.326 45.0633 218.059 43.4621 215.686 43.4621H210.737V53.6519H213.794V50.2164H214.522ZM213.794 46.0823H215.366C215.89 46.0823 216.269 46.5772 216.269 47.1158C216.269 47.6108 215.89 48.1057 215.366 48.1057H213.794V46.0823ZM228.595 53.6519V51.0316H224.243V49.7361H228.042V47.407H224.243V46.0823H228.595V43.4621H221.186V53.6519H228.595ZM237.48 53.6519V51.0316H233.128V49.7361H236.927V47.407H233.128V46.0823H237.48V43.4621H230.071V53.6519H237.48Z" fill="#2F2F2F"/>
<path d="M208.769 32.9474C208.386 32.9474 208.076 33.2578 208.076 33.6406C208.076 34.0235 208.386 34.3338 208.769 34.3338V32.9474ZM231.441 34.1308C231.712 33.8601 231.712 33.4212 231.441 33.1505L227.03 28.7391C226.759 28.4684 226.32 28.4684 226.049 28.7391C225.779 29.0098 225.779 29.4487 226.049 29.7194L229.971 33.6406L226.049 37.5619C225.779 37.8326 225.779 38.2715 226.049 38.5422C226.32 38.8129 226.759 38.8129 227.03 38.5422L231.441 34.1308ZM208.769 34.3338H230.951V32.9474H208.769V34.3338Z" fill="#2F2F2F"/>
<path d="M230.951 64.1403C231.334 64.1403 231.644 64.4507 231.644 64.8335C231.644 65.2163 231.334 65.5267 230.951 65.5267V64.1403ZM208.279 65.3236C208.008 65.0529 208.008 64.614 208.279 64.3433L212.69 59.932C212.961 59.6613 213.4 59.6613 213.671 59.932C213.941 60.2027 213.941 60.6416 213.671 60.9123L209.749 64.8335L213.671 68.7547C213.941 69.0254 213.941 69.4643 213.671 69.735C213.4 70.0057 212.961 70.0057 212.69 69.735L208.279 65.3236ZM230.951 65.5267H208.769V64.1403H230.951V65.5267Z" fill="#2F2F2F"/>
</svg>
