<svg width="278" height="134" viewBox="0 0 278 134" fill="none" xmlns="http://www.w3.org/2000/svg">
<path d="M132.833 33.1973L127.333 35.1973L142.833 83.1973H148.333L132.833 33.1973Z" fill="#00FA9A" stroke="#2F2F2F" stroke-width="1.5"/>
<path d="M181.769 58.0208L174.764 37.1726" stroke="#2F2F2F" stroke-width="1.5" stroke-linecap="square" stroke-linejoin="round"/>
<path d="M142.67 83.4677L124.784 26.6096M129.899 25.0012L148.127 82.9472" stroke="#2F2F2F" stroke-width="1.5" stroke-linecap="square" stroke-linejoin="round"/>
<path d="M125.333 35.6973L133.333 32.6973" stroke="#2F2F2F" stroke-width="1.5" stroke-linecap="square" stroke-linejoin="round"/>
<path d="M97.0492 97.6561C98.2155 97.6625 99.3716 97.4388 100.451 96.998C101.531 96.5571 102.513 95.9077 103.342 95.0869C104.171 94.2661 104.829 93.29 105.28 92.2144C105.731 91.1388 105.966 89.9848 105.97 88.8185C105.976 87.6524 105.752 86.4965 105.311 85.4169C104.87 84.3374 104.221 83.3554 103.4 82.5269C102.579 81.6985 101.603 81.0398 100.528 80.5886C99.4526 80.1374 98.2989 79.9025 97.1327 79.8973C95.9666 79.8915 94.8107 80.1156 93.7311 80.5566C92.6516 80.9977 91.6696 81.6471 90.8411 82.4678C90.0126 83.2885 89.354 84.2645 88.9028 85.3398C88.4516 86.4151 88.2167 87.5688 88.2115 88.7349C88.2058 89.9011 88.4298 91.057 88.8708 92.1365C89.3119 93.216 89.9614 94.1981 90.7821 95.0266C91.6028 95.8551 92.5787 96.5136 93.654 96.9648C94.7293 97.416 95.883 97.6509 97.0492 97.6561V97.6561Z" stroke="#2F2F2F" stroke-width="1.5" stroke-linecap="round" stroke-linejoin="round"/>
<path d="M218.847 128.641C229.269 128.688 239.283 124.594 246.687 117.26C254.092 109.925 258.28 99.9505 258.333 89.5286C258.381 79.1063 254.287 69.0917 246.953 61.687C239.618 54.2823 229.643 50.0938 219.22 50.0427C208.798 49.9947 198.783 54.0882 191.379 61.4228C183.974 68.7575 179.785 78.7328 179.734 89.1551C179.689 99.5767 183.783 109.59 191.117 116.994C198.451 124.398 208.425 128.588 218.847 128.641V128.641Z" stroke="#2F2F2F" stroke-width="1.5" stroke-linecap="round" stroke-linejoin="round"/>
<path d="M214.069 45.7144C203.389 46.9301 193.526 52.0218 186.349 60.0245C179.173 68.0271 175.182 78.3846 175.132 89.1336C175.084 96.7586 177.034 104.263 180.788 110.9" stroke="#2F2F2F" stroke-width="1.5" stroke-linecap="square" stroke-linejoin="round"/>
<path d="M218.869 123.45C227.919 123.491 236.614 119.935 243.042 113.565C249.471 107.196 253.106 98.5332 253.147 89.4835C253.168 85.0024 252.306 80.5611 250.61 76.4132C248.915 72.2653 246.418 68.4921 243.264 65.3089C240.11 62.1258 236.36 59.5952 232.228 57.8616C228.095 56.128 223.662 55.2254 219.181 55.2052C214.7 55.1844 210.259 56.0465 206.111 57.7422C201.963 59.438 198.19 61.9341 195.006 65.0882C191.823 68.2424 189.293 71.9927 187.559 76.1249C185.826 80.2571 184.923 84.6903 184.903 89.1714C184.881 93.6527 185.743 98.0943 187.439 102.242C189.134 106.391 191.63 110.164 194.785 113.347C197.939 116.531 201.689 119.061 205.822 120.795C209.954 122.528 214.388 123.43 218.869 123.45Z" stroke="#2F2F2F" stroke-width="1.5" stroke-linecap="round" stroke-linejoin="round"/>
<path d="M136.39 87.9051C136.159 77.6681 131.942 67.9254 124.638 60.7496C117.333 53.5739 107.517 49.5315 97.2774 49.4826C86.8547 49.4335 76.8394 53.5266 69.4344 60.8615C62.0295 68.1964 57.8414 78.1724 57.7914 88.5951C57.7458 99.0167 61.84 109.03 69.1742 116.434C76.5083 123.838 86.4823 128.028 96.9039 128.081C105.352 128.123 113.589 125.444 120.396 120.44C127.203 115.436 132.235 108.106 134.715 100.03" stroke="#2F2F2F" stroke-width="1.5" stroke-linecap="round" stroke-linejoin="round"/>
<path d="M96.9345 122.901C105.984 122.942 114.679 119.386 121.108 113.017C127.536 106.647 131.171 97.9844 131.213 88.9347C131.234 84.4536 130.372 80.0123 128.676 75.8644C126.98 71.7165 124.484 67.9432 121.33 64.7601C118.176 61.577 114.425 59.0464 110.293 57.3128C106.161 55.5792 101.728 54.6765 97.2465 54.6564C92.7657 54.6356 88.3248 55.4975 84.1772 57.193C80.0296 58.8884 76.2565 61.3843 73.0735 64.5379C69.8904 67.6916 67.3597 71.4413 65.6259 75.5731C63.892 79.7048 62.9889 84.1376 62.9681 88.6183C62.9473 93.0996 63.8094 97.5411 65.5051 101.689C67.2008 105.837 69.697 109.611 72.851 112.794C76.0051 115.978 79.7553 118.509 83.8876 120.243C88.0198 121.977 92.4532 122.88 96.9345 122.901V122.901Z" stroke="#2F2F2F" stroke-width="1.5" stroke-linecap="round" stroke-linejoin="round"/>
<path d="M131.973 62.1247C127.901 56.7839 122.655 52.451 116.642 49.4609C110.628 46.4707 104.007 44.9034 97.2908 44.8801C85.6501 44.8275 74.4653 49.4011 66.1966 57.5948C57.928 65.7885 53.2526 76.9311 53.1991 88.5717C53.1909 90.5111 53.3099 92.4489 53.5551 94.3727" stroke="#2F2F2F" stroke-width="1.5" stroke-linecap="square"/>
<path d="M128.333 39.6973L99.0574 85.1781" stroke="#2F2F2F" stroke-width="1.5" stroke-linecap="square" stroke-linejoin="round"/>
<path d="M133.832 93.2525L97.0928 88.7788" stroke="#2F2F2F" stroke-width="1.5" stroke-linecap="square" stroke-linejoin="round"/>
<path d="M154.992 87.3214L197.999 40.4832" stroke="#2F2F2F" stroke-width="1.5" stroke-linecap="square"/>
<path d="M196.333 36.6973L134.333 36.6973" stroke="#2F2F2F" stroke-width="1.5" stroke-linecap="square" stroke-linejoin="round"/>
<path d="M204.592 31.6534C200.022 30.9283 196.361 29.5264 196.462 26.8896C196.664 21.8928 206.35 22.7366 206.35 22.7366L204.592 31.6534Z" stroke="#2F2F2F" stroke-width="1.5" stroke-linecap="round"/>
<path d="M96.906 92.559C97.3966 92.5614 97.8829 92.4671 98.337 92.2815C98.7912 92.0958 99.2042 91.8224 99.5527 91.4769C99.9011 91.1315 100.178 90.7207 100.368 90.2682C100.557 89.8157 100.656 89.3302 100.657 88.8396C100.66 88.349 100.565 87.8627 100.38 87.4086C100.194 86.9544 99.9207 86.5413 99.5753 86.1929C99.2299 85.8445 98.8191 85.5676 98.3666 85.378C97.9141 85.1884 97.4286 85.09 96.938 85.0882C96.4473 85.0858 95.9611 85.1801 95.5069 85.3657C95.0528 85.5514 94.6397 85.8248 94.2912 86.1703C93.9428 86.5157 93.6659 86.9265 93.4764 87.379C93.2868 87.8315 93.1884 88.317 93.1866 88.8076C93.1842 89.2982 93.2785 89.7845 93.4642 90.2386C93.6498 90.6928 93.9232 91.106 94.2687 91.4544C94.6141 91.8028 95.0248 92.0796 95.4774 92.2692C95.9299 92.4587 96.4154 92.5572 96.906 92.559V92.559Z" stroke="#2F2F2F" stroke-width="1.5" stroke-linecap="round" stroke-linejoin="round"/>
<path d="M142.064 106.417L97.1414 92.5605" stroke="#2F2F2F" stroke-width="1.5" stroke-linecap="round" stroke-linejoin="round"/>
<path d="M191.152 32.4907H201.418" stroke="#2F2F2F" stroke-width="1.5" stroke-linecap="square" stroke-linejoin="round"/>
<path d="M219.005 94.2305C219.624 94.2334 220.237 94.1144 220.81 93.88C221.383 93.6456 221.904 93.3006 222.344 92.8647C222.783 92.4288 223.133 91.9106 223.372 91.3397C223.611 90.7687 223.735 90.1561 223.738 89.537C223.744 88.2887 223.254 87.089 222.377 86.2009C221.499 85.3129 220.306 84.8089 219.057 84.7996C217.807 84.7949 216.606 85.2865 215.718 86.1665C214.83 87.0464 214.327 88.2429 214.32 89.4932C214.314 90.7423 214.804 91.9426 215.682 92.8308C216.561 93.719 217.756 94.2224 219.005 94.2305V94.2305Z" stroke="#2F2F2F" stroke-width="1.5" stroke-linecap="round" stroke-linejoin="round"/>
<path d="M145.557 95.2131L154.571 110.779" stroke="#2F2F2F" stroke-width="1.5" stroke-linecap="square"/>
<path d="M145.61 83.4788L97.1414 85.0872" stroke="#2F2F2F" stroke-width="1.5" stroke-linecap="square" stroke-linejoin="round"/>
<path d="M149.991 111.336L159.778 111.393" stroke="#2F2F2F" stroke-width="1.5" stroke-linecap="square"/>
<path d="M176.465 15.5908L198.275 15.6875C195.901 16.5459 193.957 18.299 192.858 20.5721C191.759 22.8453 191.593 25.4581 192.395 27.852L204.353 63.6991C206.349 69.6923 209.192 75.3692 212.795 80.5571L219.018 89.5222" stroke="#2F2F2F" stroke-width="1.5" stroke-linecap="square" stroke-linejoin="round"/>
<path d="M145.557 106.946C152.037 106.946 157.291 101.693 157.291 95.2125C157.291 88.7321 152.037 83.4788 145.557 83.4788C139.077 83.4788 133.823 88.7321 133.823 95.2125C133.823 101.693 139.077 106.946 145.557 106.946Z" stroke="#2F2F2F" stroke-width="1.5" stroke-linecap="round" stroke-linejoin="round"/>
<path d="M112.522 24.0013V24.0013C112.522 21.8169 114.293 20.0461 116.477 20.0461H139.329" stroke="#2F2F2F" stroke-width="1.5"/>
<path d="M120.872 23.1223L116.478 24.8802L120.872 26.638L116.478 28.3959" stroke="#2F2F2F" stroke-width="1.5" stroke-linecap="square"/>
<path d="M54.2581 98.052C54.2581 98.052 56.3324 104.934 52.3333 108.542" stroke="#2F2F2F" stroke-width="1.5" stroke-linecap="square" stroke-linejoin="round"/>
<path d="M185.034 13.8946C185.034 12.681 184.05 11.6973 182.837 11.6973C181.623 11.6973 180.639 12.681 180.639 13.8946" stroke="#2F2F2F" stroke-width="1.5"/>
<path d="M40.8333 11.6973L44.4162 14.9821L48.7272 12.7365L51.3379 16.8368L56.0833 15.7835L57.5438 20.4197L62.4 20.6305L62.6108 25.4868L67.247 26.9473L66.1937 31.6926L70.294 34.3033L68.0484 38.6143L71.3333 42.1973L68.0484 45.7802L70.294 50.0912L66.1937 52.7019L67.247 57.4473L62.6108 58.9078L62.4 63.764L57.5438 63.9748L56.0833 68.611L51.3379 67.5578L48.7272 71.658L44.4162 69.4124L40.8333 72.6973L37.2503 69.4124L32.9393 71.658L30.3286 67.5578L25.5833 68.611L24.1228 63.9748L19.2665 63.764L19.0557 58.9078L14.4195 57.4473L15.4728 52.7019L11.3725 50.0912L13.6181 45.7802L10.3333 42.1973L13.6181 38.6143L11.3725 34.3033L15.4728 31.6926L14.4195 26.9473L19.0557 25.4868L19.2665 20.6305L24.1228 20.4197L25.5833 15.7835L30.3286 16.8368L32.9393 12.7365L37.2503 14.9821L40.8333 11.6973Z" fill="#00FA9A"/>
<path d="M27.6028 34.577C28.1795 34.3607 28.7202 34.2706 29.2429 34.2706C30.2882 34.2706 31.0992 34.7933 31.0992 35.7845C31.0992 36.7577 30.3243 37.5147 28.7202 37.5147C28.1075 37.5147 27.2063 37.4066 25.7645 36.5234L24.1244 38.7943C25.4942 40.0559 27.3865 40.4524 29.0807 40.4524C32.8474 40.4524 34.7759 38.4699 34.7759 35.9287C34.7759 33.5857 32.9195 32.3962 30.919 32.3962L34.2712 29.7109V27.6382H24.9535V30.594H29.4231L26.4494 32.7747L27.6028 34.577ZM47.6562 33.9462C47.6562 30.3416 45.4034 27.44 41.8168 27.44C38.1943 27.44 36.0315 30.3416 36.0315 33.9462C36.0315 37.5327 38.1943 40.4524 41.8168 40.4524C45.4034 40.4524 47.6562 37.5327 47.6562 33.9462ZM44.0336 33.9462C44.0336 35.9647 43.1685 37.4967 41.8168 37.4967C40.4651 37.4967 39.6541 35.9647 39.6541 33.9462C39.6541 31.8916 40.4651 30.3957 41.8168 30.3957C43.1685 30.3957 44.0336 31.8916 44.0336 33.9462ZM51.5782 40.2542H52.898L57.1902 32.4905H55.8925L51.5782 40.2542ZM48.5947 34.5756C48.5947 35.8178 49.6262 36.7827 50.9793 36.7827C52.3545 36.7827 53.3638 35.8178 53.3638 34.5756C53.3638 33.3334 52.3545 32.3685 50.9793 32.3685C49.6262 32.3685 48.5947 33.3334 48.5947 34.5756ZM50.2029 34.5645C50.2029 34.1098 50.5578 33.7327 50.9904 33.7327C51.4229 33.7327 51.7778 34.1098 51.7778 34.5645C51.7778 35.0192 51.4229 35.3963 50.9904 35.3963C50.5578 35.3963 50.2029 35.0192 50.2029 34.5645ZM55.5487 38.1691C55.5487 39.4112 56.5802 40.3762 57.9333 40.3762C59.3085 40.3762 60.3178 39.4112 60.3178 38.1691C60.3178 36.9269 59.3085 35.962 57.9333 35.962C56.5802 35.962 55.5487 36.9269 55.5487 38.1691ZM57.1569 38.158C57.1569 37.7032 57.5118 37.3262 57.9444 37.3262C58.3769 37.3262 58.7318 37.7032 58.7318 38.158C58.7318 38.6127 58.3769 38.9898 57.9444 38.9898C57.5118 38.9898 57.1569 38.6127 57.1569 38.158ZM30.6112 56.4372C34.5374 56.4372 36.8998 53.6755 36.8998 50.4314C36.8998 47.1873 34.5374 44.4257 30.6112 44.4257C26.685 44.4257 24.3227 47.1873 24.3227 50.4314C24.3227 53.6755 26.685 56.4372 30.6112 56.4372ZM30.6112 53.4426C28.8311 53.4426 27.8163 52.0618 27.8163 50.4314C27.8163 48.8011 28.8311 47.4202 30.6112 47.4202C32.3913 47.4202 33.4061 48.8011 33.4061 50.4314C33.4061 52.0618 32.3913 53.4426 30.6112 53.4426ZM41.8344 56.2542V51.779H46.11V49.1171H41.8344V47.6032H46.7421V44.6087H38.3408V56.2542H41.8344ZM51.7122 56.2542V51.779H55.9878V49.1171H51.7122V47.6032H56.62V44.6087H48.2186V56.2542H51.7122Z" fill="#2F2F2F"/>
</svg>
