<svg width="277" height="134" viewBox="0 0 277 134" fill="none" xmlns="http://www.w3.org/2000/svg">
<rect width="277" height="133" transform="translate(0 0.697266)" fill="#F5F1EC"/>
<path d="M194.436 58.0211L187.431 37.1729" stroke="#2F2F2F" stroke-width="2" stroke-linecap="square" stroke-linejoin="round"/>
<path d="M155.337 83.4674L137.45 26.6094M142.566 25.001L161.072 83.8322" stroke="#2F2F2F" stroke-width="2" stroke-linecap="square" stroke-linejoin="round"/>
<path d="M137.934 35.8678L146.284 33.231" stroke="#2F2F2F" stroke-width="2" stroke-linecap="square" stroke-linejoin="round"/>
<path d="M109.716 97.6561C110.882 97.6625 112.038 97.4388 113.118 96.998C114.198 96.5571 115.18 95.9077 116.009 95.0869C116.837 94.2661 117.496 93.29 117.947 92.2144C118.398 91.1388 118.632 89.9848 118.637 88.8185C118.643 87.6524 118.419 86.4965 117.978 85.4169C117.537 84.3374 116.887 83.3554 116.066 82.5269C115.246 81.6985 114.27 81.0398 113.194 80.5886C112.119 80.1374 110.965 79.9025 109.799 79.8973C108.633 79.8915 107.477 80.1156 106.398 80.5566C105.318 80.9977 104.336 81.6471 103.508 82.4678C102.679 83.2885 102.021 84.2645 101.569 85.3398C101.118 86.4151 100.883 87.5688 100.878 88.7349C100.872 89.9011 101.096 91.057 101.537 92.1365C101.978 93.216 102.628 94.1981 103.449 95.0266C104.269 95.8551 105.245 96.5136 106.321 96.9648C107.396 97.416 108.55 97.6509 109.716 97.6561V97.6561Z" stroke="#2F2F2F" stroke-width="2" stroke-linecap="round" stroke-linejoin="round"/>
<path d="M231.514 128.641C241.936 128.688 251.95 124.594 259.354 117.259C266.759 109.925 270.947 99.9503 271 89.5284C271.048 79.106 266.954 69.0915 259.619 61.6868C252.285 54.282 242.31 50.0936 231.887 50.0424C221.465 49.9945 211.45 54.0879 204.046 61.4226C196.641 68.7573 192.452 78.7326 192.401 89.1549C192.356 99.5765 196.45 109.59 203.784 116.994C211.118 124.398 221.092 128.587 231.514 128.641V128.641Z" stroke="#2F2F2F" stroke-width="2" stroke-linecap="round" stroke-linejoin="round"/>
<path d="M226.736 45.7144C216.056 46.9301 206.193 52.0218 199.016 60.0245C191.84 68.0271 187.849 78.3846 187.799 89.1336C187.751 96.7586 189.701 104.263 193.455 110.9" stroke="#2F2F2F" stroke-width="2" stroke-linecap="square" stroke-linejoin="round"/>
<path d="M231.536 123.45C240.585 123.491 249.28 119.935 255.709 113.566C262.137 107.196 265.772 98.5334 265.814 89.4838C265.835 85.0027 264.973 80.5613 263.277 76.4134C261.581 72.2655 259.085 68.4923 255.931 65.3092C252.777 62.1261 249.026 59.5955 244.894 57.8619C240.762 56.1283 236.329 55.2256 231.848 55.2054C227.366 55.1846 222.925 56.0467 218.777 57.7425C214.629 59.4382 210.856 61.9344 207.673 65.0885C204.49 68.2426 201.959 71.9929 200.226 76.1251C198.492 80.2574 197.589 84.6906 197.569 89.1717C197.548 93.6529 198.41 98.0945 200.105 102.243C201.801 106.391 204.297 110.164 207.451 113.348C210.605 116.531 214.356 119.061 218.488 120.795C222.621 122.528 227.054 123.43 231.536 123.45Z" stroke="#2F2F2F" stroke-width="2" stroke-linecap="round" stroke-linejoin="round"/>
<path d="M149.056 87.9053C148.825 77.6684 144.609 67.9256 137.304 60.7499C130 53.5741 120.183 49.5318 109.944 49.4829C99.5212 49.4338 89.5059 53.5269 82.101 60.8618C74.696 68.1967 70.5079 78.1727 70.4579 88.5953C70.4123 99.0169 74.5065 109.03 81.8407 116.434C89.1748 123.839 99.1488 128.028 109.57 128.081C118.018 128.123 126.255 125.444 133.062 120.44C139.869 115.436 144.901 108.106 147.382 100.03" stroke="#2F2F2F" stroke-width="2" stroke-linecap="round" stroke-linejoin="round"/>
<path d="M109.601 122.901C118.651 122.942 127.346 119.387 133.775 113.017C140.203 106.647 143.838 97.9846 143.88 88.935C143.9 84.4539 143.038 80.0125 141.343 75.8646C139.647 71.7167 137.151 67.9435 133.996 64.7604C130.842 61.5773 127.092 59.0467 122.96 57.313C118.828 55.5794 114.394 54.6768 109.913 54.6566C105.432 54.6358 100.992 55.4977 96.8439 57.1932C92.6963 58.8887 88.9233 61.3845 85.7402 64.5382C82.5572 67.6918 80.0265 71.4416 78.2926 75.5733C76.5587 79.705 75.6556 84.1378 75.6349 88.6186C75.6141 93.0999 76.4761 97.5413 78.1719 101.689C79.8676 105.838 82.3637 109.611 85.5178 112.795C88.6718 115.978 92.4221 118.509 96.5543 120.243C100.687 121.977 105.12 122.88 109.601 122.901V122.901Z" stroke="#2F2F2F" stroke-width="2" stroke-linecap="round" stroke-linejoin="round"/>
<path d="M144.64 62.125C140.568 56.7842 135.322 52.4513 129.308 49.4611C123.294 46.471 116.674 44.9037 109.958 44.8803C98.3169 44.8278 87.1321 49.4013 78.8634 57.595C70.5947 65.7887 65.9194 76.9313 65.8659 88.572C65.8577 90.5113 65.9766 92.4491 66.2219 94.3729" stroke="#2F2F2F" stroke-width="2" stroke-linecap="square"/>
<path d="M141.889 38.7222L111.724 85.1781" stroke="#2F2F2F" stroke-width="2" stroke-linecap="square" stroke-linejoin="round"/>
<path d="M146.499 93.2525L109.76 88.7788" stroke="#2F2F2F" stroke-width="2" stroke-linecap="square" stroke-linejoin="round"/>
<path d="M167.659 87.3216L210.665 40.4834" stroke="#2F2F2F" stroke-width="2" stroke-linecap="square"/>
<path d="M209.127 36.999H144.965" stroke="#2F2F2F" stroke-width="2" stroke-linecap="square" stroke-linejoin="round"/>
<path d="M217.259 31.6532C212.689 30.9281 209.028 29.5261 209.129 26.8893C209.331 21.8926 219.017 22.7364 219.017 22.7364L217.259 31.6532Z" stroke="#2F2F2F" stroke-width="2" stroke-linecap="round"/>
<path d="M109.573 92.559C110.063 92.5614 110.55 92.4671 111.004 92.2815C111.458 92.0958 111.871 91.8224 112.219 91.4769C112.568 91.1315 112.845 90.7207 113.034 90.2682C113.224 89.8157 113.322 89.3302 113.324 88.8396C113.327 88.349 113.232 87.8627 113.047 87.4086C112.861 86.9544 112.587 86.5413 112.242 86.1929C111.897 85.8445 111.486 85.5676 111.033 85.378C110.581 85.1884 110.095 85.09 109.605 85.0882C109.114 85.0858 108.628 85.1801 108.174 85.3657C107.72 85.5514 107.306 85.8248 106.958 86.1703C106.61 86.5157 106.333 86.9265 106.143 87.379C105.954 87.8315 105.855 88.317 105.853 88.8076C105.851 89.2982 105.945 89.7845 106.131 90.2386C106.317 90.6928 106.59 91.106 106.935 91.4544C107.281 91.8028 107.692 92.0796 108.144 92.2692C108.597 92.4587 109.082 92.5572 109.573 92.559V92.559Z" stroke="#2F2F2F" stroke-width="2" stroke-linecap="round" stroke-linejoin="round"/>
<path d="M154.73 106.417L109.808 92.5605" stroke="#2F2F2F" stroke-width="2" stroke-linecap="round" stroke-linejoin="round"/>
<path d="M203.819 32.4907H214.085" stroke="#2F2F2F" stroke-width="2" stroke-linecap="square" stroke-linejoin="round"/>
<path d="M231.671 94.2305C232.29 94.2334 232.904 94.1144 233.477 93.88C234.05 93.6456 234.571 93.3006 235.011 92.8647C235.45 92.4288 235.799 91.9106 236.039 91.3397C236.278 90.7687 236.402 90.1561 236.404 89.537C236.41 88.2887 235.921 87.089 235.043 86.2009C234.166 85.3129 232.972 84.8089 231.724 84.7996C230.474 84.7949 229.273 85.2865 228.385 86.1665C227.496 87.0464 226.994 88.2429 226.987 89.4932C226.981 90.7423 227.471 91.9426 228.349 92.8308C229.227 93.719 230.422 94.2224 231.671 94.2305V94.2305Z" stroke="#2F2F2F" stroke-width="2" stroke-linecap="round" stroke-linejoin="round"/>
<path d="M158.224 95.2131L167.237 110.779" stroke="#2F2F2F" stroke-width="2" stroke-linecap="square"/>
<path d="M158.277 83.4788L109.808 85.0872" stroke="#2F2F2F" stroke-width="2" stroke-linecap="square" stroke-linejoin="round"/>
<path d="M162.658 111.336L172.445 111.393" stroke="#2F2F2F" stroke-width="2" stroke-linecap="square"/>
<path d="M189.131 15.5908L210.942 15.6875C208.568 16.5459 206.623 18.299 205.525 20.5721C204.426 22.8453 204.26 25.4581 205.062 27.852L217.02 63.6991C219.015 69.6923 221.858 75.3692 225.462 80.5571L231.685 89.5222" stroke="#2F2F2F" stroke-width="2" stroke-linecap="square" stroke-linejoin="round"/>
<path d="M158.224 106.946C164.704 106.946 169.957 101.693 169.957 95.2125C169.957 88.7321 164.704 83.4788 158.224 83.4788C151.743 83.4788 146.49 88.7321 146.49 95.2125C146.49 101.693 151.743 106.946 158.224 106.946Z" stroke="#2F2F2F" stroke-width="2" stroke-linecap="round" stroke-linejoin="round"/>
<path d="M125.188 24.0011V24.0011C125.188 21.8167 126.959 20.0459 129.144 20.0459H151.996" stroke="#2F2F2F" stroke-width="2"/>
<path d="M133.539 23.1221L129.144 24.8799L133.539 26.6378L129.144 28.3957" stroke="#2F2F2F" stroke-width="2" stroke-linecap="square"/>
<path d="M66.9249 98.052C66.9249 98.052 68.9991 104.934 65 108.542" stroke="#2F2F2F" stroke-width="2" stroke-linecap="square" stroke-linejoin="round"/>
<path d="M197.701 13.8946C197.701 12.681 196.717 11.6973 195.503 11.6973C194.29 11.6973 193.306 12.681 193.306 13.8946" stroke="#2F2F2F" stroke-width="2"/>
<path d="M57 3.69727L62.1688 8.43605L68.388 5.19653L72.1543 11.1116L79 9.59215L81.1069 16.2805L88.1127 16.5846L88.4168 23.5903L95.1051 25.6973L93.5856 32.543L99.5007 36.3092L96.2612 42.5284L101 47.6973L96.2612 52.8661L99.5007 59.0853L93.5856 62.8515L95.1051 69.6973L88.4168 71.8042L88.1127 78.81L81.1069 79.1141L79 85.8024L72.1543 84.2829L68.388 90.198L62.1688 86.9585L57 91.6973L51.8312 86.9585L45.612 90.198L41.8457 84.2829L35 85.8024L32.893 79.1141L25.8873 78.81L25.5832 71.8042L18.8949 69.6973L20.4144 62.8515L14.4993 59.0853L17.7388 52.8661L13 47.6973L17.7388 42.5284L14.4993 36.3092L20.4144 32.543L18.8949 25.6973L25.5832 23.5903L25.8873 16.5846L32.893 16.2805L35 9.59215L41.8457 11.1116L45.612 5.19653L51.8312 8.43605L57 3.69727Z" fill="#00FA9A"/>
<path d="M35.7495 33.5433L39.3375 32.1393V44.6973H44.6935V26.4973H41.5475L34.4235 29.5653L35.7495 33.5433ZM63.8841 35.5973C63.8841 30.3973 60.6341 26.2113 55.4601 26.2113C50.2341 26.2113 47.1141 30.3973 47.1141 35.5973C47.1141 40.7713 50.2341 44.9833 55.4601 44.9833C60.6341 44.9833 63.8841 40.7713 63.8841 35.5973ZM58.6581 35.5973C58.6581 38.5093 57.4101 40.7193 55.4601 40.7193C53.5101 40.7193 52.3401 38.5093 52.3401 35.5973C52.3401 32.6333 53.5101 30.4753 55.4601 30.4753C57.4101 30.4753 58.6581 32.6333 58.6581 35.5973ZM69.542 44.6973H71.446L77.638 33.4973H75.766L69.542 44.6973ZM65.238 36.5053C65.238 38.2973 66.726 39.6893 68.678 39.6893C70.662 39.6893 72.118 38.2973 72.118 36.5053C72.118 34.7133 70.662 33.3213 68.678 33.3213C66.726 33.3213 65.238 34.7133 65.238 36.5053ZM67.558 36.4893C67.558 35.8333 68.07 35.2893 68.694 35.2893C69.318 35.2893 69.83 35.8333 69.83 36.4893C69.83 37.1453 69.318 37.6893 68.694 37.6893C68.07 37.6893 67.558 37.1453 67.558 36.4893ZM75.27 41.6893C75.27 43.4813 76.758 44.8733 78.71 44.8733C80.694 44.8733 82.15 43.4813 82.15 41.6893C82.15 39.8973 80.694 38.5053 78.71 38.5053C76.758 38.5053 75.27 39.8973 75.27 41.6893ZM77.59 41.6733C77.59 41.0173 78.102 40.4733 78.726 40.4733C79.35 40.4733 79.862 41.0173 79.862 41.6733C79.862 42.3293 79.35 42.8733 78.726 42.8733C78.102 42.8733 77.59 42.3293 77.59 41.6733ZM44.2546 68.9613C49.9186 68.9613 53.3266 64.9773 53.3266 60.2973C53.3266 55.6173 49.9186 51.6333 44.2546 51.6333C38.5906 51.6333 35.1826 55.6173 35.1826 60.2973C35.1826 64.9773 38.5906 68.9613 44.2546 68.9613ZM44.2546 64.6413C41.6866 64.6413 40.2226 62.6493 40.2226 60.2973C40.2226 57.9453 41.6866 55.9533 44.2546 55.9533C46.8226 55.9533 48.2866 57.9453 48.2866 60.2973C48.2866 62.6493 46.8226 64.6413 44.2546 64.6413ZM60.4454 68.6973V62.2413H66.6134V58.4013H60.4454V56.2173H67.5254V51.8973H55.4054V68.6973H60.4454ZM74.6954 68.6973V62.2413H80.8634V58.4013H74.6954V56.2173H81.7754V51.8973H69.6554V68.6973H74.6954Z" fill="#2F2F2F"/>
</svg>
