<svg width="278" height="134" viewBox="0 0 278 134" fill="none" xmlns="http://www.w3.org/2000/svg">
<path d="M131.769 58.0211L124.764 37.1729" stroke="#D2C9BD" stroke-width="1.5" stroke-linecap="square" stroke-linejoin="round"/>
<path d="M92.67 83.4674L74.7837 26.6094M79.8991 25.001L98.405 83.8322" stroke="#D2C9BD" stroke-width="1.5" stroke-linecap="square" stroke-linejoin="round"/>
<path d="M75.2676 35.8678L83.6174 33.231" stroke="#D2C9BD" stroke-width="1.5" stroke-linecap="square" stroke-linejoin="round"/>
<path d="M47.0492 97.6561C48.2155 97.6625 49.3716 97.4388 50.4514 96.998C51.5312 96.5571 52.5135 95.9077 53.342 95.0869C54.1706 94.2661 54.8293 93.29 55.2803 92.2144C55.7313 91.1388 55.9658 89.9848 55.9704 88.8185C55.9761 87.6524 55.7521 86.4965 55.3111 85.4169C54.87 84.3374 54.2205 83.3554 53.3998 82.5269C52.5791 81.6985 51.6032 81.0398 50.5279 80.5886C49.4526 80.1374 48.2989 79.9025 47.1327 79.8973C45.9666 79.8915 44.8107 80.1156 43.7311 80.5566C42.6516 80.9977 41.6696 81.6471 40.8411 82.4678C40.0126 83.2885 39.354 84.2645 38.9028 85.3398C38.4516 86.4151 38.2167 87.5688 38.2115 88.7349C38.2058 89.9011 38.4298 91.057 38.8708 92.1365C39.3119 93.216 39.9614 94.1981 40.7821 95.0266C41.6028 95.8551 42.5787 96.5136 43.654 96.9648C44.7293 97.416 45.883 97.6509 47.0492 97.6561V97.6561Z" stroke="#D2C9BD" stroke-width="1.5" stroke-linecap="round" stroke-linejoin="round"/>
<path d="M168.847 128.641C179.269 128.688 189.283 124.594 196.687 117.259C204.092 109.925 208.28 99.9503 208.333 89.5284C208.381 79.106 204.287 69.0915 196.953 61.6868C189.618 54.282 179.643 50.0936 169.22 50.0424C158.798 49.9945 148.783 54.0879 141.379 61.4226C133.974 68.7573 129.785 78.7326 129.734 89.1549C129.689 99.5765 133.783 109.59 141.117 116.994C148.451 124.398 158.425 128.587 168.847 128.641V128.641Z" stroke="#D2C9BD" stroke-width="1.5" stroke-linecap="round" stroke-linejoin="round"/>
<path d="M164.069 45.7144C153.389 46.9301 143.526 52.0218 136.349 60.0245C129.173 68.0271 125.182 78.3846 125.132 89.1336C125.084 96.7586 127.034 104.263 130.788 110.9" stroke="#D2C9BD" stroke-width="1.5" stroke-linecap="square" stroke-linejoin="round"/>
<path d="M168.869 123.45C177.919 123.491 186.614 119.935 193.042 113.566C199.471 107.196 203.106 98.5334 203.147 89.4838C203.168 85.0027 202.306 80.5613 200.61 76.4134C198.915 72.2655 196.418 68.4923 193.264 65.3092C190.11 62.1261 186.36 59.5955 182.228 57.8619C178.095 56.1283 173.662 55.2256 169.181 55.2054C164.7 55.1846 160.259 56.0467 156.111 57.7425C151.963 59.4382 148.19 61.9344 145.006 65.0885C141.823 68.2426 139.293 71.9929 137.559 76.1251C135.826 80.2574 134.923 84.6906 134.903 89.1717C134.881 93.6529 135.743 98.0945 137.439 102.243C139.134 106.391 141.63 110.164 144.785 113.348C147.939 116.531 151.689 119.061 155.822 120.795C159.954 122.528 164.388 123.43 168.869 123.45Z" stroke="#D2C9BD" stroke-width="1.5" stroke-linecap="round" stroke-linejoin="round"/>
<path d="M86.3899 87.9053C86.1587 77.6684 81.9423 67.9256 74.6377 60.7499C67.3331 53.5741 57.5168 49.5318 47.2774 49.4829C36.8547 49.4338 26.8394 53.5269 19.4344 60.8618C12.0295 68.1967 7.84139 78.1727 7.79139 88.5953C7.74582 99.0169 11.84 109.03 19.1742 116.434C26.5083 123.839 36.4823 128.028 46.9039 128.081C55.3519 128.123 63.5889 125.444 70.3957 120.44C77.2025 115.436 82.2349 108.106 84.7155 100.03" stroke="#D2C9BD" stroke-width="1.5" stroke-linecap="round" stroke-linejoin="round"/>
<path d="M46.9345 122.901C55.9841 122.942 64.6795 119.387 71.1078 113.017C77.5361 106.647 81.1709 97.9846 81.2128 88.935C81.2336 84.4539 80.3716 80.0125 78.6758 75.8646C76.98 71.7167 74.4838 67.9435 71.3297 64.7604C68.1756 61.5773 64.4253 59.0467 60.2931 57.313C56.1608 55.5794 51.7276 54.6768 47.2465 54.6566C42.7657 54.6358 38.3248 55.4977 34.1772 57.1932C30.0296 58.8887 26.2565 61.3845 23.0735 64.5382C19.8904 67.6918 17.3597 71.4416 15.6259 75.5733C13.892 79.705 12.9889 84.1378 12.9681 88.6186C12.9473 93.0999 13.8094 97.5413 15.5051 101.689C17.2008 105.838 19.697 109.611 22.851 112.795C26.0051 115.978 29.7553 118.509 33.8876 120.243C38.0198 121.977 42.4532 122.88 46.9345 122.901V122.901Z" stroke="#D2C9BD" stroke-width="1.5" stroke-linecap="round" stroke-linejoin="round"/>
<path d="M81.9734 62.125C77.9012 56.7842 72.6554 52.4513 66.6416 49.4611C60.6277 46.471 54.0069 44.9037 47.2908 44.8803C35.6501 44.8278 24.4653 49.4013 16.1966 57.595C7.92795 65.7887 3.25262 76.9313 3.19913 88.572C3.19092 90.5113 3.30986 92.4491 3.55512 94.3729" stroke="#D2C9BD" stroke-width="1.5" stroke-linecap="square"/>
<path d="M79.2223 38.7222L49.0574 85.1781" stroke="#D2C9BD" stroke-width="1.5" stroke-linecap="square" stroke-linejoin="round"/>
<path d="M83.8321 93.2525L47.0928 88.7788" stroke="#D2C9BD" stroke-width="1.5" stroke-linecap="square" stroke-linejoin="round"/>
<path d="M104.992 87.3216L147.999 40.4834" stroke="#D2C9BD" stroke-width="1.5" stroke-linecap="square"/>
<path d="M146.46 36.999H82.2983" stroke="#D2C9BD" stroke-width="1.5" stroke-linecap="square" stroke-linejoin="round"/>
<path d="M154.592 31.6532C150.022 30.9281 146.361 29.5261 146.462 26.8893C146.664 21.8926 156.35 22.7364 156.35 22.7364L154.592 31.6532Z" stroke="#D2C9BD" stroke-width="1.5" stroke-linecap="round"/>
<path d="M46.906 92.559C47.3966 92.5614 47.8829 92.4671 48.337 92.2815C48.7912 92.0958 49.2042 91.8224 49.5527 91.4769C49.9011 91.1315 50.178 90.7207 50.3676 90.2682C50.5571 89.8157 50.6556 89.3302 50.6574 88.8396C50.6598 88.349 50.5655 87.8627 50.3798 87.4086C50.1941 86.9544 49.9207 86.5413 49.5753 86.1929C49.2299 85.8445 48.8191 85.5676 48.3666 85.378C47.9141 85.1884 47.4286 85.09 46.938 85.0882C46.4473 85.0858 45.9611 85.1801 45.5069 85.3657C45.0528 85.5514 44.6397 85.8248 44.2912 86.1703C43.9428 86.5157 43.6659 86.9265 43.4764 87.379C43.2868 87.8315 43.1884 88.317 43.1866 88.8076C43.1842 89.2982 43.2785 89.7845 43.4642 90.2386C43.6498 90.6928 43.9232 91.106 44.2687 91.4544C44.6141 91.8028 45.0248 92.0796 45.4774 92.2692C45.9299 92.4587 46.4154 92.5572 46.906 92.559V92.559Z" stroke="#D2C9BD" stroke-width="1.5" stroke-linecap="round" stroke-linejoin="round"/>
<path d="M92.0636 106.417L47.1414 92.5605" stroke="#D2C9BD" stroke-width="1.5" stroke-linecap="round" stroke-linejoin="round"/>
<path d="M141.152 32.4907H151.418" stroke="#D2C9BD" stroke-width="1.5" stroke-linecap="square" stroke-linejoin="round"/>
<path d="M169.005 94.2305C169.624 94.2334 170.237 94.1144 170.81 93.88C171.383 93.6456 171.904 93.3006 172.344 92.8647C172.783 92.4288 173.133 91.9106 173.372 91.3397C173.611 90.7687 173.735 90.1561 173.738 89.537C173.744 88.2887 173.254 87.089 172.377 86.2009C171.499 85.3129 170.306 84.8089 169.057 84.7996C167.807 84.7949 166.606 85.2865 165.718 86.1665C164.83 87.0464 164.327 88.2429 164.32 89.4932C164.314 90.7423 164.804 91.9426 165.682 92.8308C166.561 93.719 167.756 94.2224 169.005 94.2305V94.2305Z" stroke="#D2C9BD" stroke-width="1.5" stroke-linecap="round" stroke-linejoin="round"/>
<path d="M95.5571 95.2131L104.571 110.779" stroke="#D2C9BD" stroke-width="1.5" stroke-linecap="square"/>
<path d="M95.6101 83.4788L47.1414 85.0872" stroke="#D2C9BD" stroke-width="1.5" stroke-linecap="square" stroke-linejoin="round"/>
<path d="M99.9912 111.336L109.778 111.393" stroke="#D2C9BD" stroke-width="1.5" stroke-linecap="square"/>
<path d="M126.465 15.5908L148.275 15.6875C145.901 16.5459 143.957 18.299 142.858 20.5721C141.759 22.8453 141.593 25.4581 142.395 27.852L154.353 63.6991C156.349 69.6923 159.192 75.3692 162.795 80.5571L169.018 89.5222" stroke="#D2C9BD" stroke-width="1.5" stroke-linecap="square" stroke-linejoin="round"/>
<path d="M95.557 106.946C102.037 106.946 107.291 101.693 107.291 95.2125C107.291 88.7321 102.037 83.4788 95.557 83.4788C89.0766 83.4788 83.8232 88.7321 83.8232 95.2125C83.8232 101.693 89.0766 106.946 95.557 106.946Z" stroke="#D2C9BD" stroke-width="1.5" stroke-linecap="round" stroke-linejoin="round"/>
<path d="M62.522 24.0011V24.0011C62.522 21.8167 64.2928 20.0459 66.4772 20.0459H89.3294" stroke="#D2C9BD" stroke-width="1.5"/>
<path d="M70.8722 23.1221L66.4775 24.8799L70.8722 26.6378L66.4775 28.3957" stroke="#D2C9BD" stroke-width="1.5" stroke-linecap="square"/>
<path d="M4.25811 98.052C4.25811 98.052 6.33239 104.934 2.33325 108.542" stroke="#D2C9BD" stroke-width="1.5" stroke-linecap="square" stroke-linejoin="round"/>
<path d="M135.034 13.8946C135.034 12.681 134.05 11.6973 132.837 11.6973C131.623 11.6973 130.639 12.681 130.639 13.8946" stroke="#D2C9BD" stroke-width="1.5"/>
<path d="M198.769 58.0211L191.764 37.1729" stroke="#2F2F2F" stroke-width="1.5" stroke-linecap="square" stroke-linejoin="round"/>
<path d="M159.67 83.4674L141.784 26.6094M146.899 25.001L165.405 83.8322" stroke="#2F2F2F" stroke-width="1.5" stroke-linecap="square" stroke-linejoin="round"/>
<path d="M142.268 35.8678L150.617 33.231" stroke="#2F2F2F" stroke-width="1.5" stroke-linecap="square" stroke-linejoin="round"/>
<path d="M114.049 97.6561C115.215 97.6625 116.372 97.4388 117.451 96.998C118.531 96.5571 119.513 95.9077 120.342 95.0869C121.171 94.2661 121.829 93.29 122.28 92.2144C122.731 91.1388 122.966 89.9848 122.97 88.8185C122.976 87.6524 122.752 86.4965 122.311 85.4169C121.87 84.3374 121.221 83.3554 120.4 82.5269C119.579 81.6985 118.603 81.0398 117.528 80.5886C116.453 80.1374 115.299 79.9025 114.133 79.8973C112.967 79.8915 111.811 80.1156 110.731 80.5566C109.652 80.9977 108.67 81.6471 107.841 82.4678C107.013 83.2885 106.354 84.2645 105.903 85.3398C105.452 86.4151 105.217 87.5688 105.212 88.7349C105.206 89.9011 105.43 91.057 105.871 92.1365C106.312 93.216 106.961 94.1981 107.782 95.0266C108.603 95.8551 109.579 96.5136 110.654 96.9648C111.729 97.416 112.883 97.6509 114.049 97.6561V97.6561Z" stroke="#2F2F2F" stroke-width="1.5" stroke-linecap="round" stroke-linejoin="round"/>
<path d="M235.847 128.641C246.269 128.688 256.283 124.594 263.687 117.259C271.092 109.925 275.28 99.9503 275.333 89.5284C275.381 79.106 271.287 69.0915 263.953 61.6868C256.618 54.282 246.643 50.0936 236.22 50.0424C225.798 49.9945 215.783 54.0879 208.379 61.4226C200.974 68.7573 196.785 78.7326 196.734 89.1549C196.689 99.5765 200.783 109.59 208.117 116.994C215.451 124.398 225.425 128.587 235.847 128.641V128.641Z" stroke="#2F2F2F" stroke-width="1.5" stroke-linecap="round" stroke-linejoin="round"/>
<path d="M231.069 45.7144C220.389 46.9301 210.526 52.0218 203.349 60.0245C196.173 68.0271 192.182 78.3846 192.132 89.1336C192.084 96.7586 194.034 104.263 197.788 110.9" stroke="#2F2F2F" stroke-width="1.5" stroke-linecap="square" stroke-linejoin="round"/>
<path d="M235.869 123.45C244.919 123.491 253.614 119.935 260.042 113.566C266.471 107.196 270.106 98.5334 270.147 89.4838C270.168 85.0027 269.306 80.5613 267.61 76.4134C265.915 72.2655 263.418 68.4923 260.264 65.3092C257.11 62.1261 253.36 59.5955 249.228 57.8619C245.095 56.1283 240.662 55.2256 236.181 55.2054C231.7 55.1846 227.259 56.0467 223.111 57.7425C218.963 59.4382 215.19 61.9344 212.006 65.0885C208.823 68.2426 206.293 71.9929 204.559 76.1251C202.826 80.2574 201.923 84.6906 201.903 89.1717C201.881 93.6529 202.743 98.0945 204.439 102.243C206.134 106.391 208.63 110.164 211.785 113.348C214.939 116.531 218.689 119.061 222.822 120.795C226.954 122.528 231.388 123.43 235.869 123.45Z" stroke="#2F2F2F" stroke-width="1.5" stroke-linecap="round" stroke-linejoin="round"/>
<path d="M153.39 87.9053C153.159 77.6684 148.942 67.9256 141.638 60.7499C134.333 53.5741 124.517 49.5318 114.277 49.4829C103.855 49.4338 93.8394 53.5269 86.4344 60.8618C79.0295 68.1967 74.8414 78.1727 74.7914 88.5953C74.7458 99.0169 78.84 109.03 86.1742 116.434C93.5083 123.839 103.482 128.028 113.904 128.081C122.352 128.123 130.589 125.444 137.396 120.44C144.203 115.436 149.235 108.106 151.715 100.03" stroke="#2F2F2F" stroke-width="1.5" stroke-linecap="round" stroke-linejoin="round"/>
<path d="M113.934 122.901C122.984 122.942 131.679 119.387 138.108 113.017C144.536 106.647 148.171 97.9846 148.213 88.935C148.234 84.4539 147.372 80.0125 145.676 75.8646C143.98 71.7167 141.484 67.9435 138.33 64.7604C135.176 61.5773 131.425 59.0467 127.293 57.313C123.161 55.5794 118.728 54.6768 114.246 54.6566C109.766 54.6358 105.325 55.4977 101.177 57.1932C97.0296 58.8887 93.2565 61.3845 90.0735 64.5382C86.8904 67.6918 84.3597 71.4416 82.6259 75.5733C80.892 79.705 79.9889 84.1378 79.9681 88.6186C79.9473 93.0999 80.8094 97.5413 82.5051 101.689C84.2008 105.838 86.697 109.611 89.851 112.795C93.0051 115.978 96.7553 118.509 100.888 120.243C105.02 121.977 109.453 122.88 113.934 122.901V122.901Z" stroke="#2F2F2F" stroke-width="1.5" stroke-linecap="round" stroke-linejoin="round"/>
<path d="M148.973 62.125C144.901 56.7842 139.655 52.4513 133.642 49.4611C127.628 46.471 121.007 44.9037 114.291 44.8803C102.65 44.8278 91.4653 49.4013 83.1966 57.595C74.928 65.7887 70.2526 76.9313 70.1991 88.572C70.1909 90.5113 70.3099 92.4491 70.5551 94.3729" stroke="#2F2F2F" stroke-width="1.5" stroke-linecap="square"/>
<path d="M146.222 38.7222L116.057 85.1781" stroke="#2F2F2F" stroke-width="1.5" stroke-linecap="square" stroke-linejoin="round"/>
<path d="M150.832 93.2525L114.093 88.7788" stroke="#2F2F2F" stroke-width="1.5" stroke-linecap="square" stroke-linejoin="round"/>
<path d="M171.992 87.3216L214.999 40.4834" stroke="#2F2F2F" stroke-width="1.5" stroke-linecap="square"/>
<path d="M213.46 36.999H149.298" stroke="#2F2F2F" stroke-width="1.5" stroke-linecap="square" stroke-linejoin="round"/>
<path d="M221.592 31.6532C217.022 30.9281 213.361 29.5261 213.462 26.8893C213.664 21.8926 223.35 22.7364 223.35 22.7364L221.592 31.6532Z" stroke="#2F2F2F" stroke-width="1.5" stroke-linecap="round"/>
<path d="M113.906 92.559C114.397 92.5614 114.883 92.4671 115.337 92.2815C115.791 92.0958 116.204 91.8224 116.553 91.4769C116.901 91.1315 117.178 90.7207 117.368 90.2682C117.557 89.8157 117.656 89.3302 117.657 88.8396C117.66 88.349 117.565 87.8627 117.38 87.4086C117.194 86.9544 116.921 86.5413 116.575 86.1929C116.23 85.8445 115.819 85.5676 115.367 85.378C114.914 85.1884 114.429 85.09 113.938 85.0882C113.447 85.0858 112.961 85.1801 112.507 85.3657C112.053 85.5514 111.64 85.8248 111.291 86.1703C110.943 86.5157 110.666 86.9265 110.476 87.379C110.287 87.8315 110.188 88.317 110.187 88.8076C110.184 89.2982 110.279 89.7845 110.464 90.2386C110.65 90.6928 110.923 91.106 111.269 91.4544C111.614 91.8028 112.025 92.0796 112.477 92.2692C112.93 92.4587 113.415 92.5572 113.906 92.559V92.559Z" stroke="#2F2F2F" stroke-width="1.5" stroke-linecap="round" stroke-linejoin="round"/>
<path d="M159.064 106.417L114.141 92.5605" stroke="#2F2F2F" stroke-width="1.5" stroke-linecap="round" stroke-linejoin="round"/>
<path d="M208.152 32.4907H218.418" stroke="#2F2F2F" stroke-width="1.5" stroke-linecap="square" stroke-linejoin="round"/>
<path d="M236.005 94.2305C236.624 94.2334 237.237 94.1144 237.81 93.88C238.383 93.6456 238.904 93.3006 239.344 92.8647C239.783 92.4288 240.133 91.9106 240.372 91.3397C240.611 90.7687 240.735 90.1561 240.738 89.537C240.744 88.2887 240.254 87.089 239.377 86.2009C238.499 85.3129 237.306 84.8089 236.057 84.7996C234.807 84.7949 233.606 85.2865 232.718 86.1665C231.83 87.0464 231.327 88.2429 231.32 89.4932C231.314 90.7423 231.804 91.9426 232.682 92.8308C233.561 93.719 234.756 94.2224 236.005 94.2305V94.2305Z" stroke="#2F2F2F" stroke-width="1.5" stroke-linecap="round" stroke-linejoin="round"/>
<path d="M162.557 95.2131L171.571 110.779" stroke="#2F2F2F" stroke-width="1.5" stroke-linecap="square"/>
<path d="M162.61 83.4788L114.141 85.0872" stroke="#2F2F2F" stroke-width="1.5" stroke-linecap="square" stroke-linejoin="round"/>
<path d="M166.991 111.336L176.778 111.393" stroke="#2F2F2F" stroke-width="1.5" stroke-linecap="square"/>
<path d="M193.465 15.5908L215.275 15.6875C212.901 16.5459 210.957 18.299 209.858 20.5721C208.759 22.8453 208.593 25.4581 209.395 27.852L221.353 63.6991C223.349 69.6923 226.192 75.3692 229.795 80.5571L236.018 89.5222" stroke="#2F2F2F" stroke-width="1.5" stroke-linecap="square" stroke-linejoin="round"/>
<path d="M162.557 106.946C169.037 106.946 174.291 101.693 174.291 95.2125C174.291 88.7321 169.037 83.4788 162.557 83.4788C156.077 83.4788 150.823 88.7321 150.823 95.2125C150.823 101.693 156.077 106.946 162.557 106.946Z" stroke="#2F2F2F" stroke-width="1.5" stroke-linecap="round" stroke-linejoin="round"/>
<path d="M129.522 24.0011V24.0011C129.522 21.8167 131.293 20.0459 133.477 20.0459H156.329" stroke="#2F2F2F" stroke-width="1.5"/>
<path d="M137.872 23.1221L133.478 24.8799L137.872 26.6378L133.478 28.3957" stroke="#2F2F2F" stroke-width="1.5" stroke-linecap="square"/>
<path d="M71.2581 98.052C71.2581 98.052 73.3324 104.934 69.3333 108.542" stroke="#2F2F2F" stroke-width="1.5" stroke-linecap="square" stroke-linejoin="round"/>
<path d="M202.034 13.8946C202.034 12.681 201.05 11.6973 199.837 11.6973C198.623 11.6973 197.639 12.681 197.639 13.8946" stroke="#2F2F2F" stroke-width="1.5"/>
</svg>
