<svg width="277" height="134" viewBox="0 0 277 134" fill="none" xmlns="http://www.w3.org/2000/svg">
<path d="M152.436 58.0211L145.431 37.1729" stroke="#2F2F2F" stroke-width="1.5" stroke-linecap="square" stroke-linejoin="round"/>
<path d="M113.337 83.4674L95.4504 26.6094M100.566 25.001L119.072 83.8322" stroke="#2F2F2F" stroke-width="1.5" stroke-linecap="square" stroke-linejoin="round"/>
<path d="M95.9343 35.8678L104.284 33.231" stroke="#2F2F2F" stroke-width="1.5" stroke-linecap="square" stroke-linejoin="round"/>
<path d="M67.7157 97.6561C68.882 97.6625 70.0381 97.4388 71.1179 96.998C72.1977 96.5571 73.18 95.9077 74.0085 95.0869C74.8371 94.2661 75.4958 93.29 75.9468 92.2144C76.3978 91.1388 76.6323 89.9848 76.6369 88.8185C76.6427 87.6524 76.4186 86.4965 75.9776 85.4169C75.5365 84.3374 74.887 83.3554 74.0663 82.5269C73.2456 81.6985 72.2697 81.0398 71.1944 80.5886C70.1191 80.1374 68.9654 79.9025 67.7992 79.8973C66.6331 79.8915 65.4772 80.1156 64.3976 80.5566C63.3181 80.9977 62.3361 81.6471 61.5076 82.4678C60.6791 83.2885 60.0205 84.2645 59.5693 85.3398C59.1181 86.4151 58.8832 87.5688 58.878 88.7349C58.8723 89.9011 59.0963 91.057 59.5373 92.1365C59.9784 93.216 60.6279 94.1981 61.4486 95.0266C62.2693 95.8551 63.2452 96.5136 64.3205 96.9648C65.3958 97.416 66.5495 97.6509 67.7157 97.6561V97.6561Z" stroke="#2F2F2F" stroke-width="1.5" stroke-linecap="round" stroke-linejoin="round"/>
<path d="M189.514 128.641C199.936 128.688 209.95 124.594 217.354 117.259C224.759 109.925 228.947 99.9503 229 89.5284C229.048 79.106 224.954 69.0915 217.619 61.6868C210.285 54.282 200.31 50.0936 189.887 50.0424C179.465 49.9945 169.45 54.0879 162.046 61.4226C154.641 68.7573 150.452 78.7326 150.401 89.1549C150.356 99.5765 154.45 109.59 161.784 116.994C169.118 124.398 179.092 128.587 189.514 128.641V128.641Z" stroke="#2F2F2F" stroke-width="1.5" stroke-linecap="round" stroke-linejoin="round"/>
<path d="M184.736 45.7144C174.056 46.9301 164.193 52.0218 157.016 60.0245C149.84 68.0271 145.849 78.3846 145.799 89.1336C145.751 96.7586 147.701 104.263 151.455 110.9" stroke="#2F2F2F" stroke-width="1.5" stroke-linecap="square" stroke-linejoin="round"/>
<path d="M189.536 123.45C198.585 123.491 207.28 119.935 213.709 113.566C220.137 107.196 223.772 98.5334 223.814 89.4838C223.835 85.0027 222.973 80.5613 221.277 76.4134C219.581 72.2655 217.085 68.4923 213.931 65.3092C210.777 62.1261 207.026 59.5955 202.894 57.8619C198.762 56.1283 194.329 55.2256 189.848 55.2054C185.366 55.1846 180.925 56.0467 176.777 57.7425C172.629 59.4382 168.856 61.9344 165.673 65.0885C162.49 68.2426 159.959 71.9929 158.226 76.1251C156.492 80.2574 155.589 84.6906 155.569 89.1717C155.548 93.6529 156.41 98.0945 158.105 102.243C159.801 106.391 162.297 110.164 165.451 113.348C168.605 116.531 172.356 119.061 176.488 120.795C180.621 122.528 185.054 123.43 189.536 123.45Z" stroke="#2F2F2F" stroke-width="1.5" stroke-linecap="round" stroke-linejoin="round"/>
<path d="M107.056 87.9053C106.825 77.6684 102.609 67.9256 95.3042 60.7499C87.9996 53.5741 78.1834 49.5318 67.9439 49.4829C57.5212 49.4338 47.5059 53.5269 40.101 60.8618C32.696 68.1967 28.5079 78.1727 28.4579 88.5953C28.4123 99.0169 32.5065 109.03 39.8407 116.434C47.1748 123.839 57.1488 128.028 67.5704 128.081C76.0184 128.123 84.2554 125.444 91.0622 120.44C97.869 115.436 102.901 108.106 105.382 100.03" stroke="#2F2F2F" stroke-width="1.5" stroke-linecap="round" stroke-linejoin="round"/>
<path d="M67.6012 122.901C76.6509 122.942 85.3462 119.387 91.7745 113.017C98.2029 106.647 101.838 97.9846 101.88 88.935C101.9 84.4539 101.038 80.0125 99.3425 75.8646C97.6468 71.7167 95.1506 67.9435 91.9964 64.7604C88.8423 61.5773 85.092 59.0467 80.9598 57.313C76.8276 55.5794 72.3943 54.6768 67.9132 54.6566C63.4325 54.6358 58.9916 55.4977 54.8439 57.1932C50.6963 58.8887 46.9233 61.3845 43.7402 64.5382C40.5572 67.6918 38.0265 71.4416 36.2926 75.5733C34.5587 79.705 33.6556 84.1378 33.6349 88.6186C33.6141 93.0999 34.4761 97.5413 36.1719 101.689C37.8676 105.838 40.3637 109.611 43.5178 112.795C46.6718 115.978 50.4221 118.509 54.5543 120.243C58.6866 121.977 63.1199 122.88 67.6012 122.901V122.901Z" stroke="#2F2F2F" stroke-width="1.5" stroke-linecap="round" stroke-linejoin="round"/>
<path d="M102.64 62.125C98.5679 56.7842 93.3221 52.4513 87.3083 49.4611C81.2945 46.471 74.6737 44.9037 67.9575 44.8803C56.3169 44.8278 45.1321 49.4013 36.8634 57.595C28.5947 65.7887 23.9194 76.9313 23.8659 88.572C23.8577 90.5113 23.9766 92.4491 24.2219 94.3729" stroke="#2F2F2F" stroke-width="1.5" stroke-linecap="square"/>
<path d="M99.8891 38.7222L69.7241 85.1781" stroke="#2F2F2F" stroke-width="1.5" stroke-linecap="square" stroke-linejoin="round"/>
<path d="M104.499 93.2525L67.7595 88.7788" stroke="#2F2F2F" stroke-width="1.5" stroke-linecap="square" stroke-linejoin="round"/>
<path d="M125.659 87.3216L168.665 40.4834" stroke="#2F2F2F" stroke-width="1.5" stroke-linecap="square"/>
<path d="M167.127 36.999H102.965" stroke="#2F2F2F" stroke-width="1.5" stroke-linecap="square" stroke-linejoin="round"/>
<path d="M175.259 31.6532C170.689 30.9281 167.028 29.5261 167.129 26.8893C167.331 21.8926 177.017 22.7364 177.017 22.7364L175.259 31.6532Z" stroke="#2F2F2F" stroke-width="1.5" stroke-linecap="round"/>
<path d="M67.5728 92.559C68.0634 92.5614 68.5496 92.4671 69.0038 92.2815C69.4579 92.0958 69.871 91.8224 70.2194 91.4769C70.5678 91.1315 70.8448 90.7207 71.0343 90.2682C71.2239 89.8157 71.3223 89.3302 71.3241 88.8396C71.3266 88.349 71.2322 87.8627 71.0465 87.4086C70.8609 86.9544 70.5875 86.5413 70.2421 86.1929C69.8966 85.8445 69.4859 85.5676 69.0333 85.378C68.5808 85.1884 68.0953 85.09 67.6047 85.0882C67.1141 85.0858 66.6278 85.1801 66.1737 85.3657C65.7195 85.5514 65.3064 85.8248 64.958 86.1703C64.6096 86.5157 64.3327 86.9265 64.1431 87.379C63.9536 87.8315 63.8551 88.317 63.8533 88.8076C63.8509 89.2982 63.9452 89.7845 64.1309 90.2386C64.3166 90.6928 64.59 91.106 64.9354 91.4544C65.2808 91.8028 65.6916 92.0796 66.1441 92.2692C66.5966 92.4587 67.0821 92.5572 67.5728 92.559V92.559Z" stroke="#2F2F2F" stroke-width="1.5" stroke-linecap="round" stroke-linejoin="round"/>
<path d="M112.73 106.417L67.8081 92.5605" stroke="#2F2F2F" stroke-width="1.5" stroke-linecap="round" stroke-linejoin="round"/>
<path d="M161.819 32.4907H172.085" stroke="#2F2F2F" stroke-width="1.5" stroke-linecap="square" stroke-linejoin="round"/>
<path d="M189.671 94.2305C190.29 94.2334 190.904 94.1144 191.477 93.88C192.05 93.6456 192.571 93.3006 193.011 92.8647C193.45 92.4288 193.799 91.9106 194.039 91.3397C194.278 90.7687 194.402 90.1561 194.404 89.537C194.41 88.2887 193.921 87.089 193.043 86.2009C192.166 85.3129 190.972 84.8089 189.724 84.7996C188.474 84.7949 187.273 85.2865 186.385 86.1665C185.496 87.0464 184.994 88.2429 184.987 89.4932C184.981 90.7423 185.471 91.9426 186.349 92.8308C187.227 93.719 188.422 94.2224 189.671 94.2305V94.2305Z" stroke="#2F2F2F" stroke-width="1.5" stroke-linecap="round" stroke-linejoin="round"/>
<path d="M116.224 95.2131L125.237 110.779" stroke="#2F2F2F" stroke-width="1.5" stroke-linecap="square"/>
<path d="M116.277 83.4788L67.8081 85.0872" stroke="#2F2F2F" stroke-width="1.5" stroke-linecap="square" stroke-linejoin="round"/>
<path d="M120.658 111.336L130.445 111.393" stroke="#2F2F2F" stroke-width="1.5" stroke-linecap="square"/>
<path d="M147.131 15.5908L168.942 15.6875C166.568 16.5459 164.623 18.299 163.525 20.5721C162.426 22.8453 162.26 25.4581 163.062 27.852L175.02 63.6991C177.015 69.6923 179.858 75.3692 183.462 80.5571L189.685 89.5222" stroke="#2F2F2F" stroke-width="1.5" stroke-linecap="square" stroke-linejoin="round"/>
<path d="M116.224 106.946C122.704 106.946 127.957 101.693 127.957 95.2125C127.957 88.7321 122.704 83.4788 116.224 83.4788C109.743 83.4788 104.49 88.7321 104.49 95.2125C104.49 101.693 109.743 106.946 116.224 106.946Z" stroke="#2F2F2F" stroke-width="1.5" stroke-linecap="round" stroke-linejoin="round"/>
<path d="M83.1885 24.0011V24.0011C83.1885 21.8167 84.9593 20.0459 87.1437 20.0459H109.996" stroke="#2F2F2F" stroke-width="1.5"/>
<path d="M91.5387 23.1221L87.144 24.8799L91.5387 26.6378L87.144 28.3957" stroke="#2F2F2F" stroke-width="1.5" stroke-linecap="square"/>
<path d="M24.9249 98.052C24.9249 98.052 26.9991 104.934 23 108.542" stroke="#2F2F2F" stroke-width="1.5" stroke-linecap="square" stroke-linejoin="round"/>
<path d="M155.701 13.8946C155.701 12.681 154.717 11.6973 153.503 11.6973C152.29 11.6973 151.306 12.681 151.306 13.8946" stroke="#2F2F2F" stroke-width="1.5"/>
<path d="M40.5 11.6973L44.0829 14.9821L48.394 12.7365L51.0047 16.8368L55.75 15.7835L57.2105 20.4197L62.0668 20.6305L62.2775 25.4868L66.9138 26.9473L65.8605 31.6926L69.9607 34.3033L67.7152 38.6143L71 42.1973L67.7152 45.7802L69.9607 50.0912L65.8605 52.7019L66.9138 57.4473L62.2775 58.9078L62.0668 63.764L57.2105 63.9748L55.75 68.611L51.0047 67.5578L48.394 71.658L44.0829 69.4124L40.5 72.6973L36.9171 69.4124L32.606 71.658L29.9953 67.5578L25.25 68.611L23.7895 63.9748L18.9332 63.764L18.7225 58.9078L14.0862 57.4473L15.1395 52.7019L11.0393 50.0912L13.2848 45.7802L10 42.1973L13.2848 38.6143L11.0393 34.3033L15.1395 31.6926L14.0862 26.9473L18.7225 25.4868L18.9332 20.6305L23.7895 20.4197L25.25 15.7835L29.9953 16.8368L32.606 12.7365L36.9171 14.9821L40.5 11.6973Z" fill="#00FA9A"/>
<path d="M25.7866 32.5222L28.2738 31.5489V40.2539H31.9864V27.638H29.8057L24.8675 29.7647L25.7866 32.5222ZM45.289 33.946C45.289 30.3414 43.0362 27.4397 39.4497 27.4397C35.8271 27.4397 33.6644 30.3414 33.6644 33.946C33.6644 37.5325 35.8271 40.4522 39.4497 40.4522C43.0362 40.4522 45.289 37.5325 45.289 33.946ZM41.6665 33.946C41.6665 35.9645 40.8014 37.4964 39.4497 37.4964C38.098 37.4964 37.287 35.9645 37.287 33.946C37.287 31.8914 38.098 30.3955 39.4497 30.3955C40.8014 30.3955 41.6665 31.8914 41.6665 33.946ZM49.211 40.2539H50.5308L54.823 32.4903H53.5254L49.211 40.2539ZM46.2276 34.5754C46.2276 35.8175 47.259 36.7825 48.6121 36.7825C49.9874 36.7825 50.9967 35.8175 50.9967 34.5754C50.9967 33.3332 49.9874 32.3683 48.6121 32.3683C47.259 32.3683 46.2276 33.3332 46.2276 34.5754ZM47.8358 34.5643C47.8358 34.1095 48.1907 33.7325 48.6232 33.7325C49.0558 33.7325 49.4107 34.1095 49.4107 34.5643C49.4107 35.019 49.0558 35.3961 48.6232 35.3961C48.1907 35.3961 47.8358 35.019 47.8358 34.5643ZM53.1816 38.1688C53.1816 39.411 54.213 40.3759 55.5661 40.3759C56.9414 40.3759 57.9507 39.411 57.9507 38.1688C57.9507 36.9266 56.9414 35.9617 55.5661 35.9617C54.213 35.9617 53.1816 36.9266 53.1816 38.1688ZM54.7898 38.1577C54.7898 37.703 55.1447 37.3259 55.5772 37.3259C56.0098 37.3259 56.3647 37.703 56.3647 38.1577C56.3647 38.6125 56.0098 38.9895 55.5772 38.9895C55.1447 38.9895 54.7898 38.6125 54.7898 38.1577ZM31.6822 56.4369C35.6084 56.4369 37.9708 53.6753 37.9708 50.4312C37.9708 47.1871 35.6084 44.4255 31.6822 44.4255C27.756 44.4255 25.3937 47.1871 25.3937 50.4312C25.3937 53.6753 27.756 56.4369 31.6822 56.4369ZM31.6822 53.4424C29.9021 53.4424 28.8873 52.0615 28.8873 50.4312C28.8873 48.8008 29.9021 47.42 31.6822 47.42C33.4623 47.42 34.4771 48.8008 34.4771 50.4312C34.4771 52.0615 33.4623 53.4424 31.6822 53.4424ZM42.9054 56.2539V51.7787H47.1809V49.1169H42.9054V47.603H47.8131V44.6085H39.4118V56.2539H42.9054ZM52.7832 56.2539V51.7787H57.0588V49.1169H52.7832V47.603H57.691V44.6085H49.2896V56.2539H52.7832Z" fill="#2F2F2F"/>
</svg>
