<svg width="278" height="134" viewBox="0 0 278 134" fill="none" xmlns="http://www.w3.org/2000/svg">
<path d="M83.6668 67.767C83.9725 67.5104 84.3075 67.2293 84.6667 66.9279M106.032 55.5275C105.143 54.4679 102.988 52.9717 100.529 53.963M95.6673 57.6973C93.5664 59.4602 91.0121 61.6035 88.6667 63.5715" stroke="#2F2F2F" stroke-width="1.5"/>
<path d="M143.102 58.0208L136.097 37.1726" stroke="#928C86" stroke-width="1.5" stroke-linecap="square" stroke-linejoin="round"/>
<path d="M104.003 83.4677L86.1172 26.6096M91.2326 25.0012L109.46 82.9472" stroke="#928C86" stroke-width="1.5" stroke-linecap="square" stroke-linejoin="round"/>
<path d="M86.6667 35.6973L94.6667 32.6973" stroke="#928C86" stroke-width="1.5" stroke-linecap="square" stroke-linejoin="round"/>
<path d="M58.3827 97.6561C59.549 97.6625 60.7051 97.4388 61.7849 96.998C62.8647 96.5571 63.847 95.9077 64.6755 95.0869C65.5041 94.2661 66.1628 93.29 66.6138 92.2144C67.0647 91.1388 67.2993 89.9848 67.3039 88.8185C67.3096 87.6524 67.0856 86.4965 66.6446 85.4169C66.2035 84.3374 65.554 83.3554 64.7333 82.5269C63.9126 81.6985 62.9367 81.0398 61.8614 80.5886C60.7861 80.1374 59.6324 79.9025 58.4662 79.8973C57.3001 79.8915 56.1442 80.1156 55.0646 80.5566C53.9851 80.9977 53.0031 81.6471 52.1746 82.4678C51.3461 83.2885 50.6875 84.2645 50.2363 85.3398C49.7851 86.4151 49.5502 87.5688 49.545 88.7349C49.5392 89.9011 49.7633 91.057 50.2043 92.1365C50.6454 93.216 51.2949 94.1981 52.1156 95.0266C52.9363 95.8551 53.9122 96.5136 54.9875 96.9648C56.0628 97.416 57.2165 97.6509 58.3827 97.6561V97.6561Z" stroke="#928C86" stroke-width="1.5" stroke-linecap="round" stroke-linejoin="round"/>
<path d="M180.18 128.641C190.602 128.688 200.616 124.594 208.021 117.26C215.425 109.925 219.614 99.9505 219.666 89.5286C219.714 79.1063 215.621 69.0917 208.286 61.687C200.951 54.2823 190.976 50.0938 180.554 50.0427C170.131 49.9947 160.117 54.0882 152.712 61.4228C145.307 68.7575 141.119 78.7328 141.068 89.1551C141.022 99.5767 145.116 109.59 152.451 116.994C159.785 124.398 169.759 128.588 180.18 128.641V128.641Z" stroke="#928C86" stroke-width="1.5" stroke-linecap="round" stroke-linejoin="round"/>
<path d="M175.403 45.7144C164.722 46.9301 154.859 52.0218 147.683 60.0245C140.507 68.0271 136.515 78.3846 136.466 89.1336C136.418 96.7586 138.368 104.263 142.122 110.9" stroke="#928C86" stroke-width="1.5" stroke-linecap="square" stroke-linejoin="round"/>
<path d="M180.203 123.45C189.252 123.491 197.947 119.935 204.376 113.565C210.804 107.196 214.439 98.5332 214.481 89.4835C214.502 85.0024 213.64 80.5611 211.944 76.4132C210.248 72.2653 207.752 68.4921 204.598 65.3089C201.444 62.1258 197.693 59.5952 193.561 57.8616C189.429 56.128 184.996 55.2254 180.515 55.2052C176.033 55.1844 171.592 56.0465 167.444 57.7422C163.296 59.438 159.523 61.9341 156.34 65.0882C153.157 68.2424 150.626 71.9927 148.893 76.1249C147.159 80.2571 146.256 84.6903 146.236 89.1714C146.215 93.6527 147.077 98.0943 148.772 102.242C150.468 106.391 152.964 110.164 156.118 113.347C159.272 116.531 163.023 119.061 167.155 120.795C171.288 122.528 175.721 123.43 180.203 123.45Z" stroke="#928C86" stroke-width="1.5" stroke-linecap="round" stroke-linejoin="round"/>
<path d="M97.7233 87.9051C97.4922 77.6681 93.2758 67.9254 85.9712 60.7496C78.6666 53.5739 68.8503 49.5315 58.6109 49.4826C48.1882 49.4335 38.1729 53.5266 30.7679 60.8615C23.363 68.1964 19.1749 78.1724 19.1249 88.5951C19.0793 99.0167 23.1735 109.03 30.5077 116.434C37.8418 123.838 47.8158 128.028 58.2374 128.081C66.6854 128.123 74.9224 125.444 81.7292 120.44C88.536 115.436 93.5684 108.106 96.049 100.03" stroke="#928C86" stroke-width="1.5" stroke-linecap="round" stroke-linejoin="round"/>
<path d="M58.268 122.901C67.3176 122.942 76.0129 119.386 82.4413 113.017C88.8696 106.647 92.5044 97.9844 92.5463 88.9347C92.5671 84.4536 91.7051 80.0123 90.0093 75.8644C88.3135 71.7165 85.8173 67.9432 82.6632 64.7601C79.5091 61.577 75.7588 59.0464 71.6266 57.3128C67.4943 55.5792 63.0611 54.6765 58.58 54.6564C54.0992 54.6356 49.6583 55.4975 45.5107 57.193C41.3631 58.8884 37.59 61.3843 34.407 64.5379C31.2239 67.6916 28.6932 71.4413 26.9594 75.5731C25.2255 79.7048 24.3224 84.1376 24.3016 88.6183C24.2808 93.0996 25.1429 97.5411 26.8386 101.689C28.5343 105.837 31.0305 109.611 34.1845 112.794C37.3386 115.978 41.0888 118.509 45.2211 120.243C49.3533 121.977 53.7867 122.88 58.268 122.901V122.901Z" stroke="#928C86" stroke-width="1.5" stroke-linecap="round" stroke-linejoin="round"/>
<path d="M93.3069 62.1247C89.2347 56.7839 83.9889 52.451 77.9751 49.4609C71.9612 46.4707 65.3404 44.9034 58.6243 44.8801C46.9836 44.8275 35.7988 49.4011 27.5301 57.5948C19.2614 65.7885 14.5861 76.9311 14.5326 88.5717C14.5244 90.5111 14.6434 92.4489 14.8886 94.3727" stroke="#928C86" stroke-width="1.5" stroke-linecap="square"/>
<path d="M89.6667 39.6973L60.3909 85.1781" stroke="#928C86" stroke-width="1.5" stroke-linecap="square" stroke-linejoin="round"/>
<path d="M95.1656 93.2525L58.4263 88.7788" stroke="#928C86" stroke-width="1.5" stroke-linecap="square" stroke-linejoin="round"/>
<path d="M116.326 87.3214L159.332 40.4832" stroke="#928C86" stroke-width="1.5" stroke-linecap="square"/>
<path d="M157.667 36.6973L95.6667 36.6973" stroke="#928C86" stroke-width="1.5" stroke-linecap="square" stroke-linejoin="round"/>
<path d="M165.926 31.6534C161.355 30.9283 157.695 29.5264 157.796 26.8896C157.998 21.8928 167.684 22.7366 167.684 22.7366L165.926 31.6534Z" stroke="#928C86" stroke-width="1.5" stroke-linecap="round"/>
<path d="M58.2395 92.559C58.7301 92.5614 59.2164 92.4671 59.6705 92.2815C60.1247 92.0958 60.5377 91.8224 60.8862 91.4769C61.2346 91.1315 61.5115 90.7207 61.7011 90.2682C61.8906 89.8157 61.9891 89.3302 61.9909 88.8396C61.9933 88.349 61.899 87.8627 61.7133 87.4086C61.5276 86.9544 61.2542 86.5413 60.9088 86.1929C60.5634 85.8445 60.1526 85.5676 59.7001 85.378C59.2476 85.1884 58.7621 85.09 58.2715 85.0882C57.7808 85.0858 57.2946 85.1801 56.8404 85.3657C56.3863 85.5514 55.9732 85.8248 55.6247 86.1703C55.2763 86.5157 54.9994 86.9265 54.8099 87.379C54.6203 87.8315 54.5219 88.317 54.5201 88.8076C54.5177 89.2982 54.612 89.7845 54.7977 90.2386C54.9833 90.6928 55.2567 91.106 55.6022 91.4544C55.9476 91.8028 56.3583 92.0796 56.8109 92.2692C57.2634 92.4587 57.7489 92.5572 58.2395 92.559V92.559Z" stroke="#928C86" stroke-width="1.5" stroke-linecap="round" stroke-linejoin="round"/>
<path d="M103.397 106.417L58.4749 92.5605" stroke="#928C86" stroke-width="1.5" stroke-linecap="round" stroke-linejoin="round"/>
<path d="M152.485 32.4907H162.751" stroke="#928C86" stroke-width="1.5" stroke-linecap="square" stroke-linejoin="round"/>
<path d="M180.338 94.2305C180.957 94.2334 181.571 94.1144 182.144 93.88C182.717 93.6456 183.238 93.3006 183.677 92.8647C184.117 92.4288 184.466 91.9106 184.705 91.3397C184.945 90.7687 185.069 90.1561 185.071 89.537C185.077 88.2887 184.588 87.089 183.71 86.2009C182.833 85.3129 181.639 84.8089 180.391 84.7996C179.141 84.7949 177.94 85.2865 177.051 86.1665C176.163 87.0464 175.66 88.2429 175.653 89.4932C175.648 90.7423 176.138 91.9426 177.016 92.8308C177.894 93.719 179.089 94.2224 180.338 94.2305V94.2305Z" stroke="#928C86" stroke-width="1.5" stroke-linecap="round" stroke-linejoin="round"/>
<path d="M106.891 95.2131L115.904 110.779" stroke="#928C86" stroke-width="1.5" stroke-linecap="square"/>
<path d="M106.944 83.4788L58.4749 85.0872" stroke="#928C86" stroke-width="1.5" stroke-linecap="square" stroke-linejoin="round"/>
<path d="M111.325 111.336L121.112 111.393" stroke="#928C86" stroke-width="1.5" stroke-linecap="square"/>
<path d="M137.798 15.5908L159.609 15.6875C157.234 16.5459 155.29 18.299 154.191 20.5721C153.092 22.8453 152.926 25.4581 153.729 27.852L165.687 63.6991C167.682 69.6923 170.525 75.3692 174.129 80.5571L180.352 89.5222" stroke="#928C86" stroke-width="1.5" stroke-linecap="square" stroke-linejoin="round"/>
<path d="M106.89 106.946C113.371 106.946 118.624 101.693 118.624 95.2125C118.624 88.7321 113.371 83.4788 106.89 83.4788C100.41 83.4788 95.1567 88.7321 95.1567 95.2125C95.1567 101.693 100.41 106.946 106.89 106.946Z" stroke="#928C86" stroke-width="1.5" stroke-linecap="round" stroke-linejoin="round"/>
<path d="M73.8555 24.0013V24.0013C73.8555 21.8169 75.6263 20.0461 77.8107 20.0461H100.663" stroke="#928C86" stroke-width="1.5"/>
<path d="M82.2057 23.1223L77.811 24.8802L82.2057 26.638L77.811 28.3959" stroke="#928C86" stroke-width="1.5" stroke-linecap="square"/>
<path d="M15.5916 98.052C15.5916 98.052 17.6659 104.934 13.6667 108.542" stroke="#928C86" stroke-width="1.5" stroke-linecap="square" stroke-linejoin="round"/>
<path d="M146.368 13.8946C146.368 12.681 145.384 11.6973 144.17 11.6973C142.957 11.6973 141.973 12.681 141.973 13.8946" stroke="#928C86" stroke-width="1.5"/>
<rect x="171.667" y="33.6973" width="30" height="6" fill="#00FA9A"/>
<path d="M173.667 83.6973L187.167 39.1973" stroke="#2F2F2F" stroke-width="1.5" stroke-linecap="square"/>
<path d="M159.667 42.6973L174.667 42.6973" stroke="#2F2F2F" stroke-width="1.5" stroke-linecap="square" stroke-linejoin="round"/>
<path d="M171.667 31.6973V39.6973H201.667V31.6973" stroke="#2F2F2F" stroke-width="1.5"/>
<path d="M218.167 63.6973L221.75 66.9821L226.061 64.7365L228.671 68.8368L233.417 67.7835L234.877 72.4197L239.734 72.6305L239.944 77.4868L244.581 78.9473L243.527 83.6926L247.627 86.3033L245.382 90.6143L248.667 94.1973L245.382 97.7802L247.627 102.091L243.527 104.702L244.581 109.447L239.944 110.908L239.734 115.764L234.877 115.975L233.417 120.611L228.671 119.558L226.061 123.658L221.75 121.412L218.167 124.697L214.584 121.412L210.273 123.658L207.662 119.558L202.917 120.611L201.456 115.975L196.6 115.764L196.389 110.908L191.753 109.447L192.806 104.702L188.706 102.091L190.952 97.7802L187.667 94.1973L190.952 90.6143L188.706 86.3033L192.806 83.6926L191.753 78.9473L196.389 77.4868L196.6 72.6305L201.456 72.4197L202.917 67.7835L207.662 68.8368L210.273 64.7365L214.584 66.9821L218.167 63.6973Z" fill="#00FA9A"/>
<path d="M209.262 87.9107C210.487 86.9014 211.659 85.3875 211.659 83.6573C211.659 81.062 209.622 79.44 206.793 79.44C203.188 79.44 201.782 81.5847 201.782 83.8195H205.261C205.261 82.8823 205.747 82.3957 206.703 82.3957C207.459 82.3957 208.108 82.8102 208.108 83.5311C208.108 84.4683 207.459 85.1532 206.504 86.0003L201.927 90.0914L202.233 92.2542H212.217V89.2984H209.857C209.784 89.2984 208.09 89.3164 207.333 89.4246L209.262 87.9107ZM225.042 85.9462C225.042 82.3416 222.79 79.44 219.203 79.44C215.581 79.44 213.418 82.3416 213.418 85.9462C213.418 89.5327 215.581 92.4524 219.203 92.4524C222.79 92.4524 225.042 89.5327 225.042 85.9462ZM221.42 85.9462C221.42 87.9647 220.555 89.4967 219.203 89.4967C217.851 89.4967 217.04 87.9647 217.04 85.9462C217.04 83.8916 217.851 82.3957 219.203 82.3957C220.555 82.3957 221.42 83.8916 221.42 85.9462ZM228.964 92.2542H230.284L234.576 84.4905H233.279L228.964 92.2542ZM225.981 86.5756C225.981 87.8178 227.012 88.7827 228.366 88.7827C229.741 88.7827 230.75 87.8178 230.75 86.5756C230.75 85.3334 229.741 84.3685 228.366 84.3685C227.012 84.3685 225.981 85.3334 225.981 86.5756ZM227.589 86.5645C227.589 86.1098 227.944 85.7327 228.377 85.7327C228.809 85.7327 229.164 86.1098 229.164 86.5645C229.164 87.0192 228.809 87.3963 228.377 87.3963C227.944 87.3963 227.589 87.0192 227.589 86.5645ZM232.935 90.1691C232.935 91.4112 233.966 92.3762 235.32 92.3762C236.695 92.3762 237.704 91.4112 237.704 90.1691C237.704 88.9269 236.695 87.962 235.32 87.962C233.966 87.962 232.935 88.9269 232.935 90.1691ZM234.543 90.158C234.543 89.7032 234.898 89.3262 235.331 89.3262C235.763 89.3262 236.118 89.7032 236.118 90.158C236.118 90.6127 235.763 90.9898 235.331 90.9898C234.898 90.9898 234.543 90.6127 234.543 90.158ZM207.945 108.437C211.871 108.437 214.233 105.676 214.233 102.431C214.233 99.1873 211.871 96.4257 207.945 96.4257C204.019 96.4257 201.656 99.1873 201.656 102.431C201.656 105.676 204.019 108.437 207.945 108.437ZM207.945 105.443C206.165 105.443 205.15 104.062 205.15 102.431C205.15 100.801 206.165 99.4202 207.945 99.4202C209.725 99.4202 210.74 100.801 210.74 102.431C210.74 104.062 209.725 105.443 207.945 105.443ZM219.168 108.254V103.779H223.443V101.117H219.168V99.6032H224.076V96.6087H215.674V108.254H219.168ZM229.046 108.254V103.779H233.321V101.117H229.046V99.6032H233.953V96.6087H225.552V108.254H229.046Z" fill="#2F2F2F"/>
<path d="M47.1667 29.6973L50.7497 32.9821L55.0607 30.7365L57.6714 34.8368L62.4167 33.7835L63.8773 38.4197L68.7335 38.6305L68.9443 43.4868L73.5805 44.9473L72.5272 49.6926L76.6275 52.3033L74.3819 56.6143L77.6667 60.1973L74.3819 63.7802L76.6275 68.0912L72.5272 70.7019L73.5805 75.4473L68.9443 76.9078L68.7335 81.764L63.8773 81.9748L62.4167 86.611L57.6714 85.5578L55.0607 89.658L50.7497 87.4124L47.1667 90.6973L43.5838 87.4124L39.2728 89.658L36.6621 85.5578L31.9167 86.611L30.4562 81.9748L25.6 81.764L25.3892 76.9078L20.753 75.4473L21.8063 70.7019L17.706 68.0912L19.9516 63.7802L16.6667 60.1973L19.9516 56.6143L17.706 52.3033L21.8063 49.6926L20.753 44.9473L25.3892 43.4868L25.6 38.6305L30.4562 38.4197L31.9167 33.7835L36.6621 34.8368L39.2728 30.7365L43.5838 32.9821L47.1667 29.6973Z" fill="#00FA9A"/>
<path d="M33.9363 52.577C34.513 52.3607 35.0537 52.2706 35.5764 52.2706C36.6217 52.2706 37.4327 52.7933 37.4327 53.7845C37.4327 54.7577 36.6577 55.5147 35.0537 55.5147C34.441 55.5147 33.5398 55.4066 32.098 54.5234L30.4579 56.7943C31.8277 58.0559 33.72 58.4524 35.4142 58.4524C39.1809 58.4524 41.1094 56.4699 41.1094 53.9287C41.1094 51.5857 39.253 50.3962 37.2525 50.3962L40.6047 47.7109V45.6382H31.287V48.594H35.7566L32.7829 50.7747L33.9363 52.577ZM53.9897 51.9462C53.9897 48.3416 51.7369 45.44 48.1503 45.44C44.5278 45.44 42.365 48.3416 42.365 51.9462C42.365 55.5327 44.5278 58.4524 48.1503 58.4524C51.7369 58.4524 53.9897 55.5327 53.9897 51.9462ZM50.3671 51.9462C50.3671 53.9647 49.502 55.4967 48.1503 55.4967C46.7986 55.4967 45.9876 53.9647 45.9876 51.9462C45.9876 49.8916 46.7986 48.3957 48.1503 48.3957C49.502 48.3957 50.3671 49.8916 50.3671 51.9462ZM57.9117 58.2542H59.2315L63.5237 50.4905H62.226L57.9117 58.2542ZM54.9282 52.5756C54.9282 53.8178 55.9597 54.7827 57.3128 54.7827C58.688 54.7827 59.6973 53.8178 59.6973 52.5756C59.6973 51.3334 58.688 50.3685 57.3128 50.3685C55.9597 50.3685 54.9282 51.3334 54.9282 52.5756ZM56.5364 52.5645C56.5364 52.1098 56.8913 51.7327 57.3239 51.7327C57.7564 51.7327 58.1113 52.1098 58.1113 52.5645C58.1113 53.0192 57.7564 53.3963 57.3239 53.3963C56.8913 53.3963 56.5364 53.0192 56.5364 52.5645ZM61.8822 56.1691C61.8822 57.4112 62.9137 58.3762 64.2668 58.3762C65.642 58.3762 66.6513 57.4112 66.6513 56.1691C66.6513 54.9269 65.642 53.962 64.2668 53.962C62.9137 53.962 61.8822 54.9269 61.8822 56.1691ZM63.4904 56.158C63.4904 55.7032 63.8453 55.3262 64.2779 55.3262C64.7104 55.3262 65.0653 55.7032 65.0653 56.158C65.0653 56.6127 64.7104 56.9898 64.2779 56.9898C63.8453 56.9898 63.4904 56.6127 63.4904 56.158ZM36.9447 74.4372C40.8709 74.4372 43.2333 71.6755 43.2333 68.4314C43.2333 65.1873 40.8709 62.4257 36.9447 62.4257C33.0185 62.4257 30.6562 65.1873 30.6562 68.4314C30.6562 71.6755 33.0185 74.4372 36.9447 74.4372ZM36.9447 71.4426C35.1646 71.4426 34.1498 70.0618 34.1498 68.4314C34.1498 66.8011 35.1646 65.4202 36.9447 65.4202C38.7248 65.4202 39.7396 66.8011 39.7396 68.4314C39.7396 70.0618 38.7248 71.4426 36.9447 71.4426ZM48.1679 74.2542V69.779H52.4434V67.1171H48.1679V65.6032H53.0756V62.6087H44.6743V74.2542H48.1679ZM58.0457 74.2542V69.779H62.3213V67.1171H58.0457V65.6032H62.9535V62.6087H54.5521V74.2542H58.0457Z" fill="#2F2F2F"/>
<rect x="88.3293" y="81.2861" width="16.5" height="4.5" rx="2.25" transform="rotate(-130 88.3293 81.2861)" fill="#00FA9A" stroke="#2F2F2F" stroke-width="1.5"/>
<path d="M90.0945 75.4276C93.9247 72.2137 102.351 65.143 105.415 62.5718C108.48 60.0007 107.103 56.8044 106.032 55.5277" stroke="#2F2F2F" stroke-width="1.5"/>
</svg>
