<svg width="277" height="134" viewBox="0 0 277 134" fill="none" xmlns="http://www.w3.org/2000/svg">
<g clip-path="url(#clip0_207_1228)">
<path d="M153.436 107.021L146.431 86.1726" stroke="#2F2F2F" stroke-width="1.5" stroke-linecap="square" stroke-linejoin="round"/>
<path d="M114.337 132.468L96.4504 75.6096M101.566 74.0012L120.072 132.832" stroke="#2F2F2F" stroke-width="1.5" stroke-linecap="square" stroke-linejoin="round"/>
<path d="M96.9343 84.8678L105.284 82.231" stroke="#2F2F2F" stroke-width="1.5" stroke-linecap="square" stroke-linejoin="round"/>
<path d="M190.514 177.641C200.936 177.688 210.95 173.594 218.354 166.26C225.759 158.925 229.947 148.951 230 138.529C230.048 128.106 225.954 118.092 218.619 110.687C211.285 103.282 201.31 99.0938 190.887 99.0427C180.465 98.9947 170.45 103.088 163.046 110.423C155.641 117.758 151.452 127.733 151.401 138.155C151.356 148.577 155.45 158.59 162.784 165.994C170.118 173.398 180.092 177.588 190.514 177.641V177.641Z" stroke="#2F2F2F" stroke-width="1.5" stroke-linecap="round" stroke-linejoin="round"/>
<path d="M185.736 94.7144C175.056 95.9301 165.193 101.022 158.016 109.024C150.84 117.027 146.849 127.385 146.799 138.134C146.751 145.759 148.701 153.263 152.455 159.9" stroke="#2F2F2F" stroke-width="1.5" stroke-linecap="square" stroke-linejoin="round"/>
<path d="M190.536 172.45C199.585 172.491 208.28 168.935 214.709 162.565C221.137 156.196 224.772 147.533 224.814 138.484C224.835 134.002 223.973 129.561 222.277 125.413C220.581 121.265 218.085 117.492 214.931 114.309C211.777 111.126 208.026 108.595 203.894 106.862C199.762 105.128 195.329 104.225 190.848 104.205C186.366 104.184 181.925 105.046 177.777 106.742C173.629 108.438 169.856 110.934 166.673 114.088C163.49 117.242 160.959 120.993 159.226 125.125C157.492 129.257 156.589 133.69 156.569 138.171C156.548 142.653 157.41 147.094 159.105 151.242C160.801 155.391 163.297 159.164 166.451 162.347C169.605 165.531 173.356 168.061 177.488 169.795C181.621 171.528 186.054 172.43 190.536 172.45Z" stroke="#2F2F2F" stroke-width="1.5" stroke-linecap="round" stroke-linejoin="round"/>
<path d="M108.056 136.905C107.825 126.668 103.609 116.925 96.3042 109.75C88.9996 102.574 79.1834 98.5315 68.9439 98.4826C58.5212 98.4335 48.5059 102.527 41.101 109.862C33.696 117.196 29.5079 127.172 29.4579 137.595C29.4123 148.017 33.5065 158.03 40.8407 165.434C48.1748 172.838 58.1488 177.028 68.5704 177.081C77.0184 177.123 85.2554 174.444 92.0622 169.44C98.869 164.436 103.901 157.106 106.382 149.03" stroke="#2F2F2F" stroke-width="1.5" stroke-linecap="round" stroke-linejoin="round"/>
<path d="M68.6012 171.901C77.6509 171.942 86.3462 168.386 92.7745 162.017C99.2029 155.647 102.838 146.984 102.88 137.935C102.9 133.454 102.038 129.012 100.343 124.864C98.6468 120.716 96.1506 116.943 92.9964 113.76C89.8423 110.577 86.092 108.046 81.9598 106.313C77.8276 104.579 73.3943 103.677 68.9132 103.656C64.4325 103.636 59.9916 104.497 55.8439 106.193C51.6963 107.888 47.9233 110.384 44.7402 113.538C41.5572 116.692 39.0265 120.441 37.2926 124.573C35.5587 128.705 34.6556 133.138 34.6349 137.618C34.6141 142.1 35.4761 146.541 37.1719 150.689C38.8676 154.837 41.3637 158.611 44.5178 161.794C47.6718 164.978 51.4221 167.509 55.5543 169.243C59.6866 170.977 64.1199 171.88 68.6012 171.901V171.901Z" stroke="#2F2F2F" stroke-width="1.5" stroke-linecap="round" stroke-linejoin="round"/>
<path d="M103.64 111.125C99.5679 105.784 94.3221 101.451 88.3083 98.4609C82.2945 95.4707 75.6737 93.9034 68.9575 93.8801C57.3169 93.8275 46.1321 98.4011 37.8634 106.595C29.5947 114.788 24.9194 125.931 24.8659 137.572C24.8577 139.511 24.9766 141.449 25.2219 143.373" stroke="#2F2F2F" stroke-width="1.5" stroke-linecap="square"/>
<path d="M100.889 87.7222L70.7241 134.178" stroke="#2F2F2F" stroke-width="1.5" stroke-linecap="square" stroke-linejoin="round"/>
<path d="M126.659 136.321L169.665 89.4832" stroke="#2F2F2F" stroke-width="1.5" stroke-linecap="square"/>
<path d="M168.127 85.9988H103.965" stroke="#2F2F2F" stroke-width="1.5" stroke-linecap="square" stroke-linejoin="round"/>
<path d="M176.259 80.6534C171.689 79.9283 168.028 78.5264 168.129 75.8896C168.331 70.8928 178.017 71.7366 178.017 71.7366L176.259 80.6534Z" stroke="#2F2F2F" stroke-width="1.5" stroke-linecap="round"/>
<path d="M162.819 81.4907H173.085" stroke="#2F2F2F" stroke-width="1.5" stroke-linecap="square" stroke-linejoin="round"/>
<path d="M148.131 64.5908L169.942 64.6875C167.568 65.5459 165.623 67.299 164.525 69.5721C163.426 71.8453 163.26 74.4581 164.062 76.852L176.02 112.699C178.015 118.692 180.858 124.369 184.462 129.557L190.685 138.522" stroke="#2F2F2F" stroke-width="1.5" stroke-linecap="square" stroke-linejoin="round"/>
<path d="M84.1885 73.0013V73.0013C84.1885 70.8169 85.9593 69.0461 88.1437 69.0461H110.996" stroke="#2F2F2F" stroke-width="1.5"/>
<path d="M92.5387 72.1223L88.144 73.8802L92.5387 75.638L88.144 77.3959" stroke="#2F2F2F" stroke-width="1.5" stroke-linecap="square"/>
<path d="M156.701 62.8946C156.701 61.681 155.717 60.6973 154.503 60.6973C153.29 60.6973 152.306 61.681 152.306 62.8946" stroke="#2F2F2F" stroke-width="1.5"/>
</g>
<rect x="74.75" y="15.4473" width="162.5" height="112.5" stroke="#2F2F2F" stroke-width="1.5"/>
<rect x="192.75" y="23.4473" width="36.5" height="10.5" stroke="#928C86" stroke-width="1.5"/>
<rect x="213.75" y="41.4473" width="15.5" height="10.5" stroke="#928C86" stroke-width="1.5"/>
<rect x="249.75" y="15.4473" width="9.5" height="112.5" stroke="#D2C9BD" stroke-width="1.5"/>
<path d="M237 15.6973H272V127.697H237" stroke="#2F2F2F" stroke-width="1.5"/>
<path d="M29 15.6973H10" stroke="#D2C9BD" stroke-width="1.5" stroke-linecap="square" stroke-linejoin="round"/>
<path d="M69 15.6973H37" stroke="#D2C9BD" stroke-width="1.5" stroke-linecap="square" stroke-linejoin="round"/>
<path d="M69 59.6973L50 59.6973" stroke="#D2C9BD" stroke-width="1.5" stroke-linecap="square" stroke-linejoin="round"/>
<path d="M55 30.6973L25 30.6973" stroke="#D2C9BD" stroke-width="1.5" stroke-linecap="square" stroke-linejoin="round"/>
<path d="M69 30.6973H60" stroke="#D2C9BD" stroke-width="1.5" stroke-linecap="square" stroke-linejoin="round"/>
<path d="M69 45.6973L36 45.6973" stroke="#D2C9BD" stroke-width="1.5" stroke-linecap="square" stroke-linejoin="round"/>
<path d="M50.5 68.6973L54.0829 71.9821L58.394 69.7365L61.0047 73.8368L65.75 72.7835L67.2105 77.4197L72.0668 77.6305L72.2775 82.4868L76.9138 83.9473L75.8605 88.6926L79.9607 91.3033L77.7152 95.6143L81 99.1973L77.7152 102.78L79.9607 107.091L75.8605 109.702L76.9138 114.447L72.2775 115.908L72.0668 120.764L67.2105 120.975L65.75 125.611L61.0047 124.558L58.394 128.658L54.0829 126.412L50.5 129.697L46.9171 126.412L42.606 128.658L39.9953 124.558L35.25 125.611L33.7895 120.975L28.9332 120.764L28.7225 115.908L24.0862 114.447L25.1395 109.702L21.0393 107.091L23.2848 102.78L20 99.1973L23.2848 95.6143L21.0393 91.3033L25.1395 88.6926L24.0862 83.9473L28.7225 82.4868L28.9332 77.6305L33.7895 77.4197L35.25 72.7835L39.9953 73.8368L42.606 69.7365L46.9171 71.9821L50.5 68.6973Z" fill="#00FA9A"/>
<path d="M37.2685 104.652V100.886H40.8665V98.6459H37.2685V97.3719H41.3985V94.8519H34.3285V104.652H37.2685ZM46.267 101.348C46.379 102.356 46.855 104.806 49.403 104.806C50.397 104.806 51.251 104.54 51.965 104.05L51.069 102.188C50.705 102.426 50.341 102.524 50.005 102.524C49.431 102.524 48.983 102.09 48.857 101.166C50.145 100.76 50.887 99.7099 50.887 98.2679C50.887 96.3919 49.669 94.8519 47.387 94.8519H42.627V104.652H45.567V101.348H46.267ZM45.567 97.3719H47.079C47.583 97.3719 47.947 97.8479 47.947 98.3659C47.947 98.8419 47.583 99.3179 47.079 99.3179H45.567V97.3719ZM59.8021 104.652V102.132H55.6161V100.886H59.2701V98.6459H55.6161V97.3719H59.8021V94.8519H52.6761V104.652H59.8021ZM68.347 104.652V102.132H64.161V100.886H67.815V98.6459H64.161V97.3719H68.347V94.8519H61.221V104.652H68.347Z" fill="#2F2F2F"/>
<defs>
<clipPath id="clip0_207_1228">
<rect width="162" height="71" fill="white" transform="translate(75 56.6973)"/>
</clipPath>
</defs>
</svg>
